<svg baseProfile="full" height="93.73691838234663" version="1.1" width="122.08492182195187" xmlns="http://www.w3.org/2000/svg" xmlns:ev="http://www.w3.org/2001/xml-events" xmlns:xlink="http://www.w3.org/1999/xlink"><defs/><rect fill="white" height="93.73691838234663" width="122.08492182195187" x="0" y="0"/><path d="M26.349906027317047,33.36940869688988 m4.049714803695679,0.0 l7.559467554092407,-6.479543447494507 2.6998096704483032,0.0 l2.6998096704483032,1.6198858618736267 3.5097527503967285,0.0 m-20.518555641174316,5.129638910293579 l-1.3499048352241516,1.8898668885231018 0.0,2.9697906970977783 l1.0799239575862885,1.0799239575862885 4.319695830345154,1.3499048352241516 l3.7797337770462036,0.5399619787931442 3.2397717237472534,1.3499048352241516 l4.85965758562088,0.8099429309368134 2.9697906970977783,1.0799239575862885 l1.0799239575862885,1.6198858618736267 0.5399619787931442,2.6998096704483032 l0.0,2.9697906970977783 1.0799239575862885,1.8898668885231018 l2.159847915172577,1.3499048352241516 3.7797337770462036,1.0799239575862885 l12.959086894989014,0.0 8.099429607391357,0.5399619787931442 l3.5097527503967285,-0.5399619787931442 4.049714803695679,0.8099429309368134 l5.6696003675460815,0.0 4.589676558971405,-1.0799239575862885 l1.6198858618736267,-1.3499048352241516 1.8898668885231018,-4.589676558971405 l0.8099429309368134,-5.3996193408966064 0.0,-4.319695830345154 l-1.3499048352241516,-4.049714803695679 -1.8898668885231018,-1.8898668885231018 l-7.559467554092407,-1.8898668885231018 -4.589676558971405,-2.159847915172577 l-3.7797337770462036,-0.5399619787931442 -9.17935311794281,0.5399619787931442 l-2.6998096704483032,0.5399619787931442 -1.0799239575862885,1.0799239575862885 l-1.6198858618736267,0.2699809893965721 -2.159847915172577,1.0799239575862885 l-2.6998096704483032,0.0 -6.749524474143982,-1.3499048352241516 l-4.319695830345154,-1.8898668885231018 -0.8099429309368134,-0.8099429309368134 l0.2699809893965721,-0.2699809893965721 m4.049714803695679,26.458137035369873 l-1.3499048352241516,3.2397717237472534 -1.8898668885231018,8.099429607391357 l1.0799239575862885,1.6198858618736267 1.3499048352241516,0.2699809893965721 l1.6198858618736267,0.0 1.3499048352241516,-2.9697906970977783 l2.42982879281044,-9.449334144592285 m1.6198858618736267,-0.8099429309368134 l-2.9697906970977783,5.3996193408966064 0.5399619787931442,2.9697906970977783 l0.5399619787931442,1.0799239575862885 1.3499048352241516,0.8099429309368134 l1.8898668885231018,0.0 0.8099429309368134,-0.8099429309368134 l1.0799239575862885,-2.6998096704483032 1.3499048352241516,-6.749524474143982 m22.4084210395813,1.3499048352241516 l-2.6998096704483032,3.5097527503967285 -2.6998096704483032,5.6696003675460815 l-0.2699809893965721,1.8898668885231018 1.6198858618736267,0.5399619787931442 l5.129638910293579,-0.5399619787931442 1.8898668885231018,-5.6696003675460815 l0.8099429309368134,-4.85965758562088 m1.0799239575862885,-0.2699809893965721 l-0.8099429309368134,0.8099429309368134 -0.8099429309368134,1.8898668885231018 l-0.2699809893965721,2.9697906970977783 0.5399619787931442,1.0799239575862885 l3.5097527503967285,0.8099429309368134 0.8099429309368134,-5.3996193408966064 l1.0799239575862885,-2.42982879281044 m-50.21646022796631,-26.998097896575928 l2.159847915172577,-3.7797337770462036 1.6198858618736267,-1.0799239575862885 l0.5399619787931442,0.2699809893965721 -0.2699809893965721,2.42982879281044 l-1.3499048352241516,3.2397717237472534 -1.3499048352241516,0.2699809893965721 l-0.8099429309368134,-0.8099429309368134 -0.5399619787931442,0.0 l0.8099429309368134,0.0 1.8898668885231018,-1.6198858618736267 l0.8099429309368134,-2.6998096704483032 -1.3499048352241516,2.6998096704483032 l0.0,1.3499048352241516 0.5399619787931442,0.0 l0.2699809893965721,0.5399619787931442 m-12.419124841690063,-0.2699809893965721 l0.5399619787931442,0.8099429309368134 1.6198858618736267,0.2699809893965721 l2.42982879281044,0.0 0.8099429309368134,-0.8099429309368134 l0.8099429309368134,0.0 m-0.5399619787931442,-0.2699809893965721 l0.0,3.7797337770462036 -3.2397717237472534,1.3499048352241516 l-0.8099429309368134,-0.2699809893965721 -0.8099429309368134,1.6198858618736267 l-2.42982879281044,2.159847915172577 -2.9697906970977783,0.8099429309368134 m-0.5399619787931442,-4.589676558971405 l-0.8099429309368134,0.0 -0.8099429309368134,1.3499048352241516 l0.0,1.0799239575862885 1.3499048352241516,0.2699809893965721 l0.5399619787931442,-0.8099429309368134 0.0,-1.8898668885231018 l-0.8099429309368134,0.0 -0.8099429309368134,1.8898668885231018 l0.0,0.8099429309368134 0.8099429309368134,0.8099429309368134 l0.0,-4.049714803695679 -1.0799239575862885,2.9697906970977783 l-0.5399619787931442,0.0 0.8099429309368134,-4.319695830345154 l-1.0799239575862885,3.5097527503967285 1.8898668885231018,1.3499048352241516 l2.159847915172577,0.2699809893965721 -2.6998096704483032,0.0 l-0.5399619787931442,-0.5399619787931442 0.0,1.3499048352241516 l2.6998096704483032,-0.8099429309368134 -3.2397717237472534,-0.5399619787931442 l0.8099429309368134,-0.2699809893965721 3.2397717237472534,-2.9697906970977783 l0.2699809893965721,-0.8099429309368134 -2.42982879281044,1.8898668885231018 l0.2699809893965721,1.3499048352241516 0.5399619787931442,-0.8099429309368134 l0.0,-1.0799239575862885 -0.8099429309368134,-0.5399619787931442 l1.6198858618736267,4.049714803695679 1.0799239575862885,-1.3499048352241516 l-0.2699809893965721,-4.589676558971405 -1.3499048352241516,3.7797337770462036 l1.3499048352241516,1.3499048352241516 0.2699809893965721,-4.319695830345154 l0.0,3.7797337770462036 0.5399619787931442,1.0799239575862885 l1.3499048352241516,-3.2397717237472534 0.0,-1.8898668885231018 l-0.8099429309368134,0.8099429309368134 -1.0799239575862885,2.9697906970977783 l0.8099429309368134,-0.2699809893965721 0.8099429309368134,-1.6198858618736267 l0.5399619787931442,-1.3499048352241516 0.0,-1.3499048352241516 l-0.2699809893965721,0.2699809893965721 -0.8099429309368134,1.6198858618736267 l0.2699809893965721,0.8099429309368134 m4.319695830345154,-1.8898668885231018 l0.5399619787931442,0.0 m-7.289486527442932,0.8099429309368134 l-0.2699809893965721,3.2397717237472534 -0.8099429309368134,0.2699809893965721 l-0.2699809893965721,-2.42982879281044 0.5399619787931442,-0.8099429309368134 l0.5399619787931442,0.8099429309368134 -0.5399619787931442,4.049714803695679 l2.9697906970977783,-4.319695830345154 1.6198858618736267,-1.3499048352241516 l0.5399619787931442,-1.6198858618736267 -1.0799239575862885,4.85965758562088 l1.6198858618736267,-3.2397717237472534 0.0,-1.0799239575862885 l0.0,2.6998096704483032 m15.118935108184814,24.028308391571045 l4.319695830345154,0.0 -1.0799239575862885,0.2699809893965721 l-1.6198858618736267,6.209562420845032 -0.5399619787931442,1.0799239575862885 l-0.2699809893965721,-0.5399619787931442 m0.2699809893965721,-5.3996193408966064 l0.2699809893965721,0.8099429309368134 -1.0799239575862885,2.42982879281044 l0.0,2.42982879281044 -0.8099429309368134,0.0 l1.3499048352241516,0.5399619787931442 0.8099429309368134,-1.0799239575862885 l0.2699809893965721,-3.2397717237472534 0.8099429309368134,-1.6198858618736267 m4.589676558971405,-3.7797337770462036 l-1.0799239575862885,3.2397717237472534 0.0,2.42982879281044 l1.3499048352241516,0.0 0.5399619787931442,0.5399619787931442 l-1.0799239575862885,0.2699809893965721 0.8099429309368134,0.0 l2.159847915172577,-4.049714803695679 -0.2699809893965721,-1.0799239575862885 l-1.0799239575862885,-0.2699809893965721 -0.2699809893965721,2.159847915172577 l1.0799239575862885,-1.8898668885231018 1.0799239575862885,-0.5399619787931442 l-0.2699809893965721,-0.2699809893965721 -0.2699809893965721,1.0799239575862885 l0.0,2.6998096704483032 -0.8099429309368134,1.6198858618736267 m-6.479543447494507,1.6198858618736267 l1.3499048352241516,-3.7797337770462036 m29.15794610977173,-1.3499048352241516 l2.6998096704483032,0.2699809893965721 -1.0799239575862885,2.42982879281044 l0.0,1.6198858618736267 -0.8099429309368134,1.3499048352241516 l-2.9697906970977783,0.2699809893965721 0.0,1.0799239575862885 l1.0799239575862885,-1.0799239575862885 1.3499048352241516,-5.3996193408966064 l-2.9697906970977783,4.319695830345154 0.2699809893965721,2.159847915172577 l3.5097527503967285,-0.2699809893965721 0.5399619787931442,-2.6998096704483032 l1.6198858618736267,-1.6198858618736267 " fill="none" stroke="black" stroke-width="1"/></svg>