<svg baseProfile="full" height="73.416795356477" version="1.1" width="102.70565357999658" xmlns="http://www.w3.org/2000/svg" xmlns:ev="http://www.w3.org/2001/xml-events" xmlns:xlink="http://www.w3.org/1999/xlink"><defs/><rect fill="white" height="73.416795356477" width="102.70565357999658" x="0" y="0"/><path d="M31.62315829200452,26.081020339540828 m1.5848711133003235,0.24835582822561264 l0.3158155456185341,0.9846759587526321 0.4375343397259712,0.0039484535227529705 l2.4117253720760345,-1.0813671350479126 2.58425235748291,0.0001136422451963881 l2.654156982898712,0.1704520545899868 2.7444949746131897,-0.8170589804649353 l2.1865326166152954,0.00014052746337256394 1.213061362504959,0.8952989429235458 l2.2400057315826416,-1.0300811380147934 2.4339838325977325,0.00027279505957267247 l1.3466954231262207,1.0021963715553284 2.56183922290802,-0.9701309353113174 l2.7881574630737305,0.0003028342871402856 1.3668566942214966,0.9119657427072525 l2.291964441537857,-0.7897710800170898 2.664845287799835,0.00029269916922203265 l1.359005868434906,0.9206187725067139 4.655441045761108,0.09056614711880684 l2.8970688581466675,1.715484857559204 1.808377206325531,1.8566809594631195 l1.4684496819972992,2.953721582889557 0.06735986564308405,3.412964344024658 l-0.4906320571899414,3.5575899481773376 -1.2525521218776703,2.9554951190948486 l-1.496756225824356,2.122040092945099 -2.06701323390007,1.8954230844974518 l-2.4822570383548737,1.3072007894515991 -2.3036862909793854,-0.3385566920042038 l-0.8675376325845718,-0.8451173454523087 -4.490216374397278,1.2019766867160797 l-3.6452484130859375,8.008830263861455e-05 -2.2026854753494263,-1.2312177568674088 l-2.8477129340171814,0.8467070013284683 -3.680225908756256,0.00020072633560630493 l-2.0615100860595703,-1.2604360282421112 -5.414890646934509,0.8567878603935242 l-2.1225938200950623,-1.0921376943588257 -5.085791349411011,0.262228287756443 l-1.8237218260765076,-1.2297724932432175 -1.7958125472068787,-1.364949345588684 l-1.3044776022434235,-1.4985668659210205 -1.0937777161598206,-1.6183559596538544 l-0.034652252215892076,-1.357600837945938 -0.9469375014305115,-1.7704853415489197 l-0.0002362498162256088,-2.2916822135448456 0.8122827112674713,-0.8865892142057419 l-0.5626044049859047,-1.7836225032806396 -0.00021321236999938264,-1.9053763151168823 l0.8754342794418335,-0.8337984979152679 0.5383108556270599,0.00021306657799868844 m3.0333706736564636,1.6285857558250427 l-0.1040062215179205,-0.8067936450242996 0.010083327069878578,0.0005750154014094733 l0.3009084239602089,0.871884673833847 1.2883549928665161,0.0003556429874151945 l0.2516425587236881,-0.1696578785777092 0.7038378715515137,-0.6766125559806824 l1.6268439590930939,0.00026802095817402005 0.7315412163734436,1.3496528565883636 l2.6107850670814514,0.00038586294976994395 1.1411356180906296,1.2268059700727463 m-3.3269917964935303,-1.3113155961036682 l0.7528993487358093,-0.6880655139684677 1.760103553533554,0.00015237565094139427 l0.24877700954675674,0.7030076533555984 2.866935133934021,0.7700545340776443 l0.6659438461065292,0.879223421216011 m-0.011458966182544827,-0.4491996020078659 l2.3516762256622314,-1.4803339540958405 3.0460137128829956,-0.20177222788333893 l1.7140518128871918,1.1220376193523407 0.24798352271318436,0.9948485344648361 l4.017259180545807,0.3501404821872711 1.3155639171600342,0.8634496480226517 m0.0609731487929821,-0.021905440371483564 l2.2284401953220367,-1.7421422898769379 2.7874979376792908,0.0002458151902828831 l1.3410978019237518,1.3373082876205444 2.5994709134101868,1.6945137083530426 l1.760345697402954,1.2595334649085999 m-2.441480904817581,0.4538658633828163 l1.4823542535305023,-1.5909408032894135 3.0442243814468384,-0.8492612093687057 l2.5541728734970093,0.000484874180983752 1.0330844670534134,1.3387970626354218 m-29.520907402038574,5.6948322057724 l2.6000285148620605,1.711825579404831 1.9399598240852356,0.5942214652895927 l1.785927265882492,-0.4025689885020256 1.1521977931261063,-1.3630437850952148 m3.7812361121177673,-3.3022865653038025 l1.8630209565162659,1.7660170793533325 1.4768552780151367,0.593857616186142 l1.4107103645801544,3.871894023177447e-06 m5.6618064641952515,-4.144416153430939 l2.7231481671333313,1.250302642583847 1.11294724047184,0.00014110807569522876 m-26.534292697906494,0.6994655728340149 l1.6176354885101318,1.7419348657131195 1.5874646604061127,0.8825930953025818 l1.6958843171596527,0.0006000585563015193 1.1965221911668777,-1.107969656586647 m2.5498348474502563,-3.3332499861717224 l1.1584388464689255,2.488071769475937 1.1911582946777344,1.2001578509807587 m15.469300746917725,-2.0443855226039886 l1.4276447892189026,3.334650993347168 1.3581855595111847,1.3925637304782867 l1.0303931683301926,0.0006140770710771903 m-0.44341035187244415,-4.139117896556854 l1.7034859955310822,2.4047495424747467 1.5092505514621735,1.090923547744751 m-36.69637680053711,-16.243655681610107 l-0.6003942713141441,-1.2468087673187256 -2.364087849855423,-1.4912644028663635 l-4.612132012844086,-0.14527692459523678 -1.5567304193973541,0.8815931528806686 l-1.0000504553318024,1.5204815566539764 -2.436610758304596,1.4366596937179565 l-1.4255666732788086,2.7245867252349854 -0.36385100334882736,3.727938234806061 l1.1313961446285248,1.5406641364097595 2.043185830116272,1.1587831377983093 l5.403194427490234,0.00019926083041355014 2.002458870410919,-0.9438503533601761 m-5.702407360076904,-8.334753513336182 l0.6843187659978867,0.0003579085387173109 " fill="none" stroke="black" stroke-width="1"/></svg>