<svg baseProfile="full" height="115.62246507056898" version="1.1" width="114.4986706112303" xmlns="http://www.w3.org/2000/svg" xmlns:ev="http://www.w3.org/2001/xml-events" xmlns:xlink="http://www.w3.org/1999/xlink"><defs/><rect fill="white" height="115.62246507056898" width="114.4986706112303" x="0" y="0"/><path d="M36.3473566587345,47.85542170820008 m-0.5099207535386086,-1.5084341168403625 l-0.15463228337466717,-1.3727125525474548 -0.9689732640981674,-2.4182042479515076 l-1.3533292710781097,-2.807150185108185 -1.6063179075717926,-2.8882625699043274 l-3.6057049036026,-6.298300623893738 -1.6048610210418701,-2.461216449737549 l-0.8810964971780777,-1.249820962548256 -0.6032391265034676,1.335122436285019 l-0.0002485991717549041,5.659888386726379 -0.059033031575381756,4.667961299419403 l0.22881358861923218,8.485167026519775 0.9231637418270111,4.996265769004822 l1.5306463837623596,4.129221439361572 1.8408860266208649,3.3911198377609253 l2.2001802921295166,2.959524691104889 2.969478666782379,3.0244895815849304 l4.04042661190033,2.9922935366630554 4.751887619495392,2.295796722173691 l5.192906856536865,1.6963866353034973 5.41782021522522,0.9008174389600754 l6.673209071159363,7.820012797310483e-05 2.511289417743683,-0.8515577763319016 l3.3984756469726562,-2.249094992876053 3.4678804874420166,-3.7710678577423096 l2.641649544239044,-4.752823114395142 1.9725875556468964,-5.512936115264893 l1.6450048983097076,-9.93780255317688 -8.952172834142402e-06,-7.836629748344421 l-1.1083713918924332,-8.723297715187073 -1.4516088366508484,-4.750243127346039 l-1.248948872089386,1.2304111570119858 -2.0473647117614746,4.8585569858551025 l-3.735930919647217,9.744271636009216 -2.099481374025345,3.270730674266815 l-10.821757316589355,0.24909183382987976 -11.05984091758728,-0.1467907801270485 l-6.319125294685364,-2.2761291802453343e-05 m8.931092023849487,16.014206409454346 l-4.735338091850281,2.204107493162155 -7.504794597625732,4.184485971927643 l-7.266626358032227,4.197294116020203 m20.58342933654785,-8.000151515007019 l-4.055091142654419,4.15958434343338 -7.356981039047241,7.146212458610535 l-5.561504364013672,5.91668426990509 m19.56051468849182,-16.289753913879395 l-4.694286584854126,7.504168748855591 -5.494869947433472,8.483745455741882 l-2.020147144794464,3.156883418560028 m24.928925037384033,-23.342623710632324 l1.7198944091796875,0.25925328955054283 8.395443558692932,1.7477202415466309 l10.367029905319214,2.542310357093811 2.3504848778247833,0.8892231434583664 l4.83762800693512,2.3024982213974 m-26.69658899307251,-3.7481701374053955 l3.7836042046546936,1.9030866026878357 8.837447166442871,4.912836849689484 l5.477708578109741,3.790425956249237 6.70493483543396,4.606107771396637 l1.28067746758461,1.2179161608219147 m-27.31682538986206,-13.49210500717163 l2.79244601726532,3.1193405389785767 4.4475772976875305,4.298912882804871 l4.864992201328278,4.753424823284149 4.189959168434143,4.414029121398926 l3.3032959699630737,3.900475800037384 2.820919454097748,3.664086163043976 m-37.144620418548584,-34.528725147247314 l-1.2626829743385315,-0.23321464657783508 -0.9035167098045349,0.9526377171278 l-0.41903451085090637,1.3097748160362244 -0.00012526405953394715,2.047860026359558 l1.2268983572721481,0.8249194920063019 2.5715073943138123,-6.107682111178292e-05 l1.312720775604248,-1.3394200801849365 0.2805504761636257,-1.2963254749774933 l-0.00014353128790389746,-1.852535456418991 -0.8582860231399536,-1.011022999882698 l-1.585545837879181,-0.00021035635654698126 -0.754634365439415,0.9805317223072052 m16.071081161499023,0.5501206964254379 l-1.6520753502845764,1.1003389209508896 -0.4621967300772667,2.0016132295131683 l-0.00010457402822794393,1.6312851011753082 1.3036656379699707,0.6992171704769135 l2.069813907146454,4.393516519485274e-05 1.0683762282133102,-1.5860766172409058 l1.3878517393095535e-05,-2.41347998380661 -1.5056690573692322,-0.9053640067577362 l-1.6003614664077759,-0.00016706762835383415 " fill="none" stroke="black" stroke-width="1"/></svg>