<svg baseProfile="full" height="86.83696524421975" version="1.1" width="122.4637765976513" xmlns="http://www.w3.org/2000/svg" xmlns:ev="http://www.w3.org/2001/xml-events" xmlns:xlink="http://www.w3.org/1999/xlink"><defs/><rect fill="white" height="86.83696524421975" width="122.4637765976513" x="0" y="0"/><path d="M25,33.514114021945716 m4.1026803851127625,-0.040077436715364456 l6.923919320106506,-4.143883585929871 3.19685697555542,-3.9356422424316406 l0.04441607743501663,0.3907223790884018 1.5828600525856018,0.13373896479606628 l1.6471824049949646,0.851876512169838 2.381040006875992,4.989437758922577 l0.06477086339145899,5.090224742889404 -0.6367910653352737,2.3956385254859924 l-2.8011882305145264,2.0122678577899933 -5.190234184265137,0.00039564038161188364 l-1.4361847937107086,-1.1528722941875458 -2.7755653858184814,-4.207346141338348 l-0.8048273622989655,-1.8565446138381958 m14.676879644393921,-0.7904363423585892 l6.075191497802734,-1.2262679636478424 5.238583087921143,-0.00031507333915214986 l4.892314970493317,1.0117488354444504 13.678573369979858,0.24875497445464134 l4.319722950458527,0.528840571641922 4.21902060508728,-0.00022510641429107636 l4.96621161699295,-0.6258448958396912 5.182639956474304,0.00025545346943545155 l1.8835486471652985,9.586291909217834 -2.001909017562866,3.691924512386322 l-1.6391173005104065,0.00010183540325670037 -2.294025272130966,-1.7791561782360077 l0.3351223096251488,-4.153845012187958 3.603768050670624,-0.991247147321701 m2.736460268497467,10.925544500350952 l0.0006934747943887487,5.2166396379470825 -0.6462650746107101,0.00012125427929277066 l0.2704724110662937,0.8697670698165894 0.6669553369283676,0.19864507019519806 l-0.7317414879798889,0.9990303218364716 m-3.5518422722816467,-8.72096300125122 l-0.02274397760629654,1.2197618186473846 -3.777114152908325,0.0001671709651418496 l-1.1438266932964325,-1.0306072235107422 0.8504917472600937,1.270378977060318 l0.2463933825492859,2.034331113100052 -0.43624602258205414,8.460573554039001 l-0.5097571760416031,0.8509445190429688 -2.115686535835266,-0.15782957896590233 l-1.8036524951457977,-2.650335729122162 -0.0007006815576460212,-9.1552072763443 m-0.7449118793010712,-2.1500541269779205 l-4.45629209280014,0.31362254172563553 -3.1056758761405945,1.31107896566391 l-0.10810556821525097,0.0002384182698733639 -0.1434150617569685,-0.12854636646807194 l0.2545829303562641,-2.5151658058166504 -2.264038622379303,0.00017432885215384886 l-5.4832470417022705,0.5467610061168671 -3.0894050002098083,0.5512207373976707 l-9.724925756454468,-0.05525978282094002 -1.1759863048791885,2.302141487598419 l-3.148813545703888,1.5842622518539429 -2.8829628229141235,1.434728354215622 l-0.05776067730039358,4.654389321804047 -0.8542574942111969,0.0002482592208252754 l-0.6201842799782753,-0.307957548648119 -1.4574389159679413,-1.9833707809448242 l-0.0006625518290093169,0.09196000173687935 -0.28857022523880005,-2.8039515018463135 l-0.00037102312489878386,0.004061873187310994 -0.0003476320125628263,-2.91104257106781 l7.504282621084712e-05,-3.5769614577293396 -1.9505620002746582,0.0002861619941540994 m-1.23875230550766,-1.673634648323059 l-0.2761678770184517,4.128144383430481 -0.14871503226459026,7.592821717262268 l-2.2095339000225067,4.1255053877830505 0.6753960251808167,0.00016621710528852418 l-0.07863692007958889,-1.3544067740440369 1.150793805718422,-1.365329623222351 l0.0003034615838259924,-9.482470154762268 m-2.725299894809723,6.104187965393066 l1.8741598725318909,-0.5525201559066772 1.6269566118717194,0.19312625750899315 l0.26402976363897324,-0.020611556246876717 -0.6107425689697266,0.9903611242771149 m4.611064195632935,-9.132357835769653 l1.3241177797317505,1.5369126200675964 2.3593127727508545,3.5430872440338135 l0.5070409178733826,1.7598918080329895 0.1613231748342514,3.3088481359300204e-05 l7.16630302122212e-05,0.04953937605023384 -6.315877437591553,3.3964258432388306 m3.0210718512535095,-10.043578147888184 l0.0002911719820986036,2.8717145323753357 0.00048570509534329176,3.07507187128067 m-2.64933317899704,-0.9544014185667038 l-2.835894823074341,2.916054427623749 -1.8910402059555054,1.1162642389535904 m1.9653069972991943,-0.00044033629819750786 l-1.388629823923111,-0.6745239347219467 m-3.795129954814911,-12.733718156814575 l8.589994649810251e-05,3.685474991798401 -0.9337384253740311,2.1520397067070007 l-1.0901864618062973,1.1106439679861069 m0.0007957706111483276,-5.672646164894104 l-0.6289197504520416,0.000139940120789106 -1.4694952964782715,-2.161020338535309 l-0.05719806533306837,-1.8708474934101105 0.06053912453353405,0.0006458683492382988 l-0.6465791910886765,-0.13618431985378265 -0.6901209056377411,-0.9691223502159119 m0.0009539014718029648,-1.0812066495418549 l2.3089808225631714,0.38800712674856186 2.3589417338371277,-0.3427814692258835 l1.7447179555892944,-2.227015048265457 m-4.617558121681213,-8.16822350025177 l0.05965341813862324,-1.3556760549545288 m-4.139218330383301,1.4139166474342346 l-8.851938218867872e-05,-0.41669949889183044 m-0.600220151245594,0.945853516459465 l0.28279855847358704,-0.19274795427918434 0.6387544423341751,-0.0069424009416252375 m0.0008547314791940153,0.3701195493340492 l0.826205313205719,0.00016648087694193237 m-1.4288757741451263,4.329160153865814 l-0.602862536907196,-0.03879196709021926 -0.36372311413288116,-0.6436111778020859 l-1.047687754034996,-0.09938383474946022 -8.40517895994708e-05,1.070612519979477 m38.463149070739746,-1.0868600755929947 l3.5748913884162903,0.7994100451469421 2.847009003162384,1.6803036630153656 l2.092597782611847,0.0001369197889289353 1.8770217895507812,-1.1170218884944916 l-0.12425865978002548,-1.9821064174175262 -0.2970460616052151,-0.9608540683984756 l-1.1299025267362595,0.00038000325730536133 -0.7510294020175934,1.1618778109550476 l-0.12216673232614994,1.2651598453521729 0.3565554693341255,1.278350055217743 l1.9175034761428833,0.00027681053325068206 1.22785322368145,-1.0220658779144287 l0.7835759967565536,-2.062361389398575 -0.09512032382190228,1.882474422454834 l1.4849510788917542,1.1386847496032715 1.8448203802108765,0.187226552516222 l2.6109710335731506,-1.6433945298194885 1.9643683731555939,-3.8114216923713684 l-1.1705195903778076,-0.5047725141048431 -1.4341098070144653,0.9371331334114075 l-0.0006878205022076145,2.096630781888962 0.771695151925087,1.2218113988637924 l2.184298187494278,0.8120314031839371 2.215569317340851,-0.5169666185975075 l3.247443437576294,-2.5299477577209473 0.4423040524125099,-1.1769218742847443 l-1.619822084903717,0.44698048382997513 -1.4523790776729584,1.2556114792823792 l-1.0586528480052948,2.623591423034668 -0.00032922464015427977,1.0798066854476929 l1.978904902935028,1.2085126340389252 0.7280219346284866,0.0003714923150255345 l1.0221010446548462,-0.7765879482030869 1.8098706007003784,-1.1787037551403046 l0.7209452986717224,-2.637356221675873 -1.026955097913742,0.1711677387356758 l-0.9785898774862289,3.747361898422241 3.497488796710968,1.081702709197998 l0.23954233154654503,-0.6759013235569 -1.5464937686920166,-1.6040042042732239 l8.984007763501722e-05,-0.03409759607166052 0.120331309735775,0.2897181734442711 m-54.69655990600586,9.185864925384521 l-0.5214868113398552,-1.0198510438203812 1.090715453028679,0.8829820156097412 l1.0166563093662262,-0.22827588021755219 1.6330526769161224,-2.306639552116394 l-2.566501796245575,-0.07021093275398016 -1.8076728284358978,2.824257016181946 l8.367517693841364e-05,1.3121315836906433 1.4292855560779572,1.1213945597410202 l2.798796594142914,0.740572139620781 2.2228723764419556,-0.7238849997520447 l-2.166868895292282,-1.7307879030704498 -2.137623578310013,0.07180584594607353 l-1.4543862640857697,1.390531063079834 -0.3732415661215782,1.2089389562606812 l-3.701576360981562e-05,1.9451740384101868 1.9673162698745728,1.454092413187027 l2.178499698638916,0.06864987779408693 0.26531463488936424,-0.26929086074233055 l-4.320792413636809e-05,-1.4773915708065033 -1.3415174186229706,-1.219656690955162 l-0.00033980664738919586,0.29807666316628456 2.412550002336502,2.4289515614509583 l3.312678337097168,0.23771820589900017 2.5492852926254272,-1.0571002215147018 l1.9955633580684662,-2.519315779209137 0.13014723546802998,-1.4924260973930359 l-0.8000251650810242,-0.5093250796198845 -1.4918872714042664,1.4517173171043396 l0.9485437721014023,3.5931995511054993 2.1193885803222656,0.4582548141479492 l2.4785523116588593,0.25002527981996536 2.3068270087242126,-0.7462926208972931 l1.494782269001007,-0.9280801564455032 0.8463814854621887,-2.7359479665756226 l-0.5602176114916801,-2.4903185665607452 -2.467643767595291,-1.3866117596626282 l-2.469191998243332,0.2511376887559891 -1.2365106493234634,2.370263487100601 l0.9192656725645065,3.6748725175857544 2.79869943857193,1.1137481033802032 l2.6789841055870056,0.2513607032597065 2.1348294615745544,-1.2180247902870178 l0.6078546494245529,-1.8759512901306152 m-24.552786350250244,-5.068498849868774 l0.6850461661815643,3.4165820479393005 1.1871859431266785,1.463475227355957 l4.184094667434692,1.0218371926384862e-05 2.2342973947525024,-1.4514058828353882 l2.000415623188019,0.24834934622049332 " fill="none" stroke="black" stroke-width="1"/></svg>