<svg baseProfile="full" height="123.76631999366168" version="1.1" width="849.9793510884047" xmlns="http://www.w3.org/2000/svg" xmlns:ev="http://www.w3.org/2001/xml-events" xmlns:xlink="http://www.w3.org/1999/xlink"><defs/><rect fill="white" height="123.76631999366168" width="849.9793510884047" x="0" y="0"/><path d="M25,38.34952902969064 m0.0,0.0 m27.982182875930448,15.15631129115718 l-0.6240738183259964,0.69022998213768 -0.5104583874344826,0.8310189098119736 l-1.1865193396806717,1.500684916973114 -2.0493029057979584,3.1928616762161255 l-0.3290526568889618,0.668780654668808 -0.7790511101484299,2.595026195049286 l0.00024515597033314407,3.693995773792267 0.7298516482114792,1.230943202972412 l0.5266181007027626,0.3474440798163414 4.401324093341827,-9.050010703504086e-05 l5.650044679641724,-0.3730936348438263 5.696218013763428,-0.24085529148578644 l5.2555519342422485,-0.13687342405319214 4.614155292510986,-0.1824936829507351 l1.8904496729373932,-0.22355616092681885 4.086121618747711,-0.2808333560824394 l0.4723094031214714,-0.4689032956957817 0.41902128607034683,-3.287159502506256 l0.002492148778401315,-4.226504862308502 -0.27181707322597504,-1.7319406569004059 l-0.35037241876125336,-0.5916468799114227 -0.8663193881511688,-0.8970151096582413 l-1.2368690222501755,-0.8386547118425369 -1.586393117904663,-0.7037770748138428 l-1.9409634172916412,-0.5756320431828499 -5.391094088554382,-0.867534875869751 l-6.3016945123672485,-2.4321161617990583e-05 -3.275517523288727,0.07504116278141737 l-5.1799339056015015,-7.869203727750573e-05 -1.613122820854187,0.06264759693294764 l-1.9503812491893768,-8.139011697494425e-05 m1.3059590756893158,13.62649917602539 l-0.8529597520828247,1.3502109050750732 -0.8379729837179184,1.7614015936851501 l-0.3577127680182457,1.5262103080749512 4.3271356844343245e-05,2.0689813792705536 l0.5350349098443985,0.8803535997867584 2.096779942512512,1.0649709403514862 l2.239867001771927,0.263486597687006 2.158357948064804,-8.878848348103929e-05 l0.5485888943076134,-0.5187023803591728 0.6477618217468262,-1.4631783962249756 l0.00021550549718085676,-2.7679604291915894 -0.6588441878557205,-2.350856065750122 l-0.7844310253858566,-1.013408824801445 -1.045425534248352,-0.4562433063983917 l-1.6446888446807861,-0.00012560588402266148 m20.02925395965576,-0.28163809329271317 l-0.458705835044384,-0.00012032115591864567 -1.8396303057670593,1.7820966243743896 l-0.6872521340847015,1.2994018197059631 -0.40581561625003815,2.9726386070251465 l8.400609658565372e-05,2.378160059452057 0.7933219522237778,0.5594272911548615 l2.5693893432617188,-7.8701923484914e-05 1.1797183752059937,-0.7148919254541397 l0.7678588479757309,-1.2455126643180847 0.0002239398418169003,-3.147599995136261 l-1.0072192549705505,-2.8530079126358032 -0.7330101728439331,-0.7385298609733582 m-24.45059061050415,-10.122931003570557 l-0.00011581545550143346,2.3950259387493134 0.09627960622310638,4.142918884754181 l0.06169166415929794,3.6154982447624207 0.06997066549956799,1.612018346786499 l0.12088303454220295,0.6972683221101761 m82.74731344922088,-10.828958968390907 l-0.6621906161308289,0.5659684166312218 -0.5673803016543388,0.6805090606212616 l-2.208663374185562,2.3594197630882263 -0.4598306119441986,0.7345179468393326 l-1.4557777345180511,1.3771595060825348 -2.3439906537532806,2.986173629760742 l-1.7390671372413635,3.3976832032203674 -0.26748478412628174,2.046235054731369 l-8.29658688417112e-06,3.413882255554199 1.304791122674942,1.347961574792862 l4.65983510017395,1.6136719286441803 4.67022567987442,0.5462232604622841 l6.127508282661438,-6.806964393035742e-05 2.5547724962234497,-0.33751584589481354 l5.184876322746277,-0.7444517314434052 2.4997632205486298,-0.7024696469306946 l3.5199230909347534,-1.2078183144330978 1.4862622320652008,-1.0453547537326813 l1.5516455471515656,-1.7606407403945923 0.994148850440979,-2.323276698589325 l8.793977940513287e-05,-2.944670617580414 -0.5722002312541008,-1.6351988911628723 l-1.1239893734455109,-1.569184809923172 -1.6405320167541504,-1.3228042423725128 l-5.143366456031799,-2.3319540917873383 -6.224402189254761,-1.4715607464313507 l-4.475525617599487,-3.109970293735387e-05 -2.4492719769477844,0.011405447730794549 l-1.976001262664795,0.0016779280849732459 m-5.064255595207214,1.5565605461597443 l-9.796650374482851e-05,-3.8561278581619263 -0.25990407913923264,-2.9085448384284973 l-0.5544897168874741,-2.7384650707244873 -9.083236363949254e-05,-3.4983229637145996 l2.881914973258972,3.561108112335205 3.588322699069977,3.5211998224258423 l0.8308412879705429,0.7607872784137726 2.2628703713417053,2.545296549797058 m10.135518312454224,0.8933313190937042 l0.6957243382930756,-0.5869684740900993 2.8846099972724915,-3.2279255986213684 l2.9682129621505737,-2.4071118235588074 1.8278373777866364,-1.991310566663742 l1.3377377390861511,-1.7948919534683228 0.31030574813485146,0.7465600967407227 l-0.00012490313565649558,2.9159116744995117 -0.2278663031756878,2.3421810567379 l-0.26812074705958366,2.182234972715378 -0.31144438311457634,2.1023938059806824 l-0.0001742809035931714,2.440693974494934 -0.3084959276020527,1.3168099522590637 m-20.54018259048462,7.529199719429016 l-2.285083085298538,0.24216512218117714 -7.233462333679199,1.1260736733675003 l-8.32035481929779,1.3643914461135864 -3.3015960454940796,-0.00042296593164792284 m18.65597367286682,-0.94527967274189 l-1.7953360080718994,-7.710998033871874e-05 -7.10276186466217,1.4716771245002747 l-3.9495155215263367,0.8072604238986969 -6.765007376670837,1.891656219959259 m35.8001708984375,-5.407175421714783 l4.921198487281799,-0.0002519310874049552 10.760984420776367,0.8046726137399673 l7.546197175979614,-0.0001179552600660827 m42.4909417656977,-15.156070835021183 l-0.7179588824510574,0.36826644092798233 -0.6150905787944794,0.527004674077034 l-1.7450135946273804,1.0847719758749008 -2.287937253713608,1.2666204571723938 l-2.2925221920013428,1.4621290564537048 -3.288099765777588,3.033227324485779 l-1.2637418508529663,2.156461328268051 -0.9626685082912445,4.336895048618317 l6.971491984586464e-05,3.5673323273658752 1.2289877980947495,1.902126520872116 l2.423168867826462,1.8785333633422852 3.5722240805625916,1.409618854522705 l4.264854788780212,0.809594914317131 7.973650693893433,-2.7014016268367413e-05 l2.495761811733246,-0.4159264639019966 5.0171977281570435,-1.104326918721199 l2.0366542041301727,-0.9278123825788498 3.4079670906066895,-1.5489454567432404 l0.9576366096735001,-0.7132504135370255 1.3723124563694,-1.7371419072151184 l0.9666945785284042,-2.409578114748001 1.8698108306125505e-05,-3.8431841135025024 l-0.6385008245706558,-1.844749003648758 -1.376253366470337,-1.9679372012615204 l-4.518181383609772,-3.764364719390869 -6.037001609802246,-2.5546282529830933 l-5.902031064033508,-1.1859942227602005 -3.6191600561141968,-0.0001223605067934841 l-1.7763809859752655,0.24293700233101845 m-5.678979754447937,3.739809989929199 l-0.0001407622858096147,-4.994674026966095 -0.2713971212506294,-2.9240024089813232 l-0.568745955824852,-3.0762380361557007 -0.00011518932296894491,-4.237596690654755 l0.7734734565019608,0.22251108661293983 3.5176637768745422,4.922480881214142 l3.9078161120414734,4.753205478191376 0.7408028095960617,0.9113252907991409 l0.4738926514983177,0.38957521319389343 m10.469107627868652,0.8240712434053421 l3.683207929134369,-3.3392050862312317 2.1406739950180054,-2.4154624342918396 l1.6021838784217834,-2.440340220928192 1.2664395570755005,-2.3311465978622437 l0.3842359036207199,0.8862262964248657 -0.00016601903553237207,4.567078053951263 l0.06196327041834593,2.3455551266670227 -0.00025398252546438016,3.699454367160797 l-0.08256404660642147,1.758655607700348 -0.000157257127284538,2.5353199243545532 m-19.690511226654053,8.712641596794128 l-1.874852478504181,-0.00021160316464374773 -7.256600260734558,0.25358404964208603 l-8.436751365661621,0.6506049633026123 -3.668906092643738,0.33620208501815796 l-2.223004847764969,-0.0002788200981740374 m20.483174324035645,1.1854177713394165 l-1.258493810892105,0.617845319211483 -11.590793132781982,4.571555852890015 l-3.3988773822784424,1.2334813177585602 -2.1503104269504547,0.34478869289159775 m33.70481014251709,-9.604331851005554 l6.16917610168457,-0.00021333067707018927 11.782246828079224,1.0686147958040237 l6.24715268611908,-0.0001167772279586643 m47.076135636846175,-15.561871374984548 l-0.8014694601297379,0.2049853280186653 -0.7287930697202682,0.42220067232847214 l-1.9432111084461212,1.00501149892807 -2.568669021129608,1.318085491657257 l-4.667586386203766,2.9430395364761353 -2.0363591611385345,2.035350054502487 l-1.8072396516799927,2.880176603794098 -1.122170239686966,4.686152935028076 l3.0223902740544872e-05,3.620809316635132 1.0431720316410065,1.782720685005188 l2.479475289583206,2.4301666021347046 3.3265379071235657,1.743362545967102 l4.475204646587372,1.2944725155830383 5.225085616111755,0.6706702709197998 l8.172780275344849,1.131868657466839e-05 2.5594422221183777,-0.6673485040664673 l4.206273555755615,-1.3555316627025604 2.497008293867111,-1.6812865436077118 l0.8161942660808563,-0.9024598449468613 1.1373470723628998,-2.1050873398780823 l3.8197654248506296e-05,-3.927435576915741 -0.4942120611667633,-2.3623812198638916 l-1.5649168193340302,-4.449032247066498 -2.282351404428482,-4.219885468482971 l-1.7375029623508453,-1.8412527441978455 -4.830591678619385,-3.1615623831748962 l-5.825169682502747,-1.7662613093852997 -3.911457657814026,-0.00013905549167247955 m-9.024084210395813,5.318800210952759 l-0.00021931746232439764,-3.862239122390747 0.04881862550973892,-9.155498147010803 l0.378410741686821,-5.188673138618469 0.6894569098949432,0.7003216445446014 l2.9451701045036316,5.634331703186035 2.0333804190158844,3.7256139516830444 l2.53638356924057,5.039355158805847 0.44544681906700134,0.47079838812351227 m11.138540506362915,-0.46070653945207596 l0.7641368359327316,-0.7415364682674408 1.9300612807273865,-2.1953660249710083 l5.631434321403503,-5.603084564208984 2.073095887899399,-2.6324930787086487 l1.4296136796474457,-2.3605915904045105 0.31169865280389786,1.043112725019455 l-0.0001557555515319109,7.34296977519989 -0.24439513683319092,2.9854270815849304 l-0.00027070045689470135,4.446837306022644 -0.18734516575932503,1.9952933490276337 l-0.00014155980352370534,2.5650086998939514 -0.28585564345121384,1.2862277030944824 m-22.389252185821533,5.8001697063446045 l-2.1148762106895447,-0.08287852630019188 -7.65810489654541,0.004641695704776794 l-8.073189854621887,-0.0057141826255247 -8.263710141181946,0.5517792329192162 l-0.889078751206398,0.35816676914691925 -0.8669643104076385,-0.00013395559108175803 m25.30243158340454,1.4235451817512512 l-1.6452805697917938,0.6445499509572983 -3.965162932872772,1.368306577205658 l-5.095003843307495,1.2439464032649994 -11.796731948852539,3.1358730792999268 l-0.8580876886844635,0.26900071650743484 m35.421142578125,-8.553260564804077 l7.6478999853134155,0.8624526858329773 11.896053552627563,1.8764661252498627 l4.83557403087616,-0.00014292037121776957 m44.444994986661186,-20.701127435140734 l-0.8158054947853088,0.003365867305546999 -0.7021109759807587,0.2478252537548542 l-2.1654658019542694,0.6351999938488007 -1.0085813701152802,0.4831433668732643 l-4.535030722618103,2.8762850165367126 -2.458331435918808,1.7988905310630798 l-2.3712334036827087,2.7043524384498596 -1.526363343000412,3.1014367938041687 l-0.7998750358819962,3.677148222923279 7.775373887852766e-05,4.363984763622284 l1.0689117759466171,2.2448910772800446 4.2648375034332275,4.227664470672607 l1.640554964542389,0.935896709561348 6.0087138414382935,2.064041942358017 l5.123172998428345,0.7585930824279785 7.174031138420105,-3.125877810816746e-05 l2.3665565252304077,-0.5599591881036758 4.441913068294525,-1.512034833431244 l1.3723261654376984,-0.786551833152771 2.083640396595001,-1.927729845046997 l1.6184589266777039,-2.6299065351486206 1.0668046027421951,-3.4926459193229675 l6.611952812818345e-05,-5.804194211959839 -0.8048596233129501,-2.44728222489357 l-3.4740853309631348,-5.164267420768738 -3.652479350566864,-3.4977835416793823 l-2.5862225890159607,-1.3693010807037354 -6.2545692920684814,-1.7352917790412903 l-4.417184591293335,-9.619592674425803e-05 -2.291094660758972,0.5832017213106155 m-8.24821650981903,4.826189279556274 l-0.00020523859348031692,-5.617190003395081 0.3561779111623764,-9.302840828895569 l3.3027881383895874,4.123841822147369 3.257022202014923,4.527903497219086 l0.8650176227092743,1.062224954366684 m12.644468545913696,0.7497721165418625 l0.6895793974399567,-0.9707135707139969 1.8915881216526031,-2.476774752140045 l4.928867220878601,-6.03697657585144 1.5784487128257751,-2.7372851967811584 l0.4314246401190758,1.0094287991523743 -0.00014336988897412084,5.512956380844116 l-0.28930172324180603,6.042723059654236 -0.00031194373150356114,3.712506592273712 l-0.015850112540647388,1.5531370043754578 -0.00012009973033855204,2.0829644799232483 m-19.017996788024902,8.32975149154663 l-4.706349670886993,-9.133697858487722e-05 -7.575736045837402,0.11806664057075977 l-9.406368136405945,0.3812364861369133 -3.393651247024536,0.5385159701108932 l-2.4007929861545563,0.3242817521095276 -1.898476928472519,0.45780591666698456 l-0.8322092890739441,-0.00020569899788824841 m26.75421714782715,0.9394409507513046 l-1.5011939406394958,0.507626049220562 -4.257255792617798,1.5018139779567719 l-8.556046485900879,3.0581778287887573 -7.385824918746948,2.7284955978393555 l-1.8372803926467896,0.5551091954112053 -1.306995004415512,0.3833543509244919 m36.52986764907837,-11.301894187927246 l7.609162330627441,0.4697544500231743 11.392426490783691,1.545265018939972 l5.968194007873535,-0.00017229192962986417 4.876381754875183,-3.122044518022449e-05 m-29.129672050476074,1.5038560330867767 l3.0897629261016846,-0.00011089187864854466 m66.47681579676579,-21.01994802213312 l-0.7849813252687454,-0.2114434912800789 -0.7443947345018387,0.04061443265527487 l-4.220576584339142,0.4650777205824852 -1.1402103304862976,0.30081499367952347 l-5.391764044761658,2.4039949476718903 -1.4043031632900238,0.9024843573570251 l-2.2855329513549805,2.2245830297470093 -1.74382284283638,2.961295247077942 l-1.6009527444839478,5.716568827629089 0.00011131733117508702,4.863547682762146 l0.899324044585228,2.5125163793563843 3.3902963995933533,4.521231949329376 l3.7934547662734985,3.0160799622535706 6.964703798294067,2.8289178013801575 l1.9184942543506622,0.3800636902451515 5.917508006095886,-6.406576176232193e-05 l2.4195249378681183,-0.23410188034176826 5.5920714139938354,-1.4310836791992188 l2.4177351593971252,-1.1903119832277298 2.813112437725067,-2.166217863559723 l2.2605186700820923,-2.8632771968841553 1.3865384459495544,-3.1919080018997192 l3.5104015694287227e-07,-5.317884087562561 -0.7554782927036285,-2.54604309797287 l-3.3876749873161316,-5.673765540122986 -2.0390236377716064,-2.1908779442310333 l-5.521288514137268,-3.9840176701545715 -8.999469876289368,-2.6430514454841614 l-3.454667627811432,-0.000148640438055736 m-11.252799034118652,5.1774150133132935 l-0.00015969626474543475,-5.058244466781616 0.3077961504459381,-10.390156507492065 l1.0008151829242706,-5.882702469825745 3.3882546424865723,5.668913722038269 l3.643347918987274,5.554304718971252 2.635224461555481,3.994623124599457 l0.6346937268972397,0.7512586563825607 m12.095283269882202,2.332606613636017 l2.31135830283165,-2.190425992012024 6.358039975166321,-5.7319581508636475 l2.778668701648712,-3.111233413219452 1.9256804883480072,-2.7355244755744934 l0.3397226706147194,1.1816899478435516 -0.00015916541087790392,6.357003450393677 l-0.804852619767189,6.85049831867218 -0.00028697328161797486,4.960517585277557 l-0.1816842332482338,2.0237036049365997 m-25.3824782371521,7.065613865852356 l-0.1758446916937828,-0.000113585247163428 -1.561909019947052,0.8763200044631958 l-1.374027281999588,0.9590853005647659 -3.508991003036499,2.407507002353668 l-4.480083584785461,2.994781732559204 -5.106261968612671,3.476679027080536 l-2.347252666950226,1.321549266576767 -2.1949858963489532,0.8565519750118256 l-1.9423291087150574,0.3701518103480339 m22.64333486557007,-11.86704397201538 l-2.4863603711128235,3.7408244609832764 -5.693860054016113,6.533035039901733 l-5.238593220710754,5.893163084983826 -1.9379694759845734,1.718357801437378 l-1.406565010547638,0.9662234038114548 m26.350901126861572,-19.923707246780396 l8.118687868118286,1.2359840422868729 10.430629253387451,2.6914259791374207 l10.285776853561401,2.1320216357707977 3.0281350016593933,0.4097587987780571 m-29.441328048706055,-2.8744813799858093 l4.281252324581146,2.1348029375076294 10.681872367858887,5.116751194000244 l9.238948225975037,5.018411874771118 2.519434094429016,0.9255428612232208 m60.89076894256209,-35.44343877420488 l-0.822124257683754,-0.4480256885290146 -0.615304484963417,-0.4201352596282959 l-1.1208269745111465,-0.5890027433633804 -5.273830890655518,-1.9017818570137024 l-4.4838547706604,-1.0156438499689102 -4.748057723045349,-0.0003377176835783757 l-2.8570762276649475,0.6202438473701477 -2.0953579246997833,0.9641650319099426 l-3.039498031139374,2.324792891740799 -2.6349416375160217,3.305792808532715 l-1.799418181180954,4.218186438083649 -0.8353181183338165,4.726863205432892 l1.6982477291094256e-05,6.443653106689453 2.550130784511566,5.209528207778931 l3.305627405643463,3.934086859226227 4.2074087262153625,3.1628623604774475 l6.980528831481934,3.1821176409721375 5.021611452102661,1.383238136768341 l5.128209590911865,0.6432091444730759 5.625223517417908,9.122436495090369e-06 l1.2024272233247757,-0.4208943620324135 2.3925024271011353,-1.5985548496246338 l1.0090924054384232,-1.0522856563329697 2.785317301750183,-4.624704718589783 l1.7199303209781647,-4.610986411571503 0.8676283061504364,-4.951195120811462 l2.7052610676037148e-05,-6.655643582344055 -1.0419580340385437,-3.293028771877289 l-3.3969280123710632,-5.661845803260803 -4.9316734075546265,-4.981991648674011 l-2.62774258852005,-1.2165552377700806 m-25.896573066711426,2.8467008471488953 l-6.130277142801788e-05,-8.563426733016968 0.09908772073686123,-7.648295164108276 l4.3140727281570435,4.114940166473389 5.60538113117218,5.113662481307983 l1.2043815106153488,1.0564252734184265 m14.60938572883606,3.2555288076400757 l8.334105610847473,-6.510223150253296 6.745846271514893,-6.068348288536072 l-0.41785363107919693,5.390239357948303 -0.7258753478527069,3.882301449775696 l-1.7237421870231628,6.791556477546692 -0.5064837634563446,2.5954991579055786 l-0.0001423881531081861,2.3312829434871674 m-24.095561504364014,8.274489045143127 l-0.317431204020977,-0.2302056923508644 -1.7682377994060516,-0.00014412713426281698 l-4.491619169712067,0.8097045123577118 -5.32803475856781,1.5352711081504822 l-7.582525014877319,2.5624364614486694 -6.675516366958618,3.1380200386047363 l-5.784258842468262,3.3671247959136963 -1.401781290769577,1.0582304000854492 l0.27662860229611397,0.35714689642190933 m31.493651866912842,-10.453404188156128 l-1.868247389793396,0.7334331423044205 -4.15032684803009,2.245679050683975 l-8.225155472755432,5.194584131240845 -6.428364515304565,4.909491539001465 l-2.4547819793224335,1.9015362858772278 -1.8664193153381348,1.4975345134735107 l-1.2502381205558777,1.065380498766899 m27.18132257461548,-15.380724668502808 l0.2408648282289505,-0.00016040543414419517 -1.5873396396636963,6.443603038787842 l-1.400887668132782,3.5543841123580933 -3.2059377431869507,7.662762403488159 l-1.5272006392478943,2.933642566204071 -1.145770102739334,1.7071187496185303 m15.2769136428833,-26.413850784301758 l1.8231265246868134,-0.00014008240214025136 5.263319611549377,4.8687793423596304e-05 l13.513898849487305,0.6970171630382538 10.193976163864136,1.2678416073322296 m-28.94615888595581,2.402358651161194 l10.964906215667725,4.194216728210449 6.899205446243286,3.095194697380066 l9.056431651115417,4.190652966499329 m55.108676421696146,-27.56560153139162 l-0.8164619654417038,-0.7651495188474655 -0.5705004930496216,-0.5663267150521278 l-1.9660085439682007,-1.2690146267414093 -2.4740827083587646,-1.1433297395706177 l-6.119251847267151,-1.9434568285942078 -4.927448034286499,-0.8338882774114609 l-4.661855697631836,-0.000345005864801351 -2.5857022404670715,1.3789786398410797 l-1.7160263657569885,1.505512297153473 -2.067495733499527,2.9773372411727905 l-1.7630383372306824,4.20667827129364 -1.0368980467319489,4.904620349407196 l5.820952992507955e-05,7.3100346326828 0.4318057745695114,2.133176326751709 l2.885550558567047,5.859774351119995 3.6375129222869873,4.257282614707947 l1.7869506776332855,1.4902317523956299 6.686733365058899,3.762066662311554 l5.638965964317322,1.870025247335434 5.563709139823914,0.957232192158699 l6.276192665100098,-5.258429155219346e-05 2.6327988505363464,-0.7226347923278809 l2.261437028646469,-1.5605860948562622 1.8124239146709442,-1.8910202383995056 l2.159305065870285,-3.5317155718803406 1.6902512311935425,-4.53177809715271 l0.9407268464565277,-5.864630937576294 6.847678832855308e-05,-7.355710864067078 l-1.0608890652656555,-3.3461686968803406 -4.184378981590271,-6.214050650596619 l-8.195701241493225,-7.337138056755066 m-24.37790870666504,2.3560580611228943 l-0.00010281582945026457,-3.0074849724769592 0.5888477712869644,-14.403071403503418 l1.1434298753738403,0.6034332886338234 4.163366854190826,6.783394813537598 l3.075438141822815,4.704625606536865 0.8657991141080856,1.1852506548166275 m16.07538938522339,2.9297149181365967 l7.4921715259552,-7.070732116699219 6.626058220863342,-6.7174601554870605 l-0.21649572998285294,4.426178932189941 -0.8027458935976028,4.954355955123901 l-1.8960179388523102,8.630300164222717 -0.5249306559562683,3.0733290314674377 m-27.100725173950195,10.911266803741455 l-1.718180775642395,-0.5745578929781914 -2.307860851287842,-0.00017531952835270204 l-6.663869023323059,0.5453551933169365 -8.567017316818237,2.0050472021102905 l-8.230847716331482,2.907857596874237 -2.7289479970932007,0.9644215553998947 l-1.194976270198822,0.6262332201004028 m29.333584308624268,-2.555573284626007 l-1.9701309502124786,0.2798282355070114 -7.24387526512146,2.40057036280632 l-8.539232611656189,3.7332314252853394 -3.524082899093628,1.7541329562664032 l-4.824312627315521,3.2134556770324707 -1.528780311346054,1.369008868932724 l-0.38053181022405624,0.8149689435958862 m29.391655921936035,-11.137992143630981 l-4.328277409076691,2.6266157627105713 -7.3902058601379395,5.330626964569092 l-6.521559357643127,5.8519744873046875 -2.1991881728172302,2.0864850282669067 l-0.9846995770931244,1.2002065032720566 -0.3535829484462738,0.5985318869352341 m34.179584980010986,-22.663748264312744 l3.8142943382263184,-0.11236822232604027 11.519842147827148,0.7913690060377121 l6.997692584991455,1.3693200051784515 6.517091989517212,1.8727384507656097 l3.809632360935211,1.8086142838001251 m-31.832804679870605,-1.241229921579361 l1.4421895146369934,0.333026759326458 15.09032130241394,6.264958381652832 l5.817046761512756,3.6558663845062256 6.989287734031677,5.066657662391663 m-30.175063610076904,-12.240375280380249 l3.093353807926178,2.47580423951149 9.814372062683105,7.3719435930252075 l9.208667874336243,8.221079111099243 m54.17943743131218,-39.165251219061474 l-0.78925721347332,-0.9572658687829971 -0.530332513153553,-0.8096127957105637 l-1.7360368371009827,-1.4637123048305511 -2.507980763912201,-1.5902835130691528 l-5.639857053756714,-2.445814162492752 -4.2445307970047,-1.1178045719861984 l-4.758033454418182,-0.0002885440881073009 -2.193106561899185,1.736033856868744 l-2.124067097902298,3.1650784611701965 -1.134607419371605,2.7255979180336 l-0.9596295654773712,4.291026294231415 0.0001095147217711201,6.837795376777649 l0.3548557311296463,2.091989815235138 1.5727512538433075,4.114777743816376 l3.9387482404708862,6.1611998081207275 3.943087160587311,4.106338322162628 l1.7932352423667908,1.3978280127048492 3.9838415384292603,2.13113933801651 l5.352824330329895,1.7549891769886017 5.793277621269226,1.0114707052707672 l6.918736696243286,2.532089638407342e-05 1.4856605231761932,-0.4994633048772812 l2.695779502391815,-1.7765118181705475 3.074865937232971,-3.264007270336151 l2.629106342792511,-4.523760080337524 0.6547959893941879,-2.0552289485931396 l5.470991254696855e-05,-8.456144332885742 -1.4744560420513153,-7.179367542266846 l-3.6064565181732178,-7.819642424583435 -4.034783244132996,-5.4038405418396 l-5.510509610176086,-4.766976535320282 -7.976858019828796,0.8985117077827454 l-2.29313388466835,2.394794672727585 -3.11894029378891,5.851559638977051 m16.55145525932312,-4.850969016551971 l10.128144025802612,-5.865017771720886 9.737297892570496,-5.976021885871887 l-2.1437354385852814,6.302740573883057 -3.213934898376465,9.112043976783752 l-3.202383816242218,8.592618107795715 m-30.148775577545166,-5.635096430778503 l-1.0207139700651169,-0.532129667699337 -8.143128752708435,-7.421007752418518 l-7.085102200508118,-4.903408885002136 -0.3282637521624565,1.5566641092300415 l-5.494143351825187e-05,7.059182524681091 0.9919265657663345,8.851509094238281 l1.0253560543060303,2.6381993293762207 0.8319207280874252,0.9777408838272095 m20.297071933746338,4.962160587310791 l-0.5006285011768341,2.7585579118749592e-05 -0.7197249680757523,0.8895032107830048 l-0.6538277119398117,1.5740641951560974 -6.277296961343382e-05,1.5830667316913605 l1.1655156314373016,0.6880027800798416 3.5153916478157043,-0.00012518068615463562 l0.7352821528911591,-1.222420185804367 4.137794348935131e-05,-1.8391717970371246 l-1.2610413134098053,-1.1533112823963165 -2.2016625106334686,-0.00025862769689410925 l-0.7655762135982513,0.7809217274188995 m1.0533654689788818,1.7910149693489075 l-0.6561724096536636,-0.3903506323695183 -4.3004679679870605,-0.7426854223012924 l-9.46636438369751,-1.8471130728721619 -9.51611876487732,-1.6759510338306427 l-4.602131247520447,-0.00038642763684038073 -4.339257776737213,0.9571743011474609 l-1.5034259855747223,1.032821536064148 -1.0419361293315887,1.267254501581192 m33.80091905593872,1.792062669992447 l-3.942590653896332,2.13393900594383e-05 -10.432709455490112,1.7381422221660614 l-10.551149845123291,3.4712162613868713 -6.202857494354248,3.7300679087638855 l-1.1533129215240479,1.0845131427049637 m32.889206409454346,-9.368430972099304 l-3.4821346402168274,3.7388405203819275 -4.487228989601135,3.2553231716156006 l-7.5210630893707275,6.004168391227722 -5.909234285354614,5.679893493652344 l-1.3361430168151855,1.6443867981433868 -0.4671879857778549,0.7983572781085968 m26.579911708831787,-23.498778343200684 l7.906805872917175,0.3957100212574005 12.574172019958496,1.944938600063324 l11.289006471633911,2.235083281993866 6.025449633598328,1.9056233763694763 l3.8911551237106323,1.9501104950904846 m22.59664639234302,-31.034492327793828 l-0.5435728654265404,-1.4663690328598022 -0.15922904014587402,-1.287294328212738 l-1.3749586045742035,-4.1043442487716675 -1.201270967721939,-2.9572793841362 l-1.2398800998926163,-3.071470856666565 -1.199539676308632,-2.789269983768463 l-1.1439744383096695,-2.6825645565986633 -0.7666920870542526,-1.3427941501140594 l-0.15650540590286255,2.1915872395038605 0.5114200711250305,4.338655173778534 l2.082381844520569,8.88759732246399 1.9309188425540924,4.364695250988007 l2.1961383521556854,3.6162954568862915 1.0551628470420837,0.39466071873903275 l3.431861698627472,-1.4780087769031525 2.4466970562934875,-0.701395645737648 l8.13915491104126,-6.788030759707908e-06 3.402610719203949,0.6986107677221298 l4.695103168487549,1.794666349887848 5.763427019119263,2.7198168635368347 l1.3402169942855835,-2.6212680339813232 1.5432071685791016,-3.370063602924347 l5.251852869987488,-8.887145519256592 4.555152654647827,-6.437072157859802 l0.6239567324519157,1.5812769532203674 -5.265302206680644e-05,10.526262521743774 l-0.7249728590250015,9.221893548965454 -0.00031404109904542565,4.479433596134186 l-0.26265399530529976,2.6829424500465393 -2.10441991686821,6.269811391830444 l-3.364518880844116,6.396827697753906 -4.656974375247955,5.921720266342163 l-4.197146892547607,3.2398930191993713 -6.385546922683716,2.2901587188243866 l-12.948040962219238,-2.0930472016334534 -3.6573627591133118,-2.5356781482696533 l-9.156972169876099,-15.058228969573975 -0.9292858839035034,-6.666870713233948 l-1.7348411347484216e-05,-6.625136733055115 0.8059653639793396,-4.399707615375519 l0.5641677230596542,-1.28672257065773 m15.658375024795532,15.47778606414795 l-0.47080062329769135,-7.573200036858907e-05 m11.770883798599243,1.1020489782094955 l0.10466634295880795,-3.8946573113207705e-05 m-9.78535771369934,7.057797312736511 l-0.046022217720746994,0.7295587658882141 -1.1232039332389832,4.3797338008880615 l-1.536368578672409,5.3498923778533936 -0.15578503720462322,4.162339270114899 l1.4708739519119263,3.6766695976257324 2.8389009833335876,1.9120056927204132 l4.607997834682465,0.9729167819023132 5.632724761962891,-0.0001576494105393067 l2.5767651200294495,-1.0912027955055237 5.06227433681488,-4.491702318191528 l1.1644279956817627,-1.9518192112445831 1.064588502049446,-3.3726677298545837 l2.496983775301942e-07,-4.48039323091507 -0.9966902434825897,-2.329626679420471 l-1.8343697488307953,-1.96381077170372 -2.1063904464244843,-1.0883916169404984 l-2.873617112636566,-0.7140662521123886 -4.655865132808685,-0.00017814496459322982 m-7.688931226730347,6.112305521965027 l-5.389401912689209,1.8145650625228882 -9.510590434074402,2.6556235551834106 l-9.775969982147217,2.835312783718109 -7.835341691970825,3.176504969596863 l-2.271985560655594,1.2587174773216248 -0.6702802330255508,0.8201334625482559 l-0.00039322225347859785,1.1216796189546585 m34.054110050201416,-12.044734954833984 l-5.9069883823394775,2.91795015335083 -9.913930892944336,5.211811065673828 l-8.128218054771423,4.971594214439392 -2.2377049922943115,1.3602712750434875 l-1.3452227413654327,1.0632772743701935 -0.9088215976953506,0.7558643817901611 m31.60433292388916,-15.887869596481323 l-1.5008166432380676,6.401090621948242 -2.476784735918045,4.675275683403015 l-3.1122273206710815,4.334542155265808 -2.9755067825317383,3.123129904270172 l-2.4517808854579926,2.1895185112953186 -1.8440453708171844,1.3653543591499329 l-1.3786394894123077,0.7413320988416672 m23.1181001663208,-27.578070163726807 l6.180216073989868,-6.899053005327005e-05 14.15772795677185,1.050097793340683 l6.793017387390137,0.39095088839530945 9.319031238555908,0.6806710362434387 m-33.40113639831543,2.0803841948509216 l4.665267467498779,1.3018108904361725 11.235177516937256,4.13952499628067 l10.533485412597656,4.043430984020233 3.631730377674103,0.8443130552768707 m-29.662816524505615,-6.370416879653931 l10.649572610855103,7.905822992324829 10.035785436630249,7.839028239250183 l1.7628036439418793,1.58810555934906 " fill="none" stroke="black" stroke-width="1"/></svg>