<svg baseProfile="full" height="89.4172227755189" version="1.1" width="116.95528294891119" xmlns="http://www.w3.org/2000/svg" xmlns:ev="http://www.w3.org/2001/xml-events" xmlns:xlink="http://www.w3.org/1999/xlink"><defs/><rect fill="white" height="89.4172227755189" width="116.95528294891119" x="0" y="0"/><path d="M38.76902811229229,27.159847728908062 m0.0,0.0 l1.6198858618736267,0.2699809893965721 0.0,0.5399619787931442 l1.0799239575862885,0.8099429309368134 1.0799239575862885,1.8898668885231018 l4.049714803695679,-3.5097527503967285 1.6198858618736267,-0.5399619787931442 l4.589676558971405,0.5399619787931442 3.5097527503967285,-1.6198858618736267 l1.8898668885231018,0.0 0.5399619787931442,0.8099429309368134 l0.8099429309368134,0.2699809893965721 0.0,0.5399619787931442 l1.3499048352241516,0.2699809893965721 4.85965758562088,-1.6198858618736267 l1.0799239575862885,-0.8099429309368134 1.6198858618736267,0.0 l2.42982879281044,2.6998096704483032 0.8099429309368134,1.6198858618736267 l5.6696003675460815,-0.8099429309368134 4.589676558971405,2.6998096704483032 l0.5399619787931442,5.6696003675460815 1.6198858618736267,2.159847915172577 l0.2699809893965721,1.6198858618736267 0.0,5.3996193408966064 l-1.8898668885231018,2.6998096704483032 -2.42982879281044,1.3499048352241516 l-2.9697906970977783,4.049714803695679 -4.319695830345154,-1.0799239575862885 l-1.8898668885231018,-2.42982879281044 -0.5399619787931442,0.0 l-2.9697906970977783,3.2397717237472534 -6.209562420845032,0.0 l-1.3499048352241516,-1.6198858618736267 -0.8099429309368134,-1.8898668885231018 l-0.2699809893965721,1.0799239575862885 -1.0799239575862885,1.0799239575862885 l-3.2397717237472534,0.5399619787931442 -2.6998096704483032,-0.8099429309368134 l-0.5399619787931442,-1.3499048352241516 0.0,-1.6198858618736267 l-1.0799239575862885,0.0 -1.8898668885231018,0.8099429309368134 l-4.85965758562088,0.0 -1.8898668885231018,-2.6998096704483032 l0.2699809893965721,-4.049714803695679 -0.8099429309368134,-1.6198858618736267 l0.5399619787931442,-5.939581394195557 -0.8099429309368134,-0.5399619787931442 l-0.2699809893965721,-1.0799239575862885 0.5399619787931442,-0.5399619787931442 l-1.6198858618736267,0.8099429309368134 -2.42982879281044,0.0 l-0.2699809893965721,0.8099429309368134 -0.8099429309368134,0.0 l0.0,-2.159847915172577 -1.0799239575862885,-4.589676558971405 m48.32659721374512,3.7797337770462036 l1.3499048352241516,-0.8099429309368134 3.7797337770462036,0.0 l1.8898668885231018,0.8099429309368134 1.0799239575862885,0.0 l0.8099429309368134,1.3499048352241516 -1.0799239575862885,0.0 l-1.6198858618736267,1.3499048352241516 -1.6198858618736267,-0.2699809893965721 l-1.3499048352241516,-0.8099429309368134 -1.6198858618736267,0.0 m-51.56636714935303,-6.749524474143982 l-2.42982879281044,0.0 -1.3499048352241516,1.0799239575862885 l-4.049714803695679,4.85965758562088 -0.2699809893965721,2.159847915172577 l1.3499048352241516,1.0799239575862885 4.049714803695679,0.5399619787931442 l3.2397717237472534,0.0 1.3499048352241516,-0.8099429309368134 m-4.589676558971405,-5.939581394195557 l1.0799239575862885,-0.2699809893965721 m-5.6696003675460815,4.85965758562088 l2.159847915172577,-0.8099429309368134 0.2699809893965721,-0.5399619787931442 m14.848953485488892,19.168649911880493 l0.0,5.939581394195557 -1.6198858618736267,3.5097527503967285 l0.0,1.0799239575862885 4.85965758562088,-0.2699809893965721 l-0.2699809893965721,-1.0799239575862885 -4.049714803695679,0.0 m3.2397717237472534,-1.0799239575862885 l0.0,-8.639391660690308 m1.3499048352241516,0.8099429309368134 l0.5399619787931442,0.2699809893965721 0.0,5.129638910293579 l-0.5399619787931442,0.2699809893965721 0.2699809893965721,1.0799239575862885 l2.159847915172577,0.0 1.3499048352241516,-0.8099429309368134 l-3.2397717237472534,-0.2699809893965721 m1.8898668885231018,0.0 l0.0,-6.479543447494507 m21.05851650238037,1.8898668885231018 l-0.2699809893965721,8.909372091293335 -1.8898668885231018,0.5399619787931442 l0.0,0.8099429309368134 4.589676558971405,0.2699809893965721 l1.3499048352241516,-1.0799239575862885 0.0,-1.0799239575862885 l-0.5399619787931442,-0.2699809893965721 -3.2397717237472534,0.2699809893965721 m1.8898668885231018,-7.829448580741882 l0.0,5.6696003675460815 0.5399619787931442,2.42982879281044 l-3.2397717237472534,1.0799239575862885 3.2397717237472534,-0.2699809893965721 m1.0799239575862885,-0.8099429309368134 l-0.5399619787931442,0.0 m2.42982879281044,-7.019505500793457 l0.2699809893965721,3.7797337770462036 -0.8099429309368134,0.8099429309368134 l0.0,1.8898668885231018 4.049714803695679,-0.2699809893965721 l-3.5097527503967285,-0.5399619787931442 2.9697906970977783,-0.5399619787931442 m-0.5399619787931442,-5.3996193408966064 l-0.2699809893965721,5.3996193408966064 " fill="none" stroke="black" stroke-width="1"/></svg>