<svg baseProfile="full" height="128.08186025053374" version="1.1" width="831.6250362756273" xmlns="http://www.w3.org/2000/svg" xmlns:ev="http://www.w3.org/2001/xml-events" xmlns:xlink="http://www.w3.org/1999/xlink"><defs/><rect fill="white" height="128.08186025053374" width="831.6250362756273" x="0" y="0"/><path d="M25,42.16139824129641 m0.0,0.0 m34.244006869744226,20.742534442106262 l0.6802475452423096,0.6929939240217209 1.3337260484695435,6.675884127616882 l0.7926866412162781,9.152722358703613 0.43532393872737885,7.412587404251099 l0.5112600699067116,3.811984062194824 -6.843666596978437e-05,2.5627610087394714 l0.3028531186282635,1.7584988474845886 m3.305293917655945,-32.883262634277344 l-0.13163571245968342,0.7906166464090347 0.7298919558525085,11.688191890716553 l0.8768168836832047,13.152607679367065 0.43489541858434677,5.6152015924453735 l0.555286593735218,3.500385582447052 m-8.386369347572327,-42.40245342254639 l-0.5104571580886841,1.443287432193756 -1.0363803803920746,1.2217305600643158 l-2.5212374329566956,2.7078282833099365 -1.1331131309270859,1.979079246520996 l-0.4228394478559494,1.6958948969841003 9.772539669938851e-05,2.20274418592453 l0.33500775694847107,1.0057500749826431 2.7092087268829346,2.2774457931518555 l2.116510719060898,0.4530567303299904 3.4489837288856506,0.035453790333122015 l2.8705596923828125,-0.8404873311519623 2.159312516450882,-1.4570252597332 l1.4113080501556396,-1.4194168150424957 0.8622431755065918,-1.3404449820518494 l0.7462089508771896,-1.9176387786865234 0.409654825925827,-2.188911736011505 l0.006416821852326393,-1.935565024614334 -0.7177824527025223,-1.6266268491744995 l-0.6523529440164566,-0.7993556559085846 -2.0276647806167603,-1.4531026780605316 l-2.543947994709015,-1.0613548010587692 -1.9123001396656036,-0.48769615590572357 l-1.9643288850784302,-0.08032522164285183 -1.3416977226734161,0.2477189525961876 l-1.393503099679947,0.6515228003263474 -0.8849033713340759,0.6703284382820129 l-0.7107821851968765,0.9660077840089798 -0.8707121014595032,1.946609765291214 l-0.16481349244713783,1.4668074250221252 0.1375189982354641,1.5092438459396362 m9.285919070243835,-6.3668495416641235 l-0.0959173496812582,-2.315244972705841 0.4989916458725929,-8.524147272109985 l0.5727694183588028,-2.4465376138687134 0.5463804677128792,-1.0238197445869446 l1.8966567516326904,-0.754932165145874 1.2683655321598053,0.10587434284389019 l1.7542624473571777,0.5652395635843277 1.3760630786418915,0.7578742504119873 l1.0323144495487213,1.0910864919424057 0.46992648392915726,0.8518056571483612 l0.21459398791193962,0.9058826416730881 0.2949826791882515,2.4108608067035675 l0.09656799957156181,5.401880741119385 -0.6794784963130951,2.066892087459564 l-0.7165029644966125,1.127721220254898 -1.0009783506393433,0.6540744751691818 l-3.277004063129425,0.5577674135565758 -1.0103409737348557,-0.09021156467497349 l-1.1729171872138977,-0.6317400932312012 m64.17209329461912,3.1779852660838515 l-0.7580967247486115,-0.10152322240173817 -1.2644149363040924,0.7014652341604233 l-1.0738404095172882,1.3269661366939545 -1.1534416675567627,2.5828689336776733 l-0.3917715698480606,1.5057064592838287 -0.0001407718264090363,2.5353142619132996 l0.9011045843362808,2.829231023788452 1.8072253465652466,1.9501104950904846 l1.9089466333389282,1.113053634762764 1.3307203352451324,0.40589921176433563 l2.237711101770401,0.3510628640651703 4.347658455371857,-0.08220537565648556 l2.762547731399536,-0.8981551975011826 1.9665265083312988,-0.9326799213886261 l2.5698652863502502,-2.0644523203372955 0.9261629730463028,-1.3687902688980103 l0.5679560825228691,-1.7832304537296295 0.12845251709222794,-1.4601795375347137 l-0.41012801229953766,-2.1518748998641968 -0.520431213080883,-0.954241007566452 l-1.840209811925888,-1.8604718148708344 -3.380655348300934,-1.3748019933700562 l-5.316002368927002,-1.1712423712015152 -2.587292194366455,-0.17411274835467339 l-3.5460686683654785,0.5680883303284645 -0.8628738671541214,0.4280391335487366 m9.807048439979553,1.6872778534889221 l-0.08436452597379684,-0.6648678332567215 1.0901029407978058,-2.573665678501129 l2.688188850879669,-7.123117446899414 1.0068073868751526,-6.313847899436951 l1.572023183107376,-5.681418180465698 0.07967514917254448,-0.2279636263847351 l0.889340415596962,-0.436243899166584 2.230501025915146,-0.42938243597745895 l4.13425475358963,0.3786792978644371 2.257612496614456,0.7050978392362595 l0.28671056032180786,0.3314264491200447 -0.03296507289633155,0.27470435947179794 l-0.5484738945960999,0.7700584828853607 -3.8122305274009705,1.7012648284435272 l-0.9982167184352875,1.3210655748844147 -0.8852187544107437,2.0110365748405457 l-1.3686512410640717,3.932817578315735 -0.500609464943409,2.3920615017414093 l0.00012499002878030296,2.556248903274536 0.3447410836815834,2.9895594716072083 l0.4783829301595688,2.483512759208679 0.0002249429962830618,1.1238570511341095 l-0.3403431922197342,0.7626664638519287 -0.5798619240522385,0.502561628818512 m-13.218269348144531,11.438922882080078 l0.19751712679862976,6.57377302646637 -0.47828223556280136,8.677167892456055 l-0.45990798622369766,2.475210279226303 -0.431518517434597,5.778850317001343 l-0.4003008082509041,1.4548562467098236 1.4101533591747284,0.8168981969356537 l1.6882938146591187,0.7008766382932663 -1.7790773510932922,-0.5005736276507378 l-1.4612872898578644,-0.28583070263266563 0.9681850671768188,0.16455374658107758 l0.5725513026118279,0.08331694640219212 -1.8887309730052948,-0.37418853491544724 l-0.9427698701620102,-0.23602519184350967 -0.24638578295707703,-0.3599647432565689 l0.83051398396492,0.03614373970776796 0.755549743771553,0.4319954290986061 l-0.37334710359573364,-0.03966802731156349 -1.1501462757587433,-0.35066332668066025 l-2.2304779291152954,-1.0851626098155975 0.3193672001361847,1.835609054978704e-05 m10.065525770187378,-23.570735454559326 l1.007126271724701,1.829904466867447 2.4841654300689697,7.993205785751343 l1.0501546412706375,5.46230673789978 0.3707462176680565,4.691104888916016 l-2.657771408557892,0.5337579175829887 -1.6732753813266754,0.6912414729595184 l-1.2659034132957458,1.3593962788581848 3.2492518424987793,-1.3811162114143372 l1.8647220730781555,-0.27810901403427124 1.1058084666728973,0.0001490413887950126 l0.6845835596323013,1.7959792912006378 -0.04938426427543163,-1.2340974807739258 l-0.5849489569664001,-1.7834468185901642 -0.7284317910671234,-1.6281522810459137 l-0.37762951105833054,-1.070500984787941 -0.524325780570507,-2.360144853591919 l-0.13267009519040585,-2.6588699221611023 0.3049546107649803,-1.0494138300418854 l2.777984142303467,-2.7177387475967407 1.5321357548236847,-0.868610143661499 l2.587868869304657,-0.3381957486271858 4.464636743068695,0.400150902569294 l0.5986577644944191,0.2109445072710514 1.942630559206009,0.5672167241573334 l1.991841197013855,-0.08350619114935398 0.06075857672840357,-0.9033176302909851 l-0.83497554063797,-1.3164003193378448 -0.8170024305582047,-0.6636036187410355 l-3.9339956641197205,-0.6334467232227325 -3.1711941957473755,-0.6462878733873367 l-1.1415546387434006,-0.32824788242578506 -1.9508539140224457,0.026621338911354542 m74.78977530020074,-18.223656595614557 l2.845989763736725,-1.5597008168697357 3.4026220440864563,-1.5193456411361694 l4.306655526161194,-0.9914242476224899 1.4333643019199371,-0.010202353587374091 l1.8740680813789368,0.5523903295397758 1.167668178677559,0.7539137452840805 l0.957818478345871,1.211371123790741 0.9967543184757233,2.2141173481941223 l0.5615637823939323,2.075834423303604 0.4335087165236473,3.6271217465400696 l0.10589577257633209,2.470000237226486 -0.32251283526420593,2.7753743529319763 l-0.4610082879662514,1.045851781964302 -1.4751525223255157,1.8669645488262177 l-1.4323821663856506,1.0316328704357147 -2.83829927444458,0.9113070368766785 l-3.1714320182800293,0.1416191179305315 -3.847567141056061,-0.800844207406044 l-1.6561238467693329,-0.7498716562986374 -2.146536409854889,-1.47252157330513 l-1.643548458814621,-1.993304193019867 -0.6662113219499588,-1.6107438504695892 l-0.31474802643060684,-2.528868317604065 0.9559526294469833,-6.252979040145874 l2.061788886785507,-3.439258635044098 1.5529172122478485,-1.8575958907604218 l2.4916817247867584,-1.7548079788684845 3.675853908061981,-2.2874674201011658 l-0.3482557088136673,-1.1122265458106995 -0.7147260010242462,-1.3704408705234528 l-1.5071633458137512,-1.9993668794631958 -0.84177166223526,-1.449832171201706 l-0.9963409602642059,-1.112048327922821 -2.091515362262726,-1.0493677109479904 l-1.4267724752426147,-0.23174094036221504 -1.7071186006069183,0.08228599093854427 l-2.940613329410553,1.156291738152504 -1.303410679101944,0.8137676119804382 l-1.8647797405719757,2.059420794248581 -1.716063767671585,3.1429556012153625 l-0.6850451231002808,3.962854743003845 0.770769789814949,4.109392464160919 l0.9982533752918243,2.394397109746933 1.1558769643306732,1.5475144982337952 l0.9212956577539444,0.7478515803813934 2.100670039653778,0.4180268570780754 l0.8947103470563889,-0.843045711517334 0.6228200346231461,-1.374923437833786 l0.27487071231007576,-2.989491820335388 -0.1254673022776842,-2.3321297764778137 l-0.5236135423183441,-2.0489858090877533 -0.9280332177877426,-1.6656918823719025 l-0.7775229215621948,-0.9198470413684845 m1.6236844658851624,-0.3921952098608017 l-0.6173304840922356,-0.7640840858221054 -0.4858095571398735,-0.8364975452423096 l-0.23840775713324547,-0.8821392804384232 -0.08060465566813946,-0.7084813714027405 l0.36968182772397995,-0.7906631380319595 0.7779265195131302,-0.638645589351654 l0.6185413151979446,-0.2342730015516281 0.528724305331707,0.13854976743459702 l0.21424852311611176,0.6551899760961533 m8.36347222328186,30.55126428604126 l-0.47331981360912323,1.0120224952697754 -0.7132527232170105,3.094659149646759 l-1.9524945318698883,6.971340179443359 -0.9473980218172073,2.511683702468872 l-0.24000011384487152,1.3183529675006866 m9.072977900505066,-17.147340774536133 l0.2570980042219162,5.063413977622986 0.5754600092768669,5.852782130241394 l0.4335792735219002,2.5519514083862305 0.4025184363126755,1.1609219759702682 m57.066202424439325,-49.7491824867393 l0.8854560554027557,-0.09011189453303814 1.3399630784988403,0.4786389321088791 l0.9996982663869858,0.5113039538264275 1.6994114220142365,1.5010641515254974 l0.6542223691940308,0.9512641280889511 0.533137135207653,1.4431345462799072 l0.2632911875844002,4.410553574562073 -0.7385767996311188,6.039611101150513 l-0.5582012236118317,1.7264968156814575 -4.3234294935246e-05,4.212125241756439 l1.2299804389476776,4.060711860656738 1.0798021405935287,1.98458731174469 l1.636514961719513,1.64910688996315 1.1725429445505142,0.7699152082204819 l2.402978390455246,0.9897235035896301 3.952721953392029,-8.042185072554275e-05 l3.1557810306549072,-0.6390117853879929 5.419903993606567,-1.849299818277359 l2.7514535188674927,-1.6464732587337494 1.282212883234024,-1.3109517097473145 l0.7413908094167709,-1.2495820224285126 0.43105296790599823,-1.4807207882404327 l-0.021386458538472652,-2.13831290602684 -0.3145972639322281,-1.0459965467453003 l-0.6916254758834839,-1.0921652615070343 -1.4140018820762634,-0.7988427579402924 l-3.574623167514801,-0.8123430609703064 -2.6683256030082703,-0.24288002401590347 l-3.0178582668304443,0.30080169439315796 -4.25573855638504,1.136135682463646 l-2.158171683549881,0.7960635423660278 -3.2146215438842773,1.8794161081314087 l-1.485813558101654,1.285921037197113 -0.8965648710727692,0.40165454149246216 m-3.7362807989120483,-22.318365573883057 l-1.8718838691711426,2.4331213533878326 -1.8266817927360535,2.227654755115509 l-1.0479958355426788,1.7671409249305725 -0.22064391523599625,1.121440976858139 l0.16405144706368446,0.9810709208250046 0.6386317312717438,0.7565410435199738 l1.6101361811161041,0.48780735582113266 1.5588666498661041,-0.03853687550872564 l1.7952416837215424,-0.7560379058122635 1.0619889944791794,-0.8223415166139603 m-2.269691377878189,-3.141568899154663 l-1.0945071280002594,0.01191832241602242 -2.3595792055130005,0.9758632630109787 l-1.6985496878623962,1.3369126617908478 -1.5987592935562134,1.6818954050540924 l-1.3165605068206787,2.319132089614868 -0.8322475105524063,2.665802240371704 l-0.33201374113559723,2.113739252090454 0.07868024520576,1.057019978761673 l0.5569936707615852,0.9845825284719467 0.988214984536171,0.8289152383804321 l1.5205107629299164,0.4580594226717949 0.9710018336772919,0.024634208530187607 l1.1887747794389725,-0.8393868058919907 1.189054399728775,-1.9307070970535278 l1.168661117553711,-3.2216376066207886 0.4914093390107155,-3.164513409137726 l0.11225172318518162,-2.6911434531211853 -0.3795050084590912,-2.3231729865074158 l-0.797630101442337,-2.6415789127349854 m14.743149280548096,28.01952600479126 l-0.26291752234101295,6.430304646492004 0.1933971792459488,7.1654826402664185 l0.8453498035669327,7.764359712600708 0.6518228352069855,2.9084450006484985 l-2.2080856561660767,1.762363761663437 -2.202499508857727,1.2236984074115753 m4.526900053024292,-4.160743355751038 l-1.854623705148697,3.940506875514984 -0.14393340796232224,0.8646044135093689 m2.6440834999084473,-6.078053712844849 l0.6703668832778931,3.8963299989700317 0.41526537388563156,1.2491170316934586 m62.722154969593475,-29.075108316171736 l-0.033648095559328794,2.7846914529800415 -2.1315111219882965,5.5413007736206055 l-0.002113233640557155,7.691102623939514 -0.9731658548116684,5.7369959354400635 l-0.8135901391506195,3.1061741709709167 9.848671425061184e-06,1.8351797759532928 l0.05755576305091381,0.4994392767548561 0.00010373849363531917,2.820259928703308 l0.54545558989048,2.7882105112075806 9.33053161134012e-05,3.924347162246704 m11.404868364334106,-37.441604137420654 l-4.7252642616513185e-05,6.6843873262405396 -0.988614484667778,7.34335720539093 l-9.753248377819546e-06,12.286691665649414 -0.34226201474666595,1.8472495675086975 l1.8917744455393404e-05,4.70777690410614 -0.1830335520207882,3.359414041042328 m-2.338723838329315,-50.6282377243042 l-1.5345901250839233,0.3957626596093178 -1.6061106324195862,0.7732768356800079 l-1.1706051975488663,0.7549325376749039 -1.72278493642807,2.218664139509201 l-0.48851657658815384,1.0862770676612854 -1.1903215944766998,3.5565322637557983 l0.0001814387178455945,2.731960713863373 0.6174462288618088,1.5783868730068207 l1.1510391533374786,1.3607744872570038 1.7070198059082031,1.08380988240242 l1.2868590652942657,0.3889260068535805 6.085678339004517,0.29645713046193123 l1.728297472000122,-0.5643103271722794 2.0782379806041718,-1.2892372906208038 l1.060212105512619,-1.1384088546037674 1.6747885942459106,-2.8544247150421143 l0.5597725138068199,-1.5888836979866028 0.2845204994082451,-2.1990974247455597 l0.00011489172720757779,-2.4806474149227142 -0.33482596278190613,-0.903143435716629 l-1.3763195276260376,-1.8128381669521332 -3.763907253742218,-1.927802413702011 l-2.071361094713211,-0.3884115070104599 -2.6420333981513977,-3.5623447729449254e-05 l-0.7771727442741394,0.2828000858426094 -0.9751922637224197,0.9723200649023056 m8.774917125701904,0.6222134828567505 l0.00011645242011582013,-5.566868782043457 -0.30570801347494125,-3.045567572116852 l6.758072004231508e-06,-3.605431318283081 0.2880704216659069,-1.7949581146240234 l0.4051094129681587,-0.6276357918977737 1.239519715309143,-0.745895504951477 l3.7624987959861755,-6.684174877591431e-05 2.318798154592514,-5.3944768296787515e-06 l1.3996963202953339,0.3829309716820717 0.9728600829839706,0.8005453646183014 l0.8778902143239975,1.728908121585846 1.032261848449707,2.51087486743927 l8.054472345975228e-05,1.3535679876804352 -0.43639007955789566,0.5470294505357742 l-0.7990314811468124,0.320790596306324 -1.6094723343849182,-0.13751422055065632 l-2.8808581829071045,-1.8009710311889648 -1.8074625730514526,-0.574813112616539 l-1.8516317009925842,0.0001368023185932543 -0.5698297917842865,1.891053318977356 l1.0711243021432892e-05,2.4665142595767975 9.118214620684739e-05,3.5522547364234924 l0.5068992078304291,2.9304569959640503 0.00012565648830786813,2.530619502067566 l0.29635144397616386,0.8064479380846024 m6.296600103378296,-15.345929861068726 l0.15933649614453316,-6.0196589402039535e-05 m71.28588881800624,25.09842874670767 l-0.6468168646097183,-0.15370608307421207 -1.8697565793991089,0.7688023149967194 l-1.8793299794197083,1.3345278799533844 -0.8194524049758911,0.9850937873125076 l-0.877082347869873,1.8749144673347473 -0.4132610186934471,2.35366553068161 l-7.428909611917334e-05,2.367377430200577 0.4425803944468498,1.908162236213684 l0.43563686311244965,0.7166144996881485 2.1988941729068756,1.4816898107528687 l1.8810732662677765,0.5482055619359016 2.9533857107162476,0.07256239652633667 l2.614549994468689,-0.7016611844301224 3.2399868965148926,-2.062525898218155 l1.5167838335037231,-1.6682012379169464 1.0804490745067596,-1.9836719334125519 l0.5987992137670517,-1.9708941876888275 0.10182962752878666,-1.9306845963001251 l-0.5769011750817299,-2.4588648974895477 -1.3699810206890106,-1.5943564474582672 l-2.3921629786491394,-1.5038062632083893 -4.113542139530182,-0.6845802068710327 l-2.026366889476776,0.2602083422243595 -1.2014659494161606,0.6915812939405441 l-1.0569890588521957,1.076279655098915 -0.48855625092983246,0.8427592366933823 m3.4916961193084717,2.394208312034607 l-0.16556842252612114,-0.3320413827896118 -1.869330108165741,-3.4957006573677063 l-1.5934422612190247,-3.828376531600952 -0.6554241478443146,-3.992539942264557 l0.19662171602249146,-3.894387185573578 -0.03633000189438462,-4.203311502933502 l-0.6496179848909378,-4.623165726661682 -2.0014722645282745,-6.619345545768738 l-1.6201601922512054,-2.4951820075511932 -1.391461044549942,-0.7904451340436935 l-3.507160246372223,0.067046950571239 -1.125325933098793,0.3277900069952011 l-1.723352074623108,1.1105024814605713 -0.6192678958177567,0.7153980433940887 l-0.5108806490898132,1.1471835523843765 -0.01950200879946351,1.1593347042798996 l0.6585492193698883,1.5174604952335358 1.9271264970302582,0.7392147183418274 l1.5809780359268188,-9.895316907204688e-05 1.308637112379074,-0.7005775719881058 l1.668509840965271,-2.029038220643997 0.5639870837330818,-1.9542856514453888 l0.00015432680811500177,-1.3763204216957092 m-2.3094342648983,2.2137856483459473 l1.1708831787109375,-0.35440195351839066 2.3403261601924896,0.401487834751606 l3.4547919034957886,2.6430606842041016 0.9508214145898819,1.2742987275123596 l0.6811200082302094,1.3230790197849274 0.8467240631580353,2.847021222114563 l0.43113965541124344,5.052885413169861 5.52460096514551e-05,5.204993486404419 l-1.6986377537250519,9.303650259971619 -0.7367327064275742,3.658590018749237 l-0.30140221118927,8.094748854637146 0.4504641517996788,2.3156793415546417 m2.1856430172920227,-1.222219541668892 l0.2685450576245785,3.3054253458976746 1.0180479288101196,5.0352829694747925 l0.521332398056984,5.282397270202637 0.7526944577693939,3.6411121487617493 l0.3746488690376282,4.14003849029541 -0.031546708196401596,0.009269784204661846 l-1.048075333237648,-0.5882169306278229 -2.795184850692749,-0.7313667982816696 l0.5926469713449478,-0.14110583811998367 2.1670526266098022,-0.18607515841722488 l2.594071328639984,2.4618270799692255e-05 0.06473395973443985,0.4012567549943924 l-2.9464173316955566,0.8425185829401016 -1.4498668909072876,-6.391389888449339e-05 m4.030272364616394,-20.296130180358887 l0.08660545572638512,0.5256565660238266 0.7034176588058472,8.683797717094421 l0.1782631129026413,6.202736496925354 0.47902923077344894,3.5424229502677917 l0.4635222628712654,-0.057489508762955666 1.2382904440164566,-0.69129578769207 l0.4490653797984123,-0.24086825549602509 0.23342519998550415,-0.33328860998153687 l0.03699189284816384,-0.633600503206253 -0.6991567462682724,-0.9742759168148041 l-0.20562585443258286,-0.4371820390224457 -0.0461261160671711,-2.7431532740592957 l0.23287970572710037,-1.3203591108322144 1.221230924129486,-3.879087269306183 l0.4384826123714447,-2.72912859916687 4.111909220227972e-05,-3.659866452217102 m60.60084136323894,-44.776746241137744 l-0.8122340589761734,0.264790803194046 -1.4997084438800812,1.4593230187892914 l-0.7728462666273117,1.082901731133461 -1.5252327919006348,3.7226903438568115 l-0.3133895993232727,2.1300581097602844 0.5900198221206665,1.9035282731056213 l0.5589929968118668,0.6539825350046158 0.8267541974782944,0.24831341579556465 l1.2073084712028503,-0.10680306702852249 1.0817182809114456,-0.6120193004608154 l1.864326149225235,-1.9028718769550323 0.9380363672971725,-1.201317086815834 l1.002945676445961,-1.5306206047534943 0.6681077927350998,-2.5300657749176025 l0.004024305671919137,-1.2296877801418304 -0.5767571181058884,-1.5519227087497711 l-1.2839961051940918,-1.2668615579605103 m-5.595133304595947,4.611979424953461 l-0.9015236794948578,0.1379993837326765 -1.1083247512578964,0.7550248503684998 l-1.919276863336563,1.8456591665744781 -1.139245480298996,1.5923669934272766 l-1.0434623062610626,2.1848930418491364 -0.6102978065609932,2.191954255104065 l-0.05720042157918215,1.4628654718399048 3.39096337556839,-3.48921000957489 l1.8133831024169922,-1.4188186824321747 1.8547408282756805,-0.9486107528209686 l1.5515683591365814,-0.4699093848466873 m7.227904796600342,-7.153062224388123 l-0.11376233771443367,1.315748393535614 -0.49152661114931107,2.350222021341324 l-1.6769048571586609,6.1849552392959595 -0.6397378444671631,8.266255259513855 l0.5090999230742455,13.88218879699707 0.7269728928804398,2.8984737396240234 l0.9093024581670761,1.550745666027069 1.843942254781723,1.9313693046569824 l1.8722271919250488,0.9078750014305115 2.9024529457092285,0.9025409072637558 l3.4707990288734436,0.48806745558977127 6.047639846801758,-0.19440408796072006 l3.49490225315094,-0.9687415510416031 1.038784608244896,-0.5159729346632957 l1.3206414878368378,-1.1051275581121445 0.6104100868105888,-0.9993617236614227 l0.4684216156601906,-2.4692489206790924 -0.2733053080737591,-2.2876618802547455 l-0.4786241054534912,-1.115221530199051 -2.101728320121765,-2.2844840586185455 l-2.9279527068138123,-1.4310550689697266 -2.1869584918022156,-0.6343112885951996 l-4.098124206066132,-0.3608590364456177 -3.480026423931122,-3.153424358970369e-05 l-2.9615145921707153,0.4265196993947029 -1.6868856549263,0.4617132246494293 l-1.5587377548217773,0.6456100940704346 -2.466679662466049,1.786186397075653 m9.058743119239807,10.960625410079956 l0.0056640239199623466,2.729097902774811 0.17199968919157982,14.557586908340454 l0.4590529575943947,4.505710005760193 0.35370294004678726,1.4010119438171387 l-1.4917394518852234,0.22898133844137192 m6.559285521507263,-22.80848503112793 l-0.27321385219693184,1.5634991228580475 -0.8002597838640213,13.004385232925415 l-0.01583988661877811,6.463820934295654 m72.1587633289164,-34.08978613110435 l1.5457724034786224,-3.1607547402381897 1.9278497993946075,-2.007169723510742 l2.8418245911598206,-2.087249606847763 2.6756879687309265,-1.0691927373409271 l3.7643325328826904,-0.7181229442358017 2.6209962368011475,0.013102930970489979 l2.7392947673797607,0.7494392246007919 2.4152956902980804,1.2320654839277267 l2.0753800868988037,3.0684620141983032 0.5949099361896515,1.4918477833271027 l0.4802139103412628,4.598376750946045 -0.3565703332424164,2.903296649456024 l-0.6992162764072418,1.8650518357753754 -1.5897296369075775,2.517840564250946 l-1.4636896550655365,1.5662214159965515 -1.8742367625236511,1.3284778594970703 l-1.748599261045456,0.8841050416231155 -4.6710339188575745,1.3684360682964325 l-8.33764910697937,-0.2512221224606037 -1.778540015220642,-0.4365686699748039 l-3.530190587043762,-1.272042989730835 -2.16112419962883,-1.4489060640335083 l-0.9143921732902527,-1.0728346556425095 -0.9329254180192947,-1.941983550786972 l-0.7652336359024048,-4.575003981590271 0.6324315816164017,-6.524759531021118 l2.9604724049568176,-6.108487844467163 3.7993139028549194,-6.042126417160034 l1.726669818162918,-3.4971407055854797 0.8986030519008636,-3.469022512435913 l-0.08439413271844387,-6.845054030418396 -1.1724288761615753,-3.4061208367347717 l-1.3545042276382446,-2.6178213953971863 -1.5237990021705627,-1.8664763867855072 l-4.327391088008881,-1.9782283902168274 -2.540559768676758,-0.409124493598938 l-3.4255385398864746,0.39514385163784027 -1.4299456775188446,0.5087723955512047 l-2.315877079963684,1.5618965029716492 -1.6702988743782043,1.7926642298698425 l-1.4481396973133087,2.093445509672165 -1.528652012348175,3.561190664768219 l-1.0834018886089325,6.714428067207336 0.17386296764016151,5.263496041297913 l0.40936384350061417,1.8723925948143005 0.9201470762491226,1.8708471953868866 l1.551765650510788,1.9896480441093445 2.0088468492031097,1.7530888319015503 l4.95023638010025,2.1786506474018097 2.1148622035980225,0.5217843875288963 l3.1460651755332947,0.14109129086136818 5.704473853111267,-1.7716579139232635 l2.1715767681598663,-1.2981021404266357 1.6395734250545502,-1.6402655839920044 l-9.001169019029476e-06,-0.308607816696167 -0.8043123781681061,-0.6722989678382874 l-3.88009250164032,-1.6415989398956299 -2.5985851883888245,-1.2277492135763168 l-4.068806767463684,-2.8384679555892944 -2.007029354572296,-4.153001010417938 l-0.018595877336338162,-5.209779739379883 0.37145890295505524,-1.0108335316181183 l1.4605998992919922,-1.7467103898525238 m15.116326808929443,46.447625160217285 l-0.5838453397154808,2.6705580949783325 -1.4566367864608765,8.748917579650879 l-1.3093063235282898,9.0497225522995 -1.16403728723526,0.38235172629356384 m7.100787162780762,-22.661139965057373 l-1.4872053265571594,3.1239914894104004 -0.9447897970676422,3.7727341055870056 l-0.5446182936429977,3.9580264687538147 -0.20301423966884613,6.307791471481323 l-0.4349486529827118,2.8153544664382935 0.00016124871763167903,2.094387263059616 l-0.3942098096013069,1.3442045450210571 -1.5304180979728699,1.2472949922084808 m64.2907022053032,-68.63554480431048 l-0.7085593044757843,-0.31966447830200195 -1.812354326248169,0.013663147110491991 l-1.295076161623001,0.2903183735907078 -2.3124001920223236,1.5683458745479584 l-1.8314218521118164,2.1793709695339203 -0.8787601441144943,1.671571433544159 l-0.49596551805734634,1.6703562438488007 -4.924871518596774e-05,2.652045488357544 l0.34432023763656616,0.9530117362737656 0.6598889082670212,0.8137205243110657 l1.2255294620990753,0.9119132906198502 1.307443082332611,0.5235056951642036 l0.8563854545354843,-7.88864417700097e-05 2.8428828716278076,-0.49243975430727005 l1.8056048452854156,-1.0592730343341827 1.0781478136777878,-1.0960417985916138 l1.3002072274684906,-4.189912378787994 -0.04416882060468197,-2.0230144262313843 l-0.26979822665452957,-0.8623266220092773 -0.5900289863348007,-0.7270397990942001 l-0.9038349241018295,-0.5400177836418152 -1.0438374429941177,-0.2522878162562847 m-1.2166619300842285,9.68074083328247 l0.36142006516456604,4.166898727416992 0.6272824853658676,3.2795891165733337 l0.0001452442847948987,5.445885062217712 0.6148360669612885,5.078050494194031 l0.4325636103749275,7.328745126724243 0.4180382564663887,1.7184047400951385 m-1.0072140395641327,-27.334518432617188 l-0.23080941289663315,0.9600722044706345 0.11222418397665024,3.585127592086792 l1.812630146741867,13.95618200302124 0.14022083953022957,4.4717007875442505 l0.2989967167377472,1.6936013102531433 m0.4574991762638092,-0.9414785355329514 l0.4013173282146454,-0.7742069661617279 0.9843702614307404,-0.6904956698417664 l1.905456930398941,-0.8431991189718246 8.94782304763794,-1.6751392185688019 l3.6915645003318787,-0.10438114404678345 2.572389245033264,0.30968720093369484 l3.3489033579826355,1.0024012625217438 2.666131854057312,1.387430727481842 l1.430007815361023,1.3199923932552338 1.3925133645534515,1.9443409144878387 l0.7001341134309769,2.770113945007324 0.03985763993114233,1.2624137103557587 l-0.8604577928781509,2.8997790813446045 -0.7545104622840881,1.1891493946313858 l-1.0861854255199432,1.0994895547628403 -1.122528314590454,0.7642548531293869 l-1.5490274131298065,0.6122688576579094 -3.999999463558197,0.8066992461681366 l-4.544207453727722,0.13302060775458813 -8.311489224433899,-1.019877940416336 l-2.4833835661411285,-0.8171910047531128 -2.9197314381599426,-1.4180883765220642 l-2.206444591283798,-1.6165909171104431 -1.0089464485645294,-1.3489419221878052 l-0.8554070442914963,-2.191024124622345 -0.2999376319348812,-2.9609426856040955 l0.2722734585404396,-2.1073873341083527 0.5733214318752289,-1.6143441200256348 m14.608358144760132,15.123648643493652 l-0.29734497889876366,2.424076497554779 0.42627695947885513,9.627017378807068 l-0.2831912599503994,5.002946853637695 m1.5285079181194305,-18.023630380630493 l0.03120357869192958,2.8948238492012024 -0.5538445711135864,8.657673001289368 l-0.4491279274225235,0.6582344323396683 -2.7207791805267334,0.3513500839471817 m58.643005898138654,-25.936075029349013 l0.42807135730981827,0.3816218301653862 2.579565942287445,2.58937805891037 l1.3629086315631866,0.8341905474662781 4.696195721626282,1.516115516424179 l4.3322813510894775,0.22113805636763573 2.355639785528183,-0.2371152862906456 l2.569286823272705,-0.6005304306745529 2.8862160444259644,-1.0751333832740784 l2.583022713661194,-1.785709261894226 1.162671446800232,-1.6326284408569336 l0.49038130789995193,-1.7171567678451538 0.1986711472272873,-3.1505227088928223 l-0.4032888263463974,-2.8110700845718384 -0.9256718307733536,-2.5653478503227234 l-0.9795864671468735,-1.8153402209281921 -1.7455556988716125,-2.9084035754203796 l-1.0403531789779663,-1.2803494930267334 -0.8578730374574661,-0.8648741990327835 l-1.0553587973117828,-0.6854945421218872 -3.0264505743980408,-1.3826237618923187 l-1.6667389869689941,-0.1974271610379219 -4.724903404712677,0.9562193602323532 l-3.10235857963562,1.7152564227581024 -1.3897177577018738,1.2185223400592804 l-2.6084494590759277,5.088767409324646 -0.4841981828212738,1.8048273026943207 l7.001681296969764e-06,2.023736983537674 0.8160761743783951,2.265683561563492 l1.6038116812705994,1.9595901668071747 1.4913973212242126,0.8098581433296204 l0.8327778428792953,0.2090585045516491 3.0046138167381287,-0.2910509891808033 l1.4211982488632202,-0.7440529018640518 m2.9432421922683716,-14.297034740447998 l0.12712507508695126,-0.3733028471469879 0.9916254878044128,-1.4015699923038483 l3.0035966634750366,-3.8854071497917175 1.4888107776641846,-1.406782865524292 l5.281481146812439,-2.1871374547481537 1.774672120809555,-0.07562713697552681 l1.1142567545175552,0.22406181320548058 1.1025562137365341,0.6310668587684631 l1.0980582237243652,1.0686953365802765 0.8072955906391144,1.2346071749925613 l0.40508177131414413,1.0893058776855469 0.14243103563785553,1.10859215259552 l-0.2852160856127739,1.0160860419273376 -1.3841746747493744,1.4846430718898773 l-1.4658483862876892,0.9121981263160706 -3.6773136258125305,0.605369433760643 l-2.883377969264984,-0.24710442870855331 -2.74408221244812,-0.7202939689159393 l-1.591860055923462,-0.9200389683246613 -1.491798758506775,-1.121201440691948 m-5.093055367469788,21.115810871124268 l-0.030149829108268023,1.3960692286491394 -0.3311344236135483,2.448761910200119 l-3.0999594926834106,11.789166927337646 -1.092013567686081,2.8435152769088745 l-0.16414444893598557,1.2168583273887634 m11.83627724647522,-18.671761751174927 l0.39824478328227997,1.7705543339252472 0.34289658069610596,5.7909029722213745 l0.5829902365803719,3.8863763213157654 0.5085868015885353,8.674732446670532 l0.40991563349962234,1.534992754459381 m7.3029625415802,-47.35752582550049 l1.6513410210609436,0.042837285436689854 2.539164423942566,0.3623924031853676 l1.3804692029953003,0.05638797767460346 3.9308354258537292,0.37258077412843704 l3.2564178109169006,0.8092448115348816 1.3161051273345947,0.8157093077898026 l1.0879530757665634,1.4881913363933563 0.527321994304657,1.4902354776859283 l0.0001255551524081966,1.370772272348404 -0.5338381975889206,0.975191742181778 l-1.4039340615272522,0.8825716376304626 -2.6344218850135803,0.37408601492643356 l-5.8915674686431885,-7.199774245236767e-05 -1.4750368893146515,-0.19931526854634285 l-2.2733174264431,-0.8481428027153015 -2.148342877626419,-1.5062978863716125 l-0.859992727637291,-0.8892440795898438 " fill="none" stroke="black" stroke-width="1"/></svg>