<svg baseProfile="full" height="97.7099326796008" version="1.1" width="842.7613093444648" xmlns="http://www.w3.org/2000/svg" xmlns:ev="http://www.w3.org/2001/xml-events" xmlns:xlink="http://www.w3.org/1999/xlink"><defs/><rect fill="white" height="97.7099326796008" width="842.7613093444648" x="0" y="0"/><path d="M25,25 m0.0,0.0 m5.353696699739885,18.968064995907525 l4.158810973167419,0.009937627473846078 6.2033408880233765,-3.8451287150382996 l5.125826001167297,-4.976210594177246 3.0529597401618958,-2.3843711614608765 l1.3970141112804413,-0.35282988101243973 1.9807466864585876,0.8880595862865448 l1.7553110420703888,2.4789632856845856 0.7689570635557175,4.319506585597992 l-1.867808848619461,3.6518529057502747 -3.8741615414619446,2.8168734908103943 l-8.37182104587555,2.512817084789276 -5.747283101081848,-0.5042450129985809 l-1.2359201908111572,-0.8331035077571869 -1.073676124215126,-2.5673630833625793 l0.00034209591831313446,-1.6825300455093384 1.8209163844585419,-2.382020056247711 l4.05521959066391,-1.9968637824058533 4.426546394824982,-1.1256058514118195 l4.5620957016944885,-0.21306073293089867 4.242670238018036,0.5759863182902336 l3.9583662152290344,0.9780603647232056 9.491562247276306,0.49807172268629074 l9.367280006408691,-0.8001217991113663 9.37410593032837,-2.0874784886837006 l5.030959844589233,0.00028893873604829423 3.972938656806946,1.2839855253696442 l3.494154214859009,2.356235235929489 2.6223304867744446,3.549807071685791 l3.2705074548721313,5.942670106887817 2.5658681988716125,5.987739562988281 l0.8095884323120117,3.6518174409866333 0.00018514530893298797,4.443221986293793 l-1.6334372758865356,3.7065422534942627 -2.791301906108856,3.0504000186920166 l-3.6741438508033752,1.6403011977672577 -3.976985812187195,0.149662084877491 l-1.3434703648090363,-0.87440125644207 -1.0146192461252213,-4.6670496463775635 l-1.5010122954845428,-4.901120960712433 -0.7385290414094925,-1.289028376340866 l-2.293277084827423,-1.4792048931121826 -3.121514618396759,-0.1795358955860138 l-3.4223639965057373,1.9393236935138702 -3.209637701511383,4.561163485050201 l-4.664793312549591,5.614863038063049 -5.115405917167664,0.0003847217885777354 l-2.7828890085220337,-2.0162081718444824 -1.6730785369873047,-3.3162301778793335 l-0.8647779375314713,-5.913227200508118 -0.8067870140075684,-1.192605122923851 l-2.8883054852485657,-1.1305203288793564 -3.8155922293663025,0.00013717834917770233 l-5.246497988700867,1.546856164932251 -1.7613475024700165,1.929243803024292 l-3.623318374156952,5.5920058488845825 -2.7525800466537476,1.7794227600097656 l-1.4603206515312195,0.15402345918118954 -2.0548266172409058,-1.6766518354415894 l-1.3173609972000122,-3.6219441890716553 0.5014785379171371,-4.214659035205841 l1.820453405380249,-4.0426066517829895 2.3396852612495422,-3.007493317127228 l2.48487651348114,-2.233840823173523 0.751916915178299,-1.286330372095108 l1.8345847725868225,-1.6101603209972382 0.573652870953083,-1.2482238560914993 l1.895184963941574,-1.5828563272953033 m-3.521732985973358,-3.698658049106598 l-1.3819284737110138,0.28025753796100616 -0.8928575366735458,1.2464877218008041 l1.1650103330612183,4.770748091686983e-05 1.8925748765468597,-1.6025382280349731 l-0.7415414601564407,-0.5984200164675713 m-1.2616463005542755,1.0469536483287811 l-0.17624430358409882,0.00017938291421160102 0.33803995698690414,0.0254087639041245 l-0.018394552171230316,-0.3548501431941986 -0.2804534323513508,0.10911403223872185 m-2.747352123260498,1.3672025501728058 l0.5672603845596313,0.0002945961750810966 -0.00040369155613007024,0.3413199633359909 l0.08746952749788761,-0.33030640333890915 m-2.581394612789154,0.7458218932151794 l-0.008927140734158456,0.0003415945320739411 0.6136781349778175,-0.2613895758986473 l0.15266111120581627,7.080123396008275e-05 -0.5377443134784698,0.13035502284765244 l-0.0001907653859234415,0.24532193318009377 0.06924948189407587,-0.17741115763783455 l-0.10272360406816006,-0.015948559157550335 -0.00020535950170597062,0.23999514058232307 l-0.06238029804080725,-0.22297266870737076 -0.0002332252188352868,0.17920901998877525 l-0.00022387763237929903,-0.030430236365646124 -0.0002064444197458215,-0.05065800156444311 l-0.00021483636373886839,0.07129417732357979 -0.0001984197115234565,0.07978642359375954 l-0.008950938936322927,-0.4136572405695915 0.03281395882368088,-0.041554076597094536 l-0.00024067187041509897,0.2114553563296795 -0.00015810983313713223,0.06328953895717859 l0.019842972978949547,-0.42395085096359253 -0.07898748852312565,-0.15547403134405613 l-0.017602575244382024,-0.1615620031952858 0.13544831424951553,-0.20262770354747772 l-0.0507319625467062,-0.2035321667790413 -0.00019662176782730967,0.5773564800620079 l-0.2470017969608307,2.3600093754794216e-05 0.22992780432105064,-0.5049200356006622 l0.10010008700191975,-2.1179494069656357e-05 -0.00019348737623658963,0.4222538322210312 l0.07727946620434523,-0.37533901631832123 -0.01989078475162387,-0.31440965831279755 l-0.05897419527173042,-0.11922442354261875 0.061655594035983086,-0.21745732054114342 l-0.00020999623302486725,0.4273013398051262 0.10571952909231186,-0.2903111092746258 l-0.013691940112039447,-0.27794647961854935 -0.07446256931871176,-0.11883947998285294 l-0.00021931897208560258,0.4443668946623802 0.1256604678928852,-0.32270196825265884 l-0.04432972054928541,-0.33307328820228577 -0.058376030065119267,-0.08000054396688938 l0.013587238499894738,-0.1562901958823204 0.00991387409158051,-0.1406578440219164 l0.07022696547210217,-0.237981416285038 -0.04726956598460674,-0.12202171608805656 l0.034283960703760386,-0.06803416181355715 0.04997069947421551,-0.11073607951402664 l-0.011196095729246736,-0.17656724900007248 -0.07680855691432953,-0.10712272487580776 l0.08181760087609291,-0.15986459329724312 -0.009527959045954049,-0.1486037578433752 l-0.035597020760178566,-0.07705344818532467 0.04723025020211935,-0.13971948064863682 l-0.03146345028653741,-0.16203636303544044 -0.06710364483296871,-0.11517553590238094 l0.0756734237074852,-0.14813772402703762 -0.0002504121403035242,0.3831152617931366 l0.20843703299760818,-0.2504824101924896 -0.11044906452298164,-0.2956074848771095 l-0.08938825689256191,-0.15000500716269016 -0.017823028611019254,-0.14556041918694973 l-0.00023147595129557885,0.3177659958600998 0.19369175657629967,-0.30480578541755676 l-0.15727339312434196,-0.27354830875992775 -0.06265567149966955,-0.07567879278212786 l0.05196787416934967,-0.1712549477815628 -0.021412507630884647,-0.19585587084293365 l-0.03390133148059249,-0.07097131572663784 -0.014139014529064298,-0.13372917659580708 l-0.008585373288951814,-0.13729753904044628 -0.06976907141506672,-0.07641313597559929 l0.060435845516622066,-0.14725694432854652 -0.016846160870045424,-0.20065564662218094 l-0.02582633402198553,-0.09842522442340851 0.026609704364091158,-0.18555700778961182 l-0.035007025580853224,-0.08191515691578388 0.02546282485127449,-0.10706614702939987 l-0.045904740691185,-0.11108065024018288 0.0035011174622923136,-0.13091175816953182 l-0.013997064670547843,-0.21188901737332344 -0.0063705811044201255,-0.11666087433695793 l0.009393401560373604,-0.13284496031701565 -0.022131185978651047,-0.13581324368715286 l-0.044190557673573494,-0.0824222806841135 -0.05015128757804632,-0.22085800766944885 l-0.017864677356556058,-0.06015664432197809 0.0008118538971757516,-0.1571187563240528 l-0.049790116026997566,-0.12169605121016502 -0.01808496890589595,-0.10209622792899609 l0.0007661259587621316,-0.16140084713697433 -0.00842636392917484,-0.11501467786729336 l-0.05198548547923565,-0.1477536093443632 -0.07037908770143986,-0.0924297422170639 l0.036024157889187336,-0.12362695299088955 -0.06400358863174915,-0.11727911420166492 l-0.0007805731002008542,-0.09445079602301121 -0.08749546483159065,-0.15184279531240463 l-0.021644728258252144,-0.09690907783806324 -0.00020850891814916395,0.34784283488988876 l0.177068579941988,-0.2664221078157425 -0.11904392391443253,-0.284494049847126 l-0.11945157311856747,-0.05536587443202734 0.039888983592391014,-0.17180193215608597 l-0.07796165533363819,-0.1143853273242712 -0.00021044214008725248,0.35201113671064377 l0.18702365458011627,-0.34114427864551544 -0.277437511831522,-0.21450327709317207 l-0.053921109065413475,0.023012300953269005 0.11909294873476028,-0.28207892552018166 l-0.20071404054760933,-0.11049784719944 -0.00019493072613840923,0.4170147329568863 l0.2965085953474045,-0.3177320212125778 -0.2691083587706089,-0.2995985560119152 l-0.0786308478564024,0.03444605739787221 0.08647074922919273,-0.18832944333553314 l-0.10848919861018658,-0.11937292292714119 -0.033184445928782225,-0.15745174139738083 l-0.04469527397304773,-0.09796713478863239 -0.008267020457424223,-0.09421804919838905 l-0.03897271817550063,-0.14387311413884163 -0.04820478614419699,-0.09113716892898083 l-0.04532919265329838,-0.10368203744292259 -0.02142960438504815,-0.13092083856463432 l-0.03282549558207393,-0.1321106869727373 -0.04306680988520384,-0.11142641305923462 l-0.013452194398269057,-0.15588851645588875 -0.06697661709040403,-0.0816064327955246 l-0.051947832107543945,-0.10689367540180683 -0.00020946845324942842,0.38934942334890366 l0.20010609179735184,-0.2516980469226837 -0.24969784542918205,-0.2664758451282978 l-0.1057037990540266,-0.06303707603365183 0.07723368704319,-0.1513996720314026 l-0.00021607136659440584,0.3362266719341278 0.17842551693320274,-0.26826081797480583 l-0.27366310358047485,-0.2237483486533165 -0.08362609893083572,-0.01614343374967575 l0.15087923035025597,-0.2514715865254402 -0.2159368060529232,-0.17802944406867027 l-0.0194698094855994,0.03823327366262674 0.08298329077661037,-0.20847367122769356 l-0.10092461481690407,-0.10264085605740547 -0.00016575186236877926,0.2850756607949734 l0.1611984334886074,-0.2843848988413811 -0.0003082192051806487,0.04001114051789045 l-0.07781860418617725,-0.22055359557271004 -0.1296091452240944,-0.1311905775219202 l-0.030927336774766445,-0.07837383076548576 0.0009589197725290433,-0.1345024909824133 l-0.08114367723464966,-0.11718566529452801 -0.050051743164658546,-0.06491312757134438 l-0.0065062998328357935,-0.1990612968802452 -0.0865255668759346,-0.07916423492133617 l-0.00021422607460408472,0.3314361348748207 0.2145775780081749,-0.259323101490736 l-0.2603062614798546,-0.22248627617955208 -0.10428210720419884,-0.04745634738355875 l0.06270211189985275,-0.15972821041941643 -0.0894057285040617,-0.12018631212413311 l-0.09156625717878342,-0.09757384657859802 -0.00019805722331511788,0.2627624571323395 l0.21857179701328278,-0.33092595636844635 -0.3072691336274147,-0.12980172410607338 l-0.00019573699319153093,0.4167309030890465 0.3172631189227104,-0.29143091291189194 l-0.2623446099460125,-0.2611859515309334 -0.16755364835262299,0.003492613323032856 l0.0805351510643959,-0.1273112092167139 m81.83043456349878,20.6112103493399 l4.3736156821250916,0.16208486631512642 5.177692770957947,-3.1584542989730835 l3.4032395482063293,-2.185097485780716 3.3194375038146973,-2.6855549216270447 l1.621420532464981,-0.5875493958592415 1.373286098241806,-0.00011677346265059896 l2.076106071472168,1.230592131614685 1.7354020476341248,2.596973180770874 l0.6207818910479546,4.012645781040192 -1.5855641663074493,3.1678181886672974 l-3.079952299594879,2.1926061809062958 -5.095205903053284,0.00032644289603922516 l-3.3291319012641907,-2.041468769311905 -1.8734674155712128,-3.344941735267639 l1.763368844985962,-3.123430609703064 3.6988335847854614,-1.9506721198558807 l4.641527831554413,-0.963149294257164 9.581046104431152,-0.5386350676417351 l8.628777861595154,1.335408091545105 4.192798435688019,1.4803755283355713 l3.812899887561798,2.0003800094127655 5.829098224639893,2.6864033937454224 l3.804684281349182,2.4103274941444397 4.873378276824951,3.7329864501953125 l2.318495213985443,2.912602126598358 1.2467552721500397,3.0300328135490417 l0.0002731936547206715,4.220079183578491 -1.9525568187236786,3.7346184253692627 l-3.6789825558662415,2.983883023262024 -4.999582469463348,1.4776277542114258 l-6.120060682296753,-4.8263141252391506e-05 -4.619334936141968,-0.5823176354169846 l-4.566062688827515,-1.3509751856327057 -4.39870297908783,-1.850961297750473 l-7.240183353424072,-4.615032374858856 -5.635159611701965,-6.45761251449585 l-2.674916386604309,-7.199653387069702 -0.33369533717632294,-1.7863334715366364 l0.46158596873283386,-1.1716894805431366 -0.005809295107610524,0.0003519104575389065 m-0.7665760815143585,-0.5301773548126221 l-0.3368556872010231,-1.2952953577041626 -2.0962902903556824,-3.436843156814575 l-3.8404637575149536,-3.487425148487091 -3.6184319853782654,-1.6061073541641235 l-3.8414472341537476,0.00038308731745928526 -1.9007395207881927,0.9215173125267029 l-1.4921194314956665,1.7568260431289673 -0.944986566901207,2.365245372056961 l3.982198677476845e-06,3.7970632314682007 1.0577604174613953,2.1523483097553253 l1.942269653081894,1.799791306257248 2.522284984588623,1.0979525744915009 l4.208387732505798,8.460793651465792e-05 1.98736771941185,-1.2112365663051605 l1.3575111329555511,-2.000526189804077 m-7.469475865364075,-9.331942200660706 l0.42713671922683716,0.0004553943290375173 0.9109590202569962,0.7092557102441788 l-0.0005125827010488138,0.31232304871082306 -0.21352779120206833,-0.8819789439439774 l-0.409037321805954,-0.38173120468854904 -0.00027840065740747377,0.21750839427113533 l-0.00018911028746515512,0.22925278171896935 -0.05688941106200218,-0.47474488615989685 l-0.010793253313750029,4.0553954931965563e-05 -0.0002614051481941715,0.345287062227726 l-0.005951049388386309,-0.3117702715098858 -0.08293791674077511,-0.10945869609713554 l-0.0355436815880239,-0.1126695703715086 -0.00024179926185752265,0.28133759275078773 l0.07052262779325247,-0.24394193664193153 -0.17400512471795082,-0.11087319813668728 l-0.0002165378100471571,0.24363094940781593 0.10535172186791897,-0.24706488475203514 l-0.1435080636292696,-0.11953730136156082 -0.00018693333913688548,0.3276250883936882 l0.19847257062792778,-0.2482236549258232 -0.00024114915504469536,0.060453666374087334 l-0.00015971145330695435,0.006331095937639475 -0.0001972722020582296,0.07663084659725428 l-0.02290402539074421,-0.2990392968058586 -0.00025232475309167057,0.09735798463225365 l-0.00019082170183537528,0.0935869850218296 0.0309210573323071,-0.30191974714398384 l-0.1427319459617138,-0.0755841564387083 -0.0001944132054632064,0.28869545087218285 l0.20685061812400818,-0.25910573080182076 -0.000281349439319456,0.0649388087913394 l-0.00012852021427534055,0.1934586465358734 0.041435277089476585,-0.28414107859134674 l-0.17204714938998222,-0.08108587004244328 -0.00019754683307837695,0.31303752213716507 l0.256857518106699,-0.27569446712732315 -0.22933395579457283,-0.1864287070930004 l-0.009068094077520072,-0.072967279702425 0.0261025526560843,-0.05953351501375437 l0.015876084798946977,-0.14901955612003803 -0.06067507900297642,0.0031710945768281817 l0.059863305650651455,-0.10495414957404137 -0.02460671355947852,-0.08392252959311008 l-0.025304292794317007,-0.06831346545368433 -0.00022046404410502873,0.23930251598358154 l0.07739629130810499,-0.2223392017185688 -0.10725337080657482,-0.1291313860565424 l0.03520992351695895,-0.1169061753898859 -0.07270460482686758,-0.08765910752117634 l-0.0002245381983811967,0.4487186297774315 0.21909503266215324,-0.29308561235666275 l-0.17707845196127892,-0.22371886298060417 -0.0002353527452214621,0.30449626967310905 l0.17932046204805374,-0.2532333880662918 -0.09969457983970642,-0.17628716304898262 l-0.1144743338227272,-0.02657015109434724 -0.00022577713025384583,0.38851018995046616 l0.263241995126009,-0.2758381702005863 -0.19014308229088783,-0.27892882004380226 l-0.0002798404784698505,0.44423364102840424 0.2173599973320961,-0.2834813669323921 l-0.0002900121035054326,0.08304087445139885 0.001978025393327698,-0.2800978161394596 l-0.2011176012456417,-0.06981694605201483 -0.0002221086288045626,0.4108932986855507 l0.3678589314222336,-0.3022145479917526 -0.26781950145959854,-0.27433885261416435 l-0.0683302478864789,0.03508232533931732 -0.0002045489236479625,0.27135975658893585 l0.2324066124856472,-0.23999575525522232 -0.14587389305233955,-0.25382310152053833 l-0.14376296661794186,0.02386075211688876 0.13671076856553555,-0.13863136991858482 l0.016382192261517048,-0.12467036023736 -0.05817329045385122,-0.027388904709368944 l-0.0002234261410194449,0.37924814969301224 0.22174568846821785,-0.24623071774840355 l-0.20230732858181,-0.27474498376250267 -0.06893726997077465,0.07443676237016916 l0.19488027319312096,-0.17994867637753487 -0.0002326250250916928,0.20888201892375946 l0.036526008043438196,-0.20272670313715935 -0.09192255325615406,-0.15775347128510475 l-0.0002668295201146975,0.40491003543138504 0.2299131639301777,-0.2310682088136673 l-0.18120640888810158,-0.3116404823958874 -0.09218820370733738,0.03745045978575945 l0.11223934590816498,-0.16833137720823288 -0.09225849993526936,-0.1311863400042057 l-0.009235063334926963,-0.06775240413844585 0.03922441974282265,-0.1277577318251133 l-0.0002463940836605616,0.24982862174510956 0.11694073677062988,-0.19973834976553917 l-0.10990073904395103,-0.16021728515625 -0.012003278825432062,-0.10183769278228283 l-0.00024156886865966953,0.2933748811483383 0.12470013462007046,-0.26854267343878746 l-0.1299500185996294,-0.18975434824824333 -0.047497511841356754,0.005472832126542926 l0.04639475140720606,-0.19031666219234467 -0.06282062269747257,-0.09389076381921768 l0.00041973707993747666,-0.09947124868631363 -0.010221899719908834,-0.13351887464523315 l-0.05529811605811119,-0.11758474633097649 0.011538754915818572,-0.09579754434525967 l-0.043264650739729404,-0.11083257384598255 -0.0002068000685540028,0.3824242949485779 l0.17519084736704826,-0.2705303952097893 -0.1796211674809456,-0.23135406896471977 l-0.00023532558770966716,0.39815984666347504 0.2019474096596241,-0.27789292857050896 l-0.24863744154572487,-0.18679752945899963 -0.0002427682738925796,0.3764154016971588 l0.22454814985394478,-0.33328305929899216 -0.13008518144488335,-0.1841614581644535 l-0.07324753794819117,-0.0863931979984045 0.042324457317590714,-0.20351247861981392 l-0.06519329734146595,-0.12759562581777573 -0.023925676941871643,-0.056395987048745155 l0.012129762908443809,-0.11402169242501259 -0.029761730693280697,-0.06605035159736872 l0.007784360786899924,-0.10539566166698933 -0.059055741876363754,-0.09075191803276539 l-0.03607613034546375,-0.13431183993816376 0.02713383873924613,-0.0766668701544404 l-0.01873409142717719,-0.1424925122410059 -0.00021795123757328838,0.3505648672580719 l-0.00011736433407349978,0.10158053599298 0.010470629204064608,-0.34152016043663025 l-0.11752958409488201,-0.11767638847231865 -0.00020354342268547043,0.3931056708097458 l0.21696988493204117,-0.29454242438077927 -0.21831287071108818,-0.1719743013381958 l0.001942002709256485,-0.11983268894255161 -0.00022770802388549782,0.23427214473485947 l0.12604297138750553,-0.2770935371518135 -0.24925511330366135,-0.1560990884900093 l-0.000441128431702964,-0.06159501150250435 -0.00019728433471755125,0.22165987640619278 l0.13176285661756992,-0.2720102481544018 -0.18920177593827248,-0.18377885222434998 l-0.00019698598407558165,0.33681511878967285 0.2296643890440464,-0.35516899079084396 l-0.2697501890361309,-0.2083248645067215 -0.0002143129677278921,0.5098673701286316 l0.2600886858999729,-0.24465536698698997 -0.18915915861725807,-0.3341558203101158 l-0.12984290719032288,0.025498834438621998 0.02116433810442686,-0.17698779702186584 l-0.00024100911105051637,0.14995835721492767 0.060791634023189545,-0.2651108242571354 l-0.15588223934173584,-0.1010446809232235 -0.002213729021605104,-0.06476485636085272 l0.07182394154369831,-0.1919051632285118 -0.08696555159986019,-0.11715088039636612 l-0.040962169878184795,-0.06223279517143965 -0.0002418683834548574,0.2821963094174862 l0.1516602374613285,-0.2700887620449066 -0.1609925925731659,-0.15589323826134205 l-0.00022861935576656833,0.16919134184718132 0.08211257867515087,-0.25693949311971664 l-0.16992418095469475,-0.09467712603509426 0.032400405034422874,-0.1609296351671219 l-0.036748419515788555,-0.14658039435744286 -0.00020604366000043228,0.3288079798221588 l0.14201591722667217,-0.24366244673728943 -0.17443489283323288,-0.16995010897517204 l-0.03294322174042463,-0.07848507724702358 0.040233805775642395,-0.19406970590353012 l-0.09913349524140358,-0.12017117813229561 -0.0001956074993358925,0.3438037261366844 l0.13795402832329273,-0.30788445845246315 -0.15862274914979935,-0.21331759169697762 l-0.026465042028576136,-0.0003182592990924604 -0.0002125871651514899,0.24886013939976692 l0.10673306882381439,-0.26227502152323723 -0.16915706917643547,-0.1790115050971508 l-0.00023122509446693584,0.36267340183258057 0.2177705056965351,-0.3097229450941086 l-0.2304978109896183,-0.21108077839016914 -0.06720890756696463,-0.07346983999013901 l-0.00021414354705484584,0.2593112364411354 0.17600858584046364,-0.2985800616443157 l-0.1874050870537758,-0.16093289479613304 -0.16382282599806786,-0.016895249718800187 l-0.00020355055312393233,0.2833746187388897 0.2310303971171379,-0.2972251921892166 l-0.21796436980366707,-0.20548546686768532 -0.11071872897446156,-0.055492939427495 l-0.00019997352865175344,0.34212708473205566 0.1578878052532673,-0.31398192048072815 l-0.180694367736578,-0.25621434673666954 m66.55619659824765,22.323524334724425 l4.438732266426086,0.2823961339890957 3.068343698978424,-1.1148611456155777 l4.423393905162811,-2.9519236087799072 3.449835479259491,-3.6900612711906433 l1.5252791345119476,-0.711347758769989 2.469456046819687,0.14428595080971718 l0.9553626924753189,0.7393608242273331 1.2518005073070526,2.3773741722106934 l0.27696846053004265,3.666425049304962 -1.551864743232727,2.7725958824157715 l-3.034451901912689,2.019154578447342 -1.491912603378296,1.897207796573639 l-1.7504362761974335,2.1878693997859955 -0.12939614243805408,2.3538044095039368 l1.5100155770778656,1.6661667823791504 2.977934181690216,1.0042711347341537 l8.27651858329773,-7.802763320796657e-05 3.686247169971466,-0.7205202430486679 l8.14329981803894,0.00027791489628725685 5.42136013507843,0.7966696470975876 l7.671065330505371,0.000452252097602468 3.4863772988319397,-0.6153670325875282 l9.263717532157898,-1.74295574426651 5.069614052772522,-1.944950819015503 l4.056581556797028,-2.5403061509132385 2.9068174958229065,-3.2767844200134277 l1.3106419146060944,-3.082435131072998 5.743314886785811e-05,-3.177052140235901 l-2.1870125830173492,-3.8055068254470825 -4.252714216709137,-3.5118484497070312 l-3.071625828742981,-1.4073249697685242 -6.543476581573486,-1.859143227338791 l-6.636161208152771,-0.5498528108000755 -9.50771689414978,0.0002290061820531264 l-6.268413066864014,1.157069057226181 -5.978214144706726,1.9022247195243835 l-5.741535425186157,2.217596471309662 -4.7447288036346436,2.4095551669597626 l-4.579024910926819,3.060465455055237 -1.0016850382089615,1.3659405708312988 l-3.903302848339081,3.640792667865753 -0.8921948820352554,1.5224148333072662 l-0.44829249382019043,2.3459362983703613 0.4570946469902992,1.2752366065979004 l0.8546023815870285,0.800616666674614 0.7936267554759979,4.111284397367854e-05 m24.338836669921875,-10.300650596618652 l0.3589731827378273,-0.6091495603322983 3.222106397151947,-1.618223488330841 l3.4705010056495667,0.00032305670174537227 6.1905646324157715,1.1073499917984009 l1.2900659441947937,0.7315799593925476 1.431281417608261,2.1085669100284576 l0.7347211241722107,3.1073248386383057 -0.5621320754289627,3.1758925318717957 l-1.7806604504585266,2.687312662601471 -2.8231552243232727,1.4294368028640747 l-3.4320634603500366,-0.4468255490064621 -2.2110527753829956,-2.7416983246803284 l-0.5490784719586372,-3.7082871794700623 2.1153563261032104,-2.8815245628356934 l3.790622651576996,-1.5447424352169037 3.5927239060401917,0.0829110573977232 l2.729613482952118,1.631043553352356 1.5793994069099426,3.102242946624756 l-0.34585360437631607,3.3824700117111206 -2.484503388404846,2.0742271840572357 l-4.454077184200287,-0.2148483507335186 -3.590395748615265,-2.9833629727363586 l-0.7147412747144699,-1.9345122575759888 1.3708598911762238,-2.830739915370941 l4.099950790405273,-1.8709425628185272 4.239920973777771,-0.09597467258572578 l3.338409960269928,1.482752114534378 2.17521533370018,2.6331380009651184 l0.7271106541156769,3.4617838263511658 -1.511356383562088,2.784021496772766 l-3.9556774497032166,1.3814939558506012 -1.7712785303592682,-0.7430413365364075 l-1.6739916801452637,-3.4399375319480896 0.6137213483452797,-3.5276496410369873 l2.7617135643959045,-2.387566566467285 3.8039425015449524,-0.6819872558116913 l3.7662971019744873,0.879313051700592 2.5502029061317444,2.4511677026748657 l1.6402801871299744,3.8615399599075317 -0.15638712793588638,3.675832450389862 l-2.2674818336963654,2.6495951414108276 -4.407272636890411,1.3396251201629639 l-5.185603499412537,-0.9523243457078934 -1.790429800748825,-1.352597326040268 l-1.4074903726577759,-3.258208930492401 0.9567327052354813,-3.1420814990997314 l2.9697778820991516,-2.432820647954941 3.6101847887039185,-0.8637445420026779 l3.625456690788269,0.7781822979450226 2.5469478964805603,2.4292831122875214 l1.5020351111888885,3.4636569023132324 -0.28425512835383415,3.6379337310791016 l-2.676158845424652,2.5582829117774963 -5.003681182861328,1.054167002439499 l-5.682867169380188,-1.4501607418060303 -4.200834631919861,-2.9008039832115173 l-2.20231831073761,-3.4913691878318787 -0.02611640142276883,-3.42603862285614 l2.1007397770881653,-2.3793214559555054 3.5383889079093933,-1.1317285150289536 l3.7025263905525208,0.6522426009178162 3.0445867776870728,2.2752216458320618 l1.7326544225215912,3.2728183269500732 -0.11683140881359577,3.49756121635437 l-2.9101863503456116,2.304227203130722 -5.6558263301849365,0.8355719596147537 l-6.315205097198486,-1.5736132860183716 -4.0374451875686646,-2.6558613777160645 l-1.2088759243488312,-1.9218626618385315 0.03834874602034688,-3.256843090057373 l2.5579068064689636,-2.486058324575424 4.322158992290497,-1.0602264106273651 l3.9078277349472046,0.6907998770475388 2.7935022115707397,2.2425533831119537 l1.2188265472650528,3.0194762349128723 -1.2400330603122711,2.9506266117095947 l-2.24917009472847,0.8885906636714935 -4.998342990875244,0.0007205701695056632 l-5.362862944602966,-2.065567374229431 -1.7134211957454681,-1.4161723852157593 l-0.6605695933103561,-1.775425374507904 1.0625608265399933,-2.7576014399528503 l3.683598041534424,-1.9106660783290863 4.262125194072723,-0.2082613669335842 l3.291098475456238,1.137758120894432 2.13440403342247,2.0817841589450836 l0.7257521152496338,2.643609642982483 -1.1220909655094147,1.1787092685699463 l-4.606924057006836,0.6412515044212341 -5.852576494216919,-1.3175410032272339 l-4.067366719245911,-2.340046912431717 -1.2460599839687347,-1.699114590883255 l1.008371040225029,-2.9427430033683777 3.8230082392692566,-2.0766831934452057 l4.240598082542419,-0.15462080016732216 3.419860303401947,1.216900646686554 l2.339830845594406,1.9795295596122742 0.7717025279998779,2.309708893299103 l-1.8430419266223907,1.9209332764148712 -5.104437470436096,0.5055169388651848 l-5.6510961055755615,-1.8429449200630188 -1.6260699927806854,-1.3804130256175995 l-7.630358595633879e-05,-1.6848912835121155 2.697215974330902,-2.108570635318756 l4.784019291400909,-0.875178799033165 4.1798049211502075,0.6005909666419029 l2.6356926560401917,1.600106805562973 1.467813104391098,2.1696513891220093 l-0.46330321580171585,2.534348964691162 -3.5402309894561768,1.4889965951442719 l-6.4404743909835815,0.24893511086702347 -4.999522268772125,-1.837642788887024 l-1.5108151733875275,-1.4796747267246246 -0.00012195879207865801,-1.7726922035217285 l2.8744396567344666,-2.2238335013389587 4.882282614707947,-0.9740655869245529 l4.230457246303558,0.48706624656915665 2.700764238834381,1.5033642947673798 l1.428264081478119,2.022012025117874 -0.43929722160100937,2.4596385657787323 l-2.242453694343567,0.5182262882590294 -5.180498361587524,-1.0874058306217194 l-4.225305914878845,-2.660476565361023 -1.112629622220993,-1.8047937750816345 l2.5148960947990417,-2.5955066084861755 5.045837163925171,-0.8674491196870804 l4.146720767021179,0.8220697939395905 2.7023154497146606,1.8362799286842346 l1.3586248457431793,2.279973179101944 -0.9487751126289368,2.2659119963645935 l-3.9903751015663147,1.1194846779108047 -5.93062698841095,0.0006043494431651197 l-4.536517560482025,-1.8786804378032684 -1.1692235618829727,-1.5215815603733063 l-0.0002740233139775228,-1.6496676206588745 3.195044994354248,-2.057456523180008 l8.032743334770203,0.23029569536447525 3.255857527256012,1.3820935785770416 l1.359207034111023,1.7688998579978943 -0.590694285929203,2.2901180386543274 l-3.6751124262809753,1.4128012955188751 -5.735238194465637,0.0004942158193443902 l-5.01043975353241,-2.1139326691627502 -1.3003994524478912,-1.5455818176269531 l-0.00029364948204602115,-1.673327088356018 3.0710896849632263,-2.1432912349700928 l4.88549530506134,-0.754874125123024 4.31323766708374,0.5088988319039345 l2.2245296835899353,1.3021960854530334 1.132882535457611,1.9555556774139404 l-1.1443522572517395,2.1384216845035553 -4.3276447057724,1.0520144551992416 l-6.3279759883880615,0.0005439846790977754 -4.254533350467682,-1.8210209906101227 l-1.117786392569542,-1.518452763557434 -0.00027857193344971165,-1.755513846874237 l3.0442625284194946,-2.2081975638866425 7.527490854263306,0.13177157379686832 l2.86920428276062,1.3778750598430634 1.1320944875478745,1.908397376537323 l-1.3209113478660583,1.0620717704296112 -6.167338490486145,0.2544517256319523 l-5.0687819719314575,-1.7215445637702942 -1.1739590018987656,-1.2949676811695099 l-0.0001869925472419709,-1.518261730670929 3.3629590272903442,-1.9101180136203766 l8.018267154693604,0.536276176571846 2.6897284388542175,1.3267408311367035 l0.8295906335115433,1.7177461087703705 -1.4594857394695282,2.0174644887447357 l-6.076546907424927,0.25388220325112343 -4.713841676712036,-1.8218682706356049 l-0.9263646602630615,-1.3825611770153046 -0.00019894330762326717,-1.4022529125213623 l3.1341400742530823,-1.8535655736923218 7.803564071655273,0.4049414023756981 l3.5704800486564636,2.9300057888031006 -1.2796235084533691,1.0851546376943588 l-9.505988359451294,-0.5005690455436707 -3.8351619243621826,-2.030732035636902 l-0.844462439417839,-1.5266591310501099 2.160055786371231,-2.121768891811371 l5.391891598701477,-0.7888706773519516 6.382796764373779,1.6827072203159332 l0.7536676526069641,0.755455493927002 -3.355325162410736,1.6837237775325775 l-9.343688488006592,-0.6628898531198502 -3.0354002118110657,-2.0590515434741974 l-0.4840657487511635,-1.7326661944389343 3.230232000350952,-1.832387000322342 l9.276538491249084,0.3382148966193199 4.276727139949799,2.9496967792510986 l-1.5131980180740356,1.1854218691587448 -9.776821732521057,0.0668331328779459 l-3.896494507789612,-1.5046623349189758 -0.6563927233219147,-1.2661775946617126 l2.7115002274513245,-1.8058978021144867 9.822837114334106,-0.03277876181527972 l5.162901282310486,2.732921540737152 -1.7083263397216797,1.109008863568306 l-9.537521600723267,-0.021167027298361063 -3.7002381682395935,-1.315964013338089 l-0.4870815947651863,-1.129532903432846 m37.11477958457408,-0.8058199936522215 l4.3689388036727905,0.3697357326745987 2.7601414918899536,-0.871545597910881 l3.5801374912261963,-2.4007998406887054 2.85040020942688,-3.2636553049087524 l1.5566571056842804,-0.851709246635437 1.8594540655612946,-8.2114847828052e-05 l2.1613293886184692,1.2713254988193512 1.76263228058815,2.5546881556510925 l0.6104853004217148,3.454411029815674 -0.9883289784193039,2.757834494113922 l-2.1618156135082245,1.900566965341568 -1.9122916460037231,0.00024533548639738 l-1.9439367949962616,-1.7729593813419342 1.7105016112327576,-3.8692235946655273 l8.22804868221283,-4.830445945262909 8.843099474906921,-1.5830187499523163 l8.282785415649414,0.5345763266086578 4.484760761260986,1.6545480489730835 l3.52247416973114,2.4672317504882812 2.6203885674476624,3.461715281009674 l1.283031404018402,3.990321159362793 -0.4472654312849045,3.5171815752983093 l-2.0928141474723816,3.011292815208435 -3.6209991574287415,2.265414595603943 l-3.2916420698165894,1.0855112969875336 -3.866714835166931,-0.192825049161911 l-1.2877324223518372,-1.0714900493621826 0.5509581416845322,-4.293298721313477 l3.643404245376587,-3.132617175579071 9.216775298118591,-3.489690124988556 l8.115724325180054,0.7290381193161011 3.825838565826416,2.239990383386612 l1.804748922586441,2.845524847507477 0.701487585902214,3.67801696062088 l-0.5507668480277061,3.489350974559784 -1.4346487820148468,2.7279046177864075 l-3.837134838104248,3.3494791388511658 -5.2340757846832275,2.0617935061454773 l-5.364017486572266,0.2439812384545803 -1.7372678220272064,-0.9088727086782455 l-1.800289899110794,-2.9209104180336 1.0487855225801468,-4.7929322719573975 l3.0217307806015015,-3.2838618755340576 6.045963168144226,-0.07203297223895788 l3.3771899342536926,1.4445091784000397 1.1537249386310577,1.1724396049976349 l1.5524588525295258,3.2809707522392273 0.14718985185027122,4.609942734241486 l-2.4891847372055054,3.469206690788269 -5.251179933547974,2.4013131856918335 l-4.728420674800873,0.00011475447536213323 -4.920145869255066,-1.9921183586120605 l-1.6546961665153503,-1.5305069088935852 -0.7756757736206055,-1.7057746648788452 l0.4839016869664192,-3.272322416305542 2.7225515246391296,-2.9947081208229065 l3.6298444867134094,-1.4450854063034058 6.637553572654724,2.122650593519211 l2.787756621837616,2.7784067392349243 1.1937589198350906,3.5473480820655823 l-1.1901531368494034,3.334931433200836 -4.245778024196625,2.7944326400756836 l-6.280298829078674,0.0001535144474473782 -5.659142732620239,-2.3253512382507324 l-3.921040892601013,-3.2459446787834167 -2.4219894409179688,-4.170276522636414 l1.3262082636356354,-4.631589651107788 3.0862587690353394,-2.3825891315937042 l6.6014564037323,2.093035727739334 2.8425106406211853,2.7107489109039307 l1.1335273832082748,3.7333714962005615 -1.317145973443985,3.584238290786743 l-2.532419264316559,1.1919721961021423 -6.445819139480591,0.0003930039383703843 l-6.71491801738739,-2.216608077287674 -4.939527213573456,-3.26876163482666 l-2.9971742630004883,-3.875151574611664 -0.9031320363283157,-4.239732921123505 l4.219852685928345,-2.8004732728004456 4.533683359622955,-0.4073719307780266 l4.085594713687897,1.072675809264183 2.9979759454727173,2.3049697279930115 l1.3285595178604126,3.252960741519928 -0.759260505437851,1.650490015745163 l-1.997276097536087,1.0952842980623245 -3.4424445033073425,0.6899356842041016 l-6.210882067680359,0.0005409094956121407 -6.127362251281738,-1.9373828172683716 l-4.166688323020935,-2.662537693977356 -2.5225859880447388,-3.326045870780945 l-0.7406783103942871,-3.9698150753974915 2.151552736759186,-3.092964291572571 l4.536300003528595,-1.6797207295894623 4.245578050613403,0.0004999532393412665 l3.3431628346443176,1.2104710191488266 2.543834149837494,2.0989008247852325 l1.1254245042800903,2.769305109977722 -0.6312484294176102,1.2429094314575195 l-1.9864901900291443,0.6000148504972458 -4.271884560585022,0.0006752061744919047 l-1.94226935505867,-1.0390067100524902 -2.5065916776657104,-3.1314724683761597 l-0.6591092795133591,-2.434617429971695 1.7997869849205017,-3.0010077357292175 l4.719505310058594,-1.807945966720581 9.07323956489563,1.9552874565124512 l3.306208848953247,1.7863824963569641 1.8580149114131927,1.7075832188129425 l0.5727767571806908,2.1167586743831635 -1.199328675866127,0.7844055444002151 l-3.59747976064682,0.00044993721530772746 -1.8248210847377777,-1.1518941819667816 l-0.8766058087348938,-1.7893107235431671 1.0990999639034271,-2.9187098145484924 l4.380452632904053,-1.9615837931632996 4.9975210428237915,0.21052038297057152 l3.743625581264496,1.47086963057518 2.82616525888443,1.929679661989212 l1.6184237599372864,2.3202021420001984 -0.04786136094480753,2.6124128699302673 l-2.3705147206783295,1.5803052484989166 -4.219878911972046,0.0004202028503641486 l-1.707664579153061,-1.1045558750629425 -0.6937967985868454,-1.7450954020023346 l1.5418897569179535,-2.7142468094825745 4.441596567630768,-1.6517497599124908 l8.32755446434021,1.3948439061641693 2.835540473461151,1.9478970766067505 l1.5683670341968536,2.2044600546360016 -0.034815247636288404,2.5775572657585144 l-2.3977918922901154,1.8986299633979797 -4.677722156047821,0.0003713665864779614 l-1.7524822056293488,-1.1313937604427338 -1.5828587114810944,-3.905855119228363 l2.942832112312317,-3.052130341529846 4.635866284370422,-0.9875293076038361 l6.985238790512085,2.1205824613571167 2.63509064912796,2.1674109995365143 l1.2727048993110657,2.368200719356537 -0.4386546090245247,2.5620457530021667 l-2.9515761137008667,1.9635577499866486 -4.611651599407196,0.00035950622987002134 l-4.271950721740723,-2.1458700299263 -1.242983639240265,-1.7214426398277283 l1.5034830570220947,-2.591947317123413 4.052191078662872,-1.7249955236911774 l6.568171381950378,1.3407041132450104 2.689179480075836,2.0977522432804108 l1.078374907374382,2.068999856710434 -0.4335826262831688,2.4157339334487915 l-2.8878584504127502,1.5370513498783112 -4.298256933689117,0.0004659251862904057 l-4.829590022563934,-2.2308027744293213 -1.308625340461731,-1.5579009056091309 l0.11333839036524296,-3.0201828479766846 2.6876533031463623,-2.625884711742401 l3.92456978559494,-1.1208037286996841 5.845558047294617,1.8716226518154144 l2.3389558494091034,2.0941261947155 1.1717383563518524,2.4349339306354523 l-0.5607454851269722,2.556775212287903 -2.939727306365967,1.5696430206298828 l-4.63663250207901,0.000518564265803434 -4.206424653530121,-2.261698544025421 l-1.1058128625154495,-1.6128754615783691 0.4604935646057129,-2.8626593947410583 l2.898924946784973,-2.294468432664871 6.8363893032073975,0.29640693217515945 l2.572197914123535,1.9429491460323334 1.0978328436613083,2.411237508058548 l-0.6307786703109741,2.6094841957092285 -2.9367703199386597,1.6367168724536896 l-4.41336065530777,0.0005302013960317709 -4.252119958400726,-2.1251505613327026 l-1.14980548620224,-1.5799489617347717 0.514666959643364,-2.7676519751548767 l2.8633493185043335,-2.1590305864810944 3.498404324054718,-0.5976096913218498 l3.447466790676117,0.8677034080028534 2.018534541130066,2.0077799260616302 l1.1005687713623047,2.6805758476257324 -0.7974302768707275,2.686879336833954 l-3.181847631931305,1.3537272810935974 -4.280831813812256,0.0005857464566361159 l-1.5665735304355621,-0.9312725067138672 -1.2688079476356506,-2.648872435092926 l1.016366109251976,-2.807360887527466 3.2150429487228394,-1.436738669872284 l3.4308862686157227,0.38035109639167786 2.0767855644226074,1.8355461955070496 l0.7145349681377411,2.495882213115692 -1.1691565811634064,2.35045850276947 l-3.738095462322235,1.373484581708908 -4.398069083690643,0.00044410928239813074 l-3.8129132986068726,-1.8912482261657715 -1.0522056370973587,-1.446690559387207 l-0.00015630601410521194,-1.1395299434661865 2.3432327806949615,-1.632693111896515 l3.788648247718811,-0.26670418679714203 2.6227638125419617,1.098664104938507 l1.269361674785614,1.8356454372406006 -0.2819393575191498,2.687138319015503 l-3.23699951171875,1.9066177308559418 -4.428161978721619,0.0003437066698097624 l-4.151360392570496,-1.9096264243125916 -0.9940054267644882,-1.322573572397232 l-0.00010156502867175732,-1.010609045624733 m-31.57067060470581,-14.24791932106018 l0.2311016246676445,0.00033884283766383305 1.6286471486091614,1.1383432894945145 l-0.586577020585537,1.140247881412506 -0.9419272094964981,0.26121711358428 l-0.00015713425455032848,0.9019026160240173 4.0279628592543304e-05,0.797082781791687 l-0.006441388977691531,0.2629113383591175 -7.205673227872467e-05,0.22251158952713013 l-2.801325308610103e-05,0.20576093345880508 -5.1883548621844966e-05,0.29816677793860435 l-3.00848455481173e-05,0.35472169518470764 m-0.5278504639863968,-3.4971073269844055 l1.3372869789600372,0.00046497381845256314 -0.00022315762180369347,0.6081310659646988 l-0.38128945976495743,-0.00012513656656665262 -1.4836380159977125e-05,-0.09803243912756443 l-0.00014656140592705924,0.026160553097724915 -9.470787517784629e-05,0.07282050792127848 m-0.22300979122519493,0.928744375705719 l1.2200134247541428,0.00025239989554393105 -5.52915662410669e-05,0.2838800475001335 l-0.17542554065585136,-5.662938065142953e-06 -7.757511411909945e-05,-0.18021352589130402 l-0.00015770463505759835,0.054459916427731514 m18.786171674728394,0.13705543242394924 l1.1309612542390823,0.6200626865029335 4.114146530628204,1.450655311346054 l0.8815254271030426,0.8325865119695663 -0.00014953040590626188,1.1365919560194016 l-1.0552442073822021,1.955052763223648 -2.4563084542751312,1.4337031543254852 m31.600104430953024,-8.039948070535274 l4.141499698162079,0.42512912303209305 2.356863021850586,-0.6405587494373322 l3.4726113080978394,-2.6152467727661133 2.0479461550712585,0.00043747884774347767 l1.6285406053066254,-0.8199236541986465 1.994265615940094,-6.395712262019515e-05 l1.8826404213905334,1.0736866295337677 1.4143869280815125,2.199466824531555 l1.7311716079711914,1.020725667476654 1.6134101152420044,0.0003122682755929418 l1.492616981267929,-0.9816078096628189 4.152626395225525,-3.115418553352356 l2.8123581409454346,0.000756556328269653 4.828839004039764,0.8177809417247772 l4.036762118339539,0.00037501224142033607 1.0093659907579422,-0.510498397052288 l3.5970938205718994,0.00023267737560672686 2.3320715129375458,-0.721655860543251 l4.1654664278030396,0.00016654390492476523 6.671175956726074,1.4216509461402893 l3.3912500739097595,1.8401707708835602 2.872515320777893,2.94523686170578 l2.3906104266643524,1.3688038289546967 2.4205151200294495,2.8113308548927307 l2.9538682103157043,5.962328910827637 -0.29620639979839325,5.6041401624679565 l-1.5201081335544586,3.274945914745331 -2.8070321679115295,2.4471083283424377 l-3.7732893228530884,1.0289862006902695 -4.115109145641327,-0.6431663036346436 l-3.680378496646881,-2.0193181931972504 -6.951485872268677,-4.1689133644104 l-7.0029616355896,-2.9429322481155396 -7.65008270740509,-1.1535842716693878 l-7.245913743972778,-0.5732786282896996 -6.133089661598206,-1.196969449520111 l-4.884273409843445,-2.546425759792328 -4.160772264003754,-4.080931842327118 l-2.567538321018219,-5.215424299240112 -0.15476799570024014,-1.4196757972240448 l0.5944547429680824,-0.8284945785999298 0.1088323537260294,0.0002101866812154185 l0.3504353016614914,0.38322020322084427 -0.24980807676911354,0.0004592733603203669 l-0.5860087648034096,0.08246843703091145 -2.7084522571385605e-05,-0.25009168311953545 l-0.7084865123033524,-0.09511977434158325 -4.065506345796166e-05,-0.6570223718881607 l-0.03543945262208581,0.00023179667550721206 0.07720523979514837,0.0002232223232567776 l0.5609728395938873,0.0001434717978554545 -0.0002074046824418474,0.3359503298997879 l0.19459594041109085,0.0002036132173088845 -0.0001802091719582677,0.11115801520645618 l0.17234399914741516,-0.42039215564727783 0.16233740374445915,0.00021110756279085763 l-0.00024821185434120707,0.31159693375229836 -0.0773487938567996,0.00016726506146369502 l0.019427273655310273,-0.32473407685756683 0.19746137782931328,0.0001518923272669781 l-0.0002984952516271733,0.33562082797288895 -0.108555993065238,0.00015606332453899086 l-0.00025339206331409514,-0.18236873671412468 0.09204946458339691,-0.167817585170269 l-0.0002844365735654719,0.22962529212236404 -0.0002578058229119051,0.07276915945112705 l-0.0002418997792119626,-0.08088341914117336 -0.00029538568924181163,0.0007420295150950551 l-0.07714519277215004,-0.22637294605374336 -0.00029049613658571616,0.08354309014976025 l-0.00025517403628327884,0.26911281049251556 -0.00020882456738036126,-0.0009163462527794763 l-0.0002577609666332137,-0.11058187112212181 -0.0002802934068313334,0.09120301343500614 l-0.00027451678761281073,0.024738628417253494 -0.0002600173502287362,0.008944974979385734 l-0.0002543387745390646,0.02494694897904992 -0.00025272614948335104,0.032514582853764296 l-0.00026363704819232225,-0.009912989335134625 -0.00026543821149971336,0.020732770208269358 l-0.0002571001459727995,-0.011736174346879125 -0.0002526962816773448,0.06476563401520252 l-0.00022876665752846748,-0.06327520124614239 -0.00027468622647575103,0.01151365926489234 l-0.000244528546318179,0.07067747414112091 -0.19872648641467094,-0.333588644862175 l-0.0003434992686379701,0.11438226327300072 -0.0002722257704590447,0.3887439891695976 l-0.20251285284757614,-0.3831017017364502 0.06758960895240307,-0.19032008945941925 l-0.00029851828003302217,0.42481109499931335 -0.00023219887225423008,0.01882652984932065 l-0.0002591915472294204,-0.05734405480325222 -0.00027115866032545455,0.040939487516880035 l-0.0002575544931460172,0.031661721877753735 -0.00025563604140188545,0.0014139983977656811 l-0.16658157110214233,-0.36498989909887314 -0.0003335924702696502,0.17152070999145508 l-0.0002488685458956752,0.17588477581739426 -0.16066400334239006,-0.35398170351982117 l-0.005812062881886959,-0.10712211020290852 -0.04437543451786041,-0.1688186638057232 l-0.000293385728582507,0.3644780069589615 -0.11782720685005188,-0.24373097345232964 l-0.003330848994664848,-0.23534255102276802 -0.00027254998713033274,0.36020394414663315 l-0.12554875575006008,-0.26130035519599915 -0.00034486507502151653,0.07167322561144829 l-0.0002136693728971295,0.2894506976008415 -0.08489063940942287,-0.4074780270457268 l0.0021497628767974675,-0.09107673540711403 -0.00026066283680847846,0.4307956248521805 l-0.09575194679200649,-0.2620079554617405 -0.00033133728720713407,0.021306779235601425 l-0.001194785290863365,-0.3420257568359375 -0.05738663021475077,-0.08870056830346584 l-0.00027301895897835493,0.4138750210404396 -0.05526447203010321,-0.30972059816122055 l-0.05369642749428749,-0.1282721385359764 -0.00024190791009459645,0.4325765371322632 l-0.02739015966653824,-0.3560236096382141 -0.06378239952027798,-0.1571473851799965 l-0.07996571250259876,-0.14043627306818962 -0.0002686964762688149,0.36533161997795105 l-0.00022947448087506928,0.14896794222295284 -0.04266359843313694,-0.43402742594480515 l-0.051636649295687675,-0.0584513321518898 -0.00026052330213133246,0.4284142702817917 l0.1178643200546503,-8.44755231810268e-05 -0.1062806136906147,-0.42024020105600357 l-0.08691267110407352,-0.01551814959384501 -0.00024373168344027363,0.387154221534729 l0.03296538954600692,-0.36533039063215256 -0.00037852089008083567,0.07200575899332762 l-0.0002369271169300191,0.21975966170430183 -0.08832753635942936,-0.34196190536022186 l-0.10488905012607574,-0.12712995521724224 -0.00028778153136954643,0.30421191826462746 l0.0707315793260932,-0.3590255603194237 -0.17895370721817017,-0.04592401906847954 l-0.0003033416760445107,0.30832068994641304 -0.008050284814089537,-0.3433854505419731 l-0.04131577908992767,-0.15949124470353127 -0.0002990268694702536,0.389852374792099 l-0.01651282189413905,-0.3130171075463295 -0.15154317021369934,-0.1332433708012104 l-0.00029322256523300894,0.34999553114175797 0.031894545536488295,-0.2738368883728981 l-0.08739285171031952,-0.21173814311623573 -0.0003017051858478226,0.3908509761095047 l0.06528518162667751,-0.2852572686970234 -0.20043211057782173,-0.17294412478804588 l-0.0003055012712138705,0.43776735663414 0.11328769847750664,-0.3484833985567093 l-0.2094515785574913,-0.1411840971559286 -0.0002644889536895789,0.38908354938030243 l0.06395670585334301,-0.30245691537857056 -0.09076213464140892,-0.2072557806968689 l-0.0700894184410572,-0.02024516463279724 -0.026225389447063208,-0.14849052764475346 l-0.0003188303526258096,0.33211901783943176 0.11529333889484406,-0.24065222591161728 l-0.15973858535289764,-0.18030323088169098 -0.0003048891630896833,0.324089378118515 l0.056413016282022,-0.33506106585264206 -0.14273442327976227,-0.11273984797298908 l-0.00027420033802627586,0.35843972116708755 0.06611625663936138,-0.31832173466682434 l-0.11591839604079723,-0.17464455217123032 -0.000306272559100762,0.3464595228433609 l0.1237283181399107,-0.26578258723020554 -0.00037582973163807765,0.03389579709619284 l-0.1582060568034649,-0.205208882689476 -0.07238809019327164,-0.11092799715697765 l-0.0003104034112766385,0.27342312037944794 0.00589305127505213,-0.3420545160770416 l-0.16445674002170563,-0.10926518589258194 -0.0002741596654232126,0.3598875552415848 l0.08956597186625004,-0.2929550036787987 -0.167311392724514,-0.1593889482319355 l-0.00030244833396864124,0.3342028707265854 0.13662678189575672,-0.3558336943387985 l-0.3094879910349846,-0.047667548060417175 -0.000262668909272179,0.2984193526208401 l0.21284431219100952,-0.4071490466594696 -0.25572579354047775,-0.05603110883384943 l-0.00025381348677910864,0.35779692232608795 0.06609116215258837,-0.3182733803987503 l-0.11943882331252098,-0.16301538795232773 -0.00030027793400222436,0.37167273461818695 l0.1352857518941164,-0.29329439625144005 -0.1849590428173542,-0.16865313053131104 l-0.10594094172120094,-0.04135481547564268 0.042294422164559364,-0.1622280478477478 l-0.11402360163629055,-0.1226288266479969 -0.0003236528209527023,0.31115414574742317 l0.10627521201968193,-0.319349467754364 -0.19422989338636398,-0.12814832851290703 l-0.0003253734394093044,0.2417483739554882 0.06331537384539843,-0.3318396583199501 l-0.1702851802110672,-0.08332453668117523 -0.00030336623240145855,0.3393826261162758 l0.09538467973470688,-0.32392531633377075 -0.237684678286314,-0.12990178540349007 l-0.01179989310912788,-0.10382650420069695 -0.023238835856318474,-0.1774098537862301 l-0.00037841073208255693,0.2914911322295666 0.06363261491060257,-0.23976271972060204 l-0.2225722186267376,-0.13481938280165195 -0.0003236423435737379,0.3067195974290371 l0.13304831460118294,-0.32587703317403793 -0.25989264249801636,-0.07002743426710367 l-0.000299402581731556,0.23010538890957832 0.1006078440696001,-0.36373529583215714 l-0.19358932971954346,-0.0720837851986289 -0.0003285084312665276,0.26320869103074074 l0.03577130846679211,-0.2464800328016281 -0.0004349950177129358,0.05971328355371952 l-0.0849615503102541,-0.24953709915280342 -0.0004484171586227603,0.1061024609953165 l-0.05031495355069637,-0.24898704141378403 -0.09905269369482994,0.003251958405598998 l0.003656972839962691,-0.11999286711215973 -0.124252550303936,-0.16288558021187782 l-0.0003814473529928364,0.24807872250676155 -0.0003145400478388183,0.08761396631598473 l-0.011065211147069931,-0.3273972123861313 -0.13189569115638733,-0.014975159429013729 l-0.0003375932647031732,0.21031908690929413 0.037374901585280895,-0.3025088831782341 l-0.20714741200208664,-0.04638689570128918 -0.0003310377724119462,0.2538284845650196 l0.12098275125026703,-0.33363789319992065 -0.23187104612588882,-0.0943804532289505 l-0.0003396031024749391,0.3682800754904747 0.15110964886844158,-0.3485189750790596 l-0.28096381574869156,-0.10064786300063133 -0.0003489467781037092,0.3424679860472679 l0.1914295181632042,-0.33306654542684555 -0.27586566284298897,-0.10531206615269184 l-0.0003586899401852861,0.2788945846259594 0.15573164448142052,-0.3290318697690964 l-0.2493392676115036,-0.10283852927386761 -0.0003773732532863505,0.3110787272453308 l0.16054704785346985,-0.29983656480908394 -0.31132733449339867,-0.1537751592695713 l-0.0004119060031371191,0.3113783895969391 0.145382983610034,-0.34764036536216736 l-0.2009841799736023,-0.162198506295681 -0.00041102983232121915,0.3655605763196945 m76.64577809980187,12.231851150543136 l3.8109341263771057,0.44591549783945084 1.99976846575737,-0.4828975349664688 l2.6993101835250854,-1.543106585741043 2.143801897764206,0.00018680841094464995 l1.581062376499176,0.3491685912013054 0.27143513783812523,-0.06685937754809856 l2.4582062661647797,-1.5807780623435974 3.3783578872680664,0.00025961417122744024 l3.242887854576111,-0.6987899541854858 2.838388681411743,-1.3750366179010598e-06 l2.0853382349014282,1.0390036553144455 2.5501027703285217,8.126210815362356e-07 l0.7700556516647339,-0.5556784570217133 2.8327763080596924,0.00028029702662024647 l1.7387785017490387,-0.8335891366004944 4.19833779335022,0.00013458108696795534 l3.9546528458595276,0.0001580920252308715 5.4085201025009155,-0.013561899540945888 l0.9410981088876724,-0.516892783343792 3.9977169036865234,0.00020131406927248463 l3.1256332993507385,1.3539507985115051 4.5258066058158875,-8.908910785976332e-05 l2.9293498396873474,1.4730337262153625 2.265128493309021,2.412533313035965 l1.782909780740738,3.710643947124481 1.8805044889450073,1.7400509119033813 l0.6750742346048355,7.900112271308899 -0.45455891638994217,4.638456404209137 l-1.7064650356769562,3.001551628112793 -2.655284106731415,2.0452971756458282 l-1.8920232355594635,0.18939152359962463 -1.6161027550697327,-2.7364739775657654 l-1.4784879982471466,-5.41611909866333 -0.7691182941198349,-1.3446210324764252 l-2.1964888274669647,-1.294439435005188 -0.8847805112600327,-1.3613782823085785 l9.876518561213743e-05,-1.7322731018066406 -0.6324893981218338,-0.8387673646211624 l-3.242063820362091,0.000335050281137228 -3.0824241042137146,1.7068377137184143 l-5.765290260314941,3.6110180616378784 -6.79742157459259,3.304857909679413 l-7.519297003746033,0.9294851124286652 -4.183888137340546,-0.9413474798202515 l-2.9356518387794495,-1.9152052700519562 -1.978299617767334,-2.9577383399009705 l-2.1687057614326477,-4.166710376739502 -0.9232296794652939,-0.9618718177080154 l-1.6710299253463745,-2.583167552947998 -2.8132420778274536,-4.637017250061035 l-1.0502010583877563,-0.8133918792009354 -3.1336241960525513,0.00047326750063803047 l-1.3671289384365082,-0.762500986456871 -0.6969323009252548,-1.1826559156179428 l-0.00019725113816093653,-2.2542744874954224 -0.866987407207489,-0.8795208483934402 m6.382985711097717,-2.696462869644165 l-0.5952323228120804,0.00042172792745986953 0.5978679284453392,-0.31954873353242874 l0.06439730525016785,-0.24619229137897491 -0.1402691751718521,-0.12776034884154797 l-0.012885908363386989,-0.04521128721535206 -0.03872613422572613,-0.13577323406934738 l-0.02592242555692792,-0.06757527589797974 0.017370071727782488,-0.16511302441358566 l-0.00032075004128273576,0.5289170891046524 0.1601516455411911,0.00015600509868818335 l-0.15621804632246494,-0.46479444950819016 0.07239348255097866,0.0002057948222500272 l-0.10788658633828163,-0.14982528053224087 -0.005442180554382503,-0.12172038666903973 l-0.0008294208237202838,-0.16139164566993713 -0.00031819170544622466,0.3697934001684189 l-0.010895099258050323,-0.2359156496822834 -0.1168978400528431,-0.14662966132164001 l-0.00029495124181266874,0.19804807379841805 0.04115122836083174,-0.28579531237483025 l-0.1505003124475479,-0.024597838055342436 0.026975625660270452,-0.0648528104647994 l-0.00026732781407190487,0.1364915445446968 -0.04721088334918022,-0.20095553249120712 l-0.061101699247956276,-0.09925328195095062 -0.0002972643414977938,0.19398756325244904 l0.05912046413868666,-0.2648080140352249 -0.11748649179935455,-0.16865812242031097 l-0.0003278981239418499,0.24834312498569489 0.01323592965491116,-0.2077159658074379 l-0.08701730519533157,-0.17374582588672638 -0.05775286350399256,-0.04575394559651613 l0.03543200669810176,-0.13044215738773346 -0.11792312376201153,-0.059897592291235924 l-0.024549446534365416,-0.10232007130980492 -0.0003114129140158184,0.20786043256521225 l-0.00023665903427172452,0.04771249368786812 0.026572004426270723,-0.26795076206326485 l-0.17857355996966362,-0.0948131550103426 -0.0003205989196430892,0.3131766989827156 l0.14076082035899162,-0.33372242003679276 -0.00039413927879650146,0.060546728782355785 l-0.00026674037144402973,0.19012199714779854 0.011734439758583903,-0.34396570175886154 l-0.23875532671809196,-0.05743620451539755 -0.0003006446968356613,0.2992277406156063 l0.1524372212588787,-0.34400567412376404 -0.16963748261332512,-0.17135480418801308 l-0.0003336107693030499,0.34747645258903503 -0.00028757012842106633,-0.01943698967806995 l0.010721145663410425,-0.40870048105716705 -0.18148498609662056,-0.009957064175978303 l-0.00031668398150941357,0.26594310998916626 0.16747480258345604,-0.3746340051293373 l-0.23005979135632515,-0.14148326590657234 -0.00030073368179728277,0.4544033482670784 l0.22798238322138786,-0.34379929304122925 -0.25710925459861755,-0.24496853351593018 l-0.10547257959842682,0.06556922569870949 -0.0002988812775583938,0.26183925569057465 l0.14195818454027176,-0.316736102104187 -0.00043675609049387276,0.060029225423932076 l-0.00027172747650183737,0.16793128103017807 0.037629189901053905,-0.34906867891550064 l-0.14213647693395615,-0.1565280184149742 -0.00034901615435956046,0.3809953108429909 l0.14547794125974178,-0.3650600463151932 -0.26412416249513626,-0.17030064016580582 l-0.00038298727304209024,0.4310678318142891 0.1944192498922348,-0.35798724740743637 l-0.19240232184529305,-0.2068336121737957 -0.00037691064790124074,0.370652936398983 l0.18143774941563606,-0.3450164198875427 -0.2557530626654625,-0.18661193549633026 l-0.0003366876990185119,0.3755943849682808 0.21250247955322266,-0.3648645803332329 l-0.1913101226091385,-0.19751794636249542 -0.00033811920729931444,0.41101638227701187 l0.13798212632536888,-0.3814108669757843 -0.2367563545703888,-0.1440966222435236 l-0.0003633783489931375,0.2304643765091896 0.1118698064237833,-0.33075980842113495 l-0.1475440338253975,-0.16004813835024834 -0.00037538040487561375,0.37723518908023834 l0.1604912057518959,-0.37403468042612076 -0.22687872871756554,-0.14302614144980907 l-0.00038395359297282994,0.37356462329626083 0.14848179183900356,-0.38447096943855286 l-0.23110467940568924,-0.16580907627940178 -0.000347468230756931,0.4012099653482437 l0.17988592386245728,-0.3385511785745621 -0.19056079909205437,-0.18506795167922974 l-0.00036250752600608394,0.3344251215457916 0.13055728748440742,-0.38123562932014465 l-0.23499250411987305,-0.08920551277697086 -0.00031885618227533996,0.35306572914123535 l0.1809261180460453,-0.3586854785680771 -0.20752804353833199,-0.153055340051651 l-0.00032511710742255673,0.37187159061431885 0.13349343091249466,-0.38190513849258423 l-0.0004766820711665787,-0.005658204318024218 -0.09008489549160004,-0.18617862835526466 l-0.00035783112252829596,0.07481236476451159 -0.05877484101802111,-0.25861913338303566 l-0.0004142572288401425,0.07200971245765686 0.033060191199183464,-0.2951721288263798 l-0.15271772630512714,-0.04390961490571499 -0.0003089348683715798,0.33006541430950165 l0.12020940892398357,-0.3646847605705261 -0.2351621352136135,-0.0799854751676321 l-0.0003088300582021475,0.3630579262971878 0.17212634906172752,-0.3858235850930214 l-0.26335185393691063,-0.15405780635774136 -0.04277379252016544,-0.01430533709935844 l0.003149919502902776,-0.2510066516697407 -0.06491261534392834,-0.08883549831807613 l-0.00034455697459634393,0.3563082590699196 0.07851487956941128,-0.30419135466217995 l-0.1931832730770111,-0.1449117809534073 -0.00032121413823915645,0.24822939187288284 l-0.00033195436117239296,0.07149696350097656 0.07942876778542995,-0.3521987795829773 l-0.21908197551965714,-0.013914076844230294 -0.00029749520763289183,0.1964128017425537 l0.1269893627613783,-0.32536741346120834 -0.15245418064296246,-0.11230872012674809 l-0.00031977309845387936,0.1523992232978344 0.03337392117828131,-0.3165530785918236 l-0.19526468589901924,-0.10603746399283409 -0.05265863612294197,-0.10913186706602573 l-0.0003719591404660605,0.1689828373491764 0.0653441296890378,-0.28806544840335846 l-0.00041874525777529925,0.07989642210304737 -0.00027856232918566093,0.25911957025527954 l-0.02915847348049283,-0.2949727140367031 -0.14834015630185604,-0.13818672858178616 l-0.00031313509680330753,0.2533731982111931 -0.00028217034923727624,0.03397781169041991 l-0.036633454728871584,-0.3126061335206032 -0.12499678879976273,-0.04231723491102457 l-0.0003198318518116139,0.29059210792183876 -0.0002750165185716469,-0.09013797156512737 l-0.028093154542148113,-0.2354842610657215 m5.596680641174316,4.937348663806915 l0.7643046975135803,1.257166564464569 1.4764750003814697,1.460961252450943 l3.0352014303207397,0.6489386409521103 2.8897079825401306,-1.2392701208591461 l0.666918158531189,-0.9489668160676956 -0.00022909365725354291,-0.1824846863746643 l-0.3226262331008911,-0.7914789766073227 -1.697889119386673,-1.0825908184051514 l-2.774767279624939,-0.1279166992753744 -1.5452256798744202,0.8025889098644257 m4.29962545633316,6.991644501686096 l0.16589784994721413,2.4834808707237244 0.4538830742239952,4.1039857268333435 l0.06312166340649128,3.474263846874237 0.8274420350790024,1.4832301437854767 l1.4752665162086487,0.8255233615636826 1.9008778035640717,-4.423574409884168e-05 l1.4627563953399658,-1.2900140881538391 -0.00047425648517673835,-4.093345403671265 l-0.8509300649166107,-1.9641366600990295 m12.284467220306396,-0.2189159020781517 l-0.0002763576776487753,4.003800749778748 0.8836895972490311,1.7131523787975311 l1.4446350932121277,0.881698727607727 1.920756846666336,0.0001259451892110519 l1.2819677591323853,-1.2417256832122803 -0.00036314922908786684,-3.0464982986450195 l-0.8570081740617752,-1.4017820358276367 m10.273877382278442,0.5608146265149117 l-3.3346438499393116e-06,2.8333303332328796 0.869898796081543,1.572112888097763 l1.360209435224533,0.7070714235305786 1.6952317953109741,0.00011652255125227384 l1.1131426692008972,-1.1795701086521149 -0.00029116470614098944,-2.549509108066559 m-24.817447662353516,-4.583357274532318 l0.00033003449061652645,2.2078797221183777 0.9630613029003143,1.3745521008968353 l1.5353462100028992,0.5653668940067291 1.5602365136146545,-0.00011799232197517995 l1.1353494226932526,-1.0334351658821106 -0.0003439558349782601,-1.4399048686027527 m7.411911487579346,0.316179096698761 l1.0898563265800476,1.9423694908618927 1.6177523136138916,0.9346979856491089 l1.6350091993808746,9.040380973601714e-05 1.2263063341379166,-1.0878407955169678 l-0.00035859568015439436,-1.692337989807129 m-19.203723669052124,-6.143550276756287 m53.180174369656186,-1.5724991480567496 l3.3637791872024536,0.4293429106473923 1.7317387461662292,-0.33986911177635193 l1.9698591530323029,-0.6198515743017197 2.3052972555160522,-5.490402600116795e-05 l1.814681887626648,-0.549338161945343 2.3951081931591034,-0.00015599616745021194 l0.2654457651078701,-0.761241540312767 2.989141345024109,0.0001543610414955765 l4.021949768066406,-1.3960577547550201 2.732017934322357,0.00020574250811478123 l0.6575252115726471,-0.5479778349399567 2.2635693848133087,0.0001698679079709109 l4.4275835156440735,-0.5927462875843048 3.517388105392456,0.0001978416185011156 l3.8014009594917297,-0.16888732090592384 1.6805562376976013,-0.7735500484704971 l3.147841989994049,0.00013278900041768793 4.409630298614502,0.7715779542922974 l3.5503897070884705,0.0001999429332499858 2.6543447375297546,1.4914964139461517 l3.3684080839157104,3.277518999311724e-05 2.7190741896629333,1.6031232476234436 l2.0930980145931244,2.4344122409820557 1.4490751922130585,3.3131638169288635 l1.7319929599761963,1.699187308549881 0.000333271746058017,6.259745359420776 l-0.31040258705616,5.408868789672852 -1.4448827505111694,2.835564911365509 l-1.058809533715248,3.6703869700431824 -0.7830469310283661,1.8213994801044464 l-0.9102416038513184,0.7723014056682587 -0.9010908752679825,-0.6677307188510895 l-0.3624458983540535,-4.807508289813995 -0.6886022537946701,-4.591934084892273 l-0.6374319642782211,-1.0981269180774689 -2.4959559738636017,-1.1861968785524368 l-1.5561839938163757,-0.7078136503696442 -1.42518550157547,0.18216747790575027 l-1.3040784001350403,1.4470377564430237 -0.7741521298885345,2.5920075178146362 l-1.7629000544548035,5.569535493850708 -1.6830022633075714,1.8182751536369324 l-0.8685001730918884,-2.119484841823578 0.2808053605258465,-5.808642506599426 l-0.6128735095262527,-1.2480009347200394 -13.607709407806396,-0.36468982696533203 l-5.271031856536865,-0.00020104947907384485 -4.972906112670898,1.364169865846634 l-4.02965635061264,2.135213166475296 -1.9930551946163177,3.4082725644111633 l-1.3687260448932648,3.0228182673454285 -0.9800063073635101,0.6882429867982864 l-1.6059452295303345,0.0002873007542802952 -0.8576002717018127,-0.9246052801609039 l-0.06549908313900232,-5.935323238372803 -0.9046806395053864,-2.1699395775794983 l-1.71981543302536,-1.40049546957016 -2.9037639498710632,-2.4318696558475494 l-2.4160784482955933,-0.00021556472347583622 -2.957008183002472,-1.3775379955768585 l-2.421986162662506,-2.525767683982849 -1.7232158780097961,-3.3177441358566284 l5.111101472721202e-05,-3.6400818824768066 -0.5255429819226265,-1.2082626670598984 l0.13193979859352112,-2.265636622905731 0.7970960438251495,-1.053631380200386 l1.0779836028814316,0.00037481484469026327 1.0314400494098663,-0.8831501752138138 l1.357864886522293,0.00019352679373696446 1.1028166115283966,-0.962919145822525 l1.2059473991394043,0.00019629569578683004 0.25297094136476517,-0.14820914715528488 l0.71849524974823,0.46355560421943665 1.218016967177391,0.0002446881808282342 l-0.0003220853614038788,0.49997344613075256 0.39592888206243515,0.00019649685782496817 l-0.00018259815988130867,0.5768779292702675 0.005004829727113247,0.000216582902794471 l0.6266886740922928,0.4513845592737198 0.7502476871013641,0.00032161195122171193 l-0.00017594626115169376,0.46869341284036636 -0.25110889226198196,8.085152330750134e-05 l-0.7612556964159012,0.6761413067579269 -0.841754749417305,9.242590749636292e-05 l-0.7891874015331268,1.034858450293541 -0.5860886722803116,5.100417183712125e-05 l-0.2607603743672371,0.00021968260625726543 0.14709861017763615,3.4238667012687074e-05 l0.5450593307614326,0.00010372011274739634 m1.9222676753997803,7.761443853378296 l1.26397043466568,-0.0003456639387877658 1.7705880105495453,1.4176304638385773 m1.5783022344112396,-4.786329567432404 l1.3138742744922638,0.0005696044900105335 1.7966172099113464,1.269301027059555 l-0.0003051513522223104,0.9981274604797363 m2.620212137699127,-2.5459957122802734 l2.0607438683509827,0.0005443913323688321 2.1159444749355316,1.2612691521644592 l1.6496749222278595,2.289443612098694 m4.341610968112946,-2.1171653270721436 l2.4246643483638763,6.276772182900459e-05 2.4487026035785675,1.2763701379299164 l0.7566172629594803,0.913006141781807 m3.1798362731933594,-0.6416621804237366 l1.4888033270835876,-0.3544902801513672 2.755703926086426,0.5985457077622414 l2.0532527565956116,1.6240842640399933 m2.1132516860961914,-0.3889487311244011 l1.730102151632309,-0.2167266421020031 2.504710853099823,0.9994688630104065 l0.23735187947750092,1.11822709441185 m-0.3871447220444679,-0.7335976511240005 l1.0695300996303558,1.4144022762775421 0.5464443191885948,2.560754120349884 l1.4988085627555847,1.7423257231712341 m-0.25464506819844246,-4.56923246383667 l1.075781062245369,1.288241595029831 0.49973350018262863,2.53516286611557 l1.305548995733261,1.7812897264957428 m0.3877810388803482,-1.5586122870445251 l0.9673447906970978,1.7225894331932068 1.8127501010894775,1.3901035487651825 l1.7593435943126678,0.3717980906367302 m-3.572911322116852,-5.441147089004517 l0.6369280070066452,1.4800795912742615 1.7153047025203705,1.5750129520893097 l1.9159284234046936,0.7228035479784012 m-4.302343428134918,-4.024720191955566 l0.3531383350491524,1.5851622819900513 1.457538902759552,1.7967917025089264 l1.9105860590934753,1.0826587677001953 m-3.71296763420105,-3.5814839601516724 l0.4584256559610367,1.5318916738033295 1.4734835922718048,1.736571043729782 l1.9573603570461273,1.065204069018364 m24.471126358751008,-15.685909622269492 l2.8496333956718445,0.3854110464453697 0.6776437163352966,0.4934656247496605 l2.763289213180542,-1.0330289602279663 1.8303394317626953,0.0001249707111128373 l1.9693100452423096,-0.28919611126184464 2.3849253356456757,-0.0001754333425196819 l1.6389307379722595,-1.2099707126617432 2.2145110368728638,0.0002318274709978141 l3.319886028766632,-0.7909546047449112 2.4064521491527557,0.00013358164324017707 l3.4284719824790955,-0.5548973754048347 2.437095493078232,0.00014771060705243144 l3.8019004464149475,-0.4359631612896919 2.3834386467933655,0.00020578949261107482 l4.3202537298202515,0.05464503541588783 4.042439162731171,0.04224755801260471 l3.6837568879127502,0.5546468868851662 3.291153907775879,0.9384937584400177 l2.1887394785881042,2.0012857019901276 2.1140623092651367,0.516151487827301 l1.966584324836731,1.9603295624256134 1.2337111681699753,2.9362720251083374 l1.6503532230854034,1.6185419261455536 0.2941341884434223,7.394569516181946 l1.0233520716428757,2.0155255496501923 -0.8441926538944244,4.2897579073905945 l-1.529277265071869,2.0966818928718567 -1.1457742005586624,0.5226034298539162 l-1.1519917845726013,-0.6145229935646057 -0.8657313883304596,-3.5813596844673157 l-1.658700406551361,-3.940719962120056 -0.8334499597549438,-1.0181979835033417 l-1.2945276498794556,-2.122574895620346 -1.8290020525455475,-2.0470164716243744 l-1.7363907396793365,-0.9548936784267426 -4.678288698196411,0.0003497332727420144 l-12.43526816368103,0.0979327317327261 -10.387511253356934,0.024027826730161905 l-4.206305146217346,1.2745270133018494 -2.9721221327781677,3.224489390850067 l-1.268356591463089,6.560395359992981 -0.4854794964194298,0.835195854306221 l-1.7545762658119202,-0.00012708537724392954 -1.6122807562351227,-1.6781017184257507 l-0.2132212184369564,-6.284281015396118 -0.9014328569173813,-2.356930375099182 l-0.8660438656806946,-4.309761226177216 -0.8124461024999619,-1.062580943107605 l-1.778637170791626,-2.695356011390686 -1.8031328916549683,-2.128637880086899 l-1.9368940591812134,-1.92825585603714 -2.7585995197296143,6.483796823886223e-05 l-1.1704526841640472,-0.866529643535614 -0.3898514434695244,-1.2227782607078552 l-0.00020304669305915013,-2.15204581618309 0.8075185120105743,-0.9167942404747009 l1.6069164872169495,0.00040781076677376404 1.6614636778831482,0.00013908836081100162 l1.2718228995800018,-0.9614720195531845 1.5472780168056488,0.0004169536259723827 m20.636920928955078,15.662622451782227 l-0.33014532178640366,0.8342399448156357 0.5552175641059875,1.4598223567008972 l1.4334207773208618,1.1369355767965317 1.7069503664970398,0.3972432389855385 l0.5598977208137512,-1.8067936599254608 -0.9433843195438385,-1.2345708161592484 m11.387255191802979,0.9259913116693497 l-0.6770159304141998,0.7599510252475739 0.24522939696907997,1.3631129264831543 l1.4101062715053558,0.776667520403862 1.7195095121860504,-0.23082584142684937 l1.0605281591415405,-1.2103832513093948 -0.00033840617106761783,-0.9149648994207382 m7.755292654037476,0.1100944634526968 l-0.859760195016861,0.8312595635652542 0.13701148331165314,1.3396373391151428 l1.4208316802978516,0.4516221955418587 1.5542969107627869,-0.7204131036996841 l0.598464123904705,-0.8738327026367188 -0.0003216491313651204,-0.6136078760027885 l-1.156451478600502,-0.46871595084667206 m-26.163620948791504,-5.896516442298889 l-0.7677365094423294,1.4301656186580658 0.31729843467473984,1.586366444826126 l1.366315484046936,0.9520824998617172 1.6237175464630127,0.06614023353904486 l1.2009886652231216,-0.9849244356155396 -0.0002547096119087655,-1.3201892375946045 l-1.1949960142374039,-0.709177553653717 -2.3523247241973877,0.2500133216381073 m1.7252647876739502,-3.422737419605255 l-0.8979225158691406,1.4477211236953735 0.3224646672606468,1.6581140458583832 l1.5126600861549377,0.9008246660232544 1.7618754506111145,-0.20707542076706886 l1.181076467037201,-1.2022711336612701 -0.0003137525709462352,-1.3730964064598083 l-1.2431833893060684,-0.7572557032108307 m9.45184051990509,1.7155279219150543 l-1.107684150338173,1.336016058921814 0.21533973515033722,1.6719703376293182 l1.8133383989334106,0.7861334085464478 2.1758481860160828,-0.41039276868104935 l1.3542735576629639,-1.433447152376175 -0.0002911250339820981,-1.505277305841446 m1.785566508769989,0.1622774824500084 l-0.1925094611942768,1.3591566681861877 1.2511050701141357,1.192367747426033 l1.8544630706310272,0.23337645456194878 1.657261848449707,-0.9263566136360168 l1.093844398856163,-2.517136037349701 m-21.97638750076294,0.07269693538546562 l1.7379075288772583,2.1573196351528168 2.263490706682205,0.9418298304080963 l2.1014809608459473,-0.16285104677081108 1.5426623821258545,-1.1211013793945312 l-0.00028176627893117256,-1.5808211266994476 m1.011071354150772,0.9718947112560272 l0.9260031580924988,1.442842185497284 2.2660790383815765,1.0337813943624496 l2.1775203943252563,-0.023036773782223463 2.6378047466278076,-1.5952560305595398 l0.8722420781850815,-2.602263391017914 m-3.5062003135681152,0.7701774686574936 l3.530052602291107,2.23934069275856 3.620098829269409,0.00042529634811216965 l1.6624271869659424,-0.9696096181869507 m-6.5223002433776855,-2.1289852261543274 l3.529365360736847,2.145036607980728 3.0733507871627808,0.00020821262296522036 l1.6116918623447418,-0.944187194108963 m-6.805524826049805,-1.4330439269542694 l3.8829556107521057,2.114812880754471 2.928483486175537,0.00018231881767860614 l1.5574032068252563,-0.894550010561943 m28.48663797307381,-10.773970777031536 l2.240269184112549,0.3233136236667633 0.6578852981328964,0.9147942811250687 l1.4366015791893005,-0.8137214183807373 2.0146194100379944,-0.6693356484174728 l2.2642843425273895,9.860379577730782e-05 2.4328887462615967,-0.1011514663696289 l2.875296175479889,-0.9163714200258255 2.212047129869461,0.00014827228369540535 l1.2164189666509628,0.9592913836240768 2.3204559087753296,-1.17159865796566 l2.490009218454361,0.00029360880944295786 1.3721257448196411,1.0041578859090805 l2.60631263256073,-1.0155168920755386 2.6975291967391968,0.0003701785681187175 l1.5103958547115326,0.9692835062742233 3.042720854282379,-0.8272083848714828 l2.8246238827705383,0.00034417167626088485 4.795904457569122,0.6156891211867332 l4.005948603153229,0.4710347205400467 3.323794901371002,1.5080860257148743 l2.4871522188186646,2.338462322950363 1.2048646807670593,3.2780632376670837 l0.5864275991916656,3.4067291021347046 -0.30859725549817085,3.9965245127677917 l-1.0608070343732834,1.184721440076828 -1.18835911154747,2.2772811353206635 l-1.920621395111084,2.0938684046268463 -1.9680564105510712,1.0729596763849258 l-2.9289937019348145,1.1479511111974716 -3.7906405329704285,4.7865778469713405e-05 l-2.778767943382263,-1.1497852206230164 -3.3770686388015747,0.00016263189536402933 l-5.154207944869995,0.23346861824393272 -2.598886787891388,-1.1748746782541275 l-3.3762216567993164,0.00033849260944407433 -2.268105298280716,-1.3101580739021301 l-5.577687621116638,0.6623021513223648 -2.503046691417694,-1.1331240087747574 l-3.52631539106369,0.00021676138203474693 -2.2806353867053986,-1.2925836443901062 l-0.7555405050516129,-1.18105947971344 -1.8743281066417694,-1.2378565222024918 l-0.5380850657820702,-1.293528974056244 -1.3042177259922028,-1.7861565947532654 l-0.16726089641451836,-1.328182965517044 -1.2696374952793121,-1.8522688746452332 l-0.00024972337996587157,-2.3049309849739075 0.770331472158432,-0.9012289345264435 l-0.7721982896327972,-1.4617185294628143 m2.574998438358307,-0.8912905305624008 l-0.5040805414319038,-0.7209838926792145 -2.000877857208252,0.0006327496521407738 l-2.529769539833069,1.6907641291618347 -1.3491539657115936,1.6044951975345612 l-2.304893434047699,3.1095242500305176 -0.6237452104687691,1.8234626948833466 l0.43960779905319214,1.4798475801944733 1.4607147872447968,1.2509605288505554 l2.2377705574035645,0.5873823165893555 4.034810960292816,0.00013034844414505642 l2.1029935777187347,-1.0652858763933182 m-5.352848172187805,-7.065985202789307 l-0.05062207579612732,0.0003520673999446444 0.10327344760298729,-0.31441014260053635 l-0.013958490453660488,-0.04915235098451376 -0.02322157146409154,-0.040412088856101036 l0.007892041467130184,-0.08436586707830429 -0.07088165730237961,-0.08104914799332619 l0.03168738214299083,-0.04223717376589775 -0.07533317431807518,-0.0736053055152297 l-0.015349996974691749,-0.11866743676364422 -0.10113374330103397,-0.037805133033543825 l0.014642162714153528,-0.10777727700769901 -0.04734504036605358,-0.04890774842351675 l-0.043563819490373135,-0.09636729955673218 -0.0696179224178195,-0.024511287920176983 l-0.03962593153119087,-0.11557811871170998 -0.1145372074097395,-0.004207919992040843 l0.02696102950721979,-0.07759227883070707 -0.12404434382915497,-0.05715225823223591 l0.029508904553949833,-0.07566958665847778 -0.10164216160774231,-0.0373984151519835 l-0.062319859862327576,-0.02765208249911666 -0.0069958443054929376,-0.04716048017144203 l-0.10500546544790268,-0.03763530869036913 -0.02931886352598667,-0.013676530215889215 l-0.062538324855268,-0.001999476953642443 0.0008043632988119498,-0.017765124794095755 l-0.08362450636923313,-0.11274371296167374 -0.11990068480372429,-0.035283078905195 l-0.0714699411764741,-0.0035514228511601686 0.038513371255248785,-0.04357592202723026 l-0.11650786735117435,-0.08764343336224556 -0.10422607883810997,0.04162078723311424 l-0.003773477510549128,0.0041320655145682395 m18.60227942466736,9.836644530296326 l-0.6932868808507919,3.159136176109314 -1.775127500295639,7.6286011934280396 l0.0005524553489522077,3.207278251647949 0.9039709717035294,1.1362411081790924 l1.7677956819534302,0.30950089916586876 1.604171246290207,-1.0877113044261932 l1.0643036663532257,-10.18060564994812 0.3777843341231346,-4.158281981945038 m2.228884696960449,1.2119017541408539 l0.14671682380139828,3.3119168877601624 -0.12160655111074448,8.789507746696472 l0.7667157053947449,1.8426373600959778 1.2701936066150665,7.140162324503763e-05 l1.3024406135082245,-1.405276507139206 1.4169679582118988,-4.600209891796112 l8.68994538905099e-05,-6.514655351638794 m18.95285129547119,-0.044514271430671215 l0.08792768232524395,8.71520221233368 0.7563777267932892,2.4127933382987976 l1.2779837846755981,0.9708420932292938 1.2921738624572754,-0.5108840018510818 l1.0337945818901062,-1.8384559452533722 -9.763207344803959e-05,-7.369292378425598 l-0.9213648736476898,-2.1260063350200653 m2.6218709349632263,-1.0624084621667862 l0.6036721169948578,2.9401955008506775 1.9694307446479797,8.790817856788635 l0.9479781240224838,1.554129421710968 0.7286857813596725,0.00010914194717770442 l0.7213024795055389,-1.1821617186069489 -0.00021799631213070825,-7.69359290599823 l-0.9611821174621582,-2.8355947136878967 m-24.089903831481934,-9.890979528427124 l0.012691684532910585,1.2333206087350845 -0.8164297044277191,1.7862944304943085 l-1.0204125940799713,3.0243095755577087 m6.566786170005798,-4.085947573184967 l0.554337240755558,1.5999394655227661 -0.24687450379133224,2.748972475528717 m8.954719305038452,-3.3033233880996704 l0.7281571626663208,1.3395299017429352 0.08959470316767693,2.710197865962982 m3.2351651787757874,-2.927097976207733 l1.076102927327156,1.33616104722023 0.51426000893116,2.7632710337638855 l-0.6496398150920868,0.9979241341352463 m-0.4778716713190079,-4.107442498207092 l0.9845315665006638,1.5005511045455933 0.16061587259173393,2.6369836926460266 m-1.4941948652267456,-3.903099000453949 l0.8181365579366684,1.4774248003959656 0.09177836589515209,2.5996235013008118 m30.497028442545684,-18.595049577666032 l1.585260033607483,0.2526853606104851 0.3295520693063736,1.038639172911644 l0.44976580888032913,-0.16778282821178436 2.2917965054512024,-0.8803431689739227 l2.5462722778320312,-2.594937996036606e-05 2.8892436623573303,-0.09117749519646168 l2.8800946474075317,-0.5264881625771523 2.047007977962494,0.0001475429871788947 l1.13797128200531,0.8678830415010452 2.2443538904190063,-1.0815665870904922 l2.668144106864929,0.0002840895649569575 1.3110102713108063,0.9462767094373703 l2.521560490131378,-0.9843817353248596 2.6314017176628113,0.000365712221537251 l1.542031615972519,0.9499716013669968 2.4436980485916138,-0.816366896033287 l2.9074257612228394,0.0002799576577672269 1.5855899453163147,0.9917940944433212 l4.086759090423584,0.13522696681320667 2.682424485683441,1.4954555034637451 l1.8472611904144287,1.8324390053749084 1.4555373787879944,2.716016471385956 l0.4765358194708824,3.529123365879059 -0.7093487679958344,3.6489132046699524 l-0.834418535232544,3.2585322856903076 -0.9884238243103027,0.952104777097702 l-1.7583712935447693,1.9258370995521545 -2.067822515964508,1.5648262202739716 l-2.882438600063324,1.180105060338974 -2.66994446516037,-0.5241701379418373 l-4.943061470985413,0.7785264402627945 -3.4758883714675903,3.9379592635668814e-05 l-1.8920905888080597,-0.7036920636892319 -2.5393065810203552,0.6605178862810135 l-3.3068478107452393,0.0002075501106446609 -2.200283408164978,-1.2536460161209106 l-5.663401484489441,0.5386320874094963 -2.0924505591392517,-1.063876524567604 l-5.087264180183411,-0.07303927559405565 -1.9939415156841278,-1.2184546887874603 l-1.7228689789772034,-1.4599470794200897 -1.4564459025859833,-1.5288497507572174 l-0.33239688724279404,-1.4505989849567413 -0.8989749103784561,-1.8725308775901794 l-0.5734806880354881,-1.724204570055008 -0.0001847453495429363,-2.5100177526474 l1.2627208232879639,-1.6029205918312073 -0.3983718529343605,-1.532893180847168 l0.6389228254556656,-0.9459752589464188 0.5057201534509659,0.00019882496417267248 m2.549394965171814,1.6253168880939484 l-0.40327146649360657,-0.8810859173536301 -0.7657530158758163,0.0005572285590460524 l-1.8946701288223267,1.3033732771873474 -1.2208043038845062,1.7163711786270142 l-2.549426555633545,1.1346973478794098 -1.7460228502750397,2.588053047657013 l-0.035319095477461815,2.550049126148224 1.3303858041763306,1.2898528575897217 l2.193259298801422,0.728372186422348 4.168052077293396,0.0002226863034593407 l2.321087568998337,-1.1179092526435852 1.512535959482193,-1.6526031494140625 m-6.4552706480026245,-4.29298996925354 l-0.19972488284111023,7.169225682446267e-05 0.13535366393625736,-0.4814157634973526 l0.17709609121084213,0.0005163145033293404 -0.3381581977009773,0.6559506803750992 l0.07323144003748894,-0.5182924121618271 0.22731736302375793,0.0002659303027030546 l-0.352083258330822,-0.18427634611725807 0.08794458582997322,-0.06232604384422302 l-0.013082143850624561,-0.17541874200105667 -0.04239697940647602,0.0002273899008287117 l-0.09236053563654423,-0.09110713377594948 -0.059235142543911934,-0.14370379969477654 l-0.0405978923663497,-0.011213729158043861 m-1.9446243345737457,3.3732375502586365 l1.703161895275116,3.836798896372784e-05 0.6740140169858932,-0.6854114681482315 m16.06033205986023,7.431640028953552 l0.00039854723581811413,5.569620132446289 -0.8909717947244644,5.68825364112854 l0.0008107513713184744,1.8946577608585358 1.3754349946975708,-7.430007258335536e-06 l1.2302670627832413,-1.2748141586780548 -1.608641355232976e-05,-7.493098974227905 l0.20357646048069,-4.773576259613037 m2.292902320623398,1.1887969821691513 l8.166903171513695e-05,8.30054223537445 1.2242206186056137,0.0002561561996117234 l-0.00032014577300287783,-4.4114550948143005 0.058524454943835735,-5.1437026262283325 m20.41898012161255,1.3049371540546417 l0.00027173746275366284,7.898382544517517 1.9665132462978363,2.320212843187619e-05 l-0.0001375580541207455,-5.859906077384949 0.05104559939354658,-2.9961201548576355 m2.5212255120277405,-0.2856532670557499 l0.0002878539999073837,7.751830816268921 2.3528458178043365,0.00021473737433552742 l-0.6770206987857819,-8.15575897693634 -0.5213995277881622,-0.8426627516746521 m-21.148347854614258,-7.941228151321411 l0.9864334017038345,-8.14922657355055e-06 1.4739097654819489,1.0841484367847443 l3.1147944927215576,2.4315133690834045 2.591116726398468,1.8119584023952484 m-0.09991450235247612,-4.5100438594818115 l3.0961376428604126,1.1780934780836105 5.14323353767395,1.6647976636886597 l2.605409324169159,0.3800424560904503 m-1.3271600008010864,-2.165817618370056 l2.871057689189911,1.3254591822624207 4.241596460342407,1.2356296181678772 l2.0061086118221283,-0.3418160602450371 m-3.942270278930664,-2.2445854544639587 l0.8715573698282242,0.8578452467918396 2.320772111415863,0.8846817165613174 l2.708110809326172,0.007990283193066716 m-5.60677170753479,-1.7740899324417114 l3.1350529193878174,1.1946887522935867 3.732188642024994,0.5843676999211311 m-5.164443850517273,-1.4612747728824615 l2.7583223581314087,1.281210482120514 2.026587128639221,1.9466470181941986 l1.2248590588569641,1.4753946661949158 " fill="none" stroke="black" stroke-width="1"/></svg>