<svg baseProfile="full" height="99.65705937383368" version="1.1" width="865.2000231548262" xmlns="http://www.w3.org/2000/svg" xmlns:ev="http://www.w3.org/2001/xml-events" xmlns:xlink="http://www.w3.org/1999/xlink"><defs/><rect fill="white" height="99.65705937383368" width="865.2000231548262" x="0" y="0"/><path d="M25,33.09451282018321 m0.0,0.0 m26.16962897759398,-4.909809634421739 l-1.1016626159350078,-0.09969615687926611 -1.9762104749679565,-0.3409598767757416 l-2.384498516718547,-0.00010467372097385427 -1.210955878098806,0.260910764336586 l-2.124529282251994,1.1407122015953064 -1.2200046579043071,1.3158475359280906 l-0.6562617421150208,1.660222907861074 0.000105592347002433,2.468637029329936 l0.39937535921732586,1.1186508337656658 2.132913072903951,2.249086896578471 l0.9621325135231018,0.6037005285422008 2.9771367708841963,0.8119025826454163 l2.9600749413172407,-0.000470202649012208 1.122370461622874,-0.4064565648635229 l1.6822457313537598,-1.3638070225715637 0.6697336335976919,-0.9736870725949606 l0.7671779890855154,-2.2098592917124433 0.00019864996526545536,-2.4459060033162436 l-0.8578244845072429,-1.5328737099965415 -1.2529834111531577,-1.080076595147451 l-1.325139900048574,-0.5509037772814434 m13.67432435353597,1.5071194370587668 l-1.3555957873662314,-0.7452756663163503 -2.8073843320210776,-0.00023493797925766557 l-1.976958711942037,0.7319947083791097 -1.5289667248725891,1.3667087753613791 l-0.9488058090209961,1.6569188237190247 -0.46322931845982873,2.0860578616460166 l6.823269965631577e-05,2.87524422009786 0.9256030122439067,1.4141730467478435 l1.3396249214808147,1.1670888463656108 1.5946835279464722,0.8234126369158428 l1.7954268058141074,0.5024231970310211 3.8211488723754883,-0.00030315835222912335 l2.138069073359172,-1.0032689571380615 1.7102517684300742,-1.444415847460429 l1.1690221230189006,-1.604987382888794 0.6242481370766958,-1.6435039043426514 l0.0001697798749470773,-2.2056331237157187 -0.6674409409364065,-1.0678991675376892 l-1.9774214426676433,-1.5563788016637168 -1.9401617844899497,-0.7231026887893677 l-2.398848533630371,-0.00023313844091414165 m-13.461492856343588,5.964260498682658 l-1.0128876566886902,0.16144747535387677 -1.1433531840642295,1.7312681674957275 l-0.9214120109875997,2.6936787366867065 1.1085494406870566e-05,3.827622731526693 l1.5754784146944683,3.793358405431112 2.1825353304545088,2.26909617582957 l5.423905452092489,2.7077285448710127 3.778138558069865,0.6991614898045858 l4.161640008290609,-0.00044060133708020055 2.4476265907287598,-0.9293376406033834 l1.9267058372497559,-1.3528706630071006 1.4827481905619304,-1.567764977614085 l0.9293660521507263,-1.6720030705134075 0.505372037490209,-1.8692352374394736 l0.0001402770916077619,-3.216572403907776 -1.1801323294639587,-2.482064962387085 l-1.8406812349955242,-2.0314733187357588 -3.455706834793091,-2.370722492535909 l-4.157625039418539,-1.6489769021670024 -2.9502546787261963,-0.5804213384787242 l-4.233675400416057,-0.0003362771288569396 -1.8032407760620117,0.6341131528218588 l-2.3083726565043134,1.6205430030822754 m4.050079186757406,4.177330732345581 l0.2505526691675186,2.433592478434245 0.4674363136291504,2.395236690839132 l0.6297922631104788,2.0161954561869306 0.835977594057719,2.131778995196025 l0.8433965841929119,2.771817445755005 0.8765015999476116,2.6403723160425825 l1.3111940026283264,3.381444613138835 1.541264553864797,2.9274308681488037 l3.7436270713806152,4.274015029271444 5.1713792483011884,3.158443371454875 l6.5843212604522705,1.9458293914794922 4.85432783762614,-0.0005175668532804897 l2.597314516703288,-0.9594260652860006 2.1648506323496504,-1.2931536634763083 l2.3602018753687544,-2.365703384081523 1.4790175358454387,-2.2993719577789307 l0.8289167781670889,-2.1367706855138144 0.6385238468647003,-3.6926738421122236 l0.00014379338002375638,-6.4409200350443525 -1.007834573586782,-3.3538981278737388 l-1.3500153024991355,-2.4067646265029907 -4.889993667602539,-5.320592323939006 l-4.029673337936401,-3.0988802512486777 -4.515455961227417,-2.3780369758605957 l-7.568693161010742,-2.286464373270671 -3.331478238105774,-0.4171958565711975 l-4.84946091969808,-0.00030482418272489065 -2.7853304147720337,1.1146542429924011 l-2.7347534894943237,1.9108291467030845 -2.124701738357544,2.3395029703776045 m5.223158995310466,6.917661825815837 l-0.02495567314326763,3.371205214837877e-05 m17.63122876485189,0.5384586254755657 l0.0033296462303648395,-0.00021884479792788625 m66.33463807511514,0.6640417638785342 l-1.1827588081359863,-0.016801745320359867 -2.728832960128784,-0.0012250391106742124 l-2.338759501775106,0.639480749766032 -1.1368561784426372,0.626515696446101 l-1.0826341311136882,1.1533945798873901 -1.298819382985433,2.3617611328760786 l-0.3775295118490855,1.2889097134272258 0.00012924084633899233,3.135535717010498 l0.40505871176719666,1.069216827551524 1.3909700512886047,1.852575739224752 l2.2330592075983686,1.3546189665794373 2.050998409589132,0.696580559015274 l3.0532713731129966,0.33575077851613366 3.1592218081156416,-0.0004499850426024447 l1.2070950865745544,-0.4144985725482305 1.7953191200892131,-1.3146807750066123 l0.7041608293851217,-0.9320367376009624 0.8467019597689311,-2.1970760822296143 l0.0002048418779547016,-2.829996148745219 -0.5438743034998577,-1.3146930932998657 l-1.497424046198527,-2.055218617121379 -2.2390141089757285,-1.9281943639119468 l-1.0802129904429119,-0.542216847340266 -1.919664740562439,-0.00026172276799722266 m-4.455637137095134,4.484892288843791 l-0.6389143069585165,0.9407442808151245 9.296169688847537e-05,2.149840792020162 l1.0035367806752524,0.6525641679763794 0.8241936067740123,-0.7896097004413605 l0.00023770252785955867,-1.8933031956354778 -0.6295508146286011,-0.7294820249080658 l-0.809545914332072,-7.428961301532885e-05 m6.319677829742432,0.8030158281326294 l-0.7036053637663524,1.692688266436259 0.00012634519710748768,1.5850059191385906 l1.044524610042572,0.5578673879305522 0.763802727063497,-0.8122073610623678 l0.2667679389317831,-1.0863449176152549 0.00018323070738309374,-1.4487452308336894 l-0.6870984037717184,-0.5924946069717407 m-12.139815489451092,-14.376387596130371 l-0.31571363409360254,0.34259905417760217 -0.8572596311569214,4.7222065925598145 l0.0003907469848248487,4.863637685775757 1.176304320494334,6.207951307296753 l1.944202184677124,6.209388573964437 2.6647992928822837,5.558536847432455 l1.5434609850247702,1.8577919403711955 1.8143562475840251,1.5070411562919617 l3.339207172393799,1.8409343560536704 4.278969367345175,1.401893695195516 l1.8990709384282431,0.35544847448666894 4.962012767791748,-0.0003648537191717575 l2.738954822222392,-0.8039512236913046 3.570345640182495,-1.8771704037984214 l3.8329478104909263,-3.097561796506246 2.4297724167505903,-3.253561854362488 l1.7353047927220664,-4.200559854507446 0.8275709549585979,-3.3791402975718183 l0.40361441671848297,-4.721708695093791 0.00018082186822236207,-5.5838290850321455 l-0.8041388789812725,-3.3313361803690595 -1.3947589198748271,-2.7648162841796875 l-1.7818323771158855,-2.1131086349487305 -3.4127140045166016,-2.6971568663915 l-4.672722816467285,-2.3882097005844116 -3.138030171394348,-1.0686980684598288 l-3.0930540959040327,-0.6617331504821777 -7.389680544535319,-0.0003388168988749385 l-4.8610492547353115,1.2655937671661377 -4.911472797393799,2.0031275351842246 l-2.8316569328308105,2.2846221923828125 -1.6163031260172527,2.6309484243392944 l-0.48096920053164166,1.388016144434611 0.000159193659783341,2.4877669413884482 m4.538605213165283,-3.392554521560669 l-1.086962123711904,-3.746624787648519 0.00019304083252791315,-4.216174681981405 l0.7919515669345856,-2.1288408835728965 0.994308590888977,-1.6048083702723186 l1.162159542242686,-1.1282100280125937 1.9783512751261394,-1.0549367467562358 l1.8317639827728271,-0.5270116527875265 2.9661810398101807,-0.00031905544650120043 l1.3891816139221191,1.1934341986974082 0.9402538339296977,1.436388691266378 l1.1180226008097331,2.8558256228764853 0.683920830488205,3.6984777450561523 m9.868566989898682,0.46007484197616577 l0.327208290497462,-1.1072410146395366 2.1550502379735312,-2.551024953524272 l4.579312801361084,-3.160230318705241 2.6573294401168823,-0.6439959506193798 l2.694601615269979,-0.0003642992669483647 1.1599282423655193,1.313011149565379 l0.6860359013080597,1.5093478560447693 0.6114432215690613,2.9444438219070435 l0.00010166416662589958,4.398151238759359 -0.8512072761853536,2.3181984821955366 l-1.2864139676094055,1.7672302325566611 -3.8191819190979004,2.8326543172200522 m65.30254079808705,-2.3643090064797434 l-1.184709370136261,0.06735020006696384 -3.5134903589884443,-0.001185268241291245 l-1.5603513518969219,0.3126011540492376 -1.5893746415774028,0.8200628062089285 l-2.123429775238037,1.8409734964370728 -0.9825245539347331,1.717609167098999 l-0.32254382967948914,1.1282701293627422 7.26861859826992e-05,3.153301278750102 l0.2853996058305105,1.0951439539591472 2.1388278404871626,3.104565143585205 l0.9881577889124553,0.8275265494982402 2.2815134127934775,1.1863672733306885 l1.9965463876724243,0.5430566271146139 3.641155560811361,-0.0004211162740830332 l1.1746532718340557,-0.32850359876950586 2.1705710887908936,-1.349036693572998 l1.5599898497263591,-1.4343527952829997 1.526922583580017,-2.4791653951009116 l0.3048383196194967,-1.1530420184135437 0.0002853034675354138,-2.782304088274638 l-1.0093378027280173,-1.802409291267395 -1.3703020413716636,-1.2458163499832153 l-2.3868735631306968,-1.4035800099372864 -1.1436204115549724,-0.3823510557413101 l-2.2924214601516724,-0.0002731983598399287 m-4.986964861551921,4.62593952814738 l-0.4213714102904002,1.0388263066609702 5.993018930894323e-05,1.6418427228927612 l1.010959049065908,0.6152524550755819 0.7893612484137218,-0.736851692199707 l0.00020254068658687174,-1.8770035107930503 -0.7153695325056713,-0.6812372306982677 l-0.6669570505619049,-0.00010792960286683714 m6.464132070541382,0.8935413757960002 l-0.4070000598827998,1.0033140579859416 0.712906966606776,1.510942280292511 l1.007576088110606,0.23783817887306213 0.6295941273371379,-0.8561944961547852 l0.00013149246418227753,-1.5923757354418437 -0.7826137542724609,-0.6698551277319591 l-1.0693831245104473,-0.00017338845888540771 m-12.769714196523031,-14.154394467671713 l-0.5979187786579132,0.2879471083482107 -2.26910670598348,3.552126884460449 l-1.5316308538119,4.103055795033773 -1.0761602719624839,5.161188046137492 l6.437147021642886e-05,5.619728962580363 0.5955443282922109,2.6896774768829346 l1.6544748346010845,4.275765419006348 1.815117597579956,3.0840400854746504 l2.0211424430211387,2.5266915559768677 3.4788854916890464,2.972508470217387 l6.784437497456869,3.3283263444900513 3.9905317624409995,1.2157692511876426 l3.246374328931173,0.6034190952777863 5.702470938364665,-0.0004553334050190946 l2.968216935793559,-0.9037687381108602 2.48646875222524,-1.261906623840332 l3.47491463025411,-2.681127985318502 2.245902419090271,-2.393221855163574 l1.5886358420054119,-2.4074973662694297 1.7245149612426758,-4.252268473307292 l0.8013441661993663,-3.4590800603230796 0.3541654348373413,-4.677175283432007 l9.044221466562401e-05,-5.240950187047323 -0.8448352416356405,-3.408964474995931 l-1.3060272733370464,-2.851107120513916 -1.819195548693339,-2.5735292832056684 l-3.754211664199829,-3.4281818072001142 -3.049872914950053,-1.9215712944666545 l-3.084421753883362,-1.2558546662330627 -3.1012964248657227,-0.8146747946739197 l-5.645074446996054,-0.7402463754018148 -8.371686935424805,-0.00032730029488448054 l-4.8372964064280195,1.3254315654436748 -4.112276633580526,1.8722401062647502 l-2.235304315884908,2.039361397425334 -0.7174624502658844,1.0809390743573508 m1.3625353574752808,2.0965822537740073 l-0.9067601958910625,-1.2142014503479004 -3.9646534125010175,-7.022383213043213 l-0.8394219477971395,-1.8377276261647544 -0.5370853841304779,-1.6540805498758953 l4.4074871160167585e-06,-1.5022773543993633 1.582341194152832,-0.028323171039422355 l2.5403056542078657,1.262336572011312 2.496140201886495,1.5008187294006348 l2.023136019706726,1.715503732363383 1.9239278634389243,1.1816620826721191 m25.354668299357098,1.62912517786026 l3.5650622844696045,-2.8211188316345215 3.1024593114852905,-2.259242137273153 l4.356151421864828,-2.749796708424886 0.602999230225881,0.8125912646452587 l6.907226027882038e-05,5.277043183644613 -1.1506441235542297,3.7438372770945234 l-1.1664401491483054,3.212899963061015 -0.7991716265678406,2.632118066151937 m61.50905152426276,-1.664977063871144 l-1.2368340293566387,0.1333121582865715 -4.636714855829875,-0.0012336167856119573 l-2.2582407792409263,0.739842305580775 -1.4319725831349692,0.9895385305086772 l-1.1058587829271953,1.3129846254984539 -1.2594743569691977,2.4194979667663574 l-0.3435610483090083,1.328949530919393 4.889681804343127e-05,3.053581515947978 l0.3383536636829376,1.1851593852043152 1.3113084435462952,2.383334835370382 l2.188935875892639,2.11297869682312 1.1009384195009868,0.6586805482705435 l2.6179405053456626,0.8819708228111267 3.924926519393921,-0.00035675560260036343 l1.2006381154060364,-0.2399056653181712 2.4603891372680664,-1.1689946055412292 l2.577936848004659,-1.9525456428527832 0.9321062763532003,-1.318094333012899 l0.8537594477335613,-2.2146224975585938 0.00019951641055134436,-2.8684880336125693 l-0.49997031688690186,-1.2018967668215434 -1.5203893184661865,-2.0052331686019897 l-1.5811036030451457,-1.308297117551168 -2.460957964261373,-1.294840474923452 l-1.0477876663208008,-0.2905696630477905 -1.9896215200424194,-0.0002461421536281705 m-4.95736837387085,5.571935971577963 l-0.4243669907251994,0.980661412080129 7.063226197108938e-05,1.4706942439079285 l0.8988590041796367,0.5770488083362579 0.7786658406257629,-0.7673485080401103 l0.00018985216835668933,-1.6399630904197693 -0.9058965245882671,-0.32189001639684045 m6.316475073496501,0.20766523977120718 l-0.2679249395926794,1.0460421442985535 0.7374988496303558,1.1192288001378379 l0.7225633660952251,-0.7275935014088949 8.166646390842895e-05,-1.17746502161026 l-0.7299263278643291,-0.568193147579829 m-13.374738693237305,-13.392225901285808 l-0.9324439366658529,0.08381558582186699 -2.6873207092285156,1.6031202673912048 l-1.9002278645833335,1.8579880396525066 -2.008519967397054,3.0014216899871826 l-0.6192321578661601,1.4704554279645285 -0.949250062306722,3.528687159220378 l-0.3541719913482666,5.395901600519816 3.889721483574249e-05,6.073785225550334 l0.2949307610591253,1.7124142249425254 1.1939692497253418,3.13603937625885 l2.3302946488062544,3.5503077507019043 2.188202142715454,2.4369333187739057 l2.2931559880574546,1.8943047523498535 3.8925143082936606,2.3507614930470786 l2.9764580726623535,1.3022267818450928 2.8358590602874756,0.8408973614374797 l4.729861815770468,0.7119919856389364 6.51671290397644,-0.00045458053743156296 l1.7615058024724326,-0.33352886637051904 3.771880865097046,-1.3578089078267417 l2.930728594462077,-1.4893150329589844 3.0972514549891157,-2.3956032594045005 l2.528552015622457,-2.9803186655044556 2.2761110464731855,-4.377402464548747 l1.4980609218279521,-4.895872275034587 0.3743723531564077,-2.5428632895151777 l0.0001616950491249251,-5.853838523228964 -1.049897869427999,-3.4074421723683677 l-1.5621264775594077,-3.0016523599624634 -2.978074947992961,-3.713216781616211 l-2.7971941232681274,-2.3870525757471723 -4.4373997052510585,-2.5362658500671387 l-3.128744761149089,-1.2300175428390503 -5.300206343332927,-1.3613101840019226 l-6.09826405843099,-0.5197249352931976 -6.756776173909506,-0.0002221854568536704 l-3.3882935841878257,1.2247384587923686 -1.7441376050313315,1.1857742071151733 l-1.1706653237342834,1.3939147194226584 m-0.8423723777135214,3.5610393683115644 l-0.6336876253286998,-1.1896968881289165 -2.6333030064900718,-6.0984766483306885 l0.0003180819233724227,-2.432659467061361 1.0877100626627605,-0.8264911671479543 l2.026183406511943,-0.0005860480208260318 2.0831110080083213,1.1752593517303467 l0.9181373318036398,0.8247412741184235 1.4736374219258628,2.0868055025736494 l0.8552770813306173,1.2585069735844931 m22.46608098347982,1.6999455293019614 l0.6415331860383352,-0.9654057025909424 2.3116538921991987,-2.1717170874277754 l3.9756226539611816,-2.4249374866485596 1.3898680607477825,-0.5806984007358551 l0.7765918970108032,0.6925628085931143 -2.8120545418156933e-05,2.3085912068684897 l-1.5552862485249839,5.493623812993368 -0.966979463895162,2.679624557495117 m65.3971533975755,9.400289126000038 l-1.178002655506134,0.18832420309384665 -5.2945756912231445,1.234382192293803 l-1.5701327721277873,0.7250246405601501 -1.9602737824122112,1.5228253602981567 l-0.7196809351444244,0.8882745107014974 -0.9958676497141521,2.0684905846913657 l-0.26949527362982434,1.2237989902496338 4.3265945350867696e-05,3.615723450978597 l0.31309420863787335,1.2512686848640442 1.1899385849634807,2.315236528714498 l1.226524313290914,1.5005572636922202 2.521695693333944,1.890536944071452 l3.029396136601766,1.191910207271576 1.3764734069506328,0.2854185303052267 l3.6063456535339355,-0.0003906483228396004 1.9440601269404094,-0.463214119275411 l1.6406282782554626,-0.8950110276540121 2.177114486694336,-1.8122726678848267 l1.1112247904141745,-1.3872939348220825 1.2467344601949057,-2.61862576007843 l0.6619677941004436,-3.2209962606430054 0.00023585518647450954,-2.5692665576934814 l-0.8943682909011841,-1.7899012565612793 -1.4432467023531597,-1.427234709262848 l-1.6223711768786113,-0.9423131744066875 -2.868945399920146,-1.0016103585561118 l-3.446395794550578,-0.0002781011183590939 -1.2755036354064941,0.1353796198964119 m-4.698048830032349,6.061268647511801 l-0.323299045364062,0.9947353601455688 4.915790062417121e-05,1.6891918579737346 l0.47216276327768963,0.9176436066627502 1.2296095490455627,-0.05820106094082197 l0.6113869945208232,-0.9212057789166769 9.35923344513867e-05,-2.035016218821208 l-0.7128011683622997,-0.7392548521359762 -0.8006818095842998,-0.00012175241863587871 m7.364797592163086,0.41263138254483545 l-0.29705042640368146,0.9652044375737509 3.0103689520425785e-05,1.8813977638880413 l0.9012620647748312,0.5311284462610881 1.1082889636357627,-0.00017393425271923965 l0.5654747784137726,-0.9001876910527548 0.000107257001218386,-1.7696271340052288 l-0.7024515171845754,-0.7323921223481497 -1.1742815375328064,-0.00013416907070980719 m-15.617554982503256,-16.1579434076945 l-1.0090418656667075,0.6208393474419912 -0.920732319355011,1.4255386590957642 l-1.7546955744425456,5.950791438420614 2.901375713311912e-05,4.333285490671794 l0.29154097040494287,1.4002620180447898 1.5110124150911968,4.241063197453817 l1.8986181418100994,3.1038284301757812 2.42131511370341,2.5814970334370932 l2.9794031381607056,2.1519456307093305 3.5095485051472983,1.6894710063934326 l4.019612471262614,1.0615929961204529 1.7231361071268718,0.23079137007395428 l6.038764715194702,-0.00035065965979204827 2.5664734840393066,-0.6467695037523906 l3.2846413056055708,-1.5167215466499329 1.7249695460001628,-1.2459368507067363 l2.13206688563029,-2.397566040356954 1.8296996752421062,-3.514262040456136 l1.1454303065935771,-4.079588254292807 8.16518634868165e-05,-5.5262672901153564 l-0.839872161547343,-2.8808534145355225 -1.2525412440299988,-2.179839611053467 l-2.6220508416493735,-3.071119586626689 -2.4301298459370932,-1.878674030303955 l-3.799045483271281,-1.8072493871053061 -3.012228806813558,-0.8909939726193746 l-4.761786460876465,-0.7742381592591604 -6.357245047887167,-0.0002624263045921301 l-3.422013521194458,0.9544362624486288 -3.5508227348327637,1.570932666460673 l-1.9646159807840984,1.6768739620844524 m1.3372454047203064,1.1069480578104656 l9.935875671847802e-06,-1.0825946927070618 -1.1182295282681785,-6.77828868230184 l0.3771475950876872,-1.4115238189697266 1.1166387796401978,-0.5806775887807211 l2.0191071430842085,-0.0006045857056354483 1.657924254735311,1.3008328278859458 l1.1959334214528403,1.3748538494110107 1.1855883399645488,2.1284180879592896 m16.397581100463867,2.419183651606242 l0.5571404099464417,-1.0007261236508689 2.1654816468556723,-1.9556695222854614 l2.490966121355693,-1.5603052576382956 2.2026842832565308,-0.7376556098461151 l1.7156479756037395,-0.0002730448613874614 0.47943413257598877,1.448538899421692 l-9.83009158517234e-05,4.178425073623657 -0.42618925372759503,1.3520230849583945 l-0.895195206006368,1.3612798849741619 m61.96851043498261,7.638159541171869 l-1.132844090461731,0.2272409200668335 -5.924439827601115,1.7275696992874146 l-1.6164894898732505,0.8333882689476013 -1.1494260032971702,1.07975443204244 l-1.357105871041616,2.0384883880615234 -0.4372766613960266,1.1630287766456604 l-4.019257479133861e-05,3.138914704322815 0.17382098982731503,1.180906593799591 l1.263412336508433,2.458585898081462 2.452620665232341,3.130845030148824 l1.3717885812123618,1.2167333563168845 2.451348304748535,1.4617320895195007 l2.1380911270777387,0.8183641731739044 2.0101869106292725,0.4131701836983363 l3.6293379465738935,-0.00037086700710157555 1.8126380443572998,-0.639421691497167 l1.4670073986053467,-1.1226286490758262 1.7632746696472168,-2.071692943572998 l1.1277194817860923,-2.6675695180892944 0.3556736061970393,-1.6861645380655925 l0.0001827479718485847,-3.6553720633188886 -0.7639395197232565,-2.003176013628642 l-1.1381296316782634,-1.5385015805562339 -2.2671409447987876,-2.1669981877009077 l-1.863161325454712,-1.1327451467514038 -2.768317262331645,-1.1196622252464294 l-1.1151344577471416,-0.21085714300473532 -1.9950781265894573,-0.0002876116438225533 m-3.879415591557821,6.992249488830566 l-0.29345162212848663,1.0279481609662375 -1.0743018871532211e-05,1.5827242533365886 l0.8080717921257019,0.7638415694236755 1.1628542343775432,-0.0001338997996451023 l0.6556722025076549,-0.750991553068161 4.120835304396072e-05,-1.7169809341430664 l-0.7539456586043041,-0.6682259341080984 -0.826261838277181,-6.523380458626586e-05 m7.353752454121908,0.9182408452033997 l-0.8163198828697205,0.45409192641576135 -0.329618106285731,1.0650032758712769 l-1.7872228757672325e-05,1.4087975025177002 0.9913366039594015,0.46573395530382794 l1.160689691702525,-0.0001681887442828156 0.6353993217150371,-0.8389749129613241 l8.487999366479926e-05,-1.6835991541544597 -0.7036193708578746,-0.712952067454656 l-1.0170148809750876,-0.00013976464591299495 m-13.953340848286947,-18.400699297587078 l-1.0818431774775188,0.710458258787791 -0.8874431252479553,1.5831895669301352 l0.00012950582458870485,2.1864273150761924 0.4573312898476919,0.9196581443150839 l2.3490625619888306,0.7011827826499939 2.065471609433492,-0.0002903963225738456 l0.8665205041567485,-0.7199540237585704 0.5986570318539938,-1.0497146844863892 l0.00013233968881346908,-2.0645391941070557 -0.8141554892063141,-0.9382651249567668 l-1.2040573358535767,-0.6002022822697958 -1.5000162521998088,-0.00016692204856857037 m18.358262379964195,0.692861427863439 l-0.9653795758883159,0.1429959386587143 -0.9530376394589742,0.9153842926025391 l-0.5534155666828156,1.3729952772458396 1.2373189406389429e-06,1.813016732533773 l1.0284851988156638,0.8703190088272095 2.5262477000554404,-0.00023191430955193937 l0.9000975886980693,-0.5639912684758505 0.4924138387044271,-0.9638740619023641 l5.029730345995631e-05,-1.9172529379526775 -0.7343406478563945,-0.773153156042099 l-1.541766921679179,-0.00024006471600538742 m-24.116524060567222,0.6369810303052267 l-0.00010792580724228173,-0.6677250067392986 0.7314310471216838,-4.426460266113281 l1.4302374919255576,-3.746638298034668 1.8117813269297283,-3.070742686589559 l1.598560412724813,-1.822998325030009 1.6871013243993125,-1.3164312640825908 l5.2049986521403,-2.0656567811965942 4.300940831502279,-0.4449590543905894 l5.1060811678568525,-0.00038321765411334735 2.5311108430226645,0.5482928454875946 l3.597412109375,1.4352995157241821 2.1860378980636597,1.3861242930094402 l2.6972868045171103,2.2967437903086347 2.5583992401758833,3.124948541323344 l2.1639754374821982,3.6652847131093345 1.8739700317382812,4.315617879231771 l1.3246710101763408,4.799809455871582 0.6687061488628387,5.391967693964641 l5.954521839157678e-05,7.070089181264242 -0.6619682411352794,2.9878008365631104 l-1.1674379309018454,2.548808852831523 -2.364055911699931,3.258284131685893 l-3.241974711418152,2.724925478299459 -3.93518606821696,1.953939994176229 l-4.717334906260173,1.2897703051567078 -4.711485306421916,-0.00033677623529608053 l-3.977811733881633,-1.3701127966245017 -6.669464906056723,-3.775602181752523 l-5.559118191401164,-4.6644095579783125 -1.6683806975682578,-2.322482268015544 l-1.8591872851053874,-3.535658121109009 -1.082135041554769,-3.724650541941325 l-0.4277759790420532,-4.486110210418701 0.00010560453423143676,-5.099970102310181 l0.35113165775934857,-1.5817411740620932 1.0432182749112449,-2.5482155879338584 m100.51203890482365,5.596625204040417 l-1.1245782176653545,0.24730135997136435 -6.498015324274699,2.2544848918914795 l-1.7834103107452393,0.9872413674990337 -1.1557411154111228,1.112415889898936 l-0.8579212427139282,1.381302078564962 -0.36573561529318493,1.0156309604644775 l-8.989835502385783e-05,3.412781159083049 0.17742072542508444,1.1525720357894897 l1.6564162572224936,3.427269458770752 1.9343972206115723,2.485331892967224 l1.286327640215556,1.276486118634542 2.3927470048268638,1.6230602065722148 l1.1427558461825054,0.43697108825047815 2.621629039446513,0.5199252068996429 l4.155483643213908,-0.000288470231074219 1.861259937286377,-0.5414446194966634 l1.5571931997934978,-0.9206711252530416 1.8834622701009116,-1.7429010073343914 l0.9062697490056356,-1.3911379377047222 0.9712617595990499,-2.5250901778539023 l0.48348844051361084,-3.08746874332428 0.00011299349959396447,-3.37309201558431 l-0.746107151110967,-1.8338606754938762 -1.1404422918955486,-1.4597131808598838 l-2.2403424978256226,-1.8681466579437256 -1.1736528078715007,-0.6282181044419607 l-2.5187559922536216,-0.8163020511468252 -3.2720444599787397,-0.00029242260400981956 l-1.4666287104288738,0.25596720476945245 m-3.936622142791748,6.5669163068135585 l-0.41358468433221185,0.9326463937759399 3.233504079010648e-05,2.2045576572418213 l1.282754441102346,0.7758301993211111 1.5373059113820395,-0.0001738812837478084 l0.6240136921405792,-0.7202493151028951 1.3115356030842427e-06,-2.2143185138702393 l-0.6729525824387869,-0.8094842731952667 -1.0480386018753052,-9.533872798783705e-05 l-0.5067528784275055,0.599442223707835 m7.341663042704265,0.5208719273408254 l-0.31352604428927106,0.8678233623504639 5.169692182486567e-05,1.3801249861717224 l1.2975603342056274,0.5171245336532593 1.1594109733899436,-0.0001855356094893068 l0.6579756240049999,-0.6677525242169698 -5.207574815813132e-07,-1.5975755453109741 l-0.6726100544134777,-0.6055409709612529 -1.2108726302782695,-0.00013855932290122536 m-14.881594975789389,-16.94295088450114 l-0.7366925477981567,0.49059684077898663 6.006018035501863e-05,0.7673911253611247 l0.9631888071695964,0.6568717956542969 1.6160787145296733,-0.00015777384154110527 l0.5640730758508047,-0.7592898607254028 -1.8451892932110545e-06,-1.280398468176524 l-0.8141154050827026,-0.580135335524877 -1.2327059110005698,-0.00013212331396061927 m18.621150652567547,1.2509711583455405 l-0.832192450761795,0.2418155719836553 -0.48448219895362854,0.9566670656204224 l-9.198648816285035e-05,1.1461656292279563 1.0950745145479839,0.4848138491312663 l1.4959844946861267,-0.0001889540605285826 0.545567919810613,-0.7216521600882213 l2.656715878401883e-05,-1.2642048796017966 -0.7824734350045522,-0.5784884591897329 l-1.3650541504224143,-0.00020377544084719074 m-24.50782299041748,-0.7081263264020284 l-3.509010336226008e-05,-2.4974783261617026 -0.00014601131018328792,-4.196610053380331 l0.6789440413316091,-2.739914059638977 1.1252140998840332,-1.0961611072222393 l0.8860508600870769,0.23721923430760702 2.100402315457662,3.3097267150878906 l1.076873242855072,1.4654569824536643 1.3740703463554382,1.1137028535207114 l3.253167470296224,-0.00031027009147995466 8.396983941396078,-0.22214839855829877 l7.283271153767904,0.3569449235995611 2.7427200476328535,0.5050263802210491 l2.0463200410207114,-0.012616521368424099 1.7238120237986247,-2.5316959619522095 l1.756606101989746,-2.122153441111247 3.0984526872634888,-3.1235794226328535 l0.6160478790601095,0.7930892705917358 -0.00019131447819139188,3.4807995955149336 l0.4211726784706116,5.078015327453613 0.762859433889389,4.444303512573242 l0.9957791368166606,4.99164621035258 -0.00010478271481891474,5.089060862859091 l-0.24449869990348816,6.301228205362956 -1.1143556237220764,3.4112731615702314 l-1.220848560333252,2.1995073556900024 -2.3817449808120728,2.8649177153905234 l-3.0484098196029663,2.373415033022563 -3.725856939951579,1.8596144517262778 l-4.483451445897421,1.256958246231079 -4.917883475621542,0.6144918004671733 l-5.315430959065756,-0.00021333284773087752 -2.5465365250905356,-0.6138476232687633 l-2.5039871533711753,-1.201682488123576 -3.235596021016439,-2.288584311803182 l-3.0418507258097334,-3.010735511779785 -0.9057536721229553,-1.3600878914197287 l-1.5991573532422385,-3.382418950398763 -1.1660392085711162,-4.203333854675293 l-0.4648102323214213,-4.7791242599487305 0.00010985974464953567,-5.606653292973837 l0.5676873524983724,-3.1180365880330405 1.083864470322927,-2.4433541297912598 l1.3906432191530864,-1.929630438486735 m101.44171745936623,9.316784456959795 l-1.1573219299316406,0.26205862561861676 -6.608856519063314,2.5114222367604575 l-1.7775533596674602,1.0769916574160259 -1.0795063773790996,1.1366422971089682 l-0.7647265990575155,1.4163964986801147 -0.32867824037869775,1.107573707898458 l-8.706984469123806e-05,3.1375888983408613 0.46091268459955853,1.9508635997772217 l0.8957054217656454,1.7879478136698406 1.862637996673584,2.5880136092503867 l1.5068775415420532,1.3912991682688396 2.7430615822474165,1.761476198832194 l2.7024654547373457,0.970081090927124 1.3341748714447021,0.21233896414438885 l3.6765595277150473,-0.0002807490576136237 1.6446354985237122,-0.6090903778870901 l1.2943315505981445,-0.857617457707723 1.830281416575114,-1.7666212717692058 l1.5070862571398418,-2.4739458163579306 0.5376694103082021,-1.5532135963439941 l0.00010558197876283279,-4.157527685165405 -0.8717615405718486,-2.109672029813131 l-1.154058575630188,-1.5724965929985046 -1.3887293140093486,-1.2982061505317688 l-2.422628204027812,-1.6607624292373657 -1.0985575119654338,-0.5157619714736938 l-2.41314431031545,-0.6669718027114868 -2.6780529816945395,-0.00021048806956969202 l-0.8489930629730225,0.2628912031650543 m-2.8807695706685386,6.2285590171813965 l-0.3568372130393982,0.8798862497011821 2.0198510052675072e-05,1.848006049791972 l0.7991211116313934,0.694761077562968 1.179535190264384,-0.00010290773692152774 l0.5599676569302877,-0.7551031808058422 -3.985743812033131e-05,-1.6383317112922668 l-0.6432581941286724,-0.6099473933378856 -0.8119732141494751,-5.822292829786117e-05 m7.108588218688965,0.8679963151613872 l-0.4138008256753286,1.180436412493388 -7.116248070815345e-06,1.1154409249623618 l0.8440624674161276,0.5167382955551147 1.023368239402771,-0.00011506135100110745 l0.587608168522517,-0.768344799677531 8.228489605244249e-06,-1.608561674753825 l-0.6387636562188467,-0.670179824034373 -0.9591288367907207,-9.809750433002289e-05 m-12.276166280110678,-14.808085759480795 l0.012392677211513123,-2.180248581377479e-05 0.08637045199672382,1.0164165496826172 l0.4770121475060781,0.25680527091026306 0.16894040008385977,-0.9062191843986511 l-0.46041324734687805,-0.1241207371155421 m15.349165598551433,1.377557118733724 l0.17414510250091553,0.5244258046150208 0.1495994751652082,-0.07411981622378032 l-0.4641835391521454,-0.5407705406347911 -0.47004203001658124,-9.348526267179599e-05 m-21.916367212931316,-0.7729196548461914 l-0.5304273962974548,-1.337782939275106 -1.2010019024213157,-6.336838006973267 l9.002344086184166e-05,-3.7429511547088623 1.149765948454539,-0.3587738424539566 l1.0251050194104514,0.3454563021659851 3.200145959854126,2.8114511569341025 l1.5535729130109153,1.398394505182902 2.037026286125183,1.4252776900927226 l2.125038504600525,-0.00026836045435629785 3.120951851209005,-0.00024473854864481837 l4.98605489730835,-0.0002351365158877646 4.270187218983969,-0.00024911443081994855 l2.4186803897221885,-0.30045151710510254 1.6937392950057983,-1.875978708267212 l3.1378475824991865,-2.955545981725057 1.8173986673355103,-1.429966688156128 l0.8329919974009197,0.5654048919677734 -0.0002173653532130023,4.210944970448812 l0.41000785926977795,3.5298577944437666 -0.00013355157231368747,3.7958367665608725 l0.2851493904987971,1.1611050367355347 1.1915574471155803,3.926323652267456 l0.49334148565928143,2.5048681100209556 -3.741579651735568e-05,5.5795979499816895 l-1.25694344441096,3.191744883855184 -1.8881740172704062,3.040753801663717 l-1.699190934499105,1.8923280636469524 -2.7852155764897666,2.0584654808044434 l-3.498321771621704,1.5352090199788413 -4.107828140258789,0.8536832531293234 l-4.686889251073202,-0.0002836467077334722 -3.153810699780782,-1.139368712902069 l-1.9938609997431438,-1.26775324344635 -2.3810346921284995,-2.2152751684188843 l-2.4156254529953003,-2.9795438051223755 -1.1612345774968467,-2.2182162602742515 l-1.2396743893623352,-3.5538395245869956 -2.3782690732332412e-05,-4.562238852183024 l0.4827257990837097,-2.7780540784200034 0.9046337008476257,-2.6858949661254883 l1.141179104646047,-2.106639345486959 m2.986990014712016,4.9035243193308515 l-0.00023601072219510874,1.4799076318740845 0.14460263152917227,1.210006574789683 l0.9838713208834331,1.180647114912669 1.5669243534406028,0.253373458981514 l0.6946807106335958,-0.48998539646466577 0.04619242002566656,-2.4307578802108765 l-0.5923840900262197,-0.732293576002121 -1.1295699079831443,1.3407529877440538e-05 m92.95335023819766,-15.183069173701067 l-1.1246184508005779,0.24445926149686178 -6.8456896146138515,2.785132726033529 l-1.780634125073751,1.1336071292559307 -0.7409879565238953,0.766216367483139 l-1.1914340655008953,1.8787725766499839 -0.509537955125173,1.8220122655232749 l-0.00012829942230988917,3.152528802553813 0.5537124474843343,1.9165756305058799 l0.911225179831187,1.6430888573328655 1.9663908084233603,2.5238698720932007 l2.337822516759237,1.9480941692988079 2.067810694376628,1.2621308366457622 l1.1335945129394531,0.4065911968549093 3.3404727776845298,-0.00016940479933206615 l1.8284513552983603,-0.3141891211271286 1.7115455865859985,-0.7373152176539104 l1.424963672955831,-0.7022164265314739 2.0334408680597944,-1.5313905477523804 l1.7815804481506348,-2.0100581645965576 0.7061201830705007,-1.3957016666730246 l0.6779148677984874,-2.548965613047282 1.5156539726982981e-05,-3.4533822536468506 l-0.812474141518275,-1.8965317805608115 -1.1494120955467224,-1.5799480676651 l-1.4248494307200115,-1.3245892524719238 -2.341163754463196,-1.5079080065091452 l-1.0783233245213828,-0.4567458232243856 -3.77934734026591,-0.7867853343486786 l-2.1531103054682417,-0.00013637830609998977 m-0.9432037671407064,8.002316157023113 l-0.7717593014240265,0.003515194014956554 -0.8602135380109152,1.3775719205538433 l-0.00011188905773451552,1.6642887393633525 0.43844903508822125,0.7731416821479797 l1.0115885734558105,0.46784008542696637 1.877707044283549,-0.00016761360408660647 l0.8744567632675171,-1.0157276193300884 0.23605955143769583,-0.8550089597702026 l-4.55135614174651e-05,-1.594172517458598 -0.6590873996416728,-0.6482607622941335 l-1.1914446949958801,-0.48237616817156476 -1.328246295452118,-8.420021913480014e-05 m0.1765989512205124,1.8560258547465007 l-0.000172168729477562,0.7465872168540955 m0.9653383493423462,-0.7067173719406128 l-0.00020949453755747527,0.6649882098038992 m-4.8282500108083095,-9.333821932474773 l-0.7228957116603851,0.06221205616990726 -0.7466718057791393,0.6040095786253612 l-1.0467250148455303,2.1358843644460044 -0.00015403393869443488,1.6904274622599285 l0.8885577321052551,0.7037421067555746 2.3256436983744306,-0.00021948258411915353 l0.750232090552648,-0.5112574994564056 0.4525737464427948,-0.8196629087130229 l4.217359673930332e-05,-1.8420201539993286 -0.5987383425235748,-0.7023678719997406 l-0.9095494945844015,-0.4941480855147044 m10.617725054423016,0.7117614150047302 l-0.8808775742848715,-0.00032229627928851795 -0.8634577194849651,1.3140591979026794 l-0.00012205177578531827,1.3814900318781536 0.41734849413235986,0.7200213770071666 l1.0695617397626243,0.37485691408316296 1.8030707041422527,-0.00019070899725193158 l0.6631105641523998,-0.5877553423245748 -1.0156591088161804e-05,-1.6350956757863364 l-0.6877155601978302,-0.6755367914835613 -1.070577104886373,-0.48835650086402893 m-13.987487157185873,3.5094980398813886 l-0.0003440182141882057,-0.8769012490908306 -1.3744565844535828,-6.1687493324279785 l-0.22771529853343964,-1.8523665269215903 -8.707012966624461e-05,-3.497773011525472 l0.8327403167883556,-1.2153805295626323 1.097507973512014,-0.6325228015581768 l2.0206767320632935,-0.00019859304302372038 1.3917296131451926,0.7477612793445587 l2.18095342318217,2.792982061704 1.5481020013491313,3.1604844331741333 l0.9277904033660889,2.544059952100118 0.9110185503959656,1.246816913286845 m5.649882157643637,-0.16804836690425873 l0.38133472204208374,-0.8170040448506674 0.7114154100418091,-1.2597877780596416 l2.684386173884074,-3.9279544353485107 1.8973763783772788,-2.1926929553349814 l1.6779154539108276,-1.2733840942382812 2.2604725758234663,-1.0220614075660706 l2.4011067549387617,-0.00011269645862436543 0.8905801177024841,1.1130237579345703 l0.8500085274378459,2.2215249141057334 0.19549403339624405,8.159892559051514 l-1.561712920665741,2.679145137468974 -1.568709413210551,1.4110363523165386 l-0.936980942885081,0.48982267578442895 -3.176955779393514,-0.00010596459712057064 l-2.1663000186284385,-0.6335832675298055 -1.103475590546926,-0.2869228025277456 m-15.021254221598308,4.447259505589804 l-1.3813939690589905,-0.00011850982749213776 -2.0098721981048584,0.6129477918148041 l-4.5218658447265625,2.4199082454045615 -4.238735834757487,3.3399351437886557 l-3.214175899823507,3.721257050832113 -2.12453027566274,4.239665269851685 l-0.38618303835392,1.551601787408193 -0.0001473768861615099,3.2213515043258667 l0.7589602470397949,1.3973140716552734 2.0154235760370893,2.062077323595683 l2.1895631154378257,1.5207635362943015 2.393751939137777,1.1560377478599548 l2.63960341612498,0.8034321665763855 8.007769584655762,0.9747675061225891 l7.864249547322592,-0.00014042496331967413 3.1433022022247314,-0.6609907746315002 l3.9535144964853925,-1.5120142698287964 3.3241440852483115,-1.9011582930882773 l2.6326173543930054,-1.9499532381693523 2.274632453918457,-2.5738416115442915 l2.542620301246643,-5.129779974619548 0.3948617974917094,-1.7905439933141074 l-0.00011507534509291872,-3.560107946395874 -0.5274589359760284,-1.0860493779182434 l-2.699531316757202,-2.2067342201868696 -1.8740642070770264,-0.8299667636553447 m53.115606763800926,-8.489075979702346 l-1.1450937390327454,0.21458926300207776 -6.4942991733551025,2.7989039818445844 l-1.636190116405487,1.0780925552050273 -1.0327366987864177,1.1646734674771628 l-0.7117160161336263,1.3926733533541362 -0.42736127972602844,1.7504362265268962 l-0.00013944568005778518,3.3611631393432617 0.6024676064650218,1.9819849729537964 l1.051732103029887,1.6531440615653992 2.0642819007237754,2.3105170329411826 l1.631207565466563,1.1603240172068279 2.660403847694397,1.2600452701250713 l3.408443133036296,0.909800926844279 3.6216115951538086,-0.00024835212874071055 l1.8104288975397747,-0.6438204646110535 1.374881664911906,-0.9758885701497396 l1.5639092524846396,-1.7960568269093833 0.7256500919659933,-1.3481975595156352 l0.7475736240545909,-2.498748501141866 0.3036857396364212,-3.2916227976481123 l2.4295363800774794e-05,-3.375544548034668 -0.7308449347813925,-1.8878753980000815 l-1.0623110334078472,-1.4617174863815308 -1.2540559967358909,-1.0558839639027915 l-2.311075528462728,-1.2699161966641745 -1.0010566314061484,-0.3528637190659841 l-2.346014976501465,-0.00010871385408487792 -1.3720395167668662,0.01641973542670409 m-1.674711306889852,9.064253966013592 l-1.082563598950704,0.388791486620903 -0.8896307150522869,1.510043740272522 l-0.00019123199308523908,1.7086553573608398 0.7252594828605652,0.8444299300511678 l1.7877163489659629,0.8021121223767599 1.9765704870224,-0.00011964223328201722 l0.9288121263186138,-0.8142774303754171 0.48698017994562787,-1.1764450867970786 l-2.47514147607338e-05,-1.8799094359079997 -0.8350652456283569,-1.0208112994829814 l-1.0868370532989502,-0.48745493094126385 -1.3973142703374228,-0.00010335101251257583 m-0.9065744280815125,1.8222838640213013 l-0.00016519890777999535,1.0343286395072937 m1.7009031772613525,-0.8210009336471558 l0.21085942784945172,1.0111334919929504 m-5.135900974273682,-8.555266062418621 l-0.8333778381347656,-0.06955030684669813 -0.6272599597771963,0.5775924026966095 l-0.00011084383004345,1.0316110650698345 0.47428175806999207,0.6389462451140087 l1.5077365438143413,-6.073861489615714e-05 0.5151458581288656,-0.5823053419589996 l-8.579991723915252e-05,-1.2634610136349997 -0.6101571023464203,-0.44684141874313354 l-0.6726363797982534,-6.712515338828477e-05 m9.21626091003418,0.7465168833732605 l-0.42807310819625854,-0.0003450150688877329 -0.37563706437746686,0.643434077501297 l-8.826327151230848e-05,0.9341785311698914 0.8286150793234508,0.30678552885850274 l1.161340375741323,-0.0001116304459477154 0.4461327691872915,-0.686672975619634 l-6.0893798945471644e-05,-1.0435043772061667 -0.6374918917814891,-0.408270408709844 m-12.331430117289226,5.052237908045451 l-0.2878693491220474,-2.668723464012146 -0.37992313504219055,-2.2866984208424888 l-9.621101222971144e-05,-3.6355253060658774 0.4087283710638682,-1.35049839814504 l0.7194134593009949,-1.214631199836731 1.5482458472251892,-1.5113571286201477 l1.1652374267578125,-0.7141614456971487 2.0967998107274375,-0.7834938168525696 l3.469656308492025,-0.00018055599260454377 1.571328043937683,0.5386731028556824 l2.4155322710673017,1.8188969294230144 1.720010836919149,2.0350150267283125 l0.80756147702535,1.458661456902822 0.715508759021759,2.429845730463664 l-0.0001424104266334325,3.0946892499923706 -1.2931197881698608,2.001291910807292 l-0.7697611550490062,0.5959850052992504 -2.0497870445251465,0.8268772562344869 m1.4341402053833008,-10.363933245340984 l0.7020399967829387,-0.7788325846195221 2.6948128143946333,-1.7334049940109253 l3.072390953699748,-1.23489777247111 3.5752268632253013,-0.8158037563165029 l5.49639105796814,-0.00023323356193335107 2.2256217400232954,0.5702690283457439 l3.0651968717575073,1.4602954188982646 2.7054389317830405,1.9307776292165122 l2.189432978630066,2.2508968909581504 1.1835933725039165,1.6561000545819602 l0.7440715034802755,1.5633676449457805 0.6507878998915355,2.5975149869918823 l-0.00021213668029910576,3.8899922370910645 -1.8116184075673423,2.9874606927235923 l-1.8275809288024902,1.639078756173452 -3.175075451533,1.824410359064738 l-3.8377018769582114,1.288149654865265 -4.237113793691,0.6340867280960083 l-4.68613068262736,-0.00019083696921976906 -2.9419074455897016,-1.1065303285916648 l-1.9322967529296875,-1.7198226849238079 -0.5913485586643219,-0.8651529749234518 l-0.00011980784620391205,-1.298168202241262 m23.40280850728353,-12.375418345133465 l0.5024677515029907,-0.6886493662993114 0.8401254812876384,-0.8539749185244243 l2.1723119417826338,-1.755043665568034 1.3723599910736084,-1.1301091313362122 l0.5813347299893697,-0.8918032050132751 -0.00013027297730635232,-1.403492291768392 " fill="none" stroke="black" stroke-width="1"/></svg>