<svg baseProfile="full" height="79.9043033014027" version="1.1" width="84.28332061653236" xmlns="http://www.w3.org/2000/svg" xmlns:ev="http://www.w3.org/2001/xml-events" xmlns:xlink="http://www.w3.org/1999/xlink"><defs/><rect fill="white" height="79.9043033014027" width="84.28332061653236" x="0" y="0"/><path d="M31.472811065614223,38.42986718965449 m-0.58613620698452,0.7423414289951324 l-0.476670004427433,0.8435934782028198 -1.2032552808523178,1.5080353617668152 l-1.9516721367835999,3.084876537322998 -1.0320070385932922,1.7958387732505798 l-1.2230703979730606,3.0997484922409058 0.00015575589713989757,2.5453180074691772 l0.6479852646589279,0.9841033071279526 3.1039071083068848,1.3566337525844574 l3.492092192173004,0.5139469727873802 6.743819713592529,-7.541837931057671e-05 l2.2450940310955048,-0.2604106068611145 5.035679340362549,-0.4543227329850197 l4.226643443107605,-0.6931430101394653 4.062083661556244,-0.6172525882720947 l3.3336925506591797,-0.8936223387718201 0.47763578593730927,-0.5094743520021439 l0.9144677221775055,-2.4297112226486206 6.404700798157137e-05,-2.9709592461586 l-0.38239285349845886,-1.5107162296772003 -0.7943544536828995,-1.5406282246112823 l-1.0701250284910202,-1.2441208213567734 -1.584073007106781,-0.991164818406105 l-4.888881742954254,-1.5399917960166931 -6.086177229881287,-0.7671371847391129 l-5.158861875534058,-2.8752190246450482e-05 -3.015798330307007,0.255708284676075 l-2.415967732667923,0.3429822623729706 -1.845717579126358,0.3471251577138901 m-2.5869396328926086,2.66608864068985 l-0.00011901939615199808,-1.7898572981357574 -0.7449745386838913,-3.836337625980377 l-0.5623923242092133,-2.2716718912124634 -8.639332804705191e-06,-3.180134892463684 l-0.1460813544690609,-3.399321138858795 0.6332054734230042,0.2511851117014885 l2.8925737738609314,3.5877859592437744 2.35376238822937,2.780241072177887 l1.9051463901996613,2.357645630836487 0.6008303910493851,0.6577599793672562 m14.30834174156189,1.2321704626083374 l-0.00022537093173014,-1.1115755140781403 0.6787232309579849,-1.9544035196304321 l0.9539017826318741,-2.488546371459961 2.7844399213790894,-4.803956747055054 l0.7807040214538574,-0.903729647397995 2.4786926805973053,-2.2207018733024597 l0.4248138889670372,0.7111562043428421 -0.00015956606148392893,3.002697229385376 l0.02119980752468109,2.1882519125938416 -0.00021869122065254487,3.771500289440155 l-0.0917914230376482,2.076518088579178 -0.13452704064548016,1.924009770154953 l-0.2362697571516037,1.5490339696407318 m-20.808517932891846,7.684713006019592 l0.38085002452135086,-0.00020903267795802094 0.45519430190324783,-8.522367352270521e-05 l1.232144832611084,-6.210096671566134e-05 0.456443689763546,-0.0015728501603007317 m8.960834741592407,-1.0715239495038986 l2.352631241083145,3.2036159609560855e-05 " fill="none" stroke="black" stroke-width="1"/></svg>