<svg baseProfile="full" height="100.46683027669587" version="1.1" width="132.4451622471679" xmlns="http://www.w3.org/2000/svg" xmlns:ev="http://www.w3.org/2001/xml-events" xmlns:xlink="http://www.w3.org/1999/xlink"><defs/><rect fill="white" height="100.46683027669587" width="132.4451622471679" x="0" y="0"/><path d="M25,54.08703846429944 m4.1546037793159485,0.017612201627343893 l6.267962455749512,-3.9955049753189087 4.7795626521110535,-4.887150824069977 l3.30233633518219,-2.3255397379398346 0.7442384213209152,0.0001051746221492067 l1.4314045011997223,1.3742560148239136 1.505250334739685,3.0754896998405457 l0.1416807435452938,4.309583604335785 -2.2374360263347626,3.3550286293029785 l-3.9082908630371094,2.301284074783325 -7.155488133430481,1.9310079514980316 l-4.599147439002991,-0.7565222680568695 -1.6735418140888214,-3.11773419380188 l-0.006888032658025622,-3.299526274204254 2.15822696685791,-2.799190878868103 l3.9834490418434143,-1.935908943414688 4.1108238697052,-0.8524152636528015 l8.794906735420227,-0.6825990229845047 4.287422001361847,0.7183271646499634 l2.9873886704444885,1.445292979478836 5.605682730674744,1.7467281222343445 l8.836789727210999,0.013148672878742218 8.886843919754028,-0.8685151487588882 l8.923888206481934,-1.2228059023618698 7.434190511703491,-0.6582063436508179 l6.9100892543792725,0.822790116071701 3.4078264236450195,2.1012525260448456 l2.313530147075653,3.5778403282165527 1.0578571259975433,3.3361101150512695 l-5.663621891471848e-06,5.556732416152954 -1.7110499739646912,4.260499179363251 l-2.4597524106502533,3.2956576347351074 -3.302789032459259,2.271728664636612 l-3.915444016456604,1.3649947941303253 -4.884049892425537,-0.00014470588212134317 l-3.891954720020294,-1.1791139096021652 -6.828839182853699,-3.064890503883362 l-7.229088544845581,-2.805069088935852 -6.272910833358765,-1.6751636564731598 l-5.939397215843201,-1.8849003314971924 -4.9996837973594666,-2.37778440117836 l-2.935190498828888,-2.2671088576316833 -4.105713367462158,-4.093184769153595 l-2.7344441413879395,0.00044426386011764407 -1.1524944752454758,-0.7035303860902786 l-2.8965169191360474,0.0002706775558181107 m7.629148364067078,2.9986149072647095 l-0.7005176693201065,2.7098244428634644 -0.954606905579567,7.298707365989685 l0.05661511793732643,6.191185712814331 0.8660841733217239,1.7029166221618652 l1.7798739671707153,1.0544901341199875 2.3710618913173676,0.00037800869904458523 l1.6571983695030212,-1.2686127424240112 1.2059179693460464,-2.185814082622528 l-0.042663877829909325,-7.840763330459595 -0.44946741312742233,-1.0586803406476974 l-0.000461166346212849,-1.839856207370758 -0.5305959284305573,-0.8020441979169846 m19.945093393325806,2.856534421443939 l8.542366231267806e-05,6.554012894630432 0.827544778585434,2.6358219981193542 l1.5374568104743958,1.6237762570381165 2.08175390958786,0.8103529363870621 l1.8235337734222412,-0.310948733240366 1.4055243134498596,-1.3703320920467377 l0.9284234046936035,-2.221374213695526 8.787770639173687e-05,-3.6470356583595276 l-0.9789947420358658,-2.263684868812561 -2.4715571105480194,-2.333623170852661 m-17.90939688682556,-13.038773536682129 l-0.08915062062442303,-0.08335326798260212 -0.2765795774757862,-0.6793992221355438 l0.013607118744403124,-1.395820826292038 0.7180093228816986,-1.3003930449485779 l2.993282973766327,-0.746745765209198 2.7684947848320007,0.00020731009499286301 l2.196071892976761,1.112922802567482 1.523529589176178,1.963820904493332 l-7.940218893054407e-05,1.0217978060245514 0.22754546254873276,-1.159655675292015 l2.297363430261612,-1.4877234399318695 3.342616856098175,-0.4591720551252365 l3.0910712480545044,0.8177948743104935 0.9292787313461304,0.9226299077272415 l6.248565114219673e-05,1.2562565505504608 -1.2301085889339447,1.5382133424282074 l3.285153806209564,0.16725659370422363 2.5598493218421936,1.3854952156543732 l1.7175458371639252,2.209305614233017 -0.0001503168277849909,2.0183537900447845 l-1.0137170553207397,1.0726934671401978 -1.6050460934638977,-0.0002812916682159994 l-2.095177471637726,-1.5869469940662384 -1.0827583074569702,-2.705833911895752 l1.8242985010147095,-0.3990379720926285 3.1159380078315735,1.0254747420549393 l2.0577049255371094,2.5702279806137085 0.35216890275478363,3.1995025277137756 l-2.0701047778129578,1.726023554801941 -3.6705586314201355,-0.2886131778359413 l-1.46955206990242,-1.1209603399038315 -1.0917434096336365,-2.380693107843399 l0.9824700653553009,-2.033333480358124 3.0775418877601624,-0.9234599769115448 l3.436427414417267,1.13798126578331 2.12922140955925,2.489079385995865 l0.5144064500927925,2.898683249950409 -2.2433431446552277,1.6380688548088074 l-4.265387952327728,-0.49218524247407913 -3.5400426387786865,-2.4072739481925964 l-0.980810672044754,-1.6377954185009003 0.8238192647695541,-1.793532818555832 l3.3520761132240295,-0.7041089236736298 3.375416100025177,1.0528741776943207 l2.1082450449466705,2.274872213602066 0.2547150291502476,2.857162356376648 l-2.7330347895622253,1.5296624600887299 -5.236225724220276,-0.5191733688116074 l-1.7491939663887024,-1.0799670964479446 -1.512058973312378,-2.434728592634201 l0.6086819618940353,-2.4510760605335236 3.0571839213371277,-1.0500078648328781 l3.5854169726371765,0.9331732988357544 1.9970543682575226,2.2313304245471954 l0.13187356293201447,2.8186777234077454 -2.8938665986061096,1.5892159938812256 l-5.39042055606842,0.00022701704438077286 -4.232064187526703,-2.051289528608322 l-2.1020741760730743,-2.4762973189353943 -0.12505787424743176,-2.7428415417671204 l2.6824158430099487,-1.388026475906372 3.7251055240631104,0.5515426397323608 l2.3583094775676727,2.1850861608982086 0.3582453355193138,2.805107831954956 l-2.6029375195503235,1.7693853378295898 -5.278415679931641,0.00021813668354297988 l-4.473264813423157,-2.113775908946991 -2.42684006690979,-2.5424453616142273 l-0.3633754700422287,-2.781718075275421 2.6321884989738464,-1.8023575842380524 l4.119510054588318,0.05672088824212551 2.6057201623916626,1.7892640829086304 l0.8075757324695587,2.5334814190864563 -1.9390079379081726,2.3589806258678436 l-4.693327844142914,0.6430646032094955 -4.874235391616821,-1.596856713294983 l-2.5751495361328125,-2.5812390446662903 -0.4714151844382286,-3.0614662170410156 l2.5591719150543213,-1.9208072125911713 3.938373625278473,-0.24466052651405334 l2.892548441886902,1.2129680067300797 1.5141397714614868,2.168707102537155 l-0.23121744394302368,2.7230706810951233 -1.8160384893417358,0.5154522880911827 l-4.119853377342224,0.0003786166780628264 -3.9344051480293274,-1.8542930483818054 l-2.1585577726364136,-2.68250048160553 -0.0022801110753789544,-3.196987509727478 l2.7930936217308044,-2.2522057592868805 4.034375548362732,-0.6381164491176605 l3.409300148487091,0.9102188050746918 1.8844293057918549,1.9377100467681885 l-0.5222534760832787,1.3439811766147614 -2.7606868743896484,0.8118461072444916 l-4.197717905044556,-1.0541941225528717 -1.3167940080165863,-1.2431194633245468 l-1.183093218060094e-05,-2.2030548751354218 2.7960649132728577,-2.1367691457271576 l4.0356311202049255,-0.5989135801792145 3.11238557100296,0.8499854058027267 l1.6031257808208466,1.8828748166561127 0.16576441004872322,2.492123991250992 l-1.5103650093078613,0.7476910948753357 -3.626464009284973,0.0003366844612173736 l-3.395783007144928,-2.032366394996643 -0.9987569600343704,-1.6668297350406647 l-0.0001509716184955323,-2.062932252883911 2.69193172454834,-2.12931826710701 l4.148965775966644,-0.5964783951640129 3.3415189385414124,0.9193293005228043 l1.799345463514328,2.0463380217552185 -0.7676474750041962,1.458497941493988 l-3.0378299951553345,1.063428819179535 -4.022113084793091,0.0002709169530135114 l-1.5591077506542206,-0.938042402267456 -0.6659930199384689,-2.8249457478523254 l2.3940251767635345,-2.512439489364624 7.213262319564819,-0.6044777482748032 l3.1505507230758667,1.2299146503210068 -0.34308820962905884,1.8219009041786194 l-2.0253610610961914,1.168508231639862 -3.862692415714264,0.00034874432458309457 l-3.43070387840271,-1.7844465374946594 -0.9329535812139511,-1.4433002471923828 l-0.00013774087165074889,-1.4688554406166077 2.73860365152359,-1.8126145005226135 l2.9459109902381897,0.0003613576336647384 2.4594703316688538,1.4322467148303986 l-0.5927332863211632,1.5769998729228973 -2.3870502412319183,0.9094182401895523 l-3.520275354385376,0.00029929346055723727 -2.9438021779060364,-1.6739682853221893 l-0.7106457650661469,-1.420854777097702 1.541224867105484,-2.4138887226581573 l4.040045738220215,-1.1449750512838364 1.8201729655265808,0.0002903281529142987 l1.812043935060501,1.4470630884170532 -0.7400597631931305,1.4289985597133636 l-3.1580284237861633,1.2587904930114746 -3.4037041664123535,0.0002578037674538791 l-1.3443446159362793,-0.7894295454025269 -0.19496975466609,-2.394200414419174 l2.9741179943084717,-2.1664926409721375 2.821195125579834,0.0005536233584280126 l-0.0032235507387667894,1.4594002068042755 -1.9524002075195312,1.055893748998642 l-3.208508789539337,0.00020621395378839225 -2.640872597694397,-1.5580980479717255 l-0.5475319549441338,-1.3128966093063354 1.8116176128387451,-2.144198715686798 l3.845156729221344,-0.9544921666383743 1.3390712440013885,0.0002537462023610715 l-0.00010847416888282169,1.224462240934372 -1.831480860710144,1.0145865380764008 l-2.5812017917633057,0.00030817398510407656 -2.087584286928177,-1.484222263097763 l-0.41035883128643036,-1.468455046415329 2.2503288090229034,-2.0506522059440613 l3.07067334651947,0.00035895835026167333 2.1684202551841736,1.3392803072929382 l-0.9726326167583466,1.0185357183218002 -2.7911999821662903,7.592688689328497e-05 l-1.1696062237024307,-0.7492044568061829 -0.00017529502656543627,-1.2111634761095047 l2.6721760630607605,-1.6378460824489594 2.93684184551239,0.0002826304807967972 l-0.12152837589383125,1.2764669954776764 -2.0331422984600067,0.7857891917228699 l-2.081151604652405,0.00021000356355216354 -1.0023562610149384,-0.7562041282653809 l-0.00022382351744454354,-1.150352582335472 2.588184177875519,-1.4836923778057098 l2.572001814842224,0.00018262753656017594 -0.05509135778993368,1.2090703845024109 l-1.945665329694748,0.7470063120126724 -2.108730524778366,0.00018218615878140554 l-1.028795763850212,-0.7446356117725372 -0.00017247495634364896,-0.9969512373209 l2.582409083843231,-1.3422061502933502 " fill="none" stroke="black" stroke-width="1"/></svg>