<svg baseProfile="full" height="120.66820777952671" version="1.1" width="824.7287872806191" xmlns="http://www.w3.org/2000/svg" xmlns:ev="http://www.w3.org/2001/xml-events" xmlns:xlink="http://www.w3.org/1999/xlink"><defs/><rect fill="white" height="120.66820777952671" width="824.7287872806191" x="0" y="0"/><path d="M25,40.848566479980946 m0.0,0.0 m24.40264215632851,8.425858691334724 l3.884386420249939,-5.51446259021759 1.0949615389108658,-4.804871380329132 l1.9634167850017548,-4.825723767280579 1.9859601557254791,-3.2366296648979187 l2.4603037536144257,-2.5379860401153564 2.9910683631896973,-1.8948125839233398 l3.172183334827423,-1.0447827726602554 8.517794013023376,-0.41515637189149857 l3.9159634709358215,1.6971185803413391 2.4582645297050476,1.9267909228801727 l2.145419269800186,2.48839870095253 1.647266000509262,2.967672049999237 l2.3330746591091156,7.565098404884338 0.5962307751178741,3.829120695590973 l0.00013547414710046723,5.636383891105652 -0.33855464309453964,3.9562487602233887 l-0.42361773550510406,4.211621880531311 -0.4067258909344673,4.292496740818024 l-0.39094671607017517,4.590083658695221 0.0001975826671696268,5.804306864738464 l-0.4555453360080719,5.202034115791321 -0.6269858032464981,4.585887789726257 l-0.7579526305198669,3.9458802342414856 -0.7650575041770935,2.621574103832245 l-0.714520737528801,1.7645443975925446 -0.8176624029874802,1.506996899843216 l-0.85124172270298,1.1819829046726227 -1.0138533264398575,0.8939661830663681 m-30.16610860824585,-47.66440391540527 l-0.24897895753383636,3.0292722582817078 -0.9702757745981216,3.0362775921821594 l-0.4215383529663086,2.440631687641144 0.00014132313481241,5.661132335662842 l1.0407529771327972,4.489826858043671 1.3349361717700958,4.619423747062683 l1.57371386885643,3.3871549367904663 1.6881254315376282,3.96723210811615 l1.9786959886550903,3.780563473701477 1.9687364995479584,2.6254993677139282 l3.2372236251831055,2.9576334357261658 2.8922778367996216,2.2782495617866516 l2.8995248675346375,1.760556399822235 3.127642273902893,1.4326457679271698 l2.9144611954689026,1.1088410019874573 3.1181132793426514,0.9400621056556702 l3.033393621444702,0.0012275742483325303 1.6823990643024445,-0.30014069750905037 l1.7091891169548035,-0.7408437877893448 1.7043870687484741,-1.1651891469955444 l1.4438913762569427,-1.5530429780483246 m-21.3775634765625,-56.02396011352539 l-0.4457954317331314,0.027308552525937557 -1.0112139582633972,0.6460804492235184 l-1.1644891649484634,1.436203122138977 -0.5342914909124374,1.4870421588420868 l0.0004111856105737388,1.8485745787620544 1.0516458004713058,1.3154184818267822 l2.2971178591251373,1.2066397070884705 1.943475753068924,0.27180634438991547 l1.430087834596634,-0.32455768436193466 1.3108226656913757,-1.404055804014206 l0.3818441182374954,-1.6791090369224548 0.0005391697777668014,-2.136169672012329 l-0.755125880241394,-1.6272655129432678 -1.9567665457725525,-1.8366573750972748 l-2.4949605762958527,-0.34789059311151505 -1.902117133140564,-0.0011643587640719488 m14.69949722290039,2.0235243439674377 l-1.318156123161316,0.1376879308372736 -1.8993473052978516,1.1178774386644363 l-0.9148736298084259,1.2271890044212341 -0.46978864818811417,2.059048116207123 l0.00039685022784397006,1.8372893333435059 0.7178274542093277,1.2636785209178925 l2.031112164258957,1.4726145565509796 3.0560094118118286,0.7680264860391617 l1.936761736869812,-0.0004777394497068599 2.691827714443207,-2.5537198781967163 l0.45737218111753464,-1.8544532358646393 0.0005450572280096821,-1.8068359792232513 l-1.0624217242002487,-2.4081285297870636 -1.5007665753364563,-1.1907568573951721 l-2.805405855178833,-1.0292215645313263 -2.827863097190857,-0.07715001236647367 m52.766260288499325,16.23099886262935 l4.489230513572693,-6.576552987098694 1.2345695495605469,-5.459228157997131 l1.7802311480045319,-4.901910424232483 1.8980270624160767,-3.4766268730163574 l2.168530523777008,-2.6064440608024597 2.499483823776245,-1.8803998827934265 l2.7967002987861633,-1.1238893866539001 3.341625928878784,-0.46518851071596146 l4.1609638929367065,0.0010155885684071109 6.623931527137756,1.865636557340622 l2.6989024877548218,1.8776333332061768 2.076897919178009,2.2898779809474945 l1.711965948343277,2.870233952999115 1.7770732939243317,5.063579678535461 l0.7415223866701126,3.9336270093917847 0.0002328450500499457,5.728034973144531 l-0.4645986109972,3.882923424243927 -0.3695879131555557,4.411828815937042 l-0.319439060986042,4.248049557209015 -0.26367394253611565,4.462462067604065 l-0.3730771318078041,5.190644264221191 -0.5631920322775841,5.390315055847168 l-0.5511245131492615,4.906857013702393 -0.6562145799398422,4.121560454368591 l-0.6671180576086044,3.096630573272705 -0.5358868837356567,1.8485169112682343 l-0.6159640103578568,1.2093192338943481 -0.6685734540224075,0.9071891754865646 m-31.16670846939087,-42.65763282775879 l-0.30652090907096863,3.210609257221222 -0.9861351549625397,3.796144425868988 l-0.9100992977619171,4.714103937149048 0.0002403817961749155,5.16645610332489 l1.1300692707300186,4.806119203567505 1.4529769122600555,4.816789031028748 l1.6061118245124817,3.45231294631958 1.8111726641654968,2.7804401516914368 l1.9664163887500763,2.1316252648830414 5.169845819473267,4.227181077003479 l3.261539936065674,1.7257973551750183 3.170420527458191,1.2445428222417831 l3.789186477661133,1.1303430795669556 3.70805025100708,0.001237090036738664 l3.1919902563095093,-0.018186606466770172 2.7256017923355103,-0.6201770529150963 l2.1793976426124573,-0.7943373173475266 2.077787071466446,-1.2132681161165237 l1.466757357120514,-1.706176996231079 1.3471150398254395,-2.292838841676712 m-24.741010665893555,-50.58195114135742 l-0.41888605803251266,0.12453206814825535 -0.8726035058498383,0.834481418132782 l-0.5070456117391586,0.9756620228290558 0.0005125415555085056,1.7734259366989136 l1.219087839126587,1.1220797151327133 1.6227790713310242,0.5213607102632523 l1.4089937508106232,-0.0002607609894766938 1.5301235020160675,-0.8228304982185364 l0.5403482168912888,-1.1912781745195389 0.0005391753438743763,-1.5060609579086304 l-0.7137315720319748,-1.3592316210269928 -1.9092537462711334,-1.5868161618709564 l-2.0424239337444305,0.1392881479114294 m12.654621601104736,1.527833491563797 l-1.1323249340057373,0.20952779799699783 -1.5548378229141235,1.1183564364910126 l-0.8714555948972702,1.5895579755306244 0.000425424259447027,1.127658635377884 l0.9471841901540756,1.4699013531208038 1.4001861214637756,0.7686091214418411 l2.3895278573036194,0.36351531744003296 1.8698680400848389,-0.0005329792475095019 l1.6553182899951935,-0.7488799840211868 0.6474994122982025,-1.028444617986679 l0.0005679100286215544,-1.8720436096191406 -0.7797887921333313,-1.4814493060112 l-1.429588794708252,-1.2539823353290558 -2.5475722551345825,-1.0934238135814667 l-2.329944521188736,-0.03821534803137183 m54.53425253077512,18.50011544951485 l4.6584513783454895,-7.435548305511475 1.0616534948349,-5.603371262550354 l1.6512085497379303,-5.055512189865112 1.7000575363636017,-3.391423225402832 l1.9688475131988525,-2.6431193947792053 2.3162397742271423,-1.9743512570858002 l2.6668280363082886,-1.280919760465622 3.1625840067863464,-0.6152612343430519 l3.046061098575592,0.13075907714664936 2.747509479522705,0.8174575865268707 l5.718886852264404,3.286924660205841 2.372790426015854,2.484489232301712 l1.8838796019554138,2.974490523338318 1.2500053644180298,3.230130970478058 l0.7842149585485458,3.517075777053833 0.0002919836333603598,5.390409827232361 l-0.6430619955062866,4.340237081050873 -0.33121172338724136,4.128962755203247 l-0.25251926854252815,3.4676024317741394 -0.18306981772184372,4.014974534511566 l-0.12014898471534252,4.6739694476127625 -0.3499975800514221,4.967424273490906 l-0.3060934878885746,5.069110989570618 -0.5246622487902641,4.006025493144989 l-0.47644924372434616,3.531303107738495 -0.4368850961327553,1.758725494146347 l-0.323040671646595,1.1931099742650986 m-29.67400312423706,-37.56422281265259 l-0.13635393232107162,2.4947232007980347 -0.8238816261291504,3.3569666743278503 l-0.9224814176559448,4.644941985607147 0.00018920954971690662,5.4274725914001465 l1.0548985749483109,4.574596285820007 1.3411511480808258,3.408212661743164 l1.6805018484592438,3.052563965320587 3.9462214708328247,5.920593738555908 l2.4110572040081024,2.4584944546222687 2.251709997653961,1.5522421896457672 l2.820485234260559,1.3829585909843445 2.8832533955574036,0.8252526074647903 l3.607250154018402,-0.0012251883163116872 3.1943711638450623,-0.13220613822340965 l3.1513530015945435,-0.5950593203306198 2.8265011310577393,-0.8850474655628204 l2.340780645608902,-0.9814190119504929 1.5588931739330292,-1.2578338384628296 l1.1011097580194473,-1.9057479500770569 m-23.053677082061768,-48.36698055267334 l-0.37552621215581894,0.09409615769982338 -0.8395600318908691,0.7617457956075668 l-0.47685548663139343,0.8884739875793457 0.00048615642299409956,1.6729174554347992 l1.2943381071090698,1.1005350202322006 1.6221274435520172,0.41730456054210663 l1.3766154646873474,-0.00041989918827312067 0.9899961948394775,-0.5378216505050659 l0.5415539443492889,-1.0614045709371567 0.0005617528950097039,-1.5314395725727081 l-0.7221592962741852,-1.2544932961463928 -1.3057434558868408,-1.0082831233739853 l-1.463398039340973,-0.5054325237870216 -1.365787386894226,-0.00036669542168965563 m13.168939352035522,1.4456984400749207 l-1.314869076013565,0.09009405970573425 -1.2069261819124222,0.6459628790616989 l-0.7365024834871292,0.9276703745126724 -0.3106706961989403,1.5286029875278473 l0.5992040410637856,1.6004480421543121 1.5594714879989624,0.9530287981033325 l1.7380060255527496,0.3340485692024231 1.7596782743930817,-0.00038129594031488523 l1.6832934319972992,-0.7112560421228409 0.6725004315376282,-0.8971166610717773 l0.0004997112773708068,-1.6827525198459625 -0.7599169760942459,-1.3347651064395905 l-1.3870134949684143,-1.1081525683403015 -1.6720563173294067,-0.6399010866880417 l-1.6951265931129456,0.00017079097233363427 m56.64579773688274,18.20245145676381 l4.727621674537659,-7.522557973861694 1.1421657353639603,-5.8519721031188965 l1.3609540462493896,-4.805997610092163 0.7947362959384918,-1.6259869933128357 l1.5636837482452393,-2.302793115377426 2.0439837872982025,-2.000809460878372 l2.6361069083213806,-1.5438976883888245 2.8606772422790527,-0.796121284365654 l3.0811896920204163,-0.10510001331567764 3.9404842257499695,0.8853152394294739 l2.5509515404701233,1.3882680237293243 3.2345491647720337,2.8896230459213257 l1.8684162199497223,2.6748064160346985 1.3939161598682404,3.1814739108085632 l0.9015320241451263,3.574446141719818 0.5973003432154655,8.474925756454468 l-0.440802238881588,4.198355674743652 -0.8604986220598221,2.8545790910720825 l-0.5066699907183647,2.6832345128059387 -0.36656521260738373,2.5041240453720093 l-0.2945142239332199,2.933715283870697 -0.26676563546061516,3.702833354473114 l-0.16271641477942467,3.7066909670829773 -0.1788567565381527,4.08916562795639 l-0.2596530131995678,3.2342523336410522 -0.21220354363322258,2.531108260154724 l-0.24169988930225372,1.704137772321701 m-27.364013195037842,-34.49244260787964 l-0.3200915455818176,1.9915692508220673 -0.9016486257314682,2.6479560136795044 l-1.9367823004722595,8.196110725402832 -1.0490044206380844,8.808109760284424 l0.00015254462596203666,4.1492760181427 0.37274792790412903,1.9736623764038086 l0.9583459049463272,2.505503296852112 1.3307616114616394,2.1777701377868652 l1.7142216861248016,1.8048377335071564 2.0896314084529877,1.345987617969513 l0.8587320148944855,0.19043287262320518 2.650872766971588,0.8053677529096603 l3.345097303390503,0.5757907778024673 5.173981785774231,-0.004489620332606137 l4.425531625747681,-0.07926743477582932 7.3230308294296265,-1.0772492736577988 l3.4428778290748596,-0.9831972420215607 0.7664395123720169,-0.46949341893196106 l0.587897002696991,-1.0717537254095078 0.00031144238164415583,-1.6527248919010162 m-21.37455701828003,-47.02771186828613 l-1.2151291966438293,2.0845623314380646 -0.4701010137796402,1.5535187721252441 l0.0002476087502145674,1.736186295747757 0.39453815668821335,0.7027635723352432 l0.9570031613111496,0.685187578201294 2.0928052067756653,0.518990196287632 l1.3889406621456146,0.00042051291529787704 1.135881170630455,-0.49091886729002 l0.8235450088977814,-1.0149967670440674 0.5367313325405121,-2.117699533700943 l0.0004841016561840661,-1.4707665145397186 -0.6643559783697128,-1.4154376089572906 l-1.2581650912761688,-1.1902227997779846 -1.6426992416381836,-0.7470561563968658 l-1.9279077649116516,0.0005051281914347783 -0.3217616677284241,0.29204631224274635 m12.66355037689209,1.13456629216671 l-1.175147294998169,0.5770912393927574 -0.9767429530620575,1.2338169664144516 l-0.5883641913533211,1.9064338505268097 0.00034046614018734545,1.6387209296226501 l0.6530871242284775,1.1725038290023804 1.1742576211690903,0.8906228840351105 l1.5458184480667114,0.5061395838856697 1.819673478603363,0.00037301397242117673 l1.8131059408187866,-0.8430912345647812 0.8195315301418304,-1.122274324297905 l0.2740260399878025,-1.4712443947792053 0.0004203163553029299,-1.811487227678299 l-0.6840136647224426,-1.6240060329437256 -1.8650200963020325,-1.8397821485996246 l-1.5359991788864136,-0.26704829186201096 -1.8345050513744354,0.0004725563485408202 m46.62772366645186,25.119203935300902 l4.241304397583008,-7.354533672332764 1.076459214091301,-6.086053252220154 l1.027398407459259,-5.025708079338074 0.6595694273710251,-1.74531489610672 l1.3322904706001282,-2.314101755619049 1.8467733263969421,-2.177276313304901 l2.2607430815696716,-1.624498963356018 2.649279534816742,-1.0723520070314407 l2.9056695103645325,-0.4363037273287773 3.5054385662078857,0.0002582819070084952 l2.5132781267166138,0.7092273980379105 2.3708565533161163,1.3677652180194855 l2.0439931750297546,1.9693408906459808 1.7246240377426147,2.6434266567230225 l1.359269618988037,3.222160041332245 0.8861420303583145,3.564925491809845 l0.4438825324177742,3.7643346190452576 0.0001792299372027628,6.592927575111389 l-0.3306833282113075,4.076070189476013 -0.08554931730031967,3.8490936160087585 l0.03686838550493121,3.2301998138427734 0.6357252597808838,2.3397688567638397 l1.0918263345956802,2.407173812389374 1.3301436603069305,2.3167814314365387 l1.3970378041267395,1.8707697093486786 1.4791254699230194,1.315842866897583 l1.7200867831707,1.061689630150795 1.4560779929161072,0.5209353193640709 l1.5738047659397125,0.29649296775460243 1.2097211927175522,0.010048102121800184 l2.9541075229644775,-0.7264476269483566 0.7775808870792389,-0.5131516978144646 l1.461612731218338,-2.6698827743530273 0.43555743992328644,-3.2731759548187256 l0.0005304654405335896,-3.6794784665107727 -1.1485382914543152,-5.447314977645874 l-1.5498706698417664,-2.871195673942566 -2.1279095113277435,-2.555316388607025 l-2.4876773357391357,-1.886570006608963 -2.849891185760498,-1.2724731862545013 l-3.122086226940155,-0.6537255644798279 -3.594397008419037,0.006438242271542549 l-3.862384259700775,0.008327319519594312 -1.1277662962675095,0.32086439430713654 l-4.154275059700012,2.3252831399440765 -1.3307766616344452,1.2204226851463318 l-1.9434688985347748,0.9981147944927216 -5.411966443061829,3.098067045211792 l-2.392394095659256,1.8874625861644745 -4.871343970298767,4.09247100353241 l-1.830347329378128,2.158278077840805 -1.5116184949874878,1.9014401733875275 l-3.071257472038269,4.846650958061218 -1.0417741537094116,2.481854557991028 l-0.6176065653562546,2.5147593021392822 0.0001443320797989145,2.7519994974136353 m14.778218269348145,-45.536441802978516 l-1.4431752264499664,1.2141045182943344 -0.9311536699533463,1.3929903507232666 l-0.46121057122945786,1.5981538593769073 0.00038552407204406336,1.4395491778850555 l0.5770336091518402,1.0851820558309555 1.154756247997284,0.7043331116437912 l1.5404930710792542,0.23173784837126732 1.4047342538833618,-0.33518265932798386 l1.0750556737184525,-0.9600619971752167 0.5890137329697609,-1.4659766852855682 l0.0003975207800976932,-1.9645528495311737 -0.6971316039562225,-1.4698848128318787 l-1.284157633781433,-1.2149783223867416 -1.478475034236908,-0.6743258237838745 m12.43548035621643,1.556154042482376 l-1.1699341237545013,0.6312240660190582 -0.9398312121629715,1.222965121269226 l-0.6233110278844833,1.9656439125537872 0.0003416400431888178,1.3865821063518524 l0.5878685042262077,1.1106789112091064 1.6425195336341858,1.1614640057086945 l1.6831667721271515,0.3236820548772812 1.3262172043323517,0.0012218816846143454 l1.1107037216424942,-0.4932384192943573 0.826522707939148,-1.0587626695632935 l0.37994544953107834,-1.6228622198104858 0.0004884463123744354,-1.9682106375694275 l-0.6636392325162888,-1.5210054814815521 -1.225193738937378,-1.2723752856254578 l-1.561390459537506,-0.7886523008346558 m58.655345692659466,21.50684924899906 l3.50203275680542,-6.596918106079102 1.0637465864419937,-6.284467577934265 l0.6371388584375381,-2.582119107246399 1.0453008860349655,-3.052140772342682 l1.3694235682487488,-2.8128838539123535 1.7447647452354431,-2.3764996230602264 l2.10686594247818,-1.8169423937797546 2.4026431143283844,-1.155468299984932 l2.5669649243354797,-0.5118225142359734 2.5694850087165833,0.1396749261766672 l2.3191748559474945,0.7920658588409424 2.2556982934474945,1.4477519690990448 l2.1648958325386047,2.136858254671097 1.8387310206890106,2.735062837600708 l1.4441978931427002,3.330289125442505 0.9700240939855576,3.761949837207794 l0.48510555177927017,3.7486261129379272 0.00012250016879988834,5.640795826911926 l-0.3393932804465294,4.129228293895721 -0.0644252821803093,3.436320126056671 l-0.02041336614638567,2.786497473716736 0.052847471088171005,2.471930682659149 l0.02019139239564538,2.8245657682418823 -0.037431169766932726,2.6375678181648254 l-0.10452332906424999,2.375353127717972 -0.11020720936357975,2.3691339790821075 l-0.11488348245620728,2.499309778213501 m-23.508424758911133,-30.942647457122803 l-0.6772682815790176,1.2711139023303986 -0.6885524094104767,2.4171872437000275 l-0.9258680790662766,6.776163578033447 0.0001837627132772468,4.23239678144455 l0.5138857290148735,3.2901889085769653 0.9221888333559036,3.0022093653678894 l2.470354437828064,6.039607524871826 0.6629188358783722,2.7947181463241577 l0.28639480471611023,1.7646986246109009 0.030034843366593122,1.4201946556568146 m7.849849462509155,-36.21469259262085 l0.7630700618028641,1.046300157904625 0.7273904234170914,2.145897001028061 l0.8660224080085754,4.150362610816956 0.4345271736383438,-3.494594097137451 l0.6637158989906311,-2.708360254764557 0.3250359371304512,-1.3969334959983826 m-8.612517714500427,-7.1230995655059814 l-0.700666680932045,0.7107763737440109 -0.3702458366751671,0.9382010996341705 l0.00043135107262060046,1.3784043490886688 0.34632667899131775,0.7287453860044479 l1.3548342883586884,0.7001857459545135 1.1665389686822891,0.00045731951104244217 l0.944286659359932,-0.5208571627736092 0.594654381275177,-1.0071152448654175 l0.0003592207212932408,-1.465831845998764 -0.7065604627132416,-1.1591967940330505 l-1.2245788425207138,-0.8395584672689438 -0.9900031983852386,0.0012657635670620948 l-1.253734976053238,0.6924484670162201 m11.704988479614258,0.05351993255317211 l-0.7897452265024185,0.4555036500096321 -0.8061522990465164,1.5195102989673615 l0.00035423090594122186,1.1526104807853699 0.6013793498277664,0.9343264997005463 l1.1689238995313644,0.6236173212528229 1.5531405806541443,0.0003945351272705011 l1.5898460149765015,-0.798124298453331 0.5277152732014656,-1.0521748661994934 l0.00029762099075014703,-1.2788517773151398 -0.6458760052919388,-1.1083054542541504 l-1.211475059390068,-0.8583849668502808 -1.5597319602966309,-0.4244006797671318 l-1.334010511636734,0.002629069786053151 m56.23282016070071,22.905348965505254 l2.5415951013565063,-5.455052852630615 0.8843640983104706,-6.535053849220276 l0.4864625632762909,-2.5131985545158386 0.8249364048242569,-2.799660861492157 l1.1873315274715424,-2.7561837434768677 1.557195633649826,-2.3807530105113983 l1.9050686061382294,-1.913774460554123 2.3639917373657227,-1.4469480514526367 l2.5306785106658936,-0.7083434611558914 2.6634660363197327,-0.05558825097978115 l2.327146977186203,0.6010865792632103 2.1674223244190216,1.2655293941497803 l2.047317326068878,1.9550417363643646 1.8314307928085327,2.693251073360443 l1.4205938577651978,3.282894194126129 0.9816853702068329,3.8241517543792725 l0.5689225718379021,4.093392193317413 7.227100923046237e-05,5.205748677253723 l-0.2957215718924999,4.24921840429306 0.007541528902947903,3.280566930770874 l0.14781269244849682,1.6549792885780334 0.2995007112622261,1.0204379260540009 l0.5932842567563057,0.9114550799131393 0.8397019654512405,0.8656562119722366 l1.1500617116689682,1.0054463893175125 1.3226436078548431,0.9566666930913925 l1.4557510614395142,1.2507830560207367 1.4777345955371857,1.5912139415740967 l1.2512625753879547,1.8521328270435333 0.9805067628622055,2.150682657957077 l0.6269381940364838,2.4151329696178436 m-33.171706199645996,-25.64629554748535 l-0.7875322550535202,0.6422398239374161 -3.1148940324783325,4.598016142845154 l-0.8439604938030243,1.9093285501003265 -1.1291244626045227,3.957390785217285 l-1.308979094028473,7.760369777679443 -4.787982277321134e-07,3.993867039680481 l0.2579160965979099,1.0966270416975021 1.1541405320167542,2.2669731080532074 m15.8371102809906,-35.808682441711426 l0.1336707267910242,0.7635459303855896 0.18181871622800827,2.177632749080658 l0.4602361097931862,0.5775316432118416 1.1941345036029816,0.44051170349121094 l0.5458810180425644,-0.9405393898487091 0.7468511164188385,-1.831061840057373 l0.3410650044679642,-1.139194592833519 -0.5419192835688591,-0.4726894572377205 m-8.833484649658203,-4.629955589771271 l-0.5455439537763596,0.8461882919073105 0.05161517299711704,0.5630683526396751 l1.279136836528778,0.36323409527540207 0.5556529387831688,-0.24336740374565125 l0.3788330405950546,-0.7215236127376556 0.0004911628275294788,-0.8147500455379486 l-0.5044537782669067,-0.40800560265779495 -0.8936087787151337,0.00034930973924929276 m10.953965187072754,0.3965628147125244 l-0.7050225883722305,0.3597515821456909 -0.4314252734184265,0.8220966160297394 l0.5200469866394997,0.5152960494160652 0.5727939680218697,0.06630509160459042 l0.6987057626247406,-0.2631238289177418 0.1909652166068554,-0.5334975570440292 l0.00043092502892250195,-0.5979413911700249 -0.43926555663347244,-0.47383740544319153 l-0.8681760728359222,0.000938089651754126 m-7.016445994377136,6.350395679473877 l0.7120051980018616,2.2731006145477295 0.9557781368494034,0.9281177073717117 l0.8158992230892181,-0.7455252856016159 1.1044513434171677,-2.0796869695186615 l0.5200878530740738,-1.0967401415109634 m66.23426276840938,10.04763560344145 l1.6752679646015167,-4.229507148265839 0.7018112391233444,-6.482712626457214 l0.4005736857652664,-2.591678500175476 0.540722943842411,-2.040286511182785 l0.973270982503891,-2.3857927322387695 1.4380814135074615,-2.358834445476532 l0.8511597663164139,-0.9321060031652451 1.6908937692642212,-1.2336401641368866 l2.380293160676956,-1.0085950046777725 2.719694972038269,-0.4753776267170906 l2.497379332780838,0.20456191152334213 2.1287813782691956,0.8236818760633469 l2.1107642352581024,1.497294157743454 1.963411420583725,2.2475269436836243 l1.6121555864810944,2.999841570854187 1.069415882229805,3.466731607913971 l0.5926813185214996,3.9408648014068604 4.8186398089455906e-05,5.144322514533997 l-0.3517916426062584,4.115352630615234 -0.37645451724529266,1.8484653532505035 m-16.824311017990112,-17.20589280128479 l-0.653594508767128,1.1674164980649948 -0.3711806982755661,2.1005919575691223 l0.00037548797990893945,2.1243788301944733 0.2834411896765232,1.1155001819133759 l1.1121627688407898,1.4473117887973785 0.9529513120651245,0.5312999337911606 l1.14225335419178,0.0012796567170880735 1.2098053097724915,-0.609869584441185 l1.0509979724884033,-1.3220158219337463 0.6019263342022896,-1.8516579270362854 l0.00023762824639561586,-2.0749080181121826 -0.6942332535982132,-1.7093303799629211 l-1.2319125980138779,-1.432052105665207 -1.3722626864910126,-0.8051959425210953 l-1.0817903280258179,0.0015446294855792075 -0.9593722969293594,0.5770913884043694 m9.353943467140198,0.2995758317410946 l-0.5900759249925613,1.1531320959329605 -0.40579814463853836,2.04172283411026 l0.0002595262776594609,2.7172651886940002 0.5414902046322823,1.5246976912021637 l0.9444309026002884,1.1012222617864609 1.7231601476669312,0.7504521310329437 l0.855177640914917,0.0009090690582524985 0.9335793554782867,-0.5354534834623337 l0.7874209433794022,-1.2799027562141418 0.363636277616024,-1.9844548404216766 l0.00024502827727701515,-2.2621947526931763 -0.4589058458805084,-1.6447599232196808 l-1.0347386449575424,-1.539720892906189 -1.3984449207782745,-1.0133125633001328 l-1.5545132756233215,-0.4828568547964096 -1.0906512290239334,0.0015671846631448716 m-4.365663528442383,12.223672866821289 l0.9918359667062759,2.2018957138061523 0.7031267881393433,0.4344886541366577 l1.0654214769601822,-2.2736509144306183 0.638674795627594,-1.208178550004959 m-12.819101810455322,6.428601145744324 l-1.4797793328762054,2.487475723028183 -0.8107928186655045,2.061852514743805 l-1.0707005113363266,4.940943717956543 -0.37903402000665665,4.311770498752594 l5.643236363539472e-05,6.3258713483810425 0.5760796368122101,4.342118203639984 l0.9691742807626724,3.4087583422660828 0.4999537020921707,0.9622463583946228 m22.95999526977539,-28.444299697875977 l1.6587038338184357,3.3610090613365173 1.2973672151565552,4.292357265949249 l0.7430347800254822,4.650672078132629 0.2262626774609089,4.950170516967773 l-0.32896440476179123,4.704430997371674 -1.3176804780960083,5.987719893455505 m54.13441074124421,-26.88266941200709 l0.9683948755264282,-3.1555306911468506 0.44138967990875244,-5.974160432815552 l0.29638025909662247,-2.416585087776184 0.6314334273338318,-3.0041691660881042 l0.5163083970546722,-1.4295780658721924 1.129634901881218,-2.0981211960315704 l0.8104157447814941,-1.052410528063774 1.6408392786979675,-1.434367597103119 l1.6687597334384918,-0.956130176782608 2.41116002202034,-0.7564534991979599 l2.739271819591522,-0.20615501329302788 2.4391625821590424,0.47464363276958466 l2.1207304298877716,1.1435352265834808 1.8962538242340088,1.818152666091919 l2.3466454446315765,3.851310610771179 1.1940468847751617,3.6721667647361755 l0.6123437359929085,3.8617464900016785 0.12904389761388302,3.6435583233833313 l-0.35010550171136856,3.574446141719818 -0.8197221904993057,2.7824288606643677 l-1.1130207777023315,2.165507823228836 -1.3262999057769775,1.4997895061969757 l-0.6956165283918381,0.37317074835300446 -3.5103940963745117,0.2685694582760334 l-5.145291090011597,-0.8041390031576157 -5.283640623092651,-1.5942400693893433 l-3.7162035703659058,-1.8192237615585327 -0.9622772037982941,-0.8019294589757919 l-0.802568718791008,-1.3690441846847534 m5.4835593700408936,-15.484023094177246 l-0.2952181547880173,0.4739324003458023 -0.10633766651153564,1.414324790239334 l0.3589148074388504,1.556367427110672 0.8883742243051529,1.1654922366142273 l1.262107491493225,0.6702499091625214 1.4815729856491089,0.1612616330385208 l1.2472764402627945,-0.3811437264084816 0.9720070660114288,-0.9875703603029251 l0.5130859836935997,-1.1459503322839737 0.0001943030110851396,-1.3672468066215515 l-0.4612281173467636,-1.1501508951187134 -1.7014646530151367,-1.550239473581314 l-1.582939624786377,-0.27440156787633896 -1.5330250561237335,0.3452591225504875 l-1.069905310869217,0.8438302576541901 m10.402628183364868,-0.5258625373244286 l-0.7487576454877853,0.8531952649354935 -0.38835126906633377,1.4452062547206879 l0.11596293188631535,1.4844250679016113 0.36921434104442596,0.8987876027822495 l0.9580256789922714,0.9614661335945129 1.3628238439559937,0.524938702583313 l1.2117312103509903,0.0007287417247425765 1.1629018187522888,-0.5210262537002563 l0.8432238548994064,-1.0629113763570786 0.34726139158010483,-1.5658017992973328 l0.00012613188118848484,-1.2424085289239883 -0.5756368860602379,-1.4410392940044403 l-1.2586185336112976,-1.2371450662612915 -1.5781821310520172,-0.6409648805856705 l-1.665167510509491,-0.07017269264906645 -1.3774865865707397,0.48613160848617554 m-3.040704131126404,9.284670352935791 l0.9228184074163437,2.2078122198581696 0.7837941497564316,0.13512469828128815 l1.178111806511879,-2.4000291526317596 0.5455182492733002,-0.9652628004550934 m-12.85221815109253,10.790971517562866 l-1.677432805299759,2.180848866701126 -1.5626834332942963,3.0631449818611145 l-2.587493062019348,9.368849396705627 -0.47650646418333054,4.39246267080307 l0.00014289895261754282,4.600023925304413 m26.85887098312378,-24.359936714172363 l1.7598362267017365,2.5610801577568054 1.66978120803833,3.733373284339905 l1.2158022075891495,4.563075602054596 0.6513012945652008,5.045323967933655 l0.24645503610372543,7.572780251502991 m52.9875330478626,-23.006621620370424 l0.38963746279478073,-2.277129292488098 -0.24156786501407623,-3.7407085299491882 l-0.37609487771987915,-3.7454795837402344 0.00015571193216601387,-3.2776331901550293 l0.2858925983309746,-2.338009476661682 0.5249756574630737,-1.9107387959957123 l0.7376000285148621,-1.6153766214847565 0.9214317798614502,-1.3235092163085938 l1.7057789862155914,-1.5998780727386475 2.387850135564804,-1.361103504896164 l1.3023442029953003,-0.4191935434937477 2.2673316299915314,-0.2630453184247017 l2.4193835258483887,0.2781706303358078 2.403954416513443,0.907248929142952 l2.1413756906986237,1.5934082865715027 1.840350329875946,2.347642481327057 l1.3051940500736237,2.977849543094635 0.7710946351289749,3.521418571472168 l0.291107390075922,3.8702312111854553 -0.1859736070036888,3.782345950603485 l-0.6783735007047653,3.3864423632621765 -1.0056308656930923,2.604033052921295 m-13.68984341621399,-16.6669499874115 l-0.88267982006073,0.6694947928190231 -0.6026452034711838,1.0447125881910324 l-0.3976042568683624,1.6236573457717896 0.00022057743990444578,1.6076891124248505 l0.4712114483118057,1.3044871389865875 0.9582828730344772,0.9376603364944458 l1.407368928194046,0.4834718257188797 1.5396037697792053,-0.12973012402653694 l1.3202086091041565,-0.615059919655323 1.0668084770441055,-0.9594085812568665 l0.6892571598291397,-1.1820318549871445 0.3176336735486984,-1.7566575109958649 l-0.21621040999889374,-1.48104727268219 -0.6166446954011917,-1.1753669381141663 l-1.2252288311719894,-1.1069687455892563 -1.2952131032943726,-0.5548616498708725 l-1.5694281458854675,-0.08158172480762005 -1.9548718631267548,0.8185441792011261 m10.227506160736084,-0.2652312070131302 l-0.9929424524307251,1.010800376534462 -0.6982693076133728,1.7841164767742157 l-0.20616551861166954,1.8322058022022247 0.27249157428741455,1.5424424409866333 l0.7809828966856003,1.2345124036073685 1.264052838087082,0.7945474982261658 l1.4457052946090698,0.1653098501265049 1.834716647863388,-0.7645710557699203 l0.8057673275470734,-0.7554676383733749 0.5307919904589653,-1.0025380551815033 l0.18408950418233871,-1.6760262846946716 -0.30799493193626404,-1.4930927753448486 l-0.9831994771957397,-1.6467516124248505 -1.1728979647159576,-1.0860008001327515 l-1.6102544963359833,-0.7068026065826416 -1.7102335393428802,-0.13041564263403416 l-1.4257493615150452,0.4814201220870018 m-2.56052166223526,10.216951370239258 l1.004222333431244,2.1558360755443573 0.8406351506710052,-0.06702074781060219 l1.244138926267624,-2.3107898235321045 0.4228319227695465,-0.7710784673690796 m-12.57867693901062,6.221710443496704 l-1.7001280188560486,2.0274342596530914 -0.9657258540391922,1.7792440950870514 l-1.6649189591407776,4.775302708148956 -0.7060392200946808,4.221307039260864 l-0.20879335701465607,6.49419367313385 0.46181853860616684,3.8935649394989014 l0.9191805869340897,3.0627360939979553 m22.903847694396973,-26.60128116607666 l1.7216892540454865,2.5594595074653625 1.4603881537914276,3.747875392436981 l0.8859070390462875,4.3941038846969604 0.32546836882829666,4.981124401092529 l-0.22180130705237389,4.8423832654953 -1.168821081519127,6.255300045013428 " fill="none" stroke="black" stroke-width="1"/></svg>