<svg baseProfile="full" height="101.3148662583626" version="1.1" width="128.53756574038016" xmlns="http://www.w3.org/2000/svg" xmlns:ev="http://www.w3.org/2001/xml-events" xmlns:xlink="http://www.w3.org/1999/xlink"><defs/><rect fill="white" height="101.3148662583626" width="128.53756574038016" x="0" y="0"/><path d="M42.32883712016701,30.246546079248446 m-1.6662737727165222,0.33187277615070343 l-9.720128774642944,4.118245840072632 -3.1931403279304504,2.393621951341629 l-1.0984814912080765,1.2509721517562866 -1.0245122015476227,1.9418781995773315 l-0.6260979175567627,2.486042082309723 -0.00020263456462998874,4.762091040611267 l0.8161464333534241,2.8825095295906067 2.34454944729805,3.863781690597534 l3.1088897585868835,3.2799920439720154 2.281300276517868,1.6429761052131653 l4.166932702064514,1.9279590249061584 4.555860161781311,0.8762930333614349 l5.570327639579773,-0.00031613813916919753 2.5459760427474976,-0.8608020097017288 l1.948726773262024,-1.3326621055603027 2.488425374031067,-2.656749188899994 l1.1516379565000534,-1.9629554450511932 1.1860188096761703,-3.747645318508148 l0.48719804733991623,-2.4664849042892456 4.1173288991558366e-05,-5.07788360118866 l-1.0147324204444885,-2.917321026325226 -1.4955401420593262,-2.2553135454654694 l-1.9170913100242615,-1.9430680572986603 -3.4255504608154297,-2.396349608898163 l-2.5117796659469604,-1.1619692295789719 -2.552148699760437,-1.3909244537353516 l-3.345852792263031,-1.0160209983587265 -2.356763482093811,-0.00025239014576072805 m-1.1936966329813004,13.501179218292236 l-1.3472242653369904,0.6958989053964615 -0.8243480324745178,1.607317179441452 l-0.00018910566723207012,2.707422971725464 1.0812342911958694,1.2546294927597046 l1.5451507270336151,0.6542870402336121 2.841627597808838,-0.0001521277863503201 l1.027633398771286,-0.6652058660984039 0.6215005740523338,-1.1030907183885574 l-0.00011885394997079857,-2.3899386823177338 -0.8383703231811523,-1.10305517911911 l-1.3675099611282349,-0.7690238207578659 -2.1465542912483215,-7.79253059590701e-05 l-0.6575135886669159,0.26417076587677 m-0.20807569846510887,2.0849885046482086 l0.005327248363755643,-5.498944801729522e-06 m2.0391133427619934,0.34432634711265564 l0.0012228290142957121,-2.1138314423296833e-05 m-6.64257287979126,-11.313042640686035 l-1.2043868005275726,0.1388401910662651 -0.8694426715373993,0.9271447360515594 l-0.00011907533917110413,1.6462330520153046 1.5111692249774933,0.6892445683479309 l2.2721606492996216,-0.00013809351912641432 0.8127570152282715,-0.8568135648965836 l-0.0001365382286167005,-1.8090085685253143 -0.9674115478992462,-0.7439745962619781 m12.787326574325562,1.6312053799629211 l-0.665045902132988,-0.00042407133150845766 -0.7150901108980179,0.8962099254131317 l-0.00016730384231777862,1.4798003435134888 1.3200585544109344,0.5092563107609749 l1.8055911362171173,-0.0001986079223570414 0.7270610332489014,-0.9093853831291199 l-8.422448445344344e-05,-1.8360500037670135 -0.9642340987920761,-0.6664939969778061 m-19.671640396118164,4.066925644874573 l-0.0005248874367680401,-2.1399232745170593 -0.23350998759269714,-3.469061255455017 l-0.40207192301750183,-6.489879488945007 0.9188370406627655,-2.496921569108963 l1.7331452667713165,-1.453806310892105 1.5885840356349945,-0.70119708776474 l4.047158062458038,-0.00025463432393735275 1.912795752286911,1.2322042137384415 l1.4125432074069977,1.6069956123828888 1.5613014996051788,3.1662610173225403 l1.10262930393219,4.103941023349762 -0.00022111165890237316,3.414301872253418 m6.715479493141174,-1.1604836583137512 l0.5229418352246284,-1.2087469547986984 1.126343384385109,-1.6070781648159027 l4.4395700097084045,-3.8677209615707397 3.2999226450920105,-1.6590304672718048 l1.9418267905712128,-0.6236382946372032 3.217744529247284,-0.00017811473298934288 l1.3784146308898926,1.5993748605251312 0.8375918120145798,1.8967723846435547 l-0.00010405844477645587,5.1258111000061035 -0.6218244880437851,1.5679201483726501 l-1.5163049101829529,1.8225914239883423 -2.1182629466056824,1.496320217847824 l-3.876788318157196,1.5145044028759003 -3.9492815732955933,-0.00016155217963387258 m4.539447128772736,0.8417175710201263 l5.222538113594055,-2.0909060537815094 6.222347021102905,-1.5962724387645721 l6.906273365020752,-1.0266126692295074 9.933518171310425,-0.00042940569983329624 l3.3153703808784485,0.9621433913707733 4.051076769828796,2.094503790140152 l3.2143405079841614,2.626122236251831 2.6645195484161377,3.370237350463867 l2.004590332508087,3.95779550075531 1.2780357897281647,4.577229917049408 l-0.0002765809949778486,6.488478183746338 -1.0538631677627563,3.172354996204376 l-1.7828568816184998,2.6766151189804077 -2.259462922811508,1.9662269949913025 l-4.755645990371704,2.3799465596675873 -6.6437989473342896,1.7278680205345154 l-7.315395474433899,0.7678870856761932 -8.854008913040161,-0.00024502520318492316 l-4.492644965648651,-0.7470205426216125 -6.107293367385864,-1.9139277935028076 l-3.2720887660980225,-1.7145144939422607 -3.7405547499656677,-2.9651430249214172 l-2.0410579442977905,-2.9903632402420044 -1.0979824513196945,-3.3686763048171997 l-0.00022241742044570856,-3.6959338188171387 " fill="none" stroke="black" stroke-width="1"/></svg>