<svg baseProfile="full" height="123.23754321783781" version="1.1" width="90.26239624079608" xmlns="http://www.w3.org/2000/svg" xmlns:ev="http://www.w3.org/2001/xml-events" xmlns:xlink="http://www.w3.org/1999/xlink"><defs/><rect fill="white" height="123.23754321783781" width="90.26239624079608" x="0" y="0"/><path d="M25,49.383086897432804 m3.880496621131897,-5.524693727493286 l1.1002087593078613,-4.986089468002319 1.9041632115840912,-4.654247760772705 l1.9934432208538055,-3.286752998828888 2.4514518678188324,-2.610103189945221 l2.7700117230415344,-1.8156899511814117 3.3263006806373596,-1.144944429397583 l3.592710793018341,-0.3605653718113899 7.526025772094727,1.287800818681717 l3.459566831588745,2.255730926990509 4.623599350452423,5.352196097373962 l1.7419274151325226,3.256460726261139 1.0973580181598663,3.321883976459503 l0.7949238270521164,7.513154149055481 0.00020814892195630819,4.586496353149414 l-0.4596732184290886,3.6855846643447876 -0.5165424570441246,3.7394654750823975 l-0.5216129496693611,3.98212730884552 -0.5202273279428482,4.138465523719788 l-0.39082206785678864,4.888406991958618 -0.5526407808065414,5.2972400188446045 l-0.5410347506403923,4.715107083320618 -0.6184999644756317,4.157798588275909 l-0.6733237951993942,3.077212870121002 -0.6362319737672806,2.505681812763214 l-0.5807551369071007,1.652883142232895 -0.5028023198246956,1.0395590960979462 l-0.7172517478466034,0.9408129006624222 m-31.588492393493652,-47.74735927581787 l-0.06397036835551262,3.0600550770759583 -0.7980892062187195,3.4095999598503113 l5.765670039181714e-06,5.440175533294678 1.1529655009508133,4.481351971626282 l1.329934298992157,4.651769995689392 1.4729204773902893,4.488291144371033 l0.9228107333183289,4.830730855464935 0.6864284723997116,4.300203323364258 l0.3633657842874527,3.731718063354492 0.12819059193134308,3.17232608795166 l-0.11853769421577454,2.4978017807006836 -0.291270911693573,1.9056136906147003 l-0.40108349174261093,1.0715903341770172 -0.47540783882141113,0.8649145811796188 l-0.4751407727599144,0.6919048726558685 -0.2518089488148689,0.5109475553035736 l-0.29362598434090614,0.37393655627965927 -0.32711222767829895,0.10790258646011353 l0.00010584015399217606,-0.09772608987987041 1.455649882555008,-2.1371784806251526 l1.1667721718549728,-1.5046262741088867 0.8173462748527527,-1.4507772028446198 l0.6947220116853714,-1.7879129946231842 0.5957252532243729,-1.7904748022556305 l0.5803565308451653,-1.952376812696457 0.6822533905506134,-2.4385230243206024 l0.5539306253194809,-2.8112876415252686 0.47419503331184387,-3.218562602996826 l0.36366939544677734,-4.042845368385315 0.24583548307418823,-4.2335450649261475 l0.10279268957674503,-3.9108365774154663 -0.15062659978866577,-3.821929395198822 l-0.33687490969896317,-3.422785699367523 -0.7479448616504669,-2.3560817539691925 l-0.8951227366924286,-1.8564733862876892 -0.9346348792314529,-1.350087970495224 l-1.1345264315605164,-1.1625875532627106 -1.099170297384262,-1.0956992954015732 l-1.0136166214942932,-0.9799160808324814 -0.9920527786016464,-0.7291252166032791 m20.598022937774658,-9.93482530117035 l0.0002140753531421069,2.368740886449814 -0.46382181346416473,3.0041369795799255 l0.0005434381091617979,4.027071297168732 -0.45046810060739517,3.7859347462654114 l0.00036141285818303004,4.11944717168808 -0.4064231738448143,3.4921517968177795 l-0.5084062740206718,3.7749379873275757 -0.5011553317308426,3.3660799264907837 l4.13560337619856e-05,3.1559690833091736 -0.43595679104328156,3.7843766808509827 l-0.26727790012955666,3.2692688703536987 -0.5058218911290169,2.9652363061904907 l-0.4421227425336838,3.0341672897338867 -0.5031435191631317,2.464655339717865 l-0.4316795989871025,2.0384061336517334 -0.36855220794677734,1.624969094991684 " fill="none" stroke="black" stroke-width="1"/></svg>