<svg baseProfile="full" height="114.3513059426914" version="1.1" width="111.8893627572379" xmlns="http://www.w3.org/2000/svg" xmlns:ev="http://www.w3.org/2001/xml-events" xmlns:xlink="http://www.w3.org/1999/xlink"><defs/><rect fill="white" height="114.3513059426914" width="111.8893627572379" x="0" y="0"/><path d="M44.79204608483542,37.941568891646966 m-1.6773957014083862,-0.15716727823019028 l-3.067593574523926,-0.6041618064045906 -3.799157440662384,-0.00012411851457727607 l-1.7905543744564056,0.3997831791639328 -4.252799153327942,2.7791017293930054 l-1.5489915013313293,2.163574993610382 -0.6034722551703453,1.6228528320789337 l0.00012652509212784935,3.7189698219299316 0.5275376886129379,1.6373126208782196 l1.9816197454929352,2.853933572769165 1.3667114078998566,1.1200981587171555 l5.203039646148682,1.9088363647460938 4.477486312389374,-0.0006972407572902739 l1.7979048192501068,-0.6000723317265511 2.866455316543579,-2.029903382062912 l1.113489344716072,-1.4239661395549774 1.2349015474319458,-3.205779790878296 l0.0003229627327527851,-3.598896861076355 -0.8538923412561417,-1.624753475189209 l-2.382134199142456,-2.356645166873932 -2.2960758209228516,-1.1879750341176987 m19.974782466888428,1.4351366460323334 l-3.108261227607727,-1.2514114379882812 -5.065686106681824,-0.00030239709303714335 l-3.024500608444214,1.1472154408693314 -2.4642573297023773,1.9948236644268036 l-1.5410062670707703,2.4665775895118713 -0.7146622985601425,2.735047936439514 l6.745910923200427e-05,4.032603204250336 1.3459083437919617,2.3428726196289062 l1.9591979682445526,2.004130929708481 2.4331699311733246,1.529928743839264 l2.7459248900413513,0.9619555622339249 2.9907438158988953,0.4702979698777199 l5.498203635215759,-0.0005213876647758298 2.960180342197418,-1.44802525639534 l2.2310681641101837,-1.910787969827652 1.435912698507309,-2.173815220594406 l0.7359742373228073,-2.324207127094269 0.00023299578970181756,-3.3774814009666443 l-1.6800756752490997,-2.8076395392417908 -2.5000497698783875,-1.9909171760082245 l-4.186682105064392,-1.9696398079395294 -2.8657546639442444,-0.5560213327407837 m-21.22736930847168,7.276080250740051 l-1.6287723183631897,-0.024008590262383223 -2.026326507329941,1.6454234719276428 l-2.5947538018226624,3.7969210743904114 -2.04821914434433,5.201162099838257 l-1.0117212682962418,6.559225916862488 0.00016917678294703364,8.020248413085938 l1.0620959848165512,3.504328429698944 1.6273128986358643,3.059074878692627 l2.231394946575165,2.7540114521980286 2.8282544016838074,2.3326729238033295 l3.3912739157676697,1.9012856483459473 3.7901610136032104,1.3695143163204193 l6.997089982032776,1.289655864238739 9.518662691116333,-0.0007062707300065085 l5.191959738731384,-1.275707185268402 4.564309120178223,-1.9741851091384888 l3.943679928779602,-2.542181611061096 3.2253947854042053,-2.9308557510375977 l2.3687051236629486,-3.2944968342781067 1.5859518945217133,-3.58155220746994 l0.8258473128080368,-3.633395731449127 0.0001946815064002294,-7.576596736907959 l-1.833440363407135,-4.902634918689728 -2.9637622833251953,-4.146468341350555 l-5.421855449676514,-4.722084999084473 -4.9162885546684265,-2.6626214385032654 l-5.028481483459473,-1.6025377810001373 -7.877305746078491,-1.01900115609169 l-9.84508752822876,-0.00039835795178078115 -3.658762574195862,1.0245096683502197 l-2.6921668648719788,1.7614758014678955 -3.1356772780418396,3.3252474665641785 m3.3072617650032043,5.587250590324402 l-9.797378879738972e-05,2.440408766269684 0.7103708386421204,1.811787337064743 m24.25522804260254,-6.413202285766602 l0.17607774585485458,4.933679401874542 m-27.726573944091797,2.464161515235901 l-1.8177828192710876,-2.108207046985626 -5.560590028762817,-8.546862602233887 l-1.5635579824447632,-3.4935906529426575 -2.272808700799942,-7.568715214729309 l0.00010641572771419305,-4.984639883041382 1.3205744326114655,-2.1132194995880127 l2.0161741971969604,-1.7360231280326843 4.440515339374542,-2.2976194322109222 l4.021974802017212,-1.3008439540863037 9.335783123970032,-1.270691454410553 l8.601981401443481,-0.0007869058026699349 5.422467589378357,0.6325733661651611 l6.8217867612838745,1.8977104127407074 6.071302890777588,2.838130295276642 l4.538981318473816,3.3330389857292175 3.8775593042373657,4.172338843345642 l1.9615404307842255,3.0481329560279846 2.102009356021881,4.972776472568512 l1.356399953365326,6.185173392295837 0.00020544057406368665,8.164231181144714 l-1.1520565301179886,3.7566906213760376 -1.877383142709732,3.336561918258667 l-3.926098048686981,4.092237651348114 -5.15796959400177,3.1543347239494324 " fill="none" stroke="black" stroke-width="1"/></svg>