<svg baseProfile="full" height="101.27035251585767" version="1.1" width="78.45618717372417" xmlns="http://www.w3.org/2000/svg" xmlns:ev="http://www.w3.org/2001/xml-events" xmlns:xlink="http://www.w3.org/1999/xlink"><defs/><rect fill="white" height="101.27035251585767" width="78.45618717372417" x="0" y="0"/><path d="M28.7631883576978,50.715968050062656 m0.39406415075063705,-2.2749653458595276 l-0.20395101979374886,-3.7820473313331604 -0.3588445484638214,-3.5395607352256775 l-0.29394403100013733,-2.600729763507843 -0.019224375719204545,-2.8839680552482605 l0.2921200729906559,-2.139928489923477 0.5519739538431168,-1.791536957025528 l0.7940840721130371,-1.5331660211086273 1.622113436460495,-1.9410774111747742 l1.6054646670818329,-1.3110730051994324 2.477489709854126,-1.274365782737732 l1.3795778155326843,-0.4064561054110527 2.411298006772995,-0.23709304630756378 l2.478596270084381,0.3765100985765457 2.365753948688507,1.113450974225998 l2.1236340701580048,1.8109741806983948 1.8156519532203674,2.5795984268188477 l1.2772250175476074,3.1605762243270874 0.7134001702070236,3.5894107818603516 l0.2651069685816765,4.0196532011032104 -0.23309625685214996,4.013336002826691 l-0.6749644130468369,3.1905919313430786 -1.0018665343523026,2.5573205947875977 l-0.4723319411277771,0.5851869657635689 m-13.500823974609375,-17.53911018371582 l-0.6709761917591095,0.780828595161438 -0.3924233466386795,1.1871474981307983 l-0.04101406317204237,1.6019675135612488 0.4287431016564369,1.3019153475761414 l0.6658794730901718,0.8634057641029358 0.8402401953935623,0.5648275464773178 l1.2826865911483765,0.22849192842841148 1.2943895161151886,-0.39450395852327347 l1.0762327909469604,-1.0960573703050613 0.5994395166635513,-1.2957555055618286 l0.16393611207604408,-1.724502295255661 -0.337563119828701,-1.382235735654831 l-0.714418888092041,-1.098172664642334 -1.24374158680439,-0.8532759547233582 l-1.510894000530243,-0.3046911396086216 -1.3453850150108337,0.3250731900334358 l-0.9867162257432938,0.8708274364471436 m9.567657113075256,-0.7738319039344788 l-0.748959481716156,1.1672993749380112 -0.38269463926553726,1.8034496903419495 l0.24193180724978447,2.3995302617549896 0.4249044135212898,1.0250139236450195 l0.9715325385332108,0.9831806272268295 0.9099862724542618,0.22333459928631783 l0.9437840431928635,-0.19836107268929482 1.0359184443950653,-0.9499361366033554 l0.6792131066322327,-1.7057378590106964 0.144776850938797,-1.6503211855888367 l-0.27984611690044403,-1.4505533874034882 -0.6202645599842072,-1.148841679096222 l-0.8460024744272232,-0.7817959040403366 -1.3349759578704834,-0.49821212887763977 l-1.5147632360458374,0.031802922021597624 m-3.986898958683014,10.812177658081055 l0.7358540594577789,2.2798554599285126 0.8479797840118408,0.1912418194115162 l1.297486573457718,-2.4287961423397064 0.5898407846689224,-0.9660566598176956 m-12.1049165725708,6.070444583892822 l-1.505134105682373,1.8113934993743896 -0.9693478047847748,1.7912939190864563 l-1.5662862360477448,4.554654359817505 -1.051379144191742,6.354937553405762 l-0.1595069095492363,6.613857746124268 0.5395050719380379,3.6930307745933533 l0.9643745422363281,2.9835084080696106 m22.548820972442627,-27.843468189239502 l1.8468335270881653,2.827320098876953 1.0162721574306488,2.3664340376853943 l1.0454069823026657,4.007629454135895 0.49497392028570175,4.6456897258758545 l-0.06702102720737457,7.614409923553467 -0.6523969024419785,5.273148417472839 " fill="none" stroke="black" stroke-width="1"/></svg>