<svg baseProfile="full" height="110.40236711550847" version="1.1" width="860.3769449213385" xmlns="http://www.w3.org/2000/svg" xmlns:ev="http://www.w3.org/2001/xml-events" xmlns:xlink="http://www.w3.org/1999/xlink"><defs/><rect fill="white" height="110.40236711550847" width="860.3769449213385" x="0" y="0"/><path d="M25,30.118971485888437 m0.0,0.0 m0.06387159344441784,20.438371827062838 l4.1468745470047,0.007144897826947272 6.156259179115295,-3.8282224535942078 l5.208332538604736,-5.105089545249939 3.2518601417541504,-2.274269461631775 l1.4084409177303314,-0.23511506617069244 1.7966017127037048,1.064779981970787 l1.640702486038208,2.6479724049568176 0.29872147366404533,4.064295291900635 l-2.1935801208019257,3.813549280166626 -3.8967859745025635,2.656940221786499 l-8.183125853538513,2.468695789575577 -5.071258544921875,-0.5412864312529564 l-2.321542799472809,-2.3692327737808228 0.3808463364839554,-3.157627284526825 l2.52238005399704,-2.7805042266845703 3.986978530883789,-1.8378846347332 l3.9928463101387024,-0.7466206699609756 3.9869627356529236,0.12325586751103401 l3.631785213947296,0.8804631978273392 3.27297180891037,1.4289599657058716 l7.692767381668091,0.7544320076704025 9.774867296218872,-0.5470207706093788 l8.291686177253723,-1.8659572303295135 8.43043863773346,-1.8512926995754242 l8.394403457641602,-1.3872228562831879 7.853946685791016,-0.024674427695572376 l6.345382332801819,2.044934183359146 3.2021859288215637,2.742989957332611 l1.9225531816482544,3.9799031615257263 4.430773117292119e-06,5.89069128036499 l-1.7637595534324646,4.381047487258911 -2.527497410774231,3.4822285175323486 l-3.588588833808899,2.5555872917175293 -3.9211884140968323,1.2356846779584885 l-4.199833869934082,-0.11275182478129864 -2.4894434213638306,-1.4536413550376892 l-2.4521632492542267,-2.6537856459617615 -2.353539615869522,-3.401244878768921 l-1.1170431226491928,-0.8360280096530914 -3.046391010284424,-0.37984706461429596 l-5.486212372779846,0.00047986843128455803 -3.778045177459717,2.0032428205013275 l-1.7359130084514618,2.3265761137008667 -3.7717747688293457,4.3441250920295715 l-4.143594801425934,0.00038431586290244013 -3.385286033153534,-2.030678689479828 l-2.128559499979019,-3.0448663234710693 -1.0840430110692978,-4.153801798820496 l-0.7957302033901215,-1.0809316486120224 -2.6445475220680237,-1.5169773995876312 l-5.191702246665955,-2.1513044834136963 -3.2579758763313293,0.000291987817035988 l-3.7862977385520935,-1.1959673464298248 -1.2611240148544312,-0.9971830993890762 m29.7689151763916,-1.6823466122150421 l0.35772982984781265,2.6029112935066223 1.2604005634784698,1.7115575075149536 l1.9397252798080444,0.9462573379278183 2.5887051224708557,4.6301784095703624e-05 l1.636894941329956,-1.0678941011428833 0.7688692957162857,-2.8575631976127625 l-1.0596968233585358,-0.9452030807733536 -3.2006925344467163,-0.2589474432170391 l-2.256827801465988,1.5725013613700867 -0.8021480590105057,1.6119059920310974 l1.8048708140850067,2.258450835943222 2.808513641357422,0.6895247101783752 l3.3181631565093994,0.0002343104461033363 1.8531447649002075,-1.0753753036260605 l-0.0003416491745156236,-1.549234688282013 -1.3822053372859955,-1.0011735558509827 l-2.8940215706825256,0.0002648832924023736 -1.065051481127739,1.2014004588127136 l0.9326910972595215,2.3838776350021362 2.598300576210022,1.1696287244558334 l3.6095020174980164,8.278761924884748e-05 1.7914167046546936,-1.1040561646223068 l-0.00017233340258826502,-1.6255119442939758 -1.4119748771190643,-1.0976313799619675 l-2.9140496253967285,-0.07756839040666819 -1.093958094716072,1.0759886354207993 l-0.03798318561166525,1.7358152568340302 1.7281992733478546,1.3764208555221558 l2.525891363620758,0.3323958069086075 1.9353757798671722,-0.8665333688259125 l0.9689925611019135,-1.599947065114975 -0.6007490679621696,-1.3658170402050018 l-1.7752356827259064,-1.0014383494853973 -2.8393489122390747,0.08371416479349136 l-1.1054210364818573,1.212456151843071 0.01581164076924324,1.928897351026535 l1.7611420154571533,1.4324390888214111 2.268015295267105,0.36374587565660477 l1.7832401394844055,-0.7297137379646301 0.9777035564184189,-1.485537588596344 l-6.968667548790108e-05,-1.2788963317871094 -1.138232946395874,-1.2249380350112915 l-3.3635085821151733,-1.0451915115118027 -1.772165596485138,0.7071670889854431 l-0.9467916190624237,1.8271726369857788 0.46830106526613235,1.990635097026825 l1.9381830096244812,1.333177536725998 2.1483214199543,0.1134144701063633 l1.4250737428665161,-0.8968812227249146 0.6318902224302292,-2.7898702025413513 l-1.0558370500802994,-1.4442412555217743 -2.0003800094127655,-1.078433319926262 l-3.642016053199768,-0.18697476014494896 -1.5864065289497375,1.2164978682994843 l-0.77293261885643,2.416917383670807 0.9379807114601135,1.9808456301689148 l2.0173384249210358,1.1541762948036194 1.9270484149456024,-0.11628175154328346 l1.3255776464939117,-1.0748114436864853 0.10345411486923695,-3.0185359716415405 l-1.306307166814804,-1.6800607740879059 -4.015018939971924,-1.8074801564216614 l-3.6726781725883484,0.26068108156323433 -1.839170902967453,1.6247522830963135 l-0.7537145912647247,2.5715193152427673 0.9250204265117645,2.1525540947914124 l1.9843237102031708,1.258697509765625 1.90313920378685,-0.020583404693752527 l1.2406322360038757,-1.0737880319356918 0.24963734671473503,-3.107544183731079 l-1.3388584554195404,-1.81266650557518 -4.327818155288696,-2.2142794728279114 l-4.0325358510017395,-0.07373091764748096 -3.0174002051353455,2.3473472893238068 l-0.9332011640071869,2.894471287727356 0.8495485037565231,2.422401010990143 l2.098255902528763,1.6345949470996857 2.0747219026088715,0.2671819366514683 l2.3281002044677734,-1.5298624336719513 0.6154047325253487,-3.2657375931739807 l-1.047457531094551,-1.9574010372161865 -3.7926778197288513,-2.345609962940216 l-4.285057783126831,-0.4046232998371124 -3.6812493205070496,1.8406133353710175 l-1.29449263215065,2.659858465194702 0.18891816958785057,2.867918014526367 l1.7075234651565552,1.963665932416916 2.1325719356536865,0.8199440687894821 l2.005447596311569,0.00010675407793314662 1.4451417326927185,-1.0833155363798141 l0.7130198925733566,-3.0765601992607117 -2.3498012125492096,-3.0596473813056946 l-4.265066385269165,-1.8003575503826141 -3.908018469810486,0.6584352254867554 l-1.7297236621379852,1.9185680150985718 0.008090394549071789,4.376824796199799 l1.7360743880271912,2.311473786830902 2.2095176577568054,1.183999925851822 l2.6117223501205444,0.0001937594061018899 1.5651383996009827,-1.0464699566364288 l0.927249938249588,-3.023320436477661 -1.70456662774086,-2.8880801796913147 l-3.6146363615989685,-1.7899805307388306 -3.34290087223053,0.6514541059732437 l-1.4318616688251495,1.9603125751018524 0.6941716372966766,4.111921787261963 l2.141464948654175,2.049010396003723 2.4501562118530273,0.9610293805599213 l3.321276307106018,-0.5371066927909851 2.30486661195755,-2.30498343706131 l0.09315564297139645,-3.454904854297638 -1.31587415933609,-1.3303489983081818 l-2.8991174697875977,-0.40993232280015945 -1.9746233522891998,2.1464641392230988 l0.3915747255086899,4.130817949771881 2.087561786174774,1.8823549151420593 l2.486664056777954,0.864344984292984 3.4663930535316467,-0.6711956113576889 l1.3857416808605194,-1.3747036457061768 -0.00012977200640307274,-2.38387867808342 l-2.3536741733551025,-2.2743530571460724 -3.2418009638786316,-0.7403511554002762 l-2.244410961866379,1.4950881898403168 -0.6035630032420158,2.70924836397171 l1.205310970544815,2.2020670771598816 2.3202359676361084,1.446976214647293 l3.963821530342102,0.37910833954811096 3.0578643083572388,-1.437331736087799 l1.2220867723226547,-2.8201574087142944 -0.00015659999917261302,-1.2962760031223297 l-1.6017882525920868,-1.6137394309043884 -3.217667043209076,-0.5979164317250252 l-2.1783126890659332,1.6866230964660645 -0.5153784900903702,2.700568437576294 l1.2549994885921478,2.147519737482071 2.326975166797638,1.3867709040641785 l2.257920801639557,0.22431112825870514 2.5559955835342407,-1.4857324957847595 l1.0960633307695389,-2.9230934381484985 -0.00011188963981112465,-1.126607358455658 l-1.5420563519001007,-1.8308526277542114 -3.2432207465171814,-0.905640497803688 l-2.7343028783798218,1.1705663800239563 -1.0972531139850616,2.43679940700531 l0.4985237866640091,2.3885296285152435 1.8326494097709656,1.8295228481292725 l2.2086405754089355,0.8760391175746918 2.1297837793827057,0.0002118494376190938 l1.4795640110969543,-1.018589660525322 0.7241770625114441,-3.0214622616767883 l-1.865919828414917,-3.2008978724479675 -3.7316790223121643,-2.152916193008423 l-3.8128572702407837,0.030454094521701336 -2.664884924888611,2.86030650138855 l-0.5156810209155083,3.1490471959114075 1.255519986152649,2.358553409576416 l2.116575539112091,1.5654100477695465 2.00445294380188,0.3792620822787285 l2.2791460156440735,-1.265251487493515 1.126897856593132,-3.350512385368347 l-3.2320600748062134,-2.682044208049774 -4.105391502380371,-0.9378861635923386 l-3.06657612323761,1.6006533801555634 -0.9643362462520599,2.6676908135414124 l0.6721138209104538,2.710907757282257 1.8482935428619385,1.9575043022632599 l2.265569716691971,1.0219068825244904 2.9403558373451233,-0.5337989702820778 l1.7996716499328613,-2.4123188853263855 9.391433195560239e-05,-1.9392508268356323 l-2.0388516783714294,-2.595221698284149 -3.4586039185523987,-1.1992613971233368 l-2.5965258479118347,1.318938285112381 -0.7751314342021942,4.262059330940247 l1.520928144454956,2.4588701128959656 2.119474411010742,1.3854947686195374 l3.295866549015045,0.28452053666114807 2.59847491979599,-1.6155385971069336 l0.8397400379180908,-3.148813545703888 -1.7487353086471558,-2.806834876537323 l-3.406916856765747,-1.692441701889038 -2.20283105969429,3.280322849750519 l-0.12089020572602749,3.204839825630188 1.5539924800395966,2.135656625032425 l2.108602821826935,1.2332595139741898 2.1530909836292267,0.00022135433027870022 l2.2560016810894012,-1.790221929550171 0.7115349918603897,-3.2428404688835144 l-1.7770713567733765,-2.728171944618225 -3.2617369294166565,-1.3476604223251343 l-2.6469889283180237,1.2193839997053146 -0.8633620291948318,2.594301998615265 l0.6813747435808182,2.5901207327842712 1.626851111650467,1.9788175821304321 l3.340247869491577,1.491672843694687 m38.349482007494515,-18.926355191546804 l4.201167523860931,0.02809631871059537 6.25028669834137,-4.041048586368561 l5.313021540641785,-4.961366653442383 2.850241959095001,-2.0075391232967377 l1.1019019782543182,0.00015494259059778415 1.8073727190494537,1.550508737564087 l1.616613119840622,3.336297571659088 -0.11442559771239758,3.9018142223358154 l-2.6232540607452393,3.665146827697754 -4.1458845138549805,2.115996479988098 l-5.704978704452515,0.00019417346265981905 -2.7675840258598328,-2.0626085996627808 l-1.7426519095897675,-2.9732316732406616 1.0887008160352707,-2.7042290568351746 l3.3345454931259155,-2.6838627457618713 3.7096109986305237,-1.3088060915470123 l8.166841268539429,-1.0331648588180542 3.8859087228775024,0.7749036699533463 l3.1549879908561707,1.631917804479599 2.8774726390838623,2.355293780565262 l4.456964731216431,2.403409779071808 6.654751896858215,1.074804738163948 l10.424778461456299,-0.4752207547426224 9.314075112342834,-0.8739315718412399 l7.632361650466919,-0.051328581757843494 3.8694384694099426,1.4385630190372467 l3.0319994688034058,2.8731244802474976 2.104700803756714,3.961764872074127 l0.6085357069969177,3.2118257880210876 8.040404281928204e-05,5.720350742340088 l-1.6323897242546082,3.444189131259918 -2.5165680050849915,2.5841370224952698 l-1.3677296042442322,0.6806376576423645 -3.1124046444892883,0.1417755614966154 l-1.3392497599124908,-0.9439265727996826 -0.9028947353363037,-4.471733868122101 l-2.06392839550972,-4.157238602638245 -1.1071096360683441,-1.1474788188934326 l-3.1049135327339172,-0.8411877602338791 -4.6049147844314575,0.0005004043487133458 l-3.5458099842071533,2.2975200414657593 -1.8666158616542816,2.906107008457184 l-3.2045739889144897,6.94111704826355 -6.4435213804244995,0.000483258263557218 l-3.0820733308792114,-1.947292536497116 -1.907011717557907,-2.8375765681266785 l-1.9721850752830505,-5.974075198173523 -0.7593759149312973,-1.0670286417007446 l-1.0256805270910263,-0.3985586389899254 -2.603202164173126,0.4969271644949913 l-1.6305799782276154,1.4870430529117584 -0.9978335350751877,2.5506138801574707 l-1.7781557142734528,5.4124873876571655 -1.8457946181297302,2.281094044446945 l-1.909954994916916,0.00040031871321843937 -2.0356962084770203,-2.268834412097931 l-1.2840601801872253,-4.26877498626709 -0.13792281970381737,-7.406356930732727 l-0.5909760668873787,-1.2425413727760315 -1.0034479200839996,-0.6158741563558578 l-4.38355416059494,-2.9929685592651367 -1.335969716310501,-1.654251217842102 l-0.5440641567111015,-1.5089267492294312 m-0.267300121486187,-4.653587639331818 l-0.15950599685311317,-0.0512993149459362 -0.7709360122680664,-0.19829267635941505 l-0.00016183639672817662,-0.19224002957344055 0.6093830615282059,8.090363735391293e-05 l-0.0001842185520217754,0.7408030331134796 0.22298183292150497,0.0001881927892100066 l-0.36957357078790665,-0.43933331966400146 0.11837372556328773,-0.10344980284571648 l-0.00016862517441040836,0.5037981271743774 0.17753040418028831,1.4718049214934581e-05 l-0.00021089184883749112,-0.27536045759916306 -0.2948041073977947,-0.11598795652389526 l-0.00019437889932305552,0.10790332220494747 0.1803821325302124,-0.2877189591526985 l-0.11313900351524353,-0.05400240886956453 -0.00018453012671670876,0.052981600165367126 l-0.00016205767678911798,0.16323314979672432 -0.00013203974049247336,-0.11160646565258503 l-0.029587671160697937,-0.25204531848430634 0.13611186295747757,-0.04543145652860403 l-0.00025820136215770617,0.20670566707849503 0.04532001446932554,-0.15941517427563667 l-0.00020906063582515344,-0.073607605881989 -0.1529780589044094,-0.14293749816715717 l0.07883154787123203,-0.20292429253458977 -0.00017239974113181233,0.4330309107899666 l0.14622842893004417,-0.2899955213069916 -0.00026857735065277666,0.10281315073370934 l-0.00016777124983491376,0.12431208975613117 0.030009928159415722,-0.38940228521823883 l-0.0002903552012867294,0.18476100638508797 -0.00018677394109545276,0.22767383605241776 l-0.010558090871199965,-0.37548527121543884 -0.07279965560883284,-0.24629656225442886 l-0.02742930082604289,-0.16334766522049904 -0.00017495445717941038,0.5146897584199905 l-0.08707856759428978,-1.7356258013023762e-05 0.0597774563357234,-0.48678409308195114 l0.1310376636683941,-0.17963716760277748 -0.0660522235557437,-0.11647801846265793 l-0.00017535712686367333,0.3764161467552185 0.10079683735966682,-0.24552496150135994 l-0.13898550532758236,-0.13013078831136227 -0.00018426973838359118,0.09123794734477997 l0.06362074054777622,-0.3707178309559822 -0.09903659112751484,-0.10948127135634422 l-0.00025331009965157136,0.3346078470349312 0.19292017444968224,-0.3342447802424431 l-0.1772778294980526,-0.14632278122007847 -0.00017474056221544743,0.44020403176546097 l0.2853858843445778,-0.3415508568286896 -0.0002667755506990943,0.11154824867844582 l0.06675796583294868,-0.29173776507377625 -0.08402646519243717,-0.09955865330994129 l-0.02280878135934472,-0.07067669183015823 0.03827243112027645,-0.25651056319475174 l-0.15789031982421875,-0.08802729658782482 0.07732524536550045,-0.11091401800513268 l0.07085375487804413,-0.13585147447884083 -0.013444090727716684,-0.0962924025952816 l0.03331491490826011,-0.16587834805250168 -0.15192191116511822,-0.055661615915596485 l-0.00023031703676679172,0.2615637704730034 0.280412919819355,-0.3136755898594856 l-0.20034588873386383,-0.14263958670198917 -0.00021490817744052038,0.4076249524950981 l0.31335145235061646,-0.27232637628912926 -0.13228178955614567,-0.2952781319618225 l-0.26017865166068077,-0.0001086700376617955 -0.00016302425137837417,0.4905502125620842 l0.4365968331694603,-0.3196374699473381 -0.24039914831519127,-0.4475593566894531 l-0.35550840198993683,-0.00011848984286189079 -0.00014044070667296182,0.4783884808421135 l0.3984159976243973,-0.38356538861989975 -0.12093306519091129,-0.2723677456378937 l-0.07107031997293234,-0.037501638289541006 -0.00022202211766852997,0.2851950004696846 l-0.00013676000889972784,0.0034453891566954553 0.14014474116265774,-0.45297473669052124 l-0.0003036625639651902,0.23484116420149803 0.1173497922718525,-0.30285852029919624 l-0.16309011727571487,-0.16509607434272766 -0.00021642659703502432,0.3323487564921379 l0.2381684072315693,-0.35828597843647003 -0.22928455844521523,-0.12610850855708122 l0.13991490006446838,-0.2190646529197693 -0.00024976328859338537,0.3386911004781723 l0.27093784883618355,-0.1578633114695549 -0.20029094070196152,-0.3557239845395088 l-0.14478093944489956,-0.06603111978620291 0.1031348668038845,-0.22070787847042084 l-0.129221947863698,-0.09785275906324387 -0.00019763157979468815,0.20104099065065384 l0.14947999268770218,-0.2157405950129032 -0.0002689718530746177,0.1048609521239996 l0.10350880213081837,-0.36040689796209335 -0.17403999343514442,-0.20806517452001572 l-0.028961380012333393,0.0506416754797101 0.13772832229733467,-0.24089252576231956 l-0.17534669488668442,-0.012050207005813718 0.12882146053016186,-0.14822944067418575 l-0.07361582480370998,-0.1857907697558403 0.0021488932543434203,-0.1026711706072092 l0.014362611109390855,-0.18065283074975014 -0.00022718784748576581,0.2672349102795124 l0.25855835527181625,-0.2571280300617218 -0.2521504834294319,-0.31742438673973083 l-0.08430236019194126,0.11296819895505905 0.1687227375805378,-0.22929567843675613 l-0.29718901962041855,-0.11181777343153954 -0.00019534389139153063,0.5281779915094376 l0.4107775539159775,-0.28029829263687134 -0.0003506700159050524,-0.147654227912426 l-0.19726835191249847,-0.2536875195801258 -0.024574787821620703,-0.010089464485645294 l0.05832202732563019,-0.20221268758177757 -0.00025773617380764335,0.37447523325681686 l0.2470162697136402,-0.3129253163933754 -0.35042475908994675,-0.3847400099039078 l-0.00028731641577905975,0.6062573194503784 0.42236633598804474,-0.3504861518740654 l-0.39286620914936066,-0.2346293069422245 -0.20377608016133308,0.04749537445604801 l0.21810129284858704,-0.07615842390805483 -0.11381526477634907,-0.24984275922179222 l-0.14560206793248653,-0.10236877016723156 -0.001119284934247844,-0.0165496242698282 l0.16382725909352303,-0.00014526034647133201 -0.032995170913636684,-0.29132962226867676 l-0.12845201417803764,-0.020875444170087576 0.08697579614818096,-0.17475882545113564 l-0.07572643924504519,-0.2239033579826355 -0.1041201688349247,0.05640281364321709 l0.09497251361608505,-0.03986688330769539 0.06983940955251455,-0.272217970341444 l-0.00025202396500390023,0.2882217988371849 0.018714903853833675,-0.2763380669057369 l-0.20925741642713547,-0.2295403555035591 -0.0002210329876106698,0.40308039635419846 l0.3745822608470917,-0.2532271668314934 -0.3104875423014164,-0.359547957777977 l-0.23859404027462006,0.12648203410208225 -8.638172403152566e-05,0.3532121330499649 l0.4384506121277809,-0.33293619751930237 -0.0003513885530992411,-0.23614678531885147 l-0.3233771398663521,-0.16428956761956215 -0.00022204523702384904,0.4682980105280876 l0.3320552781224251,-0.21896017715334892 -0.15674550086259842,-0.34890979528427124 l-0.2772646024823189,-0.016329007921740413 0.0895315408706665,-0.13308643363416195 l-0.08852168917655945,-0.10608410462737083 0.04024329595267773,-0.13731573708355427 l-0.00018154289136873558,0.22747110575437546 0.11504728347063065,-0.281019639223814 l-0.3977857530117035,-0.09128493256866932 0.13503012247383595,-0.10233787819743156 l-0.0002245060750283301,0.32718606293201447 0.17463359981775284,-0.14442911371588707 l-0.05659107118844986,-0.3325119614601135 -0.25115562602877617,-0.1102618407458067 l-0.00023296632207348011,0.41871655732393265 0.42971957474946976,-0.00013068940461380407 l-0.10732151567935944,-0.49291934818029404 -0.3397570922970772,0.08307783864438534 l-0.00015004497072368395,0.3983207792043686 0.32716233283281326,-0.34272100776433945 l-0.2362912893295288,-0.2935897186398506 -0.18659651279449463,0.012257725466042757 l-0.0001802012229745742,0.3313109278678894 0.3673778846859932,-0.237034410238266 l-0.18589690327644348,-0.42139772325754166 -0.35414237529039383,0.09293073788285255 l-0.00014339379049488343,0.5037424713373184 0.4495701566338539,-0.3056756407022476 l-0.2510552667081356,-0.3731369227170944 -0.00027902808142243885,0.21242063492536545 l0.11249572038650513,-0.33036112785339355 -0.16556547954678535,-0.12267676182091236 l-0.0002114830567734316,0.3695463761687279 0.2079998143017292,-0.26279959827661514 l-0.14512725174427032,-0.23434896022081375 -0.184966791421175,0.01707427785731852 l-0.00017716172806103714,0.2833873778581619 0.13882523402571678,-0.4156174510717392 m67.31851656271829,9.863883921920547 l4.199096262454987,0.0245536956936121 6.148374080657959,-3.7472406029701233 l5.2939969301223755,-5.2072674036026 1.8037690222263336,0.0003134629878331907 l1.9000063836574554,1.0847112536430359 1.0489977896213531,1.2292589247226715 l0.9775765985250473,2.7519911527633667 8.006307325558737e-05,6.228799819946289 l-1.566196233034134,1.2403140217065811 -6.6866230964660645,0.0005046120350016281 l-3.7883639335632324,-2.1084487438201904 -2.3501765727996826,-2.9463404417037964 l-1.1448802053928375,-2.4113810062408447 0.00016671730918460526,-0.9925048798322678 l0.8021571487188339,0.0005925793448113836 1.9324947893619537,0.46252697706222534 m20.099685192108154,-0.13887250795960426 l0.9540973603725433,-1.4615027606487274 3.3732396364212036,-1.7601391673088074 l4.633496105670929,-1.3537387549877167 7.628480792045593,0.00027519579816726036 l4.336637854576111,0.8638286590576172 3.2503333687782288,1.7422787845134735 l3.2512491941452026,2.9045790433883667 3.7152379751205444,-1.3985039293766022 l5.030672550201416,2.7039450287702493e-05 6.870138049125671,2.686416506767273 l2.6331570744514465,2.158745676279068 1.6451020538806915,3.6293667554855347 l-6.24919994152151e-05,3.2181695103645325 3.786853849887848,0.8903340995311737 l1.9355028867721558,1.3400952517986298 1.1728712171316147,2.045884430408478 l0.6717634946107864,3.025813102722168 -0.23792797699570656,2.978582978248596 l-2.1785999834537506,3.393465280532837 -3.7748143076896667,2.3754067718982697 l-4.875109493732452,1.1371086537837982 -4.093019366264343,2.429464302622364e-05 l-2.0129716396331787,2.7039074897766113 -2.741420269012451,1.5046478807926178 l-4.962438344955444,-3.4524337024777196e-05 -1.645425707101822,-0.6761958450078964 l-5.778628587722778,-3.353145718574524 -1.4338470995426178,1.5414480865001678 l-2.6014837622642517,1.3966269791126251 -4.94432806968689,0.00018224332961835898 l-4.620907306671143,-1.835700273513794 -3.3926764130592346,-2.6564821600914 l-5.182576775550842,1.0371807217597961 -5.122411251068115,0.0004024924783152528 l-3.198118805885315,-1.349644958972931 -1.8107514083385468,-2.1085867285728455 l-2.3035770654678345,-4.931516945362091 -0.20015820860862732,-1.8041162192821503 l0.5200669541954994,-1.8873687088489532 -2.0965658128261566,-3.582928776741028 l7.47587728255894e-05,-2.1268515288829803 0.6660529226064682,-1.2329640984535217 l-1.153758317232132,-1.8415872752666473 -0.00020533654605969787,-2.1777167916297913 l0.8065416663885117,-1.0915587097406387 1.9146768748760223,-0.8225254714488983 m-5.204679369926453,-3.0012506246566772 l0.00031514915463048965,-2.5547707080841064 -0.6288133561611176,-0.6994044780731201 l-2.103719711303711,-0.5011589825153351 -2.6141268014907837,0.9011486172676086 l-1.229131817817688,1.535661369562149 -1.0536230355501175,3.3290404081344604 l0.8196718245744705,3.177361488342285 1.1039643734693527,1.4651525020599365 l1.7481832206249237,0.9316975623369217 1.9940443336963654,0.0001832460293371696 l1.724236011505127,-1.1948660761117935 1.21415413916111,-2.0668886601924896 l-7.397288300126093e-05,-2.005605101585388 -0.9872869402170181,-1.3028867542743683 l-2.6167285442352295,-1.280977874994278 m-2.6783913373947144,2.6411324739456177 l0.00022037136659491807,1.2453227490186691 0.5983929336071014,-0.4478251188993454 l-0.0002686548759811558,-0.9065669775009155 -0.4676184430718422,0.00011649967746052425 l-0.00015754334526718594,0.6394484639167786 0.09471576660871506,-0.48400290310382843 l-0.2325560711324215,-0.01678067957982421 -0.00024710276193218306,0.45787617564201355 m-0.11756709776818752,1.7113493382930756 l0.4823325574398041,0.00017382697478751652 -0.0002342029802093748,0.055402363650500774 l-0.35441771149635315,-0.04264038987457752 -0.00012465379768400453,0.0926091056317091 l-0.01692042569629848,-0.2944946475327015 -0.00023052647520671599,0.19695419818162918 l0.07151165511459112,-5.914660505368374e-05 -0.00022191006792127155,0.014044545823708177 m-3.0916863679885864,2.2219064831733704 l0.5892924591898918,0.24979228153824806 0.3924966976046562,0.23996053263545036 l-0.0001092174989025807,-0.13876872137188911 -0.5926217511296272,-0.3504481166601181 l-0.012044627219438553,0.13058475218713284 -0.00017792315702536143,0.38343269377946854 l0.0457705557346344,0.0001213480754813645 -0.2758963406085968,-0.40419716387987137 l0.26831794530153275,0.00015268353308783844 -0.00017709877283778042,0.26854222640395164 l-0.23155832663178444,-0.15854435041546822 -0.09155500680208206,-0.15778789296746254 l-0.08876201696693897,-0.0918202381581068 -0.03471133066341281,-0.14816210605204105 l-0.0002463999771862291,0.6061965972185135 -0.09546054527163506,-0.37552163004875183 l-0.0002849062002496794,-0.17283791676163673 -0.00028875565476482734,0.6502489000558853 l0.14407056383788586,-0.42676396667957306 -0.25760965421795845,-0.07669876795262098 l-0.00016095418686745688,0.21940458565950394 -0.00028904089049319737,-0.029535875655710697 l-0.00020371353457449004,-0.09912502951920033 -0.00019896333469660021,0.2272414043545723 l0.12877981178462505,-0.3849158436059952 -0.00028016431315336376,-0.06918195635080338 l-0.20690403878688812,-0.2787078358232975 -0.00012201882782392204,0.40722958743572235 l0.10125900618731976,-0.32455001026391983 -0.00025562327209627256,0.16902590170502663 l-0.041356184519827366,-0.4344356432557106 -0.00023210677682072856,0.21857045590877533 l-0.00017947024389286526,0.11955250985920429 0.2482875995337963,-0.37683121860027313 l-0.26898760348558426,-0.12226509861648083 0.16522880643606186,-0.03422953421249986 l-0.2544880472123623,-0.10320263914763927 -0.00011551641364349052,0.38790203630924225 l0.155161926522851,-0.24992376565933228 -0.00029634924430865794,-0.025614474434405565 l0.3001936338841915,-0.08336708880960941 -0.0002569867683632765,0.3239120915532112 l-0.18803350627422333,-0.24658037349581718 -0.0002321461397514213,0.00012387353308440652 l0.05382253788411617,-0.2812218852341175 -0.00025758246920304373,-0.053059328347444534 l-0.2176756039261818,0.2238241396844387 0.22063525393605232,-0.3410450741648674 l-0.0003156692400807515,0.1780247874557972 -0.00017792517610359937,0.015127741498872638 l-0.00018527320207795128,0.13819831423461437 -0.00014725405890203547,0.3190615773200989 l0.12203456833958626,-0.4051942378282547 -0.0002716163726290688,-0.14884448610246181 l-0.35755131393671036,-0.05514266435056925 -0.03988734446465969,-0.18241630867123604 l0.22275570780038834,0.28506116941571236 -0.3142872825264931,0.666462779045105 l0.4107183963060379,-0.4324604943394661 -0.1144303660839796,-0.6055467575788498 l-0.29600171372294426,-6.635536465182668e-05 0.15516437590122223,-0.2506813406944275 l-0.18795223906636238,0.24083508178591728 0.16329273581504822,-0.19501332193613052 l0.047124545089900494,-0.1976265385746956 -0.03084951313212514,-0.09539554826915264 l-0.11456270702183247,-0.04855710081756115 0.13097778894007206,-0.09269263595342636 l-0.00019035298464586958,0.13335111550986767 -0.08122759871184826,-0.34770213067531586 l0.023032668977975845,0.00041620180127210915 0.22499816492199898,0.4569026827812195 l0.11878399178385735,3.30028615280753e-05 -0.019161037635058165,-0.4460248351097107 l-0.36235880106687546,-0.010132689494639635 0.002909759641624987,-0.23731764405965805 l-0.0003191653740941547,0.22784385830163956 -0.000140769107019878,0.08662143722176552 l0.3157408908009529,-0.00013476883395924233 -0.00020827950720558874,-0.09878805838525295 l-0.23384574800729752,-0.12861143797636032 -0.00012131569746998139,0.21002162247896194 l0.2842378057539463,-0.31561296433210373 -0.259489081799984,-0.2892693318426609 l-0.00017252054021810181,0.48447489738464355 0.40378227829933167,-4.823828930966556e-05 l-0.0001891454667202197,-0.35348009318113327 -0.0002400598350504879,0.06467807572335005 l-0.06462728604674339,-0.3096714988350868 -0.0002602161475806497,0.4445261135697365 l-0.0001116847215598682,0.0009598433825885877 -0.020761212799698114,-0.4763459041714668 l-0.19163260236382484,0.07011149544268847 0.027078832499682903,-0.3137665241956711 l-0.10760782286524773,0.0963707733899355 -7.22403456165921e-05,0.501798540353775 l0.31086940318346024,-7.339465810218826e-05 0.02570986980572343,-0.5783431604504585 l-0.060150991193950176,-0.00016415749996667728 -0.08629574440419674,-0.2787581831216812 l-0.14171946793794632,-0.2189592644572258 -0.00016795605915831402,0.6599230319261551 l0.3492855280637741,-0.32991014420986176 -0.00035298191505717114,0.08439972996711731 l-0.1457149162888527,-0.2536862716078758 0.027977556455880404,-0.20887276157736778 l-0.1412445865571499,-0.15975534915924072 -0.06720305420458317,-0.08697821758687496 l-0.00012916797459183726,0.5300508067011833 -8.557704859413207e-05,0.05268281325697899 l-0.00012714605873043183,-0.0426282687112689 0.2266007661819458,-0.04792140796780586 l-0.0002512460378056858,-0.17845788970589638 -0.15910301357507706,-0.33897656947374344 l-0.33036738634109497,0.012445522006601095 -0.00015670233551645651,0.32682355493307114 l0.3458573669195175,-0.32638613134622574 -0.00033523021556902677,-0.03796861041337252 l-0.0002396743730059825,0.08151196874678135 -5.143957878317451e-05,0.16713134944438934 l0.0842035748064518,-0.5241335928440094 -0.47012604773044586,0.22805143147706985 l-9.39975961955497e-05,0.15647659078240395 0.2656986378133297,-0.4953441396355629 l-0.00038561240216949955,0.08252263069152832 -0.018398177344352007,-0.20837068557739258 l-0.00017996038877754472,0.22487089037895203 -0.04229235462844372,-0.20257579162716866 l-0.00013516693798010238,0.3622455894947052 0.08184215985238552,-0.36974597722291946 l-0.04711651708930731,-0.00023846978365327232 -9.786367627384607e-05,0.1949015073478222 l0.1401191484183073,-0.4045436531305313 -0.40813785046339035,0.10887500829994678 l-0.0002126510844391305,0.48788219690322876 0.5441306903958321,-5.877604507986689e-05 l-0.11155850253999233,-0.6182720512151718 -0.3513787314295769,0.251436997205019 l-0.00019536812033038586,0.3737965598702431 -7.743985406705178e-05,0.05575455725193024 l0.21508809179067612,-0.48965517431497574 -0.02696783049032092,-0.00013210443285061046 l-0.00020444957044674084,0.48565130680799484 0.2365407533943653,-0.00020358400433906354 l0.017577066319063306,-0.5012878403067589 -0.48313841223716736,-0.0001379111381538678 l-0.00017014344848576002,0.42265433818101883 0.47582417726516724,-0.41625339537858963 l-0.0001804607927624602,-0.34241069108247757 -0.42368508875370026,0.028641168028116226 l-0.15217403881251812,0.44652294367551804 0.15815863385796547,-0.00014909445781086106 m64.07926063812738,4.918619960347996 l4.272956848144531,-0.005943738506175578 9.47425901889801,-4.428828060626984 l1.9925396144390106,-2.3554205894470215 1.1414709687232971,-2.2974883019924164 l1.3101355731487274,-1.1007209122180939 0.7544539868831635,0.00018223587176180445 l1.8597128987312317,2.8735703229904175 0.5630672723054886,4.162375032901764 l-1.356700360774994,2.8888654708862305 -5.539591312408447,5.56807816028595 l-0.5174608901143074,1.1994198709726334 -0.870964452624321,-7.595816100547381e-06 l-0.47081872820854187,-2.4150368571281433 1.6858556866645813,-6.048914790153503 l7.312020659446716,-4.715026319026947 1.6933362185955048,-0.3315640613436699 l6.285411715507507,-0.00025574274332029745 4.6791872382164,1.4426088333129883 l3.8512620329856873,2.493123710155487 4.999351501464844,4.188691973686218 l3.553902804851532,3.4450042247772217 6.099066138267517,3.5689300298690796 l12.468570470809937,3.996698260307312 5.80808699131012,0.0010365886555518955 l5.223389267921448,-1.8254630267620087 4.531883597373962,-2.588726580142975 l7.375208139419556,-3.1348800659179688 7.106983661651611,-2.5246283411979675 l7.302984595298767,-0.0724987918511033 3.1138721108436584,1.2240097671747208 l2.2165994346141815,3.643418550491333 -0.6761030852794647,9.510554075241089 l-2.511674463748932,4.9489641189575195 -2.6426318287849426,3.334583342075348 l-2.8286558389663696,2.2654445469379425 -0.7338064908981323,-0.00033374955819454044 l-1.2301932275295258,-2.684062421321869 -1.221621036529541,-3.9907637238502502 l-2.1432867646217346,-3.6745527386665344 -1.0517651587724686,-1.0056336224079132 l-3.2453253865242004,-0.9628307819366455 -3.822973668575287,0.8618641644716263 l-1.731114536523819,3.1884998083114624 -2.144074887037277,5.949857831001282 l-1.7180687189102173,0.5108277127146721 -1.6462205350399017,-3.0694040656089783 l-0.24062968790531158,-5.198231935501099 -0.6990236043930054,-1.3371381163597107 l-12.007352113723755,-0.2949288859963417 -7.296639680862427,-0.0005309163680067286 l-1.2768010795116425,0.4393739253282547 -1.6440151631832123,1.6464363038539886 l-2.169867157936096,4.386713206768036 -3.0517205595970154,2.187543660402298 l-2.1372851729393005,0.00041968192817876115 -2.175232768058777,-1.9859814643859863 l-1.2327831238508224,-5.809491872787476 -0.48500165343284607,-0.9311298280954361 l-0.2409282699227333,-2.8565871715545654 -0.8084321767091751,-1.2795999646186829 l-4.927245080471039,-2.9081925749778748 -7.741751074790955,-3.8379520177841187 l-1.5859763324260712,-1.3450410962104797 -3.0981162190437317,-2.8490662574768066 l-0.9339939057826996,-1.5187807381153107 -0.942961648106575,-3.04515540599823 l-2.5569596886634827,-2.1846425533294678 m6.955844759941101,-3.167679011821747 l0.00026043840989586897,3.274456262588501 2.2870878875255585,0.00016799533113953657 l0.8568722754716873,-0.8000324666500092 -0.00034332533687120304,-1.7618288099765778 l-1.356329619884491,-0.7839427888393402 -0.8382699638605118,0.0035416355240158737 m-2.140423208475113,3.408971130847931 l-0.5534753948450089,0.25886913761496544 m12.473695278167725,0.5316916853189468 l-1.1470689624547958,1.5754950046539307 -0.05548977758735418,0.978376492857933 l1.7704066634178162,2.028810530900955 2.1243394911289215,0.4390871152281761 l2.826552093029022,-1.145339161157608 0.8744245022535324,-1.0568883270025253 l-0.000473363179480657,-1.4931099116802216 -1.1960865557193756,-0.913340225815773 l-2.776864171028137,7.760101652820595e-05 m10.93554139137268,1.131056323647499 l0.09418880566954613,1.1079884320497513 1.755588948726654,2.012721747159958 l1.1790189892053604,0.43988682329654694 3.575737476348877,-0.10105921886861324 l0.9360754489898682,-0.7125923782587051 0.7374799996614456,-3.23985755443573 l-1.2490150332450867,-1.0975170135498047 -2.8075724840164185,0.4515472427010536 m6.593226790428162,-1.3604824244976044 l-1.2846465408802032,1.9876590371131897 0.6675544381141663,2.7956941723823547 l2.4262408912181854,1.1641806364059448 3.62601637840271,0.0001918586167448666 l2.0924511551856995,-1.2796999514102936 1.6750550270080566,-3.296026885509491 l7.434163308062125e-05,-1.4416347444057465 -1.5799108147621155,-1.688350886106491 m13.101797103881836,5.455159544944763 l0.2929839864373207,0.00029535178327932954 0.8660466969013214,-0.16514981165528297 l1.754826009273529,-1.0968158394098282 2.025506943464279,-2.6000893115997314 l0.0011340739001752809,-1.1444752663373947 -1.163104847073555,-0.7796400785446167 l-3.5391342639923096,0.2639145404100418 -1.4439330995082855,1.2960559129714966 l-0.000633746458333917,2.515375018119812 0.8464638143777847,1.2382576614618301 l2.962653934955597,1.0009213536977768 2.5558647513389587,-0.4955616965889931 l1.926463097333908,-1.5221969783306122 1.5095080435276031,-2.801178991794586 l-8.169025932147633e-05,-1.468750685453415 -0.8645232021808624,-0.8664262294769287 l-1.7652720212936401,-0.3778856247663498 -1.6236412525177002,1.0315678268671036 l-0.6066351383924484,2.560209333896637 0.6287800520658493,1.8579863011837006 l1.1852334439754486,0.9420111030340195 2.7255526185035706,0.0004319524668972008 l1.8704767525196075,-1.2857955694198608 0.6787676364183426,-1.1113370954990387 l0.2938806638121605,-1.9547359645366669 -0.6194951757788658,-0.7665853202342987 l-2.1730518341064453,0.023286808282136917 -2.090064287185669,1.4973630011081696 l-0.3880104422569275,1.3416260480880737 0.8738892525434494,1.7401005327701569 l2.414689213037491,1.1422564089298248 2.0132268965244293,-0.4847944900393486 l1.7450442910194397,-1.5726001560688019 0.8506345748901367,-2.575995922088623 l-0.4623078927397728,-1.179552599787712 -2.3407021164894104,-0.7941858470439911 l-3.062068223953247,1.4880138635635376 -1.196606606245041,2.2694380581378937 l0.6778346747159958,1.6535335779190063 1.8228545784950256,0.9626378864049911 l4.071921706199646,-0.29275571927428246 2.0678293704986572,-1.4661329984664917 l0.6117071211338043,-2.0947982370853424 -0.6389281898736954,-1.1240417510271072 l-1.6643042862415314,-0.6811066716909409 -2.5150033831596375,0.9130936115980148 l-1.5745648741722107,1.5468963980674744 -0.670648068189621,2.0291897654533386 l1.074722707271576,1.442641019821167 2.179654538631439,0.2621958777308464 l1.5081880986690521,-1.1292703449726105 0.8696970343589783,-1.6843713819980621 l0.12519503012299538,-3.566766381263733 -1.1532548069953918,-1.2629711627960205 l-2.9564854502677917,-0.33354122191667557 -2.1407897770404816,1.0045208036899567 l-1.5317825973033905,3.1185442209243774 1.1498866975307465,2.6828768849372864 l1.7190170288085938,0.6840445101261139 2.166275978088379,8.905910362955183e-05 l2.2057484090328217,-2.3032164573669434 -0.24200692772865295,-3.5482490062713623 l-1.3923101127147675,-1.8348337709903717 -1.5470322966575623,-0.7303363084793091 l-3.4405043721199036,0.6614544242620468 -1.5552440285682678,2.0257632434368134 l-0.6433482468128204,1.8419025838375092 0.7400646805763245,1.7122094333171844 l1.7124170064926147,0.6440926343202591 1.7970775067806244,0.0002834657789207995 l0.864236056804657,-1.2853699922561646 -0.14481340534985065,-3.5540255904197693 l-1.2109116464853287,-1.3074256479740143 -3.305247128009796,-0.693930983543396 l-1.521127074956894,1.2380355596542358 -1.0104726254940033,2.8488531708717346 l0.10983305051922798,2.355967015028 1.3076119124889374,1.4510014653205872 l2.945675849914551,5.560847284868942e-06 1.2687793374061584,-1.1219947785139084 l0.7010264694690704,-1.9752292335033417 8.159017852449324e-05,-1.4545510709285736 l-1.3350452482700348,-2.5459370017051697 -3.021320104598999,-2.202410399913788 l-3.8329797983169556,-0.7747358828783035 -2.020079493522644,1.0616961866617203 l-1.1116886883974075,3.9457494020462036 0.9174264222383499,1.706685870885849 l1.7670875787734985,0.7941313087940216 m-50.01800060272217,8.037394881248474 l-0.00010005972399085294,2.294227182865143 0.899706706404686,1.7813131213188171 l1.6327682137489319,1.1536939442157745 2.6281845569610596,0.0004026689930469729 l1.7659103870391846,-1.901949942111969 0.25002041831612587,-1.969289630651474 l-1.585584580898285,-1.989806741476059 -3.5489508509635925,0.000534420796611812 m12.242918014526367,1.705484539270401 l-0.9273026138544083,3.11357319355011 0.6533987075090408,1.9310247898101807 l1.4695857465267181,1.1198227852582932 2.9762399196624756,0.03266943618655205 l2.7932208776474,-2.393028289079666 0.6766647100448608,-1.3995087146759033 l-0.0005330098065314814,-1.6242054104804993 m20.26841402053833,3.0082321166992188 l-0.8858848363161087,1.6723588109016418 0.4371882975101471,1.8605878949165344 l3.5038501024246216,1.261100023984909 1.7320311069488525,-0.6247871369123459 l1.594565510749817,-1.5599733591079712 0.5202332884073257,-1.2524044513702393 l-0.00036277684557717294,-1.116446778178215 -1.0583224892616272,-1.0536476224660873 l-3.0110472440719604,-0.590880960226059 m-38.26186180114746,-11.184393167495728 l-1.4410454034805298,0.9764885902404785 -0.0003124995782854967,2.0492878556251526 l3.148764669895172,2.0809604227542877 3.276514410972595,-0.1820792816579342 l2.1518167853355408,-1.6545651853084564 -0.0002860310814867262,-1.8921814858913422 m-2.028902918100357,1.0183485597372055 l-1.5818524360656738,1.5676330029964447 -0.5474234744906425,3.6742758750915527 l3.8496601581573486,1.2128855288028717 2.508706748485565,-0.6811625510454178 l1.983020007610321,-2.449736148118973 -0.10712497867643833,-2.7735692262649536 m38.8191584307242,3.6282077087133757 l4.0917447209358215,0.0355246034450829 5.499303340911865,-3.453530967235565 l4.518272876739502,-2.83832848072052 4.809268116950989,-2.9810574650764465 l-0.05357877351343632,-1.457577794790268 1.0996562987565994,-0.9317807853221893 l2.299317717552185,-0.1427262183278799 1.2806658446788788,1.5379439294338226 l0.6833497434854507,3.044723868370056 -1.456550508737564,4.190860390663147 l-3.91988068819046,3.566812574863434 -8.99165153503418,3.853217363357544 l-3.1370148062705994,-0.00019831610188703053 -0.35956792533397675,1.4101135730743408 l1.2841881811618805,1.2416727095842361 2.12390199303627,0.8606438338756561 l22.763209342956543,0.3060485050082207 3.809952139854431,-1.76738440990448 l3.0543071031570435,1.1563318222761154 2.3153577744960785,3.2859796285629272 l4.400910437107086,2.438966929912567 7.861518859863281,3.0919504165649414 l8.105682134628296,0.9775656461715698 4.374698996543884,-0.7509379088878632 l5.305734276771545,-2.270924746990204 6.536868214607239,-3.6616864800453186 l2.0425117015838623,-2.165510356426239 3.3697760105133057,-7.373649477958679 l0.9042206406593323,-4.695974588394165 -1.459621638059616,-4.333136081695557 l-3.0423060059547424,-3.6852607131004333 -4.110470712184906,-1.7712944746017456 l-6.164600849151611,-1.604156494140625 -5.370956659317017,0.27768079191446304 l-6.555895209312439,0.9590531885623932 -9.893741011619568,3.0356863141059875 l-8.25870394706726,1.6764052212238312 -5.797861218452454,1.4789900183677673 l-4.556566476821899,2.049398422241211 -6.30570113658905,0.2565833367407322 l-4.3847644329071045,-0.49600809812545776 -1.307181864976883,-0.8435442298650742 l-3.5258030891418457,0.00028839784135925584 -1.0704698413610458,-1.0964073985815048 m45.13746738433838,4.528101980686188 l1.445818841457367,3.8800668716430664 2.9280290007591248,3.9441141486167908 l3.9928802847862244,3.6367234587669373 2.561907470226288,1.2299803644418716 l0.25855161249637604,-0.811072587966919 1.2006810307502747,-6.316095590591431 l-2.5570490956306458,-3.4134429693222046 -1.279885470867157,-0.705331414937973 l-4.262406229972839,0.8672931790351868 -1.7386232316493988,0.4263017326593399 m-31.24181032180786,10.0162672996521 l-0.13340693898499012,1.172061264514923 -0.9573026746511459,3.8800927996635437 l0.20709479227662086,3.2592198252677917 0.11189315468072891,3.250696361064911 l0.9273049980401993,2.0367471873760223 1.285596638917923,0.5761869996786118 l2.6144015789031982,0.00026783196517499164 1.713269203901291,-3.2471132278442383 l-0.038285995833575726,-5.491885542869568 0.21793868392705917,-2.244018465280533 l-0.624287948012352,-1.0303959995508194 m4.803775250911713,0.9682390838861465 l-0.06415177136659622,1.3566410541534424 -0.42466551065444946,7.301724553108215 l0.5353268980979919,1.5784285962581635 1.7101898789405823,1.3385972380638123 l2.902047038078308,-7.759734392166138 -0.8483342081308365,-5.008530020713806 m19.14679765701294,1.836155652999878 l0.3265487775206566,3.080568015575409 -0.13709413819015026,3.6923837661743164 l1.5561847388744354,5.205262899398804 1.0360440611839294,1.3484764099121094 l1.3784874975681305,0.0001033881835610373 1.200336515903473,-1.0140078514814377 l1.3266745209693909,-3.354140520095825 0.0003332378400955349,-4.642894268035889 l-0.619380958378315,-1.166890561580658 -2.3614829778671265,-3.075513541698456 m5.2144622802734375,0.3005428612232208 l0.09119899943470955,3.052414357662201 1.3841333985328674,5.93740701675415 l1.1827021837234497,2.054673135280609 1.644245684146881,1.2252774089574814 l1.664038598537445,0.00035827295505441725 1.1544515937566757,-1.334044188261032 l-0.12800442054867744,-6.678416132926941 -1.3163584470748901,-2.9782262444496155 l-2.568020224571228,-2.961263060569763 m-35.17750024795532,-12.032341957092285 l-0.27535922825336456,-0.10562576353549957 -0.28187721967697144,-0.7073080539703369 l0.4521092399954796,-1.7829854786396027 -0.4313674196600914,-0.9806951135396957 l-2.6516664028167725,-2.3692242801189423 -3.1439465284347534,-0.9627353399991989 l-4.941239953041077,0.0002547733311075717 -3.2405591011047363,1.521412879228592 l-2.1465933322906494,3.2238155603408813 -0.8741811662912369,2.4040986597537994 l0.00010314778592146467,1.8466073274612427 0.5642835050821304,1.0065335780382156 l1.978798657655716,1.3207656145095825 2.5311243534088135,0.7740238308906555 l5.029551386833191,0.15713851898908615 2.5452110171318054,-0.820758268237114 l1.7855890095233917,-1.3207708299160004 m-9.328356981277466,-5.660298466682434 l-5.735459581046598e-05,1.593337059020996 1.1166103929281235,-0.00017284450223087333 l0.4124334082007408,-1.8370166420936584 -1.2425488233566284,-0.2828187495470047 l-0.00015766212527523749,0.6867117434740067 0.17733797430992126,-0.8027251064777374 l-0.8723345398902893,0.24229081347584724 -0.00019780674847424962,0.7959501445293427 l1.090029701590538,0.6564319133758545 0.4976188391447067,0.238820631057024 l3.1208378459268715e-06,-1.2292121350765228 -0.888395681977272,-0.6069884076714516 l-0.6201152130961418,0.24659201502799988 -0.00021822053895448335,0.5629676952958107 l0.7286293804645538,-1.5993687156878877e-05 -0.0002123728336300701,-0.8211422711610794 l-1.1254391819238663,-0.00015930570953059942 m-7.880836725234985,9.120873212814331 l0.3353574872016907,0.00016900874470593408 0.7783690840005875,-0.44197946786880493 l-0.00014361583453137428,-1.0119378566741943 -0.23653317242860794,8.91289073479129e-05 l-0.04895055666565895,0.000100261358966236 0.15626057982444763,0.7118242233991623 l-0.036801372189074755,0.23773087188601494 0.22325782105326653,-1.102856621146202 l-0.13396194204688072,0.6589281558990479 0.10039498098194599,0.00022876973162055947 l-0.11949446983635426,0.2213796228170395 0.05463853478431702,-0.7991251349449158 l-0.5528491735458374,0.5993736907839775 0.41351739317178726,-0.4685823991894722 l0.23608652874827385,0.061933533288538456 -0.00017626975022722036,0.5092193558812141 l-0.14765262603759766,-5.9028443502029404e-05 0.1795070804655552,-0.3423197567462921 l-0.0002876950202335138,0.26578716933727264 -0.18897011876106262,-0.28733404353260994 l0.31003767624497414,-0.6983010470867157 -0.4902553930878639,0.6882139295339584 l0.17088966444134712,-0.9184467047452927 m-0.84083192050457,2.0211803913116455 l0.00032146868761628866,0.9059180319309235 -1.1646276712417603,8.687833542353474e-05 l7.851792361179832e-05,0.04704833962023258 0.21548554301261902,0.34331414848566055 l1.2049464136362076,-8.089831680990756e-05 2.2155626118183136,-1.6039927303791046 l-0.8946643024682999,1.2045298516750336 0.8327168971300125,-9.606409548723605e-05 l-0.7813797891139984,-0.7450505346059799 -0.24797478690743446,-0.0002416818642814178 l0.21635381504893303,-0.10304393246769905 0.15004826709628105,-0.43991077691316605 l0.6597653031349182,0.21730687469244003 -0.00015299165170290507,0.2550741098821163 l0.7313166558742523,-0.6696909666061401 -0.6394569575786591,0.8407828211784363 l0.19163154065608978,0.22895868867635727 -0.16768060624599457,-0.31145865097641945 l0.4683258756995201,-0.00018969964003190398 0.5773146077990532,-0.00022865920982440002 l-0.0011482045374577865,-0.21065806970000267 -0.12029828503727913,0.22516701370477676 l0.23493610322475433,0.26295673102140427 -0.23011274635791779,2.3693428374826908e-05 l-0.16959622502326965,0.22378545254468918 0.4090707004070282,-0.5599628761410713 l-0.00013941883480583783,-0.09550334885716438 0.07127831690013409,0.09584961459040642 l0.21419115364551544,-0.6683678925037384 -0.44181402772665024,-1.7314190472461632e-05 l-0.6077070906758308,-0.5204582586884499 0.2813963033258915,-0.00016020310795283876 l0.10605144314467907,-0.3687071055173874 0.035939591471105814,-0.0002750918793026358 l-8.128016588671017e-06,0.4755576327443123 0.039829486049711704,-9.174119441013318e-05 l-0.01290090149268508,-0.17117943614721298 0.28249338269233704,-0.5432865768671036 l-0.28088144958019257,-0.00015067513231770135 -0.008598269196227193,0.449773371219635 l0.016002943739295006,0.6031410396099091 0.4889153689146042,-1.1441751439633663e-05 l1.4681775155622745e-05,-0.2930847182869911 -0.00022168254872667603,-0.2585211768746376 l-0.337633341550827,0.21934354677796364 -0.13491643592715263,-0.5046224966645241 l-0.0002413707807136234,0.08124226704239845 -0.060472520999610424,-0.47617334872484207 l-0.08970549330115318,0.21762214601039886 0.3287867456674576,-0.4051118716597557 m10.52568793296814,-5.242496728897095 l-0.0004050683492096141,1.6427476704120636 0.680391788482666,3.1315547227859497 l0.7285720854997635,0.23568863049149513 0.9191058576107025,-0.88971346616745 l-0.0003757228114409372,-1.8925148248672485 -1.1045512557029724,-1.7294543981552124 l0.1787715032696724,1.3705062866210938 1.5584571659564972,-0.6276591122150421 l-0.5984681844711304,-1.1608460545539856 -1.1185745149850845,0.00021164625650271773 l0.7023683935403824,1.3700047135353088 0.3220677003264427,-1.4558757841587067 l-0.6337473541498184,-0.6012357026338577 -0.36024056375026703,0.1788860745728016 l0.32658476382493973,2.531268819438992e-05 -0.4725423827767372,1.331593245267868 l0.3456638753414154,0.23062366992235184 m7.0206379890441895,4.607840180397034 l-0.4964859411120415,-0.0001987800351344049 -0.00010390244824520778,1.19819276034832 l0.8361770212650299,0.2287721447646618 1.295057088136673,1.4615337550640106 l2.02590212225914,0.23284891620278358 5.1467400226101745e-05,0.07122527807950974 l0.3722039982676506,-0.22667048498988152 1.0785426199436188,0.21045004948973656 l1.9323146343231201,-1.1949636042118073 -1.1376136541366577,0.925835520029068 l-9.972096449928358e-05,0.9718528389930725 1.3974475860595703,0.6011110171675682 l0.8798868954181671,-0.23624597117304802 0.23064685985445976,-1.7743976414203644 l-0.3482462093234062,-0.6421267241239548 -0.8851932734251022,-0.00027025958843296394 l-0.8947184681892395,1.4341232180595398 -0.00023109991161618382,2.0278190076351166 l1.3318483531475067,1.1165546625852585 1.6703727841377258,-0.00024040509742917493 l0.6584567576646805,-0.4372399300336838 -8.598837666795589e-05,-1.1002930253744125 l-0.8054879307746887,-0.5591783300042152 -0.00027651607524603605,0.46110164374113083 l1.1199051886796951,0.7342780381441116 m33.00925450232057,-13.709558299799482 l4.115425646305084,0.01848340849392116 6.369813680648804,-4.027890264987946 l1.2783139944076538,-1.460856944322586 4.893485605716705,-3.2696089148521423 l1.7762359976768494,-0.37917163223028183 0.5531246587634087,0.8024908602237701 l0.42319275438785553,2.1322107315063477 -0.33678382635116577,3.476075232028961 l-1.2753477692604065,2.2267888486385345 -3.9976292848587036,2.503323554992676 l-7.1620941162109375,3.354472517967224 -4.712629914283752,1.8030837178230286 l-1.8067461252212524,2.4899254739284515 0.13854792341589928,1.3080449402332306 l4.825584590435028,1.5014559030532837 5.219205617904663,-0.4385822266340256 l5.718269348144531,-1.2938684225082397 5.48405647277832,-2.175430655479431 l6.062452793121338,-1.20682992041111 9.806133508682251,0.15671666711568832 l4.940274953842163,1.8871164321899414 3.6729243397712708,3.1393396854400635 l7.08748996257782,0.8107392489910126 10.104795694351196,0.7148356735706329 l3.3221828937530518,-0.5555234476923943 2.9676654934883118,-1.681029498577118 l1.874835342168808,-2.0307214558124542 0.695946216583252,-1.9974145293235779 l-0.00025290277335443534,-3.9814290404319763 -1.1471736431121826,-1.8426315486431122 l-3.6576971411705017,-2.6009416580200195 -2.3932301998138428,-1.106342375278473 l-7.78413712978363,0.0003091118560405448 -10.756137371063232,1.0527528822422028 l-1.3220535218715668,0.26698436588048935 -3.388131856918335,-0.14194306917488575 l-6.8458110094070435,-1.9165347516536713 -6.1896950006484985,0.04551813472062349 l-4.95453804731369,0.5851899832487106 -2.1339967846870422,-0.00019777784473262727 l-4.1242870688438416,0.30303165316581726 -0.9339325129985809,0.6110985577106476 m2.0740631222724915,7.2356754541397095 l-0.2350384183228016,1.3182738423347473 -0.0004860421904595569,2.2823351621627808 l-1.167132779955864,2.690831422805786 -4.761705100536346,6.555558443069458 l-9.19214198802365e-05,6.027007102966309 0.7007443159818649,0.6961709260940552 l4.501201808452606,1.1744999140501022 3.8065949082374573,-2.1406058967113495 l2.582883834838867,-3.7415140867233276 2.1300408244132996,-5.046313405036926 l-0.0001433420129615115,-6.001940369606018 0.7244016975164413,-1.884126365184784 m6.256601810455322,0.967695564031601 l-1.262456625699997,5.356810092926025 0.4238522797822952,7.980371117591858 l0.490315705537796,2.678487002849579 1.6450299322605133,2.406189739704132 l1.1131221801042557,0.5901163071393967 1.595386564731598,0.00023444401449523866 l1.4303813874721527,-0.714493989944458 1.519266813993454,-2.370375245809555 l1.5105293691158295,-6.116300821304321 0.270370002835989,-8.524219393730164 l-0.8625943213701248,-3.37863951921463 m18.414149284362793,3.6903759837150574 l-2.27405846118927,6.061768531799316 -0.12757047079503536,4.20696496963501 l0.7481435686349869,2.1135102212429047 2.6059603691101074,2.10192933678627 l3.0168715119361877,-1.1384562402963638 1.523372083902359,-1.8964004516601562 l1.044841855764389,-2.5402015447616577 -0.8513609319925308,-8.983649611473083 l-0.65639428794384,-1.247134655714035 m5.587387681007385,-0.3196756914258003 l0.00016769587091403082,7.315123081207275 0.7818948477506638,2.8134220838546753 l1.4657333493232727,2.6315349340438843 1.9429911673069,1.580623984336853 l2.076369673013687,0.16240183264017105 2.4331241846084595,-2.6860633492469788 l1.3823214173316956,-4.020580351352692 0.25249917060136795,-4.898211658000946 l-1.5363237261772156,-3.6261188983917236 -1.6040340065956116,-1.4603233337402344 m-44.55183029174805,-10.789144039154053 l-0.4119330272078514,0.4959668219089508 -0.3206523135304451,1.2286890298128128 l1.655530333518982,-0.16434881836175919 0.9250443428754807,-0.5398816242814064 l0.2548620104789734,-0.8954169601202011 -1.7086955904960632,-0.1160390954464674 l-0.36986663937568665,0.9594763070344925 1.4205089211463928,0.11076201684772968 l-0.00042548810597509146,-1.3726656138896942 -1.3443535566329956,0.25146936997771263 l-0.00021956420823698863,1.0027743875980377 m3.8412201404571533,1.3442544639110565 l-1.8492071330547333,0.5846114829182625 0.24062825366854668,2.065778970718384 l0.8064746856689453,0.4435165971517563 1.806865632534027,-1.9035404920578003 l-1.284724473953247,-1.157681941986084 -0.6079377979040146,0.14858171343803406 l-0.004850202531088144,1.301759034395218 1.3483740389347076,0.00010076515536638908 m-5.502557158470154,3.1282928586006165 l1.325681358575821,0.00021823347196914256 0.6327401846647263,-0.48796866089105606 l-0.7510115951299667,0.9079675376415253 0.7857724279165268,-0.5328093469142914 l0.318852961063385,0.00019696910385391675 -1.0917194932699203,0.06126369349658489 l-0.00023538432287750766,0.5431357026100159 m-14.065631628036499,-1.74911230802536 l0.7963079959154129,0.3181831166148186 3.9345040917396545,1.8194656074047089 l-0.3942442685365677,0.8733133971691132 -0.39327289909124374,-2.0573118035827065e-05 l-0.33276133239269257,-0.4836668074131012 1.4610794186592102,0.024116672575473785 l1.2163037061691284,-0.19377697259187698 0.6299370527267456,-0.974501222372055 l0.23064495995640755,0.03205916611477733 -0.42025454342365265,1.2428399175405502 l-3.555710017681122,0.12324793264269829 -0.777023509144783,-0.8365119248628616 l2.3633739352226257,-2.6747513857117156e-05 0.2366115152835846,-0.21618343889713287 l-2.8359854221343994,-0.6296814233064651 0.25620047003030777,0.22332748398184776 l1.5254166722297668,-0.257524810731411 -0.49569182097911835,0.1079079695045948 l-0.881873220205307,-8.87828446138883e-05 0.8008689433336258,-0.3945905342698097 l-0.7448333501815796,0.25836750864982605 -0.0758203025907278,0.0001549416992929764 l0.7902341336011887,-9.945456440618727e-05 -0.32770760357379913,0.3947453573346138 l-0.3724820911884308,0.24078669026494026 -0.8477649092674255,-0.4361214116215706 l1.3650256395339966,-0.34233372658491135 -0.5595657601952553,0.8885571360588074 l-0.07376565597951412,0.23537635803222656 0.45730113983154297,-1.7278790664931876e-06 l0.0064832717180252075,-0.43817102909088135 0.5315751954913139,-0.19033100455999374 l-0.41952870786190033,1.0022760182619095 -0.0920904241502285,0.22784370929002762 l0.7838720828294754,-0.8666326105594635 -0.8675733208656311,1.2275868357392028e-05 l0.5939072743058205,0.00011693447049765382 -0.00028358881536405534,-0.12415675446391106 l0.3784928098320961,-0.8880928158760071 -0.3270413354039192,0.8244225382804871 l-0.5104552954435349,0.000222042144741863 0.31249772757291794,-0.6833355873823166 l0.2977322228252888,6.995837793510873e-05 -0.21821120753884315,0.8629587292671204 l0.15861459076404572,0.22698678076267242 -0.022830732632428408,-0.9141550213098526 l0.11405350640416145,0.6663863360881805 0.005934741930104792,-0.40445949882268906 l0.34990299493074417,-0.00020951905753463507 0.4053845629096031,0.22950360551476479 l-0.5476014316082001,0.225345678627491 -0.0777176022529602,-0.5899730324745178 l0.5798676982522011,-4.284961960365763e-05 -0.00021978208678774536,0.08152240887284279 l0.15414617955684662,0.12791122309863567 0.10891084559261799,-0.6530469655990601 l0.08074670098721981,-0.00013013434909225907 0.23436082527041435,-0.13766293413937092 l-0.9615322202444077,0.7723388820886612 -0.0002601617052278016,-0.42029857635498047 l0.6316935271024704,-0.27581173926591873 -1.3973221939522773e-05,0.21530628204345703 l-0.7462825626134872,0.23904386907815933 -0.09324119426310062,-0.16438988968729973 l-9.384380632582179e-06,-0.4997299239039421 1.0279545187950134,-0.27288787066936493 l-0.4590483009815216,0.8210374414920807 -0.609595999121666,-0.0001475742374168476 l0.8298955857753754,-0.8981145918369293 -0.004412529815454036,-0.0001423008416168159 l0.0001992533179873135,1.260506808757782 -0.5426810309290886,0.00010465148079674691 l0.4067007079720497,-1.5485382080078125 0.17135033383965492,0.9891986846923828 l-0.05570141598582268,0.0002587723975011613 0.03907574340701103,-0.5324342846870422 l0.2802558057010174,-2.4391924853262026e-05 -0.00031031318940222263,0.29250727966427803 l6.114833468018332e-05,0.23320993408560753 -0.0940930936485529,0.12323953211307526 m1.9364199042320251,0.5414985492825508 l3.8144460320472717,0.11888903565704823 0.7154395431280136,0.43928109109401703 l0.022671420592814684,1.482129544019699 -1.4418874680995941,-0.00012319326742726844 l-1.5854239463806152,0.00033904936572071165 -0.6862954795360565,-0.6498619168996811 l0.14498570933938026,-0.7272965461015701 m22.144441604614258,1.4667229354381561 l-0.0004207816527923569,0.7669153809547424 -0.28490306809544563,2.207186073064804 l1.439383178949356,1.7430505156517029 1.325991302728653,-2.3184904662798544e-07 l1.2910537421703339,-1.1558900773525238 2.1637683857989032e-05,-1.990925818681717 m0.23940624669194221,0.6843215972185135 l0.9744996577501297,0.00020050443708896637 3.948535919189453,0.26465587317943573 l0.00039577156712766737,-0.41580166667699814 -1.871139407157898,-1.9560107588768005 l-1.1968035995960236,-0.47051966190338135 -1.9935184717178345,0.8493556082248688 l-0.5794414505362511,1.1452097445726395 0.38377247750759125,0.7355237752199173 l3.435872495174408,0.00022474750949186273 1.878434270620346,-0.9897814691066742 l0.6622370332479477,-1.237286850810051 -2.472311705350876,-0.2918784134089947 l-2.0861902832984924,1.142338141798973 -1.5808998048305511,1.4959578216075897 l-0.00022086920580477454,1.2148146331310272 1.2469010055065155,1.1407853662967682 l2.0180290937423706,0.46257589012384415 1.7813099920749664,-0.47888316214084625 l0.23029455915093422,-0.5884795263409615 -0.10634598322212696,-1.5976883471012115 l-2.599846124649048,-0.7726404070854187 -1.565924882888794,0.7712991535663605 l-0.5079293251037598,1.614396870136261 0.7801321893930435,0.9885349869728088 l2.702265977859497,0.00017436774214729667 -1.0864349454641342,-1.0389772802591324 l-1.8102972209453583,-0.030567406211048365 -0.6386497616767883,2.4494946002960205 l0.225602425634861,2.2983552515506744 1.9301243126392365,1.7192502319812775 l6.428466439247131,0.6565903127193451 m-28.071792125701904,-6.134974956512451 l-0.15525242313742638,0.3503809869289398 3.016936779022217,1.8690551817417145 l3.571176826953888,-0.11342431418597698 1.7779578268527985,-0.9191881120204926 m48.93001133203654,-12.702995996914606 l4.0676626563072205,-0.0013817002763971686 6.429211497306824,-3.2456564903259277 l2.9192033410072327,-2.6232948899269104 3.0568036437034607,-2.0215053856372833 l1.4956799149513245,-0.33960796892642975 0.706108808517456,0.5612649768590927 l0.3318069502711296,0.7931511849164963 -0.6869050860404968,1.9120663404464722 l-4.37297135591507,5.29151976108551 -2.9536041617393494,2.258848547935486 l-4.6343231201171875,1.2834317982196808 -1.864084005355835,-0.44354405254125595 l0.6095979362726212,-4.7107648849487305 2.797287404537201,-3.5896524786949158 l5.720646977424622,-2.080703228712082 14.466683864593506,-1.2938252091407776 l6.582297682762146,1.218232661485672 3.1462454795837402,2.9560980200767517 l0.29025280848145485,4.4172292947769165 -3.2367998361587524,0.00020706391296698712 l-4.4540804624557495,-4.058650434017181 -2.1978767216205597,-6.866942644119263 l1.5641619265079498,-4.3935441970825195 2.9359909892082214,-1.6472595930099487 l13.07416319847107,0.00027556247005122714 5.717173218727112,3.237071931362152 l3.555731773376465,3.216923475265503 3.1939303874969482,5.405821204185486 l0.3748779743909836,2.9091784358024597 0.0002897688318626024,3.221443295478821 l-0.8620471507310867,1.114237830042839 -2.714625298976898,0.27155106887221336 l-2.393582761287689,-2.0189888775348663 -0.45837927609682083,-1.9296413660049438 l4.3343353271484375,-2.1387070417404175 7.009028196334839,-0.5619524046778679 l5.51712691783905,7.925452337076422e-05 1.0765611380338669,1.6584376990795135 l1.412641555070877,4.507038593292236 -0.8765796571969986,5.702436566352844 l-1.8430471420288086,1.9315128028392792 -5.329992175102234,2.3558521270751953 l-5.761732459068298,-0.00012312021681282204 -1.2347876280546188,-1.1927851289510727 l-0.08528036996722221,-1.2033799290657043 2.2406044602394104,0.0003335409564897418 l3.4010082483291626,1.1797169595956802 1.2348723411560059,1.4249983429908752 l0.5934838578104973,2.208593636751175 -1.0163938254117966,3.828258216381073 l-2.516184449195862,3.6609292030334473 -3.839045763015747,2.5696438550949097 l-5.4030585289001465,-5.149807293491904e-05 -5.0995224714279175,-2.4672751128673553 l-3.785695731639862,-2.581494152545929 -0.49296483397483826,-1.408357173204422 l0.0022439539316110313,0.604359358549118 -1.175457090139389,4.411593973636627 l-4.2485955357551575,1.9851873815059662 -10.021430253982544,0.5668604001402855 l-4.940671920776367,-1.2188737094402313 -4.3260496854782104,-2.670148015022278 l-1.4976917207241058,-1.8012090027332306 -0.9222964942455292,-5.705512762069702 l0.2732623927295208,-1.4335766434669495 1.4187528192996979,-1.4285565912723541 l1.6739572584629059,0.0004267085387255065 2.030690759420395,2.273131161928177 l-8.750273585319519,3.8012826442718506 -4.0961456298828125,0.7623957097530365 l-4.410316646099091,-1.6329964995384216 -6.508461833000183,-6.4058732986450195 l-0.761786550283432,-2.1889762580394745 -0.00013186243450036272,-2.7043339610099792 l5.403897166252136,-6.1844247579574585 0.9944558888673782,-0.0844061840325594 l1.3750152289867401,0.7508386671543121 -0.0002373976712988224,0.5795389786362648 l-8.557479304727167e-05,1.5617527067661285 -1.706853061914444,2.196507304906845 l-3.144967257976532,-0.7227075845003128 -2.0759418606758118,-2.370891273021698 l-1.2103171646595001,-7.672235369682312 1.820702701807022,-2.7329057455062866 l3.182016611099243,9.248879905499052e-05 2.995738387107849,1.4196495711803436 m-9.181022047996521,11.142030954360962 l-2.810860574245453,-2.5492945313453674 -2.5949081778526306,-4.632236063480377 l0.371810719370842,-2.5267109274864197 0.3702564537525177,-0.9606323391199112 l1.2848903238773346,-1.040487140417099 0.8593666553497314,0.0005467538721859455 l2.1385088562965393,1.20991550385952 1.6252703964710236,2.7748718857765198 l-0.00018790267859003507,1.2404455244541168 m0.9539369493722916,-1.026434674859047 l1.7104992270469666,-0.7954278588294983 -0.21770495921373367,1.103953942656517 l-1.4814509451389313,2.402440160512924 -1.2712201476097107,4.854233793594176e-05 m0.9102059155702591,0.0007700432615820318 l1.3677281141281128,-0.12544757686555386 0.35016074776649475,-1.0766064375638962 l0.7270821928977966,-1.0547440751906834e-05 -0.6327813118696213,0.9948468953371048 l-1.1943301558494568,0.2647597901523113 0.6716455519199371,-1.1066819727420807 m-4.037057459354401,2.9794690012931824 l0.9720569103956223,-7.805397217452992e-05 0.0811990536749363,1.52274951338768 l-1.06178879737854,-0.00016932499420363456 0.036229551769793034,-1.0078410804271698 l0.994575172662735,-6.271240636124276e-05 -0.00031790616048965603,-0.27407649904489517 l0.14203829690814018,-0.37919681519269943 -0.6489650160074234,0.00027298998247715645 l0.49322690814733505,0.5311070010066032 -0.4566194489598274,0.0003799434853135608 l-9.488770956522785e-05,-0.5983351916074753 0.004675807140301913,0.14926422387361526 l-0.01920777023769915,0.00010659449799277354 -0.0001880764466477558,0.1832745037972927 l0.28382930904626846,-8.764639574110333e-06 -0.0003405732786632143,-0.1967882551252842 l0.08560936897993088,0.25581300258636475 -0.00015078830983838998,-0.014803616795688868 l-0.0001678408261795994,0.08452910929918289 -3.0960973163018934e-05,-0.8948424458503723 l0.46461474150419235,-0.7180752605199814 -0.009115917491726577,0.00023509672246291302 l0.0001556799907120876,1.2177761644124985 -0.17390795052051544,-0.5888310074806213 l0.8468078821897507,8.967584108177107e-05 0.41983913630247116,0.6091722473502159 l-1.296992152929306,1.8584736380944378e-05 0.29899653047323227,-1.0646480321884155 l0.13158130459487438,0.29129574075341225 -0.6644603610038757,4.7413295760634355e-05 l0.24507150053977966,-0.19050046801567078 -0.00017852007658802904,0.48933763056993484 l-0.0883279275149107,-0.13495509512722492 -0.23471908643841743,-0.3169773891568184 l-0.0001729198447719682,-1.120174452662468 0.1322064083069563,0.3457310423254967 l-0.00027995694836135954,1.1461441218852997 0.08276235312223434,-4.51969435744104e-05 l0.2445928193628788,-0.07962523959577084 -0.0002534906889195554,-0.06435269024223089 l-0.1065521314740181,-0.4318675398826599 -0.00015143906239245553,-0.43328769505023956 m-2.4136988818645477,2.4369530379772186 l0.9025376290082932,0.2553913742303848 m5.069591403007507,-7.54334568977356 l-0.2683462016284466,3.936912417411804 1.0973478853702545,0.7815833389759064 l1.7021483182907104,-1.8033026158809662 -0.0001267472453037044,-1.9804464280605316 l-0.5096857622265816,-0.4797380045056343 m-10.85259199142456,11.47222638130188 l2.032001167535782,-0.6585834920406342 2.5734251737594604,-2.5199544429779053 l5.241053104400635,-3.548935353755951 0.3183237090706825,-1.798163652420044 l2.1423377096652985,-2.0118549466133118 m12.587311267852783,21.554982662200928 l-1.7622451484203339,1.5061287581920624 -2.268870174884796,5.609868168830872 l-1.5508341789245605,3.545827567577362 -0.00010435443073220085,2.8059229254722595 l-0.6308792531490326,1.0123908519744873 -0.6532502919435501,0.0003192972144461237 l0.26583701372146606,-0.00022771533622290008 0.6057358905673027,1.0086488723754883 l1.634281873703003,0.00047917754272930324 0.0002915431650762912,-1.1380629986524582 l0.959237590432167,-3.3921977877616882 2.090117037296295,-5.820513963699341 m3.741464912891388,0.4042256250977516 l0.22690191864967346,3.289983868598938 1.4571607112884521,2.2729527950286865 l-0.30579620972275734,1.8280565738677979 0.5350637808442116,4.321770668029785 l0.41291873902082443,0.5614740028977394 1.1080185323953629,-0.0002651212162163574 l0.55252306163311,-1.3908453285694122 -0.049561262130737305,-3.7593522667884827 l0.44667497277259827,-0.4357946291565895 -1.7489580810070038,-5.646838545799255 m36.55200481414795,1.6899432241916656 l-0.867229774594307,2.0222575962543488 -1.6440729796886444,7.188386917114258 l0.6082379817962646,1.9960692524909973 1.1284411698579788,0.9970464557409286 l2.6608964800834656,-0.6891431659460068 0.4879995808005333,-0.9325072914361954 l0.3375454246997833,-1.755492389202118 0.0002271866651426535,-5.454584956169128 m4.969474375247955,-2.694682478904724 l0.6036943197250366,4.835543632507324 0.6476269662380219,1.0297178477048874 l1.0455050319433212,0.5520389229059219 1.2967222929000854,0.005462438566610217 l1.3749796152114868,-2.167706787586212 0.24405034258961678,-3.8887012004852295 l-1.2115418910980225,-2.2530607879161835 m-72.29663372039795,-25.182924270629883 l-1.2438332289457321,0.24124408140778542 -1.4216279983520508,1.485050916671753 l-0.3166159614920616,2.4662642180919647 1.5499532222747803,1.2095225602388382 l1.6027532517910004,-0.0003888285209541209 0.0006707129796268418,0.060718683525919914 l0.5458172038197517,-0.04245204385370016 1.1275699734687805,-1.0421359539031982 l-0.14158801175653934,-4.418770372867584 -0.6762039661407471,-0.9462200850248337 m-5.5382537841796875,6.424868106842041 l3.1940314173698425,-0.00011706153600243852 -5.9349831644794904e-05,0.6134862080216408 l-0.6146809458732605,0.2291465923190117 -2.763662040233612,0.0001308161245106021 l-0.5927381291985512,-0.6507019698619843 0.9713908284902573,0.00024559754820074886 m87.20647779628052,-4.308002167061602 l4.287537038326263,0.04939436446875334 6.061734557151794,-3.286716341972351 l2.394488602876663,-0.6985384970903397 2.4723108112812042,-2.02176496386528 l1.419692188501358,-1.7544960975646973 3.0945897102355957,-1.5076091885566711 l1.1050673574209213,-1.4825576543807983 0.8714590221643448,-3.7499061226844788 l0.29709650203585625,-0.5569886788725853 -10.32122015953064,3.954908847808838 l-2.31284961104393,5.281757712364197 -1.7045068740844727,1.2698304653167725 l-4.065258204936981,1.6230939328670502 -2.055138349533081,1.6048359870910645 l-0.7663094997406006,2.44745671749115 -0.00028331678549875505,2.738654315471649 l2.8693541884422302,2.3164646327495575 6.678721904754639,1.6669481992721558 l4.227257668972015,-0.16247618943452835 11.616131067276001,-0.0005898010203964077 l7.7085041999816895,0.46740978956222534 -2.129567414522171,-4.229388650855981e-05 l0.46884216368198395,-0.7819756120443344 1.082213893532753,-1.7082655429840088 l23.31477165222168,-3.436559736728668 5.5174320936203,-0.0005471372060128488 l0.9396004676818848,0.4495929554104805 3.3604902029037476,2.7293026447296143 l2.9040780663490295,3.2752108573913574 0.7218196988105774,2.186676412820816 l-0.00040687318687560037,8.609480857849121 -1.3156656920909882,2.17134028673172 l-2.778993248939514,1.9602066278457642 0.0004887137038167566,-2.2578164935112 l2.3676079511642456,-1.0584577172994614 -0.49959786236286163,-0.3451637178659439 l-8.013347387313843,-1.1200594902038574 2.1777263283729553,-2.060452103614807 l2.9810678958892822,2.992027997970581 3.4656333923339844,6.111799478530884 l0.0008420921949436888,2.81058132648468 -2.0520800352096558,4.773425757884979 l-2.507091760635376,0.2515539899468422 -0.55937759578228,-1.1071538925170898 l-0.02083177212625742,-2.382410019636154 -2.491449862718582,-7.056142091751099 l-2.2087320685386658,-5.081104636192322 -12.984834909439087,1.3410170376300812 l-5.314739346504211,0.2704327926039696 -12.45124101638794,0.20008957013487816 l-1.0945069789886475,0.39206918329000473 -1.2058400362730026,2.0522059500217438 l-1.5085689723491669,0.7247084379196167 -1.8265460431575775,8.928727766033262e-05 l-1.7886359989643097,1.0712438076734543 -1.9414889812469482,3.7684693932533264 l-2.3739443719387054,6.660468578338623 -0.7880012691020966,0.8336805552244186 l-1.8168286979198456,0.19952623173594475 -2.4391674995422363,-0.8667780458927155 l-0.9752754867076874,-1.4870527386665344 -0.014534341171383858,-1.5463201701641083 l1.691015511751175,-1.1793223023414612 1.3958075642585754,-11.501915454864502 l1.4467459917068481,-3.1828713417053223 0.0005978835179121234,-0.006816678796894848 l-2.6672831177711487,0.449342280626297 -8.751646876335144,-0.7810434699058533 l-6.79232656955719,-5.368752479553223 -1.4296315610408783,-2.6475071907043457 l0.03303315723314881,-1.501103788614273 0.7142025232315063,-0.959259420633316 l2.301550954580307,-1.0531240701675415 2.423330694437027,-2.687046229839325 l-1.6204135119915009,0.36946047097444534 0.7720828056335449,-3.3593660593032837 l0.8546385169029236,-0.6810466945171356 m0.6241258978843689,10.216360092163086 l3.5899868607521057,1.754053384065628 4.241384565830231,0.8027350157499313 l2.6977553963661194,1.8429961800575256 5.332789421081543,2.6751524209976196 m-9.078327417373657,-11.717363595962524 l-0.1636728085577488,0.5535044521093369 0.7327627390623093,0.7853815704584122 l1.1749812215566635,-1.3929761946201324 -8.325475391757209e-05,-0.5072535201907158 l-1.4373986423015594,0.0002456113179505337 -0.5543291568756104,0.2844781242311001 l0.19303584471344948,0.9729014337062836 1.3145650923252106,-8.45634986035293e-05 l0.2631007879972458,-1.125432327389717 -1.57753586769104,0.00012947357390657999 l-0.4692266136407852,1.2992879748344421 1.8820738792419434,1.1426732689142227 m33.06540489196777,17.204214334487915 l0.00016180936654563993,0.9909558296203613 -2.2295916080474854,5.362178683280945 l-2.230987995862961,3.89159232378006 -4.966935217380524,1.1294406652450562 l-2.886151969432831,-2.120448648929596 -0.6613180786371231,-1.1368269473314285 l0.22058773785829544,-1.2830954790115356 2.3129068315029144,-0.5751313641667366 m-2.4816957116127014,0.0034526476520113647 l-1.7501363158226013,2.1398699283599854 -2.45493546128273,0.13408430851995945 l-0.8383782207965851,-2.112879455089569 7.387655386992265e-05,-1.4473196864128113 l1.30086749792099,-1.2824808061122894 m-22.93341636657715,-11.042778491973877 l7.221489340736298e-05,2.026956081390381 6.25923216342926,-3.5052525997161865 l-3.370960056781769,2.202022224664688 -3.8465499877929688,1.642531156539917 l0.261752437800169,-1.2675563991069794 -0.6316495686769485,-0.33617354929447174 m4.593775570392609,-13.523372411727905 l0.00047972731408663094,3.7784767150878906 2.933667302131653,-2.867797017097473 l-0.9625504910945892,4.300895035266876 0.37129294127225876,-1.882716566324234 l0.2214011549949646,1.3908609747886658 -0.8260177075862885,1.561410129070282 l-0.3238200768828392,-8.961305866250768e-05 -0.00314174045342952,-5.371490716934204 l-0.9167449176311493,3.820522427558899 0.3200792893767357,-0.9909868985414505 l1.1165253072977066,-5.563414692878723 5.243539214134216,7.11908221244812 l0.16374187543988228,-2.536448836326599 0.6989021599292755,-0.8261057734489441 l1.504000574350357,2.2585853934288025 2.3123291157389758e-05,-0.021424388978630304 l0.556444562971592,2.8835195302963257 -0.07071027532219887,-1.2644456326961517 m0.2667437307536602,-8.866180777549744 l-0.24045122787356377,0.6504925340414047 -0.7947582751512527,0.2641797438263893 l0.00017603664673515595,-0.841430053114891 -0.36901652812957764,0.2920263074338436 l-4.479912604438141e-05,-0.4603372886776924 0.2759515680372715,1.0526009649038315 l-0.14883807860314846,-1.0774578899145126 0.7281532138586044,0.15900572761893272 l-1.2650735676288605,0.0003834244853351265 -0.00013642716112372,-0.42738158255815506 l0.9118539839982986,-0.00010467761057952885 0.34001726657152176,-0.37027452141046524 l-0.23128567263484,0.2702498994767666 0.2595971152186394,0.7113225013017654 l-0.1735733076930046,-0.43394338339567184 -0.3472379595041275,-0.25483235716819763 l-9.240181498171296e-05,-0.3133257105946541 -0.00012062787391187157,1.6216199100017548 l-0.4036515951156616,0.23372309282422066 0.6874825805425644,-1.392555981874466 l0.9171844273805618,-0.18228236585855484 -7.796701538609341e-05,2.0323795080184937 m6.533343195915222,-3.4029996395111084 l-0.8755107969045639,-0.21450137719511986 -1.8858451085179695e-05,-0.23963142186403275 l-0.6268149614334106,0.24226099252700806 0.5776293948292732,-0.7808182388544083 l1.3825017213821411,0.6169407069683075 0.2425817959010601,-0.220720823854208 l-1.467442512512207,0.5520369112491608 0.268339067697525,-0.7357259094715118 l-0.6269390881061554,-0.026429567951709032 1.6353145241737366,1.025945395231247 m3.80628764629364,1.7554867267608643 l0.5095362663269043,-1.1728636175394058 1.409817487001419,-0.11926931329071522 l0.2689686417579651,-0.0411413935944438 0.25680985301733017,0.6455294787883759 l-0.953950360417366,1.1038122326135635 -1.1271824687719345,-4.186931619187817e-05 l-0.00021502963136299513,-0.9082142263650894 0.6818783283233643,-0.7215521484613419 l0.001720614091027528,1.025567576289177 0.38515374064445496,-0.8122308552265167 l-0.2968384698033333,0.5249370634555817 -0.4321379214525223,-0.23594865575432777 l0.203377828001976,0.029384621884673834 0.2606227807700634,0.5021276697516441 l-0.2683127671480179,-8.1107846199302e-05 0.2555660158395767,-1.0235974937677383 l-0.6888643652200699,0.8561286330223083 m3.5799309611320496,4.090472459793091 l0.4564947262406349,0.1680971123278141 1.7006753385066986,0.00011080518561357167 l0.2384236827492714,0.9227533638477325 -0.4208071529865265,-1.0943789035081863 l0.654221922159195,8.515445415469003e-06 -5.825011612614617e-05,1.5622863173484802 m-8.697242736816406,-1.8622657656669617 l2.229280173778534,0.0005517586396308616 -1.1192136257886887,0.5898254737257957 l0.07104794960469007,1.2319596856832504 -0.3842768445611,-1.2242254614830017 l0.15113258734345436,-0.1774398237466812 0.3085704334080219,0.015451309736818075 l-0.07657107897102833,0.8492658287286758 -0.00019642220649984665,-0.7370120286941528 l-0.07126338314265013,-0.7045319676399231 m-1.0168486088514328,20.87718963623047 l0.013610123423859477,2.1088314056396484 0.18231306225061417,0.27209991589188576 l0.00019673578208312392,0.5060331150889397 -1.161947026848793,2.803337275981903 l3.5160160064697266,-0.8777372539043427 0.2189585380256176,0.14200464822351933 l0.5540057271718979,0.20058905705809593 0.0001872729444585275,2.44548499584198 l-0.5762211605906487,0.2718324214220047 0.47159548848867416,0.509992241859436 m25.92404842376709,-6.299513578414917 l-0.13396387919783592,0.269711147993803 1.3879460096359253,0.07188689429312944 l0.7399655878543854,-0.20387042313814163 -7.58508758735843e-05,2.400655150413513 l1.5258632600307465,1.551220864057541 1.3520333170890808,-5.061696356278844e-05 l-5.0255430323886685e-05,-0.33493686467409134 -0.7361142337322235,2.411936968564987 l0.00012944750778842717,0.8517450839281082 2.669508159160614,-0.3507251664996147 l0.9484496712684631,-1.368304193019867 0.00019510664060362615,0.5798546969890594 l-0.19643740728497505,0.3620082139968872 3.1330686807632446,0.04238017834722996 l0.2649632468819618,-1.4516200125217438 m5.452571437643883,-24.208096151947984 l4.248162508010864,0.08221207186579704 4.817622005939484,-4.254973232746124 l8.480373620986938,-5.067937970161438 0.28081564232707024,3.6044225096702576 l0.00037152713048271835,0.17504679039120674 0.5096491798758507,0.49036964774131775 l-0.06735916249454021,1.1084980517625809 -0.7023978233337402,1.463833600282669 l0.10382254607975483,1.7777948081493378 -0.537971742451191,0.5935371667146683 l-1.8142737448215485,-0.36439787596464157 -7.546271085739136,-2.923727035522461 l-0.7153612375259399,0.7255523651838303 -0.5773970857262611,1.543257236480713 l-7.185752082250474e-07,3.9327967166900635 0.9831392019987106,0.3073912300169468 l35.52164316177368,0.00015420542695210315 m9.699077010154724,0.2638426423072815 l5.654202699661255,-2.1516118943691254 1.486085206270218,-0.18255488947033882 l1.6575239598751068,0.28662459924817085 0.8162657171487808,1.132202222943306 l-0.04465654492378235,2.992553412914276 -1.7614950239658356,3.193420171737671 l-4.13015753030777,4.604328870773315 m-55.43732166290283,-12.000731229782104 l0.2586258202791214,6.212263703346252 3.0081042647361755,4.200653433799744 l2.761387825012207,1.5084807574748993 3.5126113891601562,0.7668351382017136 l8.26295256614685,2.8455400466918945 2.4141962826251984,-6.646855013059394e-06 l5.33856987953186,0.00014267703591031022 3.3021005988121033,1.0393133014440536 l5.979160666465759,3.695028453876148e-05 12.397228479385376,-2.559918463230133 l3.7743955850601196,2.9720482230186462 1.4266212284564972,1.2733913958072662 l1.9952401518821716,2.5762122869491577 1.1879225820302963,1.1862380057573318 l1.3915567100048065,0.6736315786838531 1.7638041079044342,0.00011500596883706748 l1.7349904775619507,-0.7663538306951523 -1.353716254234314,0.19624046981334686 l0.3105993941426277,-2.347562611103058 0.4655076563358307,-2.0740169286727905 l-0.2624313533306122,-5.808684825897217 0.45067891478538513,-3.492138683795929 l1.922280490398407,-3.1481876969337463 2.0492489635944366,5.8580851554870605 l1.6804273426532745,1.6837112605571747 0.00015748488294775598,1.7995403707027435 l0.43156713247299194,3.342321217060089 -0.44702012091875076,1.1465400457382202 l0.33783745020627975,3.3130869269371033 -0.8169478923082352,5.016732811927795 l-1.3087881711726368e-06,0.43517444282770157 0.3672550246119499,1.9721268117427826 l1.691407561302185,-1.390983760356903 0.5144305899739265,-1.9437116384506226 l-0.747295618057251,-5.984047055244446 0.5418465659022331,-4.211484789848328 l1.1523421108722687,-1.838638037443161 0.26017606258392334,-0.6901641935110092 l0.41215289384126663,0.286567322909832 0.5395067110657692,2.475036233663559 l1.050209328532219,0.27145229279994965 m7.962476047396194e-05,4.137601852416992 l-0.9687218815088272,0.9445197135210037 -3.982192575931549,-12.374836206436157 l-4.476196467876434,-1.24440036714077 m-31.08487367630005,3.4978747367858887 l2.048032432794571,3.2778987288475037 2.5861647725105286,4.473966956138611 l3.5275468230247498,9.633761048316956 1.7768390476703644,3.0872392654418945 l-1.668531745672226,-0.7640955597162247 -4.574427306652069,-4.735864996910095 l-0.50814189016819,-1.6471122205257416 0.00042891719203907996,-3.793998062610626 l-2.937690019607544,-6.056345701217651 -1.6194237768650055,-5.494952201843262 m-6.031022071838379,3.9133822917938232 l0.00045368280552793294,1.182292327284813 -1.501016914844513,4.089986681938171 l5.62531658943044e-05,5.38876473903656 1.1376401036977768,1.8991047143936157 l-0.00033299900678684935,0.3545825928449631 1.660277098417282,2.273457795381546 l-0.9359092265367508,1.2121599912643433 -1.3142003118991852,0.9818758070468903 l0.013096964685246348,1.9600476324558258 1.3051138818264008,7.899224328866694e-05 l1.8119636178016663,-0.3809776157140732 1.7657236754894257,-1.2052527070045471 l-1.4726611971855164,-10.202144384384155 -0.5391000583767891,-1.4892160892486572 l-1.9650939106941223,-6.185514330863953 -0.6287126988172531,-1.0818874835968018 l-1.1902528740392881e-05,-1.263241469860077 m25.321402549743652,-18.94209384918213 l0.6465999782085419,0.00016100706488941796 0.6341971457004547,-1.2461791187524796 l0.295131653547287,-3.1920012831687927 3.353976309299469,-4.752768576145172 m-2.48029962182045,0.0006441243021981791 l0.03504473716020584,-2.293698787689209 0.436047725379467,-0.3126022592186928 l1.0656798630952835,-1.8162976205348969 1.700025349855423,-1.1579425632953644 l3.1576958298683167,0.00014928359632904176 0.6248657777905464,0.42129822075366974 l0.0003340125476825051,-0.48409007489681244 2.6312044262886047,-0.9060013294219971 l5.745369791984558,-0.00012832406355300918 3.2387152314186096,1.2760092318058014 l2.4016571044921875,2.40839347243309 2.305762618780136,3.108994960784912 l1.3598494231700897,3.8121771812438965 0.10735022835433483,2.1766285598278046 l1.2103387713432312,2.510540187358856 0.00014109662515693344,2.425682544708252 l-2.1556217968463898,3.8328182697296143 -2.087048888206482,0.689859464764595 l-3.7016507983207703,-1.8276083437740454e-05 -2.6276156306266785,-1.4910154044628143 l-3.2825276255607605,0.0003022124292328954 -2.6304173469543457,0.0003612677028286271 m18.470531702041626,-5.345792174339294 l0.23737125098705292,0.4007561132311821 -0.00012860450624430086,0.9005770832300186 l-0.511886328458786,2.6942667365074158 -1.285945177078247,1.5005971491336823 l-0.00030476003303192556,-1.8194644153118134 -0.15462936833500862,-0.00013402875993051566 l0.0002898624734370969,-1.254325956106186 -0.9285216778516769,-0.00031250587198883295 l3.3554190397262573,-1.0935334861278534 m0.43096113950014114,-13.204904794692993 l-0.12138159014284611,-1.1944721639156342 -4.943087100982666,-2.0875029265880585 l-0.35650141537189484,0.9524808824062347 1.4269085228443146,3.00572007894516 l-0.0002250562647532206,3.253720998764038 2.048700600862503,-0.0003908932922058739 l-0.0005323867662809789,0.26444245129823685 2.7884641289711,0.00014311295672087 l1.1400148272514343,-1.6637477278709412 m-56.78253650665283,-0.10746476240456104 l1.8243072926998138,0.4463394731283188 3.3474618196487427,0.9629258513450623 l4.027368724346161,-0.15907743945717812 2.0141756534576416,-0.9447565674781799 l0.25650547817349434,-1.6433696448802948 0.22967247292399406,-0.6259860098361969 l-0.7460041344165802,-1.8621215224266052 -0.9966340661048889,-1.240498200058937 l-0.3430892527103424,0.00021494326574611478 -0.994669646024704,0.40465936064720154 m-16.873551607131958,1.4954648911952972 l-0.2865852788090706,-0.8152075111865997 -0.757644847035408,-0.7881718873977661 l-0.00025235663997591473,-1.9444338977336884 2.4590831995010376,-2.124920040369034 l3.9050373435020447,-1.0250361263751984 2.0126964151859283,0.2620599791407585 l0.00010697430298023392,2.3576925694942474 1.274745613336563,-0.0002611718991829548 l1.7181745171546936,2.0266136527061462 -0.4197333753108978,2.451455593109131 m-3.0860161781311035,-1.944258064031601 l-1.042305901646614,-0.9322686493396759 -2.530541718006134,-1.431518942117691 l-1.2468437850475311,0.2373327873647213 -0.9370961040258408,1.459244191646576 m-1.0241660475730896,1.2849196791648865 l-3.935396373271942,0.24000277742743492 -0.7784988731145859,0.7322704046964645 l7.44237877370324e-05,1.144876405596733 -4.594878554344177,2.7406617999076843 l-0.5254332348704338,1.8463847041130066 2.0202678442001343,1.3284115493297577 l2.9355496168136597,0.7605487108230591 m6.8310606479644775,-9.19584035873413 l0.732043907046318,0.25707269087433815 0.9640899300575256,0.7241398096084595 l-0.00011332330359437037,-1.229904368519783 3.8243767619132996,-2.0934179425239563 l2.5802505016326904,-0.1311707589775324 0.00046443303290288895,2.888284921646118 l-3.0665773153305054,1.7690925300121307 0.3423174098134041,-1.284748911857605 l0.8301956206560135,-0.657922700047493 m21.846680641174316,18.62627148628235 l-2.7102062106132507,0.5476154014468193 -0.5839096754789352,0.9465501457452774 l0.0002661145117599517,0.6760883331298828 -0.5259772390127182,0.22034741938114166 l0.00014258691408031154,-0.4274940863251686 -0.7382642477750778,7.29966495782719e-05 l0.00017093998394557275,1.173432245850563 -1.2056461721658707,1.514579951763153 l-1.8649564683437347,3.787502646446228 -1.3072440028190613,0.5866743996739388 l-0.4301224648952484,0.8352457731962204 2.4088886380195618,-1.1030294746160507 l1.0955046862363815,-1.2798170745372772 -0.18614113330841064,-0.8720877766609192 l-0.7896248251199722,0.00010213916539214551 5.4525935411220416e-05,-2.603136897087097 m5.804780125617981,3.4607383608818054 l-0.0002333773227292113,2.5466421246528625 0.9405352175235748,0.8700184524059296 l2.823024094104767,-9.606026651454158e-05 1.6891391575336456,-1.8379317224025726 l2.0778100192546844,-2.175750751121086e-05 -2.7440046324045397e-05,-0.9442287683486938 l-0.180665273219347,-2.548595368862152 -1.383824497461319,0.000534177634108346 l-6.12987287240685e-05,0.07446793373674154 -0.56339330971241,-0.6329245120286942 l-0.6566059589385986,-0.0005835784031660296 -0.8277067542076111,0.36419738084077835 l-2.7551275491714478,-1.877661645412445 -3.2594776153564453,0.00015834175428608432 l0.0004887448085355572,1.4988619089126587 m13.738746643066406,-14.971837997436523 l0.22432440891861916,-0.6053547188639641 4.829800724983215,0.0006297264917520806 l2.5883379578590393,1.6131693124771118 4.840399324893951,5.9719318151474 l-0.0005262289050733671,0.024774600751698017 -0.47848477959632874,0.19631005823612213 l-0.05792745854705572,0.703924372792244 2.4140116572380066,6.234205961227417 l-1.3790376484394073,1.4030209183692932 -0.8773817121982574,-0.12078178115189075 l-1.0897623002529144,0.8286572992801666 -3.8719788193702698,-7.237637191792601e-06 m21.209491304717574,-14.93892738827924 l4.210599064826965,-0.04452880937606096 5.324528813362122,-3.7707331776618958 l8.372592329978943,-7.534318566322327 2.549141049385071,-0.5213874205946922 l3.4770289063453674,1.0705740749835968 1.094902977347374,1.7162512242794037 l-0.35581521689891815,0.5989330261945724 0.0007074214954627678,1.009020060300827 l-1.2368861585855484,4.023380875587463 -5.441827774047852,6.643664240837097 l-3.6719146370887756,0.2423684112727642 -0.8040338754653931,-1.0402543097734451 l4.6346235275268555,-6.288211345672607 2.355028986930847,-2.721434533596039 l4.208110868930817,-3.0093276500701904 7.555450201034546,2.5611436740291538e-05 l4.25523966550827,1.4783468842506409 3.2462316751480103,2.5489524006843567 l1.8676866590976715,1.973126083612442 0.2787741646170616,6.740792989730835 l1.0456540435552597,0.838528573513031 3.6453810334205627,0.2857750467956066 l11.054540872573853,2.3458348214626312 7.873432040214539,0.26931922882795334 l11.174811124801636,2.0707401633262634 3.275478184223175,1.6861572861671448 l1.47629052400589,2.3983703553676605 -6.0621514421654865e-05,4.094682037830353 l-0.45944560319185257,4.855093061923981 m-7.072216868400574,-10.710091590881348 l1.6474585235118866,7.385132908821106 0.8626013249158859,1.3844044506549835 l0.00031537732866127044,3.7545955181121826 -0.8329349011182785,2.1248506009578705 l-1.1902404576539993,0.46236924827098846 m-12.419956922531128,-10.717916488647461 l0.5979598686099052,9.419518113136292 -0.9959159046411514,0.6507109850645065 l3.92912488678121e-05,4.369643032550812 0.22670770063996315,4.786153435707092 l-1.10027514398098,4.319526553153992 -0.42778123170137405,1.0063111037015915 l2.1038812398910522,-0.0001137665913120145 0.1703638769686222,-0.2047700621187687 l0.4562429338693619,-6.440935134887695 2.851935923099518,-7.845155596733093 l1.2332332134246826,-2.3280321061611176 m0.6630612164735794,1.1437196008046158e-05 l-0.0004450016058399342,0.609288178384304 -0.14043698087334633,1.070987582206726 l-1.4867286384105682,4.137992560863495 0.46096421778202057,10.13559103012085 l-1.5342280268669128,1.5861192345619202 -0.5074488744139671,-0.49793004989624023 l0.00014660864508186933,-7.185475826263428 0.2173270285129547,-8.697434663772583 l0.7569555938243866,-3.1093180179595947 m-48.942270278930664,-9.471486210823059 l-0.7100089639425278,1.295628696680069 0.3526327759027481,4.103271067142487 l0.8846596628427505,0.964721217751503 0.01048280275426805,-3.7127214670181274 l0.7554642856121063,-2.87342369556427 -0.6839922815561295,-2.2196222841739655 l-0.00040986309613799676,4.034217596054077 m5.906371474266052,1.3676390051841736 l-0.033507831394672394,0.0008748081745579839 -1.7088253796100616,4.138656854629517 l0.30617251992225647,2.0514941215515137 0.6541404873132706,1.1211472749710083 m-2.9199987649917603,0.39647746831178665 l-0.0646107504144311,1.40706866979599 2.2746236622333527,1.8276003003120422 m1.5187345445156097,-1.841876059770584 l3.664040267467499,0.0002489616963430308 15.41487455368042,0.04136154428124428 l1.422293484210968,-1.3230596482753754 1.171664297580719,-2.080681622028351 l0.3700314089655876,-1.214543879032135 m-56.0563325881958,-11.750518083572388 l1.6242413222789764,2.3105262219905853 2.287701815366745,1.0623058676719666 l6.154072284698486,0.2615458332002163 2.60062038898468,-0.5559250339865685 l0.5420131981372833,-0.6234820559620857 1.0888534039258957,-0.9341754019260406 l9.741045236587524,0.2771325223147869 1.755097508430481,-1.4395861327648163 l2.134303003549576,-3.7490075826644897 1.7684504389762878,-6.360626220703125 l2.3039868474006653,0.2877437509596348 m-11.132452487945557,2.322891801595688 l-0.28797561302781105,1.0459094494581223 -0.32033927738666534,0.9395330399274826 l-2.9453304409980774,7.49794602394104 -0.007953877211548388,0.10176210664212704 l-1.1715297400951385,-0.02907296409830451 -1.5918546915054321,1.6491158306598663 l-3.0389702320098877,1.2216300517320633 -5.435130596160889,-0.24720843881368637 l-0.851452425122261,0.6176760792732239 -0.6646042317152023,2.6607391238212585 l0.21187346428632736,1.357235610485077 7.6912325620651245,-0.4739541932940483 l0.5090006068348885,0.2343699149787426 4.132677316665649,0.00028896356525365263 l1.7452724277973175,-0.7367133349180222 1.8503230810165405,-7.385575175285339 l1.9838428497314453,-1.2993529438972473 2.4276088178157806,-0.0002611035779409576 l0.5664734542369843,0.7693417370319366 0.031146202236413956,1.1972659081220627 m7.992232441902161,-19.117292165756226 l0.30507946386933327,-0.03526525339111686 0.13409916311502457,0.08087898604571819 l-1.2106767296791077,-0.33158760517835617 -1.0437391698360443,0.2578338421881199 l4.908569280814845e-05,0.6225309893488884 2.0342333614826202,-9.288621185987722e-05 l-0.46106450259685516,-0.7163888961076736 -0.000374276569345966,-0.5242346599698067 l-0.7294734567403793,0.8980587869882584 m5.316643714904785,6.840720176696777 l-2.1566499769687653,0.0006732393376296386 -4.164294004440308,2.414005547761917 l-4.87629771232605,2.9026854038238525 -0.4423835501074791,0.2710016258060932 l2.0333096385002136,-9.302796570409555e-05 1.1734448373317719,-0.4939674213528633 l1.2627089023590088,0.15189334750175476 -0.13177039101719856,-2.437358647584915 l-2.846357524394989,0.5003470182418823 3.0467835068702698,0.5723252147436142 l0.5418225005269051,-0.7108435779809952 1.3156931102275848,-2.8467634320259094 l0.27751145884394646,-0.503849945962429 -0.26297781616449356,-0.3230159357190132 m2.298176884651184,7.509957551956177 l1.8553483486175537,-0.00013683203178516123 0.00019121967852697708,-1.6844063997268677 m-16.75797700881958,-4.806854426860809 l0.00026060455638798885,7.567733526229858 0.0002313437835255172,-4.483585059642792 l-1.3473787903785706,-7.625797390937805 1.2377014011144638,0.00046657372877234593 l1.1758459359407425,0.7337379455566406 0.7015608996152878,1.0265575349330902 l-0.32415736466646194,2.7236029505729675 -3.386475443840027,0.9789294749498367 l3.053346872329712,0.2704732306301594 -0.3410383313894272,3.914463520050049 l-3.7790662050247192,0.7659167796373367 m4.493720829486847,-2.107379138469696 l0.970224067568779,-0.8866520971059799 0.3189399465918541,1.4217282831668854 l-0.00024106813725666143,0.7968020439147949 -0.640113577246666,0.9847114980220795 l-0.18734050914645195,-0.0001235091986018233 -0.6189686805009842,0.0545274605974555 l0.22501254454255104,0.27287306264042854 0.46589717268943787,-0.13379703275859356 l2.6424965262413025,-1.4818809926509857 0.27378110215067863,1.3771238923072815 l-0.06182178854942322,1.2513330578804016 0.10288728401064873,2.7155494990438456e-05 l-0.00015438188711414114,-1.6302870213985443 1.0241641104221344,0.00026961421099258587 l0.45132044702768326,2.3069459199905396 0.8336953073740005,-0.4159306362271309 l-0.00019767545381910168,-3.7974131107330322 0.47809191048145294,-0.5179073661565781 l2.4200059473514557,-0.11883475817739964 m-1.1794793605804443,-5.034834146499634 l-0.2759178727865219,2.3559556901454926 0.3447302058339119,1.6947990655899048 l2.9737046360969543,-0.002258338499814272 0.2561664767563343,-1.680769920349121 l-0.5492059886455536,1.9075145907265778e-08 -0.00014794732123846188,2.4265608191490173 m6.333000063896179,3.7190765142440796 l0.06242350209504366,0.000948196102399379 -0.0003628208287409507,-2.669471800327301 l-1.058087795972824,0.00013534622667066287 0.1650555431842804,1.3047532737255096 l0.6766116619110107,0.6842929124832153 1.6438935697078705,0.3128349035978317 l0.2403990738093853,0.7400494813919067 0.6551452726125717,0.6665286421775818 m6.968657970428467,0.0015578664897475392 l1.1175617575645447,-0.8194883167743683 -0.0005404205512604676,-2.4606022238731384 l-1.3384482264518738,-0.621001198887825 -0.07167598232626915,1.6065040230751038 l3.2515758275985718,1.9150133430957794 2.540314793586731,0.00020738192688440904 m0.18142906948924065,-8.030388355255127 l3.283393383026123,-0.7248149812221527 1.6566899418830872,0.00011934434951399453 l0.6831793487071991,1.5537093579769135 -0.854722410440445,2.383463829755783 l-1.3026103377342224,0.00015510129742324352 -2.3318813741207123,1.863931566476822 l-2.7611031327978708e-05,0.9314925223588943 1.5281668305397034,0.2624419145286083 l0.8361512422561646,-0.5242350324988365 -0.6805644184350967,1.2264233082532883 m-14.422425031661987,18.678839206695557 l-2.483966052532196,0.00033986380003625527 -1.145000010728836,-1.4235787093639374 l-1.566939651966095,-2.1721507608890533 1.4867860078811646,-2.7744469046592712 l1.304207295179367,-1.0375836491584778 -0.7773219048976898,-1.0068745911121368 l-2.1871912849746877e-05,2.743898630142212 -0.4304254427552223,-2.599577009677887 l-0.11650481261312962,-0.43307308107614517 2.535455822944641,0.16821933910250664 " fill="none" stroke="black" stroke-width="1"/></svg>